G04 #@! TF.GenerationSoftware,KiCad,Pcbnew,(5.1.7)-1*
G04 #@! TF.CreationDate,2020-10-06T16:51:20+07:00*
G04 #@! TF.ProjectId,PIC16F1X_KIT2019,50494331-3646-4315-985f-4b4954323031,rev?*
G04 #@! TF.SameCoordinates,Original*
G04 #@! TF.FileFunction,Legend,Bot*
G04 #@! TF.FilePolarity,Positive*
%FSLAX46Y46*%
G04 Gerber Fmt 4.6, Leading zero omitted, Abs format (unit mm)*
G04 Created by KiCad (PCBNEW (5.1.7)-1) date 2020-10-06 16:51:20*
%MOMM*%
%LPD*%
G01*
G04 APERTURE LIST*
%ADD10C,0.300000*%
%ADD11C,0.200000*%
%ADD12C,0.500000*%
%ADD13C,0.120000*%
%ADD14C,0.100000*%
%ADD15C,0.150000*%
G04 APERTURE END LIST*
D10*
X63353440Y-55001245D02*
X63353440Y-56372674D01*
X65150297Y-55286960D02*
X63950297Y-55286960D01*
X64807440Y-55686960D01*
X63950297Y-56086960D01*
X65150297Y-56086960D01*
D11*
X66217742Y-24002354D02*
X65303457Y-24002354D01*
X65760600Y-24459497D02*
X65760600Y-23545211D01*
D10*
X34059554Y-62077040D02*
X34173840Y-62019897D01*
X34345268Y-62019897D01*
X34516697Y-62077040D01*
X34630982Y-62191325D01*
X34688125Y-62305611D01*
X34745268Y-62534182D01*
X34745268Y-62705611D01*
X34688125Y-62934182D01*
X34630982Y-63048468D01*
X34516697Y-63162754D01*
X34345268Y-63219897D01*
X34230982Y-63219897D01*
X34059554Y-63162754D01*
X34002411Y-63105611D01*
X34002411Y-62705611D01*
X34230982Y-62705611D01*
X32802411Y-63219897D02*
X33202411Y-62648468D01*
X33488125Y-63219897D02*
X33488125Y-62019897D01*
X33030982Y-62019897D01*
X32916697Y-62077040D01*
X32859554Y-62134182D01*
X32802411Y-62248468D01*
X32802411Y-62419897D01*
X32859554Y-62534182D01*
X32916697Y-62591325D01*
X33030982Y-62648468D01*
X33488125Y-62648468D01*
X32288125Y-62591325D02*
X31888125Y-62591325D01*
X31716697Y-63219897D02*
X32288125Y-63219897D01*
X32288125Y-62019897D01*
X31716697Y-62019897D01*
X31202411Y-62591325D02*
X30802411Y-62591325D01*
X30630982Y-63219897D02*
X31202411Y-63219897D01*
X31202411Y-62019897D01*
X30630982Y-62019897D01*
X30116697Y-63219897D02*
X30116697Y-62019897D01*
X29430982Y-63219897D01*
X29430982Y-62019897D01*
X28516697Y-63677040D02*
X28573840Y-63619897D01*
X28688125Y-63448468D01*
X28745268Y-63334182D01*
X28802411Y-63162754D01*
X28859554Y-62877040D01*
X28859554Y-62648468D01*
X28802411Y-62362754D01*
X28745268Y-62191325D01*
X28688125Y-62077040D01*
X28573840Y-61905611D01*
X28516697Y-61848468D01*
X28116697Y-63162754D02*
X27945268Y-63219897D01*
X27659554Y-63219897D01*
X27545268Y-63162754D01*
X27488125Y-63105611D01*
X27430982Y-62991325D01*
X27430982Y-62877040D01*
X27488125Y-62762754D01*
X27545268Y-62705611D01*
X27659554Y-62648468D01*
X27888125Y-62591325D01*
X28002411Y-62534182D01*
X28059554Y-62477040D01*
X28116697Y-62362754D01*
X28116697Y-62248468D01*
X28059554Y-62134182D01*
X28002411Y-62077040D01*
X27888125Y-62019897D01*
X27602411Y-62019897D01*
X27430982Y-62077040D01*
X26973840Y-62134182D02*
X26916697Y-62077040D01*
X26802411Y-62019897D01*
X26516697Y-62019897D01*
X26402411Y-62077040D01*
X26345268Y-62134182D01*
X26288125Y-62248468D01*
X26288125Y-62362754D01*
X26345268Y-62534182D01*
X27030982Y-63219897D01*
X26288125Y-63219897D01*
X25888125Y-63677040D02*
X25830982Y-63619897D01*
X25716697Y-63448468D01*
X25659554Y-63334182D01*
X25602411Y-63162754D01*
X25545268Y-62877040D01*
X25545268Y-62648468D01*
X25602411Y-62362754D01*
X25659554Y-62191325D01*
X25716697Y-62077040D01*
X25830982Y-61905611D01*
X25888125Y-61848468D01*
X34312234Y-41535988D02*
X34312234Y-42107417D01*
X34712234Y-40907417D02*
X34312234Y-41535988D01*
X33912234Y-40907417D01*
X33512234Y-41478845D02*
X33112234Y-41478845D01*
X32940805Y-42107417D02*
X33512234Y-42107417D01*
X33512234Y-40907417D01*
X32940805Y-40907417D01*
X31855091Y-42107417D02*
X32426520Y-42107417D01*
X32426520Y-40907417D01*
X30883662Y-42107417D02*
X31455091Y-42107417D01*
X31455091Y-40907417D01*
X30255091Y-40907417D02*
X30026520Y-40907417D01*
X29912234Y-40964560D01*
X29797948Y-41078845D01*
X29740805Y-41307417D01*
X29740805Y-41707417D01*
X29797948Y-41935988D01*
X29912234Y-42050274D01*
X30026520Y-42107417D01*
X30255091Y-42107417D01*
X30369377Y-42050274D01*
X30483662Y-41935988D01*
X30540805Y-41707417D01*
X30540805Y-41307417D01*
X30483662Y-41078845D01*
X30369377Y-40964560D01*
X30255091Y-40907417D01*
X29340805Y-40907417D02*
X29055091Y-42107417D01*
X28826520Y-41250274D01*
X28597948Y-42107417D01*
X28312234Y-40907417D01*
X27512234Y-42564560D02*
X27569377Y-42507417D01*
X27683662Y-42335988D01*
X27740805Y-42221702D01*
X27797948Y-42050274D01*
X27855091Y-41764560D01*
X27855091Y-41535988D01*
X27797948Y-41250274D01*
X27740805Y-41078845D01*
X27683662Y-40964560D01*
X27569377Y-40793131D01*
X27512234Y-40735988D01*
X27112234Y-42050274D02*
X26940805Y-42107417D01*
X26655091Y-42107417D01*
X26540805Y-42050274D01*
X26483662Y-41993131D01*
X26426520Y-41878845D01*
X26426520Y-41764560D01*
X26483662Y-41650274D01*
X26540805Y-41593131D01*
X26655091Y-41535988D01*
X26883662Y-41478845D01*
X26997948Y-41421702D01*
X27055091Y-41364560D01*
X27112234Y-41250274D01*
X27112234Y-41135988D01*
X27055091Y-41021702D01*
X26997948Y-40964560D01*
X26883662Y-40907417D01*
X26597948Y-40907417D01*
X26426520Y-40964560D01*
X25397948Y-41307417D02*
X25397948Y-42107417D01*
X25683662Y-40850274D02*
X25969377Y-41707417D01*
X25226520Y-41707417D01*
X24883662Y-42564560D02*
X24826520Y-42507417D01*
X24712234Y-42335988D01*
X24655091Y-42221702D01*
X24597948Y-42050274D01*
X24540805Y-41764560D01*
X24540805Y-41535988D01*
X24597948Y-41250274D01*
X24655091Y-41078845D01*
X24712234Y-40964560D01*
X24826520Y-40793131D01*
X24883662Y-40735988D01*
X112509965Y-41438205D02*
X112338537Y-41495348D01*
X112281394Y-41552491D01*
X112224251Y-41666777D01*
X112224251Y-41838205D01*
X112281394Y-41952491D01*
X112338537Y-42009634D01*
X112452822Y-42066777D01*
X112909965Y-42066777D01*
X112909965Y-40866777D01*
X112509965Y-40866777D01*
X112395680Y-40923920D01*
X112338537Y-40981062D01*
X112281394Y-41095348D01*
X112281394Y-41209634D01*
X112338537Y-41323920D01*
X112395680Y-41381062D01*
X112509965Y-41438205D01*
X112909965Y-41438205D01*
X111138537Y-42066777D02*
X111709965Y-42066777D01*
X111709965Y-40866777D01*
X110738537Y-40866777D02*
X110738537Y-41838205D01*
X110681394Y-41952491D01*
X110624251Y-42009634D01*
X110509965Y-42066777D01*
X110281394Y-42066777D01*
X110167108Y-42009634D01*
X110109965Y-41952491D01*
X110052822Y-41838205D01*
X110052822Y-40866777D01*
X109481394Y-41438205D02*
X109081394Y-41438205D01*
X108909965Y-42066777D02*
X109481394Y-42066777D01*
X109481394Y-40866777D01*
X108909965Y-40866777D01*
X108052822Y-42523920D02*
X108109965Y-42466777D01*
X108224251Y-42295348D01*
X108281394Y-42181062D01*
X108338537Y-42009634D01*
X108395680Y-41723920D01*
X108395680Y-41495348D01*
X108338537Y-41209634D01*
X108281394Y-41038205D01*
X108224251Y-40923920D01*
X108109965Y-40752491D01*
X108052822Y-40695348D01*
X107652822Y-42009634D02*
X107481394Y-42066777D01*
X107195680Y-42066777D01*
X107081394Y-42009634D01*
X107024251Y-41952491D01*
X106967108Y-41838205D01*
X106967108Y-41723920D01*
X107024251Y-41609634D01*
X107081394Y-41552491D01*
X107195680Y-41495348D01*
X107424251Y-41438205D01*
X107538537Y-41381062D01*
X107595680Y-41323920D01*
X107652822Y-41209634D01*
X107652822Y-41095348D01*
X107595680Y-40981062D01*
X107538537Y-40923920D01*
X107424251Y-40866777D01*
X107138537Y-40866777D01*
X106967108Y-40923920D01*
X106567108Y-40866777D02*
X105824251Y-40866777D01*
X106224251Y-41323920D01*
X106052822Y-41323920D01*
X105938537Y-41381062D01*
X105881394Y-41438205D01*
X105824251Y-41552491D01*
X105824251Y-41838205D01*
X105881394Y-41952491D01*
X105938537Y-42009634D01*
X106052822Y-42066777D01*
X106395680Y-42066777D01*
X106509965Y-42009634D01*
X106567108Y-41952491D01*
X105424251Y-42523920D02*
X105367108Y-42466777D01*
X105252822Y-42295348D01*
X105195680Y-42181062D01*
X105138537Y-42009634D01*
X105081394Y-41723920D01*
X105081394Y-41495348D01*
X105138537Y-41209634D01*
X105195680Y-41038205D01*
X105252822Y-40923920D01*
X105367108Y-40752491D01*
X105424251Y-40695348D01*
X109862051Y-63397697D02*
X110262051Y-62826268D01*
X110547765Y-63397697D02*
X110547765Y-62197697D01*
X110090622Y-62197697D01*
X109976337Y-62254840D01*
X109919194Y-62311982D01*
X109862051Y-62426268D01*
X109862051Y-62597697D01*
X109919194Y-62711982D01*
X109976337Y-62769125D01*
X110090622Y-62826268D01*
X110547765Y-62826268D01*
X109347765Y-62769125D02*
X108947765Y-62769125D01*
X108776337Y-63397697D02*
X109347765Y-63397697D01*
X109347765Y-62197697D01*
X108776337Y-62197697D01*
X108262051Y-63397697D02*
X108262051Y-62197697D01*
X107976337Y-62197697D01*
X107804908Y-62254840D01*
X107690622Y-62369125D01*
X107633480Y-62483411D01*
X107576337Y-62711982D01*
X107576337Y-62883411D01*
X107633480Y-63111982D01*
X107690622Y-63226268D01*
X107804908Y-63340554D01*
X107976337Y-63397697D01*
X108262051Y-63397697D01*
X106719194Y-63854840D02*
X106776337Y-63797697D01*
X106890622Y-63626268D01*
X106947765Y-63511982D01*
X107004908Y-63340554D01*
X107062051Y-63054840D01*
X107062051Y-62826268D01*
X107004908Y-62540554D01*
X106947765Y-62369125D01*
X106890622Y-62254840D01*
X106776337Y-62083411D01*
X106719194Y-62026268D01*
X106319194Y-63340554D02*
X106147765Y-63397697D01*
X105862051Y-63397697D01*
X105747765Y-63340554D01*
X105690622Y-63283411D01*
X105633480Y-63169125D01*
X105633480Y-63054840D01*
X105690622Y-62940554D01*
X105747765Y-62883411D01*
X105862051Y-62826268D01*
X106090622Y-62769125D01*
X106204908Y-62711982D01*
X106262051Y-62654840D01*
X106319194Y-62540554D01*
X106319194Y-62426268D01*
X106262051Y-62311982D01*
X106204908Y-62254840D01*
X106090622Y-62197697D01*
X105804908Y-62197697D01*
X105633480Y-62254840D01*
X104490622Y-63397697D02*
X105176337Y-63397697D01*
X104833480Y-63397697D02*
X104833480Y-62197697D01*
X104947765Y-62369125D01*
X105062051Y-62483411D01*
X105176337Y-62540554D01*
X104090622Y-63854840D02*
X104033480Y-63797697D01*
X103919194Y-63626268D01*
X103862051Y-63511982D01*
X103804908Y-63340554D01*
X103747765Y-63054840D01*
X103747765Y-62826268D01*
X103804908Y-62540554D01*
X103862051Y-62369125D01*
X103919194Y-62254840D01*
X104033480Y-62083411D01*
X104090622Y-62026268D01*
X92332205Y-22165845D02*
X92160777Y-22222988D01*
X92103634Y-22280131D01*
X92046491Y-22394417D01*
X92046491Y-22565845D01*
X92103634Y-22680131D01*
X92160777Y-22737274D01*
X92275062Y-22794417D01*
X92732205Y-22794417D01*
X92732205Y-21594417D01*
X92332205Y-21594417D01*
X92217920Y-21651560D01*
X92160777Y-21708702D01*
X92103634Y-21822988D01*
X92103634Y-21937274D01*
X92160777Y-22051560D01*
X92217920Y-22108702D01*
X92332205Y-22165845D01*
X92732205Y-22165845D01*
X91532205Y-21594417D02*
X91532205Y-22565845D01*
X91475062Y-22680131D01*
X91417920Y-22737274D01*
X91303634Y-22794417D01*
X91075062Y-22794417D01*
X90960777Y-22737274D01*
X90903634Y-22680131D01*
X90846491Y-22565845D01*
X90846491Y-21594417D01*
X90446491Y-21594417D02*
X89760777Y-21594417D01*
X90103634Y-22794417D02*
X90103634Y-21594417D01*
X89646491Y-22908702D02*
X88732205Y-22908702D01*
X87760777Y-22794417D02*
X88160777Y-22222988D01*
X88446491Y-22794417D02*
X88446491Y-21594417D01*
X87989348Y-21594417D01*
X87875062Y-21651560D01*
X87817920Y-21708702D01*
X87760777Y-21822988D01*
X87760777Y-21994417D01*
X87817920Y-22108702D01*
X87875062Y-22165845D01*
X87989348Y-22222988D01*
X88446491Y-22222988D01*
X87246491Y-22165845D02*
X86846491Y-22165845D01*
X86675062Y-22794417D02*
X87246491Y-22794417D01*
X87246491Y-21594417D01*
X86675062Y-21594417D01*
X86160777Y-22794417D02*
X86160777Y-21594417D01*
X85875062Y-21594417D01*
X85703634Y-21651560D01*
X85589348Y-21765845D01*
X85532205Y-21880131D01*
X85475062Y-22108702D01*
X85475062Y-22280131D01*
X85532205Y-22508702D01*
X85589348Y-22622988D01*
X85703634Y-22737274D01*
X85875062Y-22794417D01*
X86160777Y-22794417D01*
X84046491Y-22337274D02*
X83132205Y-22337274D01*
X82160777Y-22165845D02*
X81989348Y-22222988D01*
X81932205Y-22280131D01*
X81875062Y-22394417D01*
X81875062Y-22565845D01*
X81932205Y-22680131D01*
X81989348Y-22737274D01*
X82103634Y-22794417D01*
X82560777Y-22794417D01*
X82560777Y-21594417D01*
X82160777Y-21594417D01*
X82046491Y-21651560D01*
X81989348Y-21708702D01*
X81932205Y-21822988D01*
X81932205Y-21937274D01*
X81989348Y-22051560D01*
X82046491Y-22108702D01*
X82160777Y-22165845D01*
X82560777Y-22165845D01*
X80675062Y-22680131D02*
X80732205Y-22737274D01*
X80903634Y-22794417D01*
X81017920Y-22794417D01*
X81189348Y-22737274D01*
X81303634Y-22622988D01*
X81360777Y-22508702D01*
X81417920Y-22280131D01*
X81417920Y-22108702D01*
X81360777Y-21880131D01*
X81303634Y-21765845D01*
X81189348Y-21651560D01*
X81017920Y-21594417D01*
X80903634Y-21594417D01*
X80732205Y-21651560D01*
X80675062Y-21708702D01*
X79646491Y-21994417D02*
X79646491Y-22794417D01*
X79932205Y-21537274D02*
X80217920Y-22394417D01*
X79475062Y-22394417D01*
X92332205Y-24265845D02*
X92160777Y-24322988D01*
X92103634Y-24380131D01*
X92046491Y-24494417D01*
X92046491Y-24665845D01*
X92103634Y-24780131D01*
X92160777Y-24837274D01*
X92275062Y-24894417D01*
X92732205Y-24894417D01*
X92732205Y-23694417D01*
X92332205Y-23694417D01*
X92217920Y-23751560D01*
X92160777Y-23808702D01*
X92103634Y-23922988D01*
X92103634Y-24037274D01*
X92160777Y-24151560D01*
X92217920Y-24208702D01*
X92332205Y-24265845D01*
X92732205Y-24265845D01*
X91532205Y-23694417D02*
X91532205Y-24665845D01*
X91475062Y-24780131D01*
X91417920Y-24837274D01*
X91303634Y-24894417D01*
X91075062Y-24894417D01*
X90960777Y-24837274D01*
X90903634Y-24780131D01*
X90846491Y-24665845D01*
X90846491Y-23694417D01*
X90446491Y-23694417D02*
X89760777Y-23694417D01*
X90103634Y-24894417D02*
X90103634Y-23694417D01*
X89646491Y-25008702D02*
X88732205Y-25008702D01*
X87817920Y-23751560D02*
X87932205Y-23694417D01*
X88103634Y-23694417D01*
X88275062Y-23751560D01*
X88389348Y-23865845D01*
X88446491Y-23980131D01*
X88503634Y-24208702D01*
X88503634Y-24380131D01*
X88446491Y-24608702D01*
X88389348Y-24722988D01*
X88275062Y-24837274D01*
X88103634Y-24894417D01*
X87989348Y-24894417D01*
X87817920Y-24837274D01*
X87760777Y-24780131D01*
X87760777Y-24380131D01*
X87989348Y-24380131D01*
X86560777Y-24894417D02*
X86960777Y-24322988D01*
X87246491Y-24894417D02*
X87246491Y-23694417D01*
X86789348Y-23694417D01*
X86675062Y-23751560D01*
X86617920Y-23808702D01*
X86560777Y-23922988D01*
X86560777Y-24094417D01*
X86617920Y-24208702D01*
X86675062Y-24265845D01*
X86789348Y-24322988D01*
X87246491Y-24322988D01*
X86046491Y-24894417D02*
X86046491Y-23694417D01*
X85360777Y-24894417D01*
X85360777Y-23694417D01*
X83875062Y-24437274D02*
X82960777Y-24437274D01*
X81989348Y-24265845D02*
X81817920Y-24322988D01*
X81760777Y-24380131D01*
X81703634Y-24494417D01*
X81703634Y-24665845D01*
X81760777Y-24780131D01*
X81817920Y-24837274D01*
X81932205Y-24894417D01*
X82389348Y-24894417D01*
X82389348Y-23694417D01*
X81989348Y-23694417D01*
X81875062Y-23751560D01*
X81817920Y-23808702D01*
X81760777Y-23922988D01*
X81760777Y-24037274D01*
X81817920Y-24151560D01*
X81875062Y-24208702D01*
X81989348Y-24265845D01*
X82389348Y-24265845D01*
X80503634Y-24780131D02*
X80560777Y-24837274D01*
X80732205Y-24894417D01*
X80846491Y-24894417D01*
X81017920Y-24837274D01*
X81132205Y-24722988D01*
X81189348Y-24608702D01*
X81246491Y-24380131D01*
X81246491Y-24208702D01*
X81189348Y-23980131D01*
X81132205Y-23865845D01*
X81017920Y-23751560D01*
X80846491Y-23694417D01*
X80732205Y-23694417D01*
X80560777Y-23751560D01*
X80503634Y-23808702D01*
X79417920Y-23694417D02*
X79989348Y-23694417D01*
X80046491Y-24265845D01*
X79989348Y-24208702D01*
X79875062Y-24151560D01*
X79589348Y-24151560D01*
X79475062Y-24208702D01*
X79417920Y-24265845D01*
X79360777Y-24380131D01*
X79360777Y-24665845D01*
X79417920Y-24780131D01*
X79475062Y-24837274D01*
X79589348Y-24894417D01*
X79875062Y-24894417D01*
X79989348Y-24837274D01*
X80046491Y-24780131D01*
X92332205Y-26365845D02*
X92160777Y-26422988D01*
X92103634Y-26480131D01*
X92046491Y-26594417D01*
X92046491Y-26765845D01*
X92103634Y-26880131D01*
X92160777Y-26937274D01*
X92275062Y-26994417D01*
X92732205Y-26994417D01*
X92732205Y-25794417D01*
X92332205Y-25794417D01*
X92217920Y-25851560D01*
X92160777Y-25908702D01*
X92103634Y-26022988D01*
X92103634Y-26137274D01*
X92160777Y-26251560D01*
X92217920Y-26308702D01*
X92332205Y-26365845D01*
X92732205Y-26365845D01*
X91532205Y-25794417D02*
X91532205Y-26765845D01*
X91475062Y-26880131D01*
X91417920Y-26937274D01*
X91303634Y-26994417D01*
X91075062Y-26994417D01*
X90960777Y-26937274D01*
X90903634Y-26880131D01*
X90846491Y-26765845D01*
X90846491Y-25794417D01*
X90446491Y-25794417D02*
X89760777Y-25794417D01*
X90103634Y-26994417D02*
X90103634Y-25794417D01*
X89646491Y-27108702D02*
X88732205Y-27108702D01*
X88046491Y-26365845D02*
X87875062Y-26422988D01*
X87817920Y-26480131D01*
X87760777Y-26594417D01*
X87760777Y-26765845D01*
X87817920Y-26880131D01*
X87875062Y-26937274D01*
X87989348Y-26994417D01*
X88446491Y-26994417D01*
X88446491Y-25794417D01*
X88046491Y-25794417D01*
X87932205Y-25851560D01*
X87875062Y-25908702D01*
X87817920Y-26022988D01*
X87817920Y-26137274D01*
X87875062Y-26251560D01*
X87932205Y-26308702D01*
X88046491Y-26365845D01*
X88446491Y-26365845D01*
X86675062Y-26994417D02*
X87246491Y-26994417D01*
X87246491Y-25794417D01*
X86275062Y-25794417D02*
X86275062Y-26765845D01*
X86217920Y-26880131D01*
X86160777Y-26937274D01*
X86046491Y-26994417D01*
X85817920Y-26994417D01*
X85703634Y-26937274D01*
X85646491Y-26880131D01*
X85589348Y-26765845D01*
X85589348Y-25794417D01*
X85017920Y-26365845D02*
X84617920Y-26365845D01*
X84446491Y-26994417D02*
X85017920Y-26994417D01*
X85017920Y-25794417D01*
X84446491Y-25794417D01*
X83932205Y-26537274D02*
X83017920Y-26537274D01*
X82046491Y-26365845D02*
X81875062Y-26422988D01*
X81817920Y-26480131D01*
X81760777Y-26594417D01*
X81760777Y-26765845D01*
X81817920Y-26880131D01*
X81875062Y-26937274D01*
X81989348Y-26994417D01*
X82446491Y-26994417D01*
X82446491Y-25794417D01*
X82046491Y-25794417D01*
X81932205Y-25851560D01*
X81875062Y-25908702D01*
X81817920Y-26022988D01*
X81817920Y-26137274D01*
X81875062Y-26251560D01*
X81932205Y-26308702D01*
X82046491Y-26365845D01*
X82446491Y-26365845D01*
X80560777Y-26880131D02*
X80617920Y-26937274D01*
X80789348Y-26994417D01*
X80903634Y-26994417D01*
X81075062Y-26937274D01*
X81189348Y-26822988D01*
X81246491Y-26708702D01*
X81303634Y-26480131D01*
X81303634Y-26308702D01*
X81246491Y-26080131D01*
X81189348Y-25965845D01*
X81075062Y-25851560D01*
X80903634Y-25794417D01*
X80789348Y-25794417D01*
X80617920Y-25851560D01*
X80560777Y-25908702D01*
X79532205Y-25794417D02*
X79760777Y-25794417D01*
X79875062Y-25851560D01*
X79932205Y-25908702D01*
X80046491Y-26080131D01*
X80103634Y-26308702D01*
X80103634Y-26765845D01*
X80046491Y-26880131D01*
X79989348Y-26937274D01*
X79875062Y-26994417D01*
X79646491Y-26994417D01*
X79532205Y-26937274D01*
X79475062Y-26880131D01*
X79417920Y-26765845D01*
X79417920Y-26480131D01*
X79475062Y-26365845D01*
X79532205Y-26308702D01*
X79646491Y-26251560D01*
X79875062Y-26251560D01*
X79989348Y-26308702D01*
X80046491Y-26365845D01*
X80103634Y-26480131D01*
X92332205Y-28465845D02*
X92160777Y-28522988D01*
X92103634Y-28580131D01*
X92046491Y-28694417D01*
X92046491Y-28865845D01*
X92103634Y-28980131D01*
X92160777Y-29037274D01*
X92275062Y-29094417D01*
X92732205Y-29094417D01*
X92732205Y-27894417D01*
X92332205Y-27894417D01*
X92217920Y-27951560D01*
X92160777Y-28008702D01*
X92103634Y-28122988D01*
X92103634Y-28237274D01*
X92160777Y-28351560D01*
X92217920Y-28408702D01*
X92332205Y-28465845D01*
X92732205Y-28465845D01*
X91532205Y-27894417D02*
X91532205Y-28865845D01*
X91475062Y-28980131D01*
X91417920Y-29037274D01*
X91303634Y-29094417D01*
X91075062Y-29094417D01*
X90960777Y-29037274D01*
X90903634Y-28980131D01*
X90846491Y-28865845D01*
X90846491Y-27894417D01*
X90446491Y-27894417D02*
X89760777Y-27894417D01*
X90103634Y-29094417D02*
X90103634Y-27894417D01*
X89646491Y-29208702D02*
X88732205Y-29208702D01*
X88217920Y-28522988D02*
X88217920Y-29094417D01*
X88617920Y-27894417D02*
X88217920Y-28522988D01*
X87817920Y-27894417D01*
X86846491Y-29094417D02*
X87417920Y-29094417D01*
X87417920Y-27894417D01*
X86560777Y-27894417D02*
X86275062Y-29094417D01*
X86046491Y-28237274D01*
X85817920Y-29094417D01*
X85532205Y-27894417D01*
X84160777Y-28637274D02*
X83246491Y-28637274D01*
X82275062Y-28465845D02*
X82103634Y-28522988D01*
X82046491Y-28580131D01*
X81989348Y-28694417D01*
X81989348Y-28865845D01*
X82046491Y-28980131D01*
X82103634Y-29037274D01*
X82217920Y-29094417D01*
X82675062Y-29094417D01*
X82675062Y-27894417D01*
X82275062Y-27894417D01*
X82160777Y-27951560D01*
X82103634Y-28008702D01*
X82046491Y-28122988D01*
X82046491Y-28237274D01*
X82103634Y-28351560D01*
X82160777Y-28408702D01*
X82275062Y-28465845D01*
X82675062Y-28465845D01*
X80789348Y-28980131D02*
X80846491Y-29037274D01*
X81017920Y-29094417D01*
X81132205Y-29094417D01*
X81303634Y-29037274D01*
X81417920Y-28922988D01*
X81475062Y-28808702D01*
X81532205Y-28580131D01*
X81532205Y-28408702D01*
X81475062Y-28180131D01*
X81417920Y-28065845D01*
X81303634Y-27951560D01*
X81132205Y-27894417D01*
X81017920Y-27894417D01*
X80846491Y-27951560D01*
X80789348Y-28008702D01*
X80389348Y-27894417D02*
X79589348Y-27894417D01*
X80103634Y-29094417D01*
X92332205Y-30565845D02*
X92160777Y-30622988D01*
X92103634Y-30680131D01*
X92046491Y-30794417D01*
X92046491Y-30965845D01*
X92103634Y-31080131D01*
X92160777Y-31137274D01*
X92275062Y-31194417D01*
X92732205Y-31194417D01*
X92732205Y-29994417D01*
X92332205Y-29994417D01*
X92217920Y-30051560D01*
X92160777Y-30108702D01*
X92103634Y-30222988D01*
X92103634Y-30337274D01*
X92160777Y-30451560D01*
X92217920Y-30508702D01*
X92332205Y-30565845D01*
X92732205Y-30565845D01*
X91532205Y-29994417D02*
X91532205Y-30965845D01*
X91475062Y-31080131D01*
X91417920Y-31137274D01*
X91303634Y-31194417D01*
X91075062Y-31194417D01*
X90960777Y-31137274D01*
X90903634Y-31080131D01*
X90846491Y-30965845D01*
X90846491Y-29994417D01*
X90446491Y-29994417D02*
X89760777Y-29994417D01*
X90103634Y-31194417D02*
X90103634Y-29994417D01*
X89646491Y-31308702D02*
X88732205Y-31308702D01*
X88446491Y-31194417D02*
X88446491Y-29994417D01*
X88046491Y-30851560D01*
X87646491Y-29994417D01*
X87646491Y-31194417D01*
X86846491Y-29994417D02*
X86617920Y-29994417D01*
X86503634Y-30051560D01*
X86389348Y-30165845D01*
X86332205Y-30394417D01*
X86332205Y-30794417D01*
X86389348Y-31022988D01*
X86503634Y-31137274D01*
X86617920Y-31194417D01*
X86846491Y-31194417D01*
X86960777Y-31137274D01*
X87075062Y-31022988D01*
X87132205Y-30794417D01*
X87132205Y-30394417D01*
X87075062Y-30165845D01*
X86960777Y-30051560D01*
X86846491Y-29994417D01*
X85817920Y-31194417D02*
X85817920Y-29994417D01*
X85532205Y-29994417D01*
X85360777Y-30051560D01*
X85246491Y-30165845D01*
X85189348Y-30280131D01*
X85132205Y-30508702D01*
X85132205Y-30680131D01*
X85189348Y-30908702D01*
X85246491Y-31022988D01*
X85360777Y-31137274D01*
X85532205Y-31194417D01*
X85817920Y-31194417D01*
X84617920Y-30565845D02*
X84217920Y-30565845D01*
X84046491Y-31194417D02*
X84617920Y-31194417D01*
X84617920Y-29994417D01*
X84046491Y-29994417D01*
X82617920Y-30737274D02*
X81703634Y-30737274D01*
X80446491Y-31194417D02*
X80846491Y-30622988D01*
X81132205Y-31194417D02*
X81132205Y-29994417D01*
X80675062Y-29994417D01*
X80560777Y-30051560D01*
X80503634Y-30108702D01*
X80446491Y-30222988D01*
X80446491Y-30394417D01*
X80503634Y-30508702D01*
X80560777Y-30565845D01*
X80675062Y-30622988D01*
X81132205Y-30622988D01*
X79989348Y-30851560D02*
X79417920Y-30851560D01*
X80103634Y-31194417D02*
X79703634Y-29994417D01*
X79303634Y-31194417D01*
X78960777Y-30108702D02*
X78903634Y-30051560D01*
X78789348Y-29994417D01*
X78503634Y-29994417D01*
X78389348Y-30051560D01*
X78332205Y-30108702D01*
X78275062Y-30222988D01*
X78275062Y-30337274D01*
X78332205Y-30508702D01*
X79017920Y-31194417D01*
X78275062Y-31194417D01*
X99978897Y-38669417D02*
X100550325Y-38669417D01*
X100550325Y-37469417D01*
X99578897Y-38040845D02*
X99178897Y-38040845D01*
X99007468Y-38669417D02*
X99578897Y-38669417D01*
X99578897Y-37469417D01*
X99007468Y-37469417D01*
X98493182Y-38669417D02*
X98493182Y-37469417D01*
X98207468Y-37469417D01*
X98036040Y-37526560D01*
X97921754Y-37640845D01*
X97864611Y-37755131D01*
X97807468Y-37983702D01*
X97807468Y-38155131D01*
X97864611Y-38383702D01*
X97921754Y-38497988D01*
X98036040Y-38612274D01*
X98207468Y-38669417D01*
X98493182Y-38669417D01*
X97578897Y-38783702D02*
X96664611Y-38783702D01*
X95693182Y-38669417D02*
X96093182Y-38097988D01*
X96378897Y-38669417D02*
X96378897Y-37469417D01*
X95921754Y-37469417D01*
X95807468Y-37526560D01*
X95750325Y-37583702D01*
X95693182Y-37697988D01*
X95693182Y-37869417D01*
X95750325Y-37983702D01*
X95807468Y-38040845D01*
X95921754Y-38097988D01*
X96378897Y-38097988D01*
X95178897Y-38040845D02*
X94778897Y-38040845D01*
X94607468Y-38669417D02*
X95178897Y-38669417D01*
X95178897Y-37469417D01*
X94607468Y-37469417D01*
X94093182Y-38669417D02*
X94093182Y-37469417D01*
X93807468Y-37469417D01*
X93636040Y-37526560D01*
X93521754Y-37640845D01*
X93464611Y-37755131D01*
X93407468Y-37983702D01*
X93407468Y-38155131D01*
X93464611Y-38383702D01*
X93521754Y-38497988D01*
X93636040Y-38612274D01*
X93807468Y-38669417D01*
X94093182Y-38669417D01*
X91978897Y-38212274D02*
X91064611Y-38212274D01*
X89807468Y-38669417D02*
X90207468Y-38097988D01*
X90493182Y-38669417D02*
X90493182Y-37469417D01*
X90036040Y-37469417D01*
X89921754Y-37526560D01*
X89864611Y-37583702D01*
X89807468Y-37697988D01*
X89807468Y-37869417D01*
X89864611Y-37983702D01*
X89921754Y-38040845D01*
X90036040Y-38097988D01*
X90493182Y-38097988D01*
X88607468Y-38555131D02*
X88664611Y-38612274D01*
X88836040Y-38669417D01*
X88950325Y-38669417D01*
X89121754Y-38612274D01*
X89236040Y-38497988D01*
X89293182Y-38383702D01*
X89350325Y-38155131D01*
X89350325Y-37983702D01*
X89293182Y-37755131D01*
X89236040Y-37640845D01*
X89121754Y-37526560D01*
X88950325Y-37469417D01*
X88836040Y-37469417D01*
X88664611Y-37526560D01*
X88607468Y-37583702D01*
X87578897Y-37869417D02*
X87578897Y-38669417D01*
X87864611Y-37412274D02*
X88150325Y-38269417D01*
X87407468Y-38269417D01*
X99978897Y-40769417D02*
X100550325Y-40769417D01*
X100550325Y-39569417D01*
X99578897Y-40140845D02*
X99178897Y-40140845D01*
X99007468Y-40769417D02*
X99578897Y-40769417D01*
X99578897Y-39569417D01*
X99007468Y-39569417D01*
X98493182Y-40769417D02*
X98493182Y-39569417D01*
X98207468Y-39569417D01*
X98036040Y-39626560D01*
X97921754Y-39740845D01*
X97864611Y-39855131D01*
X97807468Y-40083702D01*
X97807468Y-40255131D01*
X97864611Y-40483702D01*
X97921754Y-40597988D01*
X98036040Y-40712274D01*
X98207468Y-40769417D01*
X98493182Y-40769417D01*
X97578897Y-40883702D02*
X96664611Y-40883702D01*
X95750325Y-39626560D02*
X95864611Y-39569417D01*
X96036040Y-39569417D01*
X96207468Y-39626560D01*
X96321754Y-39740845D01*
X96378897Y-39855131D01*
X96436040Y-40083702D01*
X96436040Y-40255131D01*
X96378897Y-40483702D01*
X96321754Y-40597988D01*
X96207468Y-40712274D01*
X96036040Y-40769417D01*
X95921754Y-40769417D01*
X95750325Y-40712274D01*
X95693182Y-40655131D01*
X95693182Y-40255131D01*
X95921754Y-40255131D01*
X94493182Y-40769417D02*
X94893182Y-40197988D01*
X95178897Y-40769417D02*
X95178897Y-39569417D01*
X94721754Y-39569417D01*
X94607468Y-39626560D01*
X94550325Y-39683702D01*
X94493182Y-39797988D01*
X94493182Y-39969417D01*
X94550325Y-40083702D01*
X94607468Y-40140845D01*
X94721754Y-40197988D01*
X95178897Y-40197988D01*
X93978897Y-40769417D02*
X93978897Y-39569417D01*
X93293182Y-40769417D01*
X93293182Y-39569417D01*
X91807468Y-40312274D02*
X90893182Y-40312274D01*
X89636040Y-40769417D02*
X90036040Y-40197988D01*
X90321754Y-40769417D02*
X90321754Y-39569417D01*
X89864611Y-39569417D01*
X89750325Y-39626560D01*
X89693182Y-39683702D01*
X89636040Y-39797988D01*
X89636040Y-39969417D01*
X89693182Y-40083702D01*
X89750325Y-40140845D01*
X89864611Y-40197988D01*
X90321754Y-40197988D01*
X88436040Y-40655131D02*
X88493182Y-40712274D01*
X88664611Y-40769417D01*
X88778897Y-40769417D01*
X88950325Y-40712274D01*
X89064611Y-40597988D01*
X89121754Y-40483702D01*
X89178897Y-40255131D01*
X89178897Y-40083702D01*
X89121754Y-39855131D01*
X89064611Y-39740845D01*
X88950325Y-39626560D01*
X88778897Y-39569417D01*
X88664611Y-39569417D01*
X88493182Y-39626560D01*
X88436040Y-39683702D01*
X87350325Y-39569417D02*
X87921754Y-39569417D01*
X87978897Y-40140845D01*
X87921754Y-40083702D01*
X87807468Y-40026560D01*
X87521754Y-40026560D01*
X87407468Y-40083702D01*
X87350325Y-40140845D01*
X87293182Y-40255131D01*
X87293182Y-40540845D01*
X87350325Y-40655131D01*
X87407468Y-40712274D01*
X87521754Y-40769417D01*
X87807468Y-40769417D01*
X87921754Y-40712274D01*
X87978897Y-40655131D01*
X99978897Y-42869417D02*
X100550325Y-42869417D01*
X100550325Y-41669417D01*
X99578897Y-42240845D02*
X99178897Y-42240845D01*
X99007468Y-42869417D02*
X99578897Y-42869417D01*
X99578897Y-41669417D01*
X99007468Y-41669417D01*
X98493182Y-42869417D02*
X98493182Y-41669417D01*
X98207468Y-41669417D01*
X98036040Y-41726560D01*
X97921754Y-41840845D01*
X97864611Y-41955131D01*
X97807468Y-42183702D01*
X97807468Y-42355131D01*
X97864611Y-42583702D01*
X97921754Y-42697988D01*
X98036040Y-42812274D01*
X98207468Y-42869417D01*
X98493182Y-42869417D01*
X97578897Y-42983702D02*
X96664611Y-42983702D01*
X95978897Y-42240845D02*
X95807468Y-42297988D01*
X95750325Y-42355131D01*
X95693182Y-42469417D01*
X95693182Y-42640845D01*
X95750325Y-42755131D01*
X95807468Y-42812274D01*
X95921754Y-42869417D01*
X96378897Y-42869417D01*
X96378897Y-41669417D01*
X95978897Y-41669417D01*
X95864611Y-41726560D01*
X95807468Y-41783702D01*
X95750325Y-41897988D01*
X95750325Y-42012274D01*
X95807468Y-42126560D01*
X95864611Y-42183702D01*
X95978897Y-42240845D01*
X96378897Y-42240845D01*
X94607468Y-42869417D02*
X95178897Y-42869417D01*
X95178897Y-41669417D01*
X94207468Y-41669417D02*
X94207468Y-42640845D01*
X94150325Y-42755131D01*
X94093182Y-42812274D01*
X93978897Y-42869417D01*
X93750325Y-42869417D01*
X93636040Y-42812274D01*
X93578897Y-42755131D01*
X93521754Y-42640845D01*
X93521754Y-41669417D01*
X92950325Y-42240845D02*
X92550325Y-42240845D01*
X92378897Y-42869417D02*
X92950325Y-42869417D01*
X92950325Y-41669417D01*
X92378897Y-41669417D01*
X91864611Y-42412274D02*
X90950325Y-42412274D01*
X89693182Y-42869417D02*
X90093182Y-42297988D01*
X90378897Y-42869417D02*
X90378897Y-41669417D01*
X89921754Y-41669417D01*
X89807468Y-41726560D01*
X89750325Y-41783702D01*
X89693182Y-41897988D01*
X89693182Y-42069417D01*
X89750325Y-42183702D01*
X89807468Y-42240845D01*
X89921754Y-42297988D01*
X90378897Y-42297988D01*
X88493182Y-42755131D02*
X88550325Y-42812274D01*
X88721754Y-42869417D01*
X88836040Y-42869417D01*
X89007468Y-42812274D01*
X89121754Y-42697988D01*
X89178897Y-42583702D01*
X89236040Y-42355131D01*
X89236040Y-42183702D01*
X89178897Y-41955131D01*
X89121754Y-41840845D01*
X89007468Y-41726560D01*
X88836040Y-41669417D01*
X88721754Y-41669417D01*
X88550325Y-41726560D01*
X88493182Y-41783702D01*
X87464611Y-41669417D02*
X87693182Y-41669417D01*
X87807468Y-41726560D01*
X87864611Y-41783702D01*
X87978897Y-41955131D01*
X88036040Y-42183702D01*
X88036040Y-42640845D01*
X87978897Y-42755131D01*
X87921754Y-42812274D01*
X87807468Y-42869417D01*
X87578897Y-42869417D01*
X87464611Y-42812274D01*
X87407468Y-42755131D01*
X87350325Y-42640845D01*
X87350325Y-42355131D01*
X87407468Y-42240845D01*
X87464611Y-42183702D01*
X87578897Y-42126560D01*
X87807468Y-42126560D01*
X87921754Y-42183702D01*
X87978897Y-42240845D01*
X88036040Y-42355131D01*
X99978897Y-44969417D02*
X100550325Y-44969417D01*
X100550325Y-43769417D01*
X99578897Y-44340845D02*
X99178897Y-44340845D01*
X99007468Y-44969417D02*
X99578897Y-44969417D01*
X99578897Y-43769417D01*
X99007468Y-43769417D01*
X98493182Y-44969417D02*
X98493182Y-43769417D01*
X98207468Y-43769417D01*
X98036040Y-43826560D01*
X97921754Y-43940845D01*
X97864611Y-44055131D01*
X97807468Y-44283702D01*
X97807468Y-44455131D01*
X97864611Y-44683702D01*
X97921754Y-44797988D01*
X98036040Y-44912274D01*
X98207468Y-44969417D01*
X98493182Y-44969417D01*
X97578897Y-45083702D02*
X96664611Y-45083702D01*
X96150325Y-44397988D02*
X96150325Y-44969417D01*
X96550325Y-43769417D02*
X96150325Y-44397988D01*
X95750325Y-43769417D01*
X94778897Y-44969417D02*
X95350325Y-44969417D01*
X95350325Y-43769417D01*
X94493182Y-43769417D02*
X94207468Y-44969417D01*
X93978897Y-44112274D01*
X93750325Y-44969417D01*
X93464611Y-43769417D01*
X92093182Y-44512274D02*
X91178897Y-44512274D01*
X89921754Y-44969417D02*
X90321754Y-44397988D01*
X90607468Y-44969417D02*
X90607468Y-43769417D01*
X90150325Y-43769417D01*
X90036040Y-43826560D01*
X89978897Y-43883702D01*
X89921754Y-43997988D01*
X89921754Y-44169417D01*
X89978897Y-44283702D01*
X90036040Y-44340845D01*
X90150325Y-44397988D01*
X90607468Y-44397988D01*
X88721754Y-44855131D02*
X88778897Y-44912274D01*
X88950325Y-44969417D01*
X89064611Y-44969417D01*
X89236040Y-44912274D01*
X89350325Y-44797988D01*
X89407468Y-44683702D01*
X89464611Y-44455131D01*
X89464611Y-44283702D01*
X89407468Y-44055131D01*
X89350325Y-43940845D01*
X89236040Y-43826560D01*
X89064611Y-43769417D01*
X88950325Y-43769417D01*
X88778897Y-43826560D01*
X88721754Y-43883702D01*
X88321754Y-43769417D02*
X87521754Y-43769417D01*
X88036040Y-44969417D01*
X100150325Y-46440845D02*
X99978897Y-46497988D01*
X99921754Y-46555131D01*
X99864611Y-46669417D01*
X99864611Y-46840845D01*
X99921754Y-46955131D01*
X99978897Y-47012274D01*
X100093182Y-47069417D01*
X100550325Y-47069417D01*
X100550325Y-45869417D01*
X100150325Y-45869417D01*
X100036040Y-45926560D01*
X99978897Y-45983702D01*
X99921754Y-46097988D01*
X99921754Y-46212274D01*
X99978897Y-46326560D01*
X100036040Y-46383702D01*
X100150325Y-46440845D01*
X100550325Y-46440845D01*
X99350325Y-45869417D02*
X99350325Y-46840845D01*
X99293182Y-46955131D01*
X99236040Y-47012274D01*
X99121754Y-47069417D01*
X98893182Y-47069417D01*
X98778897Y-47012274D01*
X98721754Y-46955131D01*
X98664611Y-46840845D01*
X98664611Y-45869417D01*
X98207468Y-45869417D02*
X97407468Y-45869417D01*
X98207468Y-47069417D01*
X97407468Y-47069417D01*
X97064611Y-45869417D02*
X96264611Y-45869417D01*
X97064611Y-47069417D01*
X96264611Y-47069417D01*
X95807468Y-46440845D02*
X95407468Y-46440845D01*
X95236040Y-47069417D02*
X95807468Y-47069417D01*
X95807468Y-45869417D01*
X95236040Y-45869417D01*
X94036040Y-47069417D02*
X94436040Y-46497988D01*
X94721754Y-47069417D02*
X94721754Y-45869417D01*
X94264611Y-45869417D01*
X94150325Y-45926560D01*
X94093182Y-45983702D01*
X94036040Y-46097988D01*
X94036040Y-46269417D01*
X94093182Y-46383702D01*
X94150325Y-46440845D01*
X94264611Y-46497988D01*
X94721754Y-46497988D01*
X92607468Y-46612274D02*
X91693182Y-46612274D01*
X90436040Y-47069417D02*
X90836040Y-46497988D01*
X91121754Y-47069417D02*
X91121754Y-45869417D01*
X90664611Y-45869417D01*
X90550325Y-45926560D01*
X90493182Y-45983702D01*
X90436040Y-46097988D01*
X90436040Y-46269417D01*
X90493182Y-46383702D01*
X90550325Y-46440845D01*
X90664611Y-46497988D01*
X91121754Y-46497988D01*
X89236040Y-46955131D02*
X89293182Y-47012274D01*
X89464611Y-47069417D01*
X89578897Y-47069417D01*
X89750325Y-47012274D01*
X89864611Y-46897988D01*
X89921754Y-46783702D01*
X89978897Y-46555131D01*
X89978897Y-46383702D01*
X89921754Y-46155131D01*
X89864611Y-46040845D01*
X89750325Y-45926560D01*
X89578897Y-45869417D01*
X89464611Y-45869417D01*
X89293182Y-45926560D01*
X89236040Y-45983702D01*
X88836040Y-45869417D02*
X88093182Y-45869417D01*
X88493182Y-46326560D01*
X88321754Y-46326560D01*
X88207468Y-46383702D01*
X88150325Y-46440845D01*
X88093182Y-46555131D01*
X88093182Y-46840845D01*
X88150325Y-46955131D01*
X88207468Y-47012274D01*
X88321754Y-47069417D01*
X88664611Y-47069417D01*
X88778897Y-47012274D01*
X88836040Y-46955131D01*
X91749297Y-59961657D02*
X92320725Y-59961657D01*
X92320725Y-58761657D01*
X91349297Y-59333085D02*
X90949297Y-59333085D01*
X90777868Y-59961657D02*
X91349297Y-59961657D01*
X91349297Y-58761657D01*
X90777868Y-58761657D01*
X90263582Y-59961657D02*
X90263582Y-58761657D01*
X89977868Y-58761657D01*
X89806440Y-58818800D01*
X89692154Y-58933085D01*
X89635011Y-59047371D01*
X89577868Y-59275942D01*
X89577868Y-59447371D01*
X89635011Y-59675942D01*
X89692154Y-59790228D01*
X89806440Y-59904514D01*
X89977868Y-59961657D01*
X90263582Y-59961657D01*
X89349297Y-60075942D02*
X88435011Y-60075942D01*
X88149297Y-59961657D02*
X88149297Y-58761657D01*
X87863582Y-58761657D01*
X87692154Y-58818800D01*
X87577868Y-58933085D01*
X87520725Y-59047371D01*
X87463582Y-59275942D01*
X87463582Y-59447371D01*
X87520725Y-59675942D01*
X87577868Y-59790228D01*
X87692154Y-59904514D01*
X87863582Y-59961657D01*
X88149297Y-59961657D01*
X87006440Y-59618800D02*
X86435011Y-59618800D01*
X87120725Y-59961657D02*
X86720725Y-58761657D01*
X86320725Y-59961657D01*
X86092154Y-58761657D02*
X85406440Y-58761657D01*
X85749297Y-59961657D02*
X85749297Y-58761657D01*
X85006440Y-59504514D02*
X84092154Y-59504514D01*
X82835011Y-59961657D02*
X83235011Y-59390228D01*
X83520725Y-59961657D02*
X83520725Y-58761657D01*
X83063582Y-58761657D01*
X82949297Y-58818800D01*
X82892154Y-58875942D01*
X82835011Y-58990228D01*
X82835011Y-59161657D01*
X82892154Y-59275942D01*
X82949297Y-59333085D01*
X83063582Y-59390228D01*
X83520725Y-59390228D01*
X81635011Y-59847371D02*
X81692154Y-59904514D01*
X81863582Y-59961657D01*
X81977868Y-59961657D01*
X82149297Y-59904514D01*
X82263582Y-59790228D01*
X82320725Y-59675942D01*
X82377868Y-59447371D01*
X82377868Y-59275942D01*
X82320725Y-59047371D01*
X82263582Y-58933085D01*
X82149297Y-58818800D01*
X81977868Y-58761657D01*
X81863582Y-58761657D01*
X81692154Y-58818800D01*
X81635011Y-58875942D01*
X80892154Y-58761657D02*
X80777868Y-58761657D01*
X80663582Y-58818800D01*
X80606440Y-58875942D01*
X80549297Y-58990228D01*
X80492154Y-59218800D01*
X80492154Y-59504514D01*
X80549297Y-59733085D01*
X80606440Y-59847371D01*
X80663582Y-59904514D01*
X80777868Y-59961657D01*
X80892154Y-59961657D01*
X81006440Y-59904514D01*
X81063582Y-59847371D01*
X81120725Y-59733085D01*
X81177868Y-59504514D01*
X81177868Y-59218800D01*
X81120725Y-58990228D01*
X81063582Y-58875942D01*
X81006440Y-58818800D01*
X80892154Y-58761657D01*
X91749297Y-62061657D02*
X92320725Y-62061657D01*
X92320725Y-60861657D01*
X91349297Y-61433085D02*
X90949297Y-61433085D01*
X90777868Y-62061657D02*
X91349297Y-62061657D01*
X91349297Y-60861657D01*
X90777868Y-60861657D01*
X90263582Y-62061657D02*
X90263582Y-60861657D01*
X89977868Y-60861657D01*
X89806440Y-60918800D01*
X89692154Y-61033085D01*
X89635011Y-61147371D01*
X89577868Y-61375942D01*
X89577868Y-61547371D01*
X89635011Y-61775942D01*
X89692154Y-61890228D01*
X89806440Y-62004514D01*
X89977868Y-62061657D01*
X90263582Y-62061657D01*
X89349297Y-62175942D02*
X88435011Y-62175942D01*
X87463582Y-61947371D02*
X87520725Y-62004514D01*
X87692154Y-62061657D01*
X87806440Y-62061657D01*
X87977868Y-62004514D01*
X88092154Y-61890228D01*
X88149297Y-61775942D01*
X88206440Y-61547371D01*
X88206440Y-61375942D01*
X88149297Y-61147371D01*
X88092154Y-61033085D01*
X87977868Y-60918800D01*
X87806440Y-60861657D01*
X87692154Y-60861657D01*
X87520725Y-60918800D01*
X87463582Y-60975942D01*
X86377868Y-62061657D02*
X86949297Y-62061657D01*
X86949297Y-60861657D01*
X85977868Y-62061657D02*
X85977868Y-60861657D01*
X85292154Y-62061657D02*
X85806440Y-61375942D01*
X85292154Y-60861657D02*
X85977868Y-61547371D01*
X84777868Y-61604514D02*
X83863582Y-61604514D01*
X82606440Y-62061657D02*
X83006440Y-61490228D01*
X83292154Y-62061657D02*
X83292154Y-60861657D01*
X82835011Y-60861657D01*
X82720725Y-60918800D01*
X82663582Y-60975942D01*
X82606440Y-61090228D01*
X82606440Y-61261657D01*
X82663582Y-61375942D01*
X82720725Y-61433085D01*
X82835011Y-61490228D01*
X83292154Y-61490228D01*
X81406440Y-61947371D02*
X81463582Y-62004514D01*
X81635011Y-62061657D01*
X81749297Y-62061657D01*
X81920725Y-62004514D01*
X82035011Y-61890228D01*
X82092154Y-61775942D01*
X82149297Y-61547371D01*
X82149297Y-61375942D01*
X82092154Y-61147371D01*
X82035011Y-61033085D01*
X81920725Y-60918800D01*
X81749297Y-60861657D01*
X81635011Y-60861657D01*
X81463582Y-60918800D01*
X81406440Y-60975942D01*
X80263582Y-62061657D02*
X80949297Y-62061657D01*
X80606440Y-62061657D02*
X80606440Y-60861657D01*
X80720725Y-61033085D01*
X80835011Y-61147371D01*
X80949297Y-61204514D01*
X91749297Y-64161657D02*
X92320725Y-64161657D01*
X92320725Y-62961657D01*
X91349297Y-63533085D02*
X90949297Y-63533085D01*
X90777868Y-64161657D02*
X91349297Y-64161657D01*
X91349297Y-62961657D01*
X90777868Y-62961657D01*
X90263582Y-64161657D02*
X90263582Y-62961657D01*
X89977868Y-62961657D01*
X89806440Y-63018800D01*
X89692154Y-63133085D01*
X89635011Y-63247371D01*
X89577868Y-63475942D01*
X89577868Y-63647371D01*
X89635011Y-63875942D01*
X89692154Y-63990228D01*
X89806440Y-64104514D01*
X89977868Y-64161657D01*
X90263582Y-64161657D01*
X89349297Y-64275942D02*
X88435011Y-64275942D01*
X87577868Y-64161657D02*
X88149297Y-64161657D01*
X88149297Y-62961657D01*
X87235011Y-63818800D02*
X86663582Y-63818800D01*
X87349297Y-64161657D02*
X86949297Y-62961657D01*
X86549297Y-64161657D01*
X86320725Y-62961657D02*
X85635011Y-62961657D01*
X85977868Y-64161657D02*
X85977868Y-62961657D01*
X85235011Y-63704514D02*
X84320725Y-63704514D01*
X83063582Y-64161657D02*
X83463582Y-63590228D01*
X83749297Y-64161657D02*
X83749297Y-62961657D01*
X83292154Y-62961657D01*
X83177868Y-63018800D01*
X83120725Y-63075942D01*
X83063582Y-63190228D01*
X83063582Y-63361657D01*
X83120725Y-63475942D01*
X83177868Y-63533085D01*
X83292154Y-63590228D01*
X83749297Y-63590228D01*
X81863582Y-64047371D02*
X81920725Y-64104514D01*
X82092154Y-64161657D01*
X82206440Y-64161657D01*
X82377868Y-64104514D01*
X82492154Y-63990228D01*
X82549297Y-63875942D01*
X82606440Y-63647371D01*
X82606440Y-63475942D01*
X82549297Y-63247371D01*
X82492154Y-63133085D01*
X82377868Y-63018800D01*
X82206440Y-62961657D01*
X82092154Y-62961657D01*
X81920725Y-63018800D01*
X81863582Y-63075942D01*
X81406440Y-63075942D02*
X81349297Y-63018800D01*
X81235011Y-62961657D01*
X80949297Y-62961657D01*
X80835011Y-63018800D01*
X80777868Y-63075942D01*
X80720725Y-63190228D01*
X80720725Y-63304514D01*
X80777868Y-63475942D01*
X81463582Y-64161657D01*
X80720725Y-64161657D01*
D11*
X67237245Y-30295154D02*
X67065817Y-30352297D01*
X66780102Y-30352297D01*
X66665817Y-30295154D01*
X66608674Y-30238011D01*
X66551531Y-30123725D01*
X66551531Y-30009440D01*
X66608674Y-29895154D01*
X66665817Y-29838011D01*
X66780102Y-29780868D01*
X67008674Y-29723725D01*
X67122960Y-29666582D01*
X67180102Y-29609440D01*
X67237245Y-29495154D01*
X67237245Y-29380868D01*
X67180102Y-29266582D01*
X67122960Y-29209440D01*
X67008674Y-29152297D01*
X66722960Y-29152297D01*
X66551531Y-29209440D01*
X66037245Y-30352297D02*
X66037245Y-29552297D01*
X66037245Y-29152297D02*
X66094388Y-29209440D01*
X66037245Y-29266582D01*
X65980102Y-29209440D01*
X66037245Y-29152297D01*
X66037245Y-29266582D01*
X65522960Y-29266582D02*
X65465817Y-29209440D01*
X65351531Y-29152297D01*
X65065817Y-29152297D01*
X64951531Y-29209440D01*
X64894388Y-29266582D01*
X64837245Y-29380868D01*
X64837245Y-29495154D01*
X64894388Y-29666582D01*
X65580102Y-30352297D01*
X64837245Y-30352297D01*
X64437245Y-29152297D02*
X63694388Y-29152297D01*
X64094388Y-29609440D01*
X63922960Y-29609440D01*
X63808674Y-29666582D01*
X63751531Y-29723725D01*
X63694388Y-29838011D01*
X63694388Y-30123725D01*
X63751531Y-30238011D01*
X63808674Y-30295154D01*
X63922960Y-30352297D01*
X64265817Y-30352297D01*
X64380102Y-30295154D01*
X64437245Y-30238011D01*
X62951531Y-29152297D02*
X62837245Y-29152297D01*
X62722960Y-29209440D01*
X62665817Y-29266582D01*
X62608674Y-29380868D01*
X62551531Y-29609440D01*
X62551531Y-29895154D01*
X62608674Y-30123725D01*
X62665817Y-30238011D01*
X62722960Y-30295154D01*
X62837245Y-30352297D01*
X62951531Y-30352297D01*
X63065817Y-30295154D01*
X63122960Y-30238011D01*
X63180102Y-30123725D01*
X63237245Y-29895154D01*
X63237245Y-29609440D01*
X63180102Y-29380868D01*
X63122960Y-29266582D01*
X63065817Y-29209440D01*
X62951531Y-29152297D01*
X62094388Y-29266582D02*
X62037245Y-29209440D01*
X61922960Y-29152297D01*
X61637245Y-29152297D01*
X61522960Y-29209440D01*
X61465817Y-29266582D01*
X61408674Y-29380868D01*
X61408674Y-29495154D01*
X61465817Y-29666582D01*
X62151531Y-30352297D01*
X61408674Y-30352297D01*
D10*
X83162857Y-40144554D02*
X83162857Y-40944554D01*
X84362857Y-40430268D01*
X83562857Y-41915982D02*
X84362857Y-41915982D01*
X83105714Y-41630268D02*
X83962857Y-41344554D01*
X83962857Y-42087411D01*
X84362857Y-42544554D02*
X83162857Y-42544554D01*
X83734285Y-42544554D02*
X83734285Y-43230268D01*
X84362857Y-43230268D02*
X83162857Y-43230268D01*
X84248571Y-44487411D02*
X84305714Y-44430268D01*
X84362857Y-44258840D01*
X84362857Y-44144554D01*
X84305714Y-43973125D01*
X84191428Y-43858840D01*
X84077142Y-43801697D01*
X83848571Y-43744554D01*
X83677142Y-43744554D01*
X83448571Y-43801697D01*
X83334285Y-43858840D01*
X83220000Y-43973125D01*
X83162857Y-44144554D01*
X83162857Y-44258840D01*
X83220000Y-44430268D01*
X83277142Y-44487411D01*
X83162857Y-45573125D02*
X83162857Y-45001697D01*
X83734285Y-44944554D01*
X83677142Y-45001697D01*
X83620000Y-45115982D01*
X83620000Y-45401697D01*
X83677142Y-45515982D01*
X83734285Y-45573125D01*
X83848571Y-45630268D01*
X84134285Y-45630268D01*
X84248571Y-45573125D01*
X84305714Y-45515982D01*
X84362857Y-45401697D01*
X84362857Y-45115982D01*
X84305714Y-45001697D01*
X84248571Y-44944554D01*
X84362857Y-46201697D02*
X84362857Y-46430268D01*
X84305714Y-46544554D01*
X84248571Y-46601697D01*
X84077142Y-46715982D01*
X83848571Y-46773125D01*
X83391428Y-46773125D01*
X83277142Y-46715982D01*
X83220000Y-46658840D01*
X83162857Y-46544554D01*
X83162857Y-46315982D01*
X83220000Y-46201697D01*
X83277142Y-46144554D01*
X83391428Y-46087411D01*
X83677142Y-46087411D01*
X83791428Y-46144554D01*
X83848571Y-46201697D01*
X83905714Y-46315982D01*
X83905714Y-46544554D01*
X83848571Y-46658840D01*
X83791428Y-46715982D01*
X83677142Y-46773125D01*
X83162857Y-47858840D02*
X83162857Y-47287411D01*
X83734285Y-47230268D01*
X83677142Y-47287411D01*
X83620000Y-47401697D01*
X83620000Y-47687411D01*
X83677142Y-47801697D01*
X83734285Y-47858840D01*
X83848571Y-47915982D01*
X84134285Y-47915982D01*
X84248571Y-47858840D01*
X84305714Y-47801697D01*
X84362857Y-47687411D01*
X84362857Y-47401697D01*
X84305714Y-47287411D01*
X84248571Y-47230268D01*
D12*
X58623815Y-57983641D02*
X59766672Y-57983641D01*
X59195243Y-57983641D02*
X59195243Y-55983641D01*
X59385720Y-56269356D01*
X59576196Y-56459832D01*
X59766672Y-56555070D01*
X56719053Y-57983641D02*
X57861910Y-57983641D01*
X57290481Y-57983641D02*
X57290481Y-55983641D01*
X57480958Y-56269356D01*
X57671434Y-56459832D01*
X57861910Y-56555070D01*
X54433339Y-55888403D02*
X56147624Y-58459832D01*
X53861910Y-56174118D02*
X53766672Y-56078880D01*
X53576196Y-55983641D01*
X53100005Y-55983641D01*
X52909529Y-56078880D01*
X52814291Y-56174118D01*
X52719053Y-56364594D01*
X52719053Y-56555070D01*
X52814291Y-56840784D01*
X53957148Y-57983641D01*
X52719053Y-57983641D01*
X51480958Y-55983641D02*
X51290481Y-55983641D01*
X51100005Y-56078880D01*
X51004767Y-56174118D01*
X50909529Y-56364594D01*
X50814291Y-56745546D01*
X50814291Y-57221737D01*
X50909529Y-57602689D01*
X51004767Y-57793165D01*
X51100005Y-57888403D01*
X51290481Y-57983641D01*
X51480958Y-57983641D01*
X51671434Y-57888403D01*
X51766672Y-57793165D01*
X51861910Y-57602689D01*
X51957148Y-57221737D01*
X51957148Y-56745546D01*
X51861910Y-56364594D01*
X51766672Y-56174118D01*
X51671434Y-56078880D01*
X51480958Y-55983641D01*
X48909529Y-57983641D02*
X50052386Y-57983641D01*
X49480958Y-57983641D02*
X49480958Y-55983641D01*
X49671434Y-56269356D01*
X49861910Y-56459832D01*
X50052386Y-56555070D01*
X47957148Y-57983641D02*
X47576196Y-57983641D01*
X47385720Y-57888403D01*
X47290481Y-57793165D01*
X47100005Y-57507451D01*
X47004767Y-57126499D01*
X47004767Y-56364594D01*
X47100005Y-56174118D01*
X47195243Y-56078880D01*
X47385720Y-55983641D01*
X47766672Y-55983641D01*
X47957148Y-56078880D01*
X48052386Y-56174118D01*
X48147624Y-56364594D01*
X48147624Y-56840784D01*
X48052386Y-57031260D01*
X47957148Y-57126499D01*
X47766672Y-57221737D01*
X47385720Y-57221737D01*
X47195243Y-57126499D01*
X47100005Y-57031260D01*
X47004767Y-56840784D01*
X59532516Y-65075321D02*
X59532516Y-63075321D01*
X58865849Y-64503893D01*
X58199182Y-63075321D01*
X58199182Y-65075321D01*
X57246801Y-65075321D02*
X57246801Y-63741988D01*
X57246801Y-63075321D02*
X57342040Y-63170560D01*
X57246801Y-63265798D01*
X57151563Y-63170560D01*
X57246801Y-63075321D01*
X57246801Y-63265798D01*
X56294420Y-63741988D02*
X56294420Y-65075321D01*
X56294420Y-63932464D02*
X56199182Y-63837226D01*
X56008706Y-63741988D01*
X55722992Y-63741988D01*
X55532516Y-63837226D01*
X55437278Y-64027702D01*
X55437278Y-65075321D01*
X53627754Y-65075321D02*
X53627754Y-63075321D01*
X53627754Y-64980083D02*
X53818230Y-65075321D01*
X54199182Y-65075321D01*
X54389659Y-64980083D01*
X54484897Y-64884845D01*
X54580135Y-64694369D01*
X54580135Y-64122940D01*
X54484897Y-63932464D01*
X54389659Y-63837226D01*
X54199182Y-63741988D01*
X53818230Y-63741988D01*
X53627754Y-63837226D01*
X50294420Y-63741988D02*
X50294420Y-65361036D01*
X50389659Y-65551512D01*
X50484897Y-65646750D01*
X50675373Y-65741988D01*
X50961087Y-65741988D01*
X51151563Y-65646750D01*
X50294420Y-64980083D02*
X50484897Y-65075321D01*
X50865849Y-65075321D01*
X51056325Y-64980083D01*
X51151563Y-64884845D01*
X51246801Y-64694369D01*
X51246801Y-64122940D01*
X51151563Y-63932464D01*
X51056325Y-63837226D01*
X50865849Y-63741988D01*
X50484897Y-63741988D01*
X50294420Y-63837226D01*
X48484897Y-65075321D02*
X48484897Y-64027702D01*
X48580135Y-63837226D01*
X48770611Y-63741988D01*
X49151563Y-63741988D01*
X49342040Y-63837226D01*
X48484897Y-64980083D02*
X48675373Y-65075321D01*
X49151563Y-65075321D01*
X49342040Y-64980083D01*
X49437278Y-64789607D01*
X49437278Y-64599131D01*
X49342040Y-64408655D01*
X49151563Y-64313417D01*
X48675373Y-64313417D01*
X48484897Y-64218179D01*
X47532516Y-65075321D02*
X47532516Y-63741988D01*
X47532516Y-63932464D02*
X47437278Y-63837226D01*
X47246801Y-63741988D01*
X46961087Y-63741988D01*
X46770611Y-63837226D01*
X46675373Y-64027702D01*
X46675373Y-65075321D01*
X46675373Y-64027702D02*
X46580135Y-63837226D01*
X46389659Y-63741988D01*
X46103944Y-63741988D01*
X45913468Y-63837226D01*
X45818230Y-64027702D01*
X45818230Y-65075321D01*
X44103944Y-64980083D02*
X44294420Y-65075321D01*
X44675373Y-65075321D01*
X44865849Y-64980083D01*
X44961087Y-64789607D01*
X44961087Y-64027702D01*
X44865849Y-63837226D01*
X44675373Y-63741988D01*
X44294420Y-63741988D01*
X44103944Y-63837226D01*
X44008706Y-64027702D01*
X44008706Y-64218179D01*
X44961087Y-64408655D01*
X41818230Y-63741988D02*
X41342040Y-65075321D01*
X40865849Y-63741988D01*
X39056325Y-65075321D02*
X40199182Y-65075321D01*
X39627754Y-65075321D02*
X39627754Y-63075321D01*
X39818230Y-63361036D01*
X40008706Y-63551512D01*
X40199182Y-63646750D01*
X59450761Y-61570121D02*
X59450761Y-59570121D01*
X58784095Y-60998693D01*
X58117428Y-59570121D01*
X58117428Y-61570121D01*
X57165047Y-61570121D02*
X57165047Y-59570121D01*
X55069809Y-61379645D02*
X55165047Y-61474883D01*
X55450761Y-61570121D01*
X55641238Y-61570121D01*
X55926952Y-61474883D01*
X56117428Y-61284407D01*
X56212666Y-61093931D01*
X56307904Y-60712979D01*
X56307904Y-60427264D01*
X56212666Y-60046312D01*
X56117428Y-59855836D01*
X55926952Y-59665360D01*
X55641238Y-59570121D01*
X55450761Y-59570121D01*
X55165047Y-59665360D01*
X55069809Y-59760598D01*
X53831714Y-59570121D02*
X53450761Y-59570121D01*
X53260285Y-59665360D01*
X53069809Y-59855836D01*
X52974571Y-60236788D01*
X52974571Y-60903455D01*
X53069809Y-61284407D01*
X53260285Y-61474883D01*
X53450761Y-61570121D01*
X53831714Y-61570121D01*
X54022190Y-61474883D01*
X54212666Y-61284407D01*
X54307904Y-60903455D01*
X54307904Y-60236788D01*
X54212666Y-59855836D01*
X54022190Y-59665360D01*
X53831714Y-59570121D01*
X52212666Y-59760598D02*
X52117428Y-59665360D01*
X51926952Y-59570121D01*
X51450761Y-59570121D01*
X51260285Y-59665360D01*
X51165047Y-59760598D01*
X51069809Y-59951074D01*
X51069809Y-60141550D01*
X51165047Y-60427264D01*
X52307904Y-61570121D01*
X51069809Y-61570121D01*
X50307904Y-59760598D02*
X50212666Y-59665360D01*
X50022190Y-59570121D01*
X49546000Y-59570121D01*
X49355523Y-59665360D01*
X49260285Y-59760598D01*
X49165047Y-59951074D01*
X49165047Y-60141550D01*
X49260285Y-60427264D01*
X50403142Y-61570121D01*
X49165047Y-61570121D01*
X47450761Y-59570121D02*
X47831714Y-59570121D01*
X48022190Y-59665360D01*
X48117428Y-59760598D01*
X48307904Y-60046312D01*
X48403142Y-60427264D01*
X48403142Y-61189169D01*
X48307904Y-61379645D01*
X48212666Y-61474883D01*
X48022190Y-61570121D01*
X47641238Y-61570121D01*
X47450761Y-61474883D01*
X47355523Y-61379645D01*
X47260285Y-61189169D01*
X47260285Y-60712979D01*
X47355523Y-60522502D01*
X47450761Y-60427264D01*
X47641238Y-60332026D01*
X48022190Y-60332026D01*
X48212666Y-60427264D01*
X48307904Y-60522502D01*
X48403142Y-60712979D01*
X46307904Y-61570121D02*
X45926952Y-61570121D01*
X45736476Y-61474883D01*
X45641238Y-61379645D01*
X45450761Y-61093931D01*
X45355523Y-60712979D01*
X45355523Y-59951074D01*
X45450761Y-59760598D01*
X45546000Y-59665360D01*
X45736476Y-59570121D01*
X46117428Y-59570121D01*
X46307904Y-59665360D01*
X46403142Y-59760598D01*
X46498380Y-59951074D01*
X46498380Y-60427264D01*
X46403142Y-60617740D01*
X46307904Y-60712979D01*
X46117428Y-60808217D01*
X45736476Y-60808217D01*
X45546000Y-60712979D01*
X45450761Y-60617740D01*
X45355523Y-60427264D01*
X44593619Y-59760598D02*
X44498380Y-59665360D01*
X44307904Y-59570121D01*
X43831714Y-59570121D01*
X43641238Y-59665360D01*
X43546000Y-59760598D01*
X43450761Y-59951074D01*
X43450761Y-60141550D01*
X43546000Y-60427264D01*
X44688857Y-61570121D01*
X43450761Y-61570121D01*
X42498380Y-61570121D02*
X42117428Y-61570121D01*
X41926952Y-61474883D01*
X41831714Y-61379645D01*
X41641238Y-61093931D01*
X41546000Y-60712979D01*
X41546000Y-59951074D01*
X41641238Y-59760598D01*
X41736476Y-59665360D01*
X41926952Y-59570121D01*
X42307904Y-59570121D01*
X42498380Y-59665360D01*
X42593619Y-59760598D01*
X42688857Y-59951074D01*
X42688857Y-60427264D01*
X42593619Y-60617740D01*
X42498380Y-60712979D01*
X42307904Y-60808217D01*
X41926952Y-60808217D01*
X41736476Y-60712979D01*
X41641238Y-60617740D01*
X41546000Y-60427264D01*
D10*
X44602400Y-47926761D02*
X44602400Y-48402952D01*
X45078590Y-48212476D02*
X44602400Y-48402952D01*
X44126209Y-48212476D01*
X44888114Y-48783904D02*
X44602400Y-48402952D01*
X44316685Y-48783904D01*
X68715337Y-53385920D02*
X69915337Y-53785920D01*
X68715337Y-54185920D01*
X69915337Y-54585920D02*
X68715337Y-54585920D01*
X68715337Y-54871634D01*
X68772480Y-55043062D01*
X68886765Y-55157348D01*
X69001051Y-55214491D01*
X69229622Y-55271634D01*
X69401051Y-55271634D01*
X69629622Y-55214491D01*
X69743908Y-55157348D01*
X69858194Y-55043062D01*
X69915337Y-54871634D01*
X69915337Y-54585920D01*
X69915337Y-55785920D02*
X68715337Y-55785920D01*
X68715337Y-56071634D01*
X68772480Y-56243062D01*
X68886765Y-56357348D01*
X69001051Y-56414491D01*
X69229622Y-56471634D01*
X69401051Y-56471634D01*
X69629622Y-56414491D01*
X69743908Y-56357348D01*
X69858194Y-56243062D01*
X69915337Y-56071634D01*
X69915337Y-55785920D01*
X66384880Y-54097034D02*
X66327737Y-53982748D01*
X66327737Y-53811320D01*
X66384880Y-53639891D01*
X66499165Y-53525605D01*
X66613451Y-53468462D01*
X66842022Y-53411320D01*
X67013451Y-53411320D01*
X67242022Y-53468462D01*
X67356308Y-53525605D01*
X67470594Y-53639891D01*
X67527737Y-53811320D01*
X67527737Y-53925605D01*
X67470594Y-54097034D01*
X67413451Y-54154177D01*
X67013451Y-54154177D01*
X67013451Y-53925605D01*
X67527737Y-54668462D02*
X66327737Y-54668462D01*
X67527737Y-55354177D01*
X66327737Y-55354177D01*
X67527737Y-55925605D02*
X66327737Y-55925605D01*
X66327737Y-56211320D01*
X66384880Y-56382748D01*
X66499165Y-56497034D01*
X66613451Y-56554177D01*
X66842022Y-56611320D01*
X67013451Y-56611320D01*
X67242022Y-56554177D01*
X67356308Y-56497034D01*
X67470594Y-56382748D01*
X67527737Y-56211320D01*
X67527737Y-55925605D01*
X72465497Y-53430965D02*
X71265497Y-53430965D01*
X71265497Y-53716680D01*
X71322640Y-53888108D01*
X71436925Y-54002394D01*
X71551211Y-54059537D01*
X71779782Y-54116680D01*
X71951211Y-54116680D01*
X72179782Y-54059537D01*
X72294068Y-54002394D01*
X72408354Y-53888108D01*
X72465497Y-53716680D01*
X72465497Y-53430965D01*
X72122640Y-54573822D02*
X72122640Y-55145251D01*
X72465497Y-54459537D02*
X71265497Y-54859537D01*
X72465497Y-55259537D01*
X71265497Y-55488108D02*
X71265497Y-56173822D01*
X72465497Y-55830965D02*
X71265497Y-55830965D01*
X74901371Y-54164954D02*
X74958514Y-54107811D01*
X75015657Y-53936382D01*
X75015657Y-53822097D01*
X74958514Y-53650668D01*
X74844228Y-53536382D01*
X74729942Y-53479240D01*
X74501371Y-53422097D01*
X74329942Y-53422097D01*
X74101371Y-53479240D01*
X73987085Y-53536382D01*
X73872800Y-53650668D01*
X73815657Y-53822097D01*
X73815657Y-53936382D01*
X73872800Y-54107811D01*
X73929942Y-54164954D01*
X75015657Y-55250668D02*
X75015657Y-54679240D01*
X73815657Y-54679240D01*
X75015657Y-55650668D02*
X73815657Y-55650668D01*
X75015657Y-56336382D02*
X74329942Y-55822097D01*
X73815657Y-56336382D02*
X74501371Y-55650668D01*
X66710000Y-63307074D02*
X66652857Y-63192788D01*
X66652857Y-63021360D01*
X66710000Y-62849931D01*
X66824285Y-62735645D01*
X66938571Y-62678502D01*
X67167142Y-62621360D01*
X67338571Y-62621360D01*
X67567142Y-62678502D01*
X67681428Y-62735645D01*
X67795714Y-62849931D01*
X67852857Y-63021360D01*
X67852857Y-63135645D01*
X67795714Y-63307074D01*
X67738571Y-63364217D01*
X67338571Y-63364217D01*
X67338571Y-63135645D01*
X67852857Y-63878502D02*
X66652857Y-63878502D01*
X67852857Y-64564217D01*
X66652857Y-64564217D01*
X67852857Y-65135645D02*
X66652857Y-65135645D01*
X66652857Y-65421360D01*
X66710000Y-65592788D01*
X66824285Y-65707074D01*
X66938571Y-65764217D01*
X67167142Y-65821360D01*
X67338571Y-65821360D01*
X67567142Y-65764217D01*
X67681428Y-65707074D01*
X67795714Y-65592788D01*
X67852857Y-65421360D01*
X67852857Y-65135645D01*
X69040457Y-62595960D02*
X70240457Y-62995960D01*
X69040457Y-63395960D01*
X70240457Y-63795960D02*
X69040457Y-63795960D01*
X69040457Y-64081674D01*
X69097600Y-64253102D01*
X69211885Y-64367388D01*
X69326171Y-64424531D01*
X69554742Y-64481674D01*
X69726171Y-64481674D01*
X69954742Y-64424531D01*
X70069028Y-64367388D01*
X70183314Y-64253102D01*
X70240457Y-64081674D01*
X70240457Y-63795960D01*
X70240457Y-64995960D02*
X69040457Y-64995960D01*
X69040457Y-65281674D01*
X69097600Y-65453102D01*
X69211885Y-65567388D01*
X69326171Y-65624531D01*
X69554742Y-65681674D01*
X69726171Y-65681674D01*
X69954742Y-65624531D01*
X70069028Y-65567388D01*
X70183314Y-65453102D01*
X70240457Y-65281674D01*
X70240457Y-64995960D01*
X72790617Y-62641005D02*
X71590617Y-62641005D01*
X71590617Y-62926720D01*
X71647760Y-63098148D01*
X71762045Y-63212434D01*
X71876331Y-63269577D01*
X72104902Y-63326720D01*
X72276331Y-63326720D01*
X72504902Y-63269577D01*
X72619188Y-63212434D01*
X72733474Y-63098148D01*
X72790617Y-62926720D01*
X72790617Y-62641005D01*
X72447760Y-63783862D02*
X72447760Y-64355291D01*
X72790617Y-63669577D02*
X71590617Y-64069577D01*
X72790617Y-64469577D01*
X71590617Y-64698148D02*
X71590617Y-65383862D01*
X72790617Y-65041005D02*
X71590617Y-65041005D01*
X75226491Y-63374994D02*
X75283634Y-63317851D01*
X75340777Y-63146422D01*
X75340777Y-63032137D01*
X75283634Y-62860708D01*
X75169348Y-62746422D01*
X75055062Y-62689280D01*
X74826491Y-62632137D01*
X74655062Y-62632137D01*
X74426491Y-62689280D01*
X74312205Y-62746422D01*
X74197920Y-62860708D01*
X74140777Y-63032137D01*
X74140777Y-63146422D01*
X74197920Y-63317851D01*
X74255062Y-63374994D01*
X75340777Y-64460708D02*
X75340777Y-63889280D01*
X74140777Y-63889280D01*
X75340777Y-64860708D02*
X74140777Y-64860708D01*
X75340777Y-65546422D02*
X74655062Y-65032137D01*
X74140777Y-65546422D02*
X74826491Y-64860708D01*
X62987680Y-62840531D02*
X62987680Y-64211960D01*
X64784537Y-63126245D02*
X63584537Y-63126245D01*
X64441680Y-63526245D01*
X63584537Y-63926245D01*
X64784537Y-63926245D01*
X62987680Y-64211960D02*
X62987680Y-65411960D01*
X64670251Y-65183388D02*
X64727394Y-65126245D01*
X64784537Y-64954817D01*
X64784537Y-64840531D01*
X64727394Y-64669102D01*
X64613108Y-64554817D01*
X64498822Y-64497674D01*
X64270251Y-64440531D01*
X64098822Y-64440531D01*
X63870251Y-64497674D01*
X63755965Y-64554817D01*
X63641680Y-64669102D01*
X63584537Y-64840531D01*
X63584537Y-64954817D01*
X63641680Y-65126245D01*
X63698822Y-65183388D01*
X62987680Y-65411960D02*
X62987680Y-66383388D01*
X64784537Y-66269102D02*
X64784537Y-65697674D01*
X63584537Y-65697674D01*
X62987680Y-66383388D02*
X62987680Y-67583388D01*
X64784537Y-67354817D02*
X64213108Y-66954817D01*
X64784537Y-66669102D02*
X63584537Y-66669102D01*
X63584537Y-67126245D01*
X63641680Y-67240531D01*
X63698822Y-67297674D01*
X63813108Y-67354817D01*
X63984537Y-67354817D01*
X64098822Y-67297674D01*
X64155965Y-67240531D01*
X64213108Y-67126245D01*
X64213108Y-66669102D01*
X78541880Y-37207961D02*
X78541880Y-37684152D01*
X79018070Y-37493676D02*
X78541880Y-37684152D01*
X78065689Y-37493676D01*
X78827594Y-38065104D02*
X78541880Y-37684152D01*
X78256165Y-38065104D01*
X64282320Y-37126681D02*
X64282320Y-37602872D01*
X64758510Y-37412396D02*
X64282320Y-37602872D01*
X63806129Y-37412396D01*
X64568034Y-37983824D02*
X64282320Y-37602872D01*
X63996605Y-37983824D01*
D13*
X110602772Y-34565520D02*
X110080268Y-34565520D01*
X110602772Y-35985520D02*
X110080268Y-35985520D01*
X110574612Y-55921840D02*
X110052108Y-55921840D01*
X110574612Y-57341840D02*
X110052108Y-57341840D01*
X41968788Y-36615440D02*
X42491292Y-36615440D01*
X41968788Y-35195440D02*
X42491292Y-35195440D01*
X41902748Y-57550120D02*
X42425252Y-57550120D01*
X41902748Y-56130120D02*
X42425252Y-56130120D01*
X31335612Y-50958680D02*
X30813108Y-50958680D01*
X31335612Y-52378680D02*
X30813108Y-52378680D01*
X110598852Y-50933280D02*
X110076348Y-50933280D01*
X110598852Y-52353280D02*
X110076348Y-52353280D01*
X110653572Y-29460120D02*
X110131068Y-29460120D01*
X110653572Y-30880120D02*
X110131068Y-30880120D01*
X31325452Y-29617600D02*
X30802948Y-29617600D01*
X31325452Y-31037600D02*
X30802948Y-31037600D01*
X98772612Y-27575440D02*
X98250108Y-27575440D01*
X98772612Y-28995440D02*
X98250108Y-28995440D01*
X98777692Y-29566800D02*
X98255188Y-29566800D01*
X98777692Y-30986800D02*
X98255188Y-30986800D01*
X98786692Y-50448280D02*
X98264188Y-50448280D01*
X98786692Y-49028280D02*
X98264188Y-49028280D01*
X98777692Y-51009480D02*
X98255188Y-51009480D01*
X98777692Y-52429480D02*
X98255188Y-52429480D01*
X40175548Y-48936840D02*
X40698052Y-48936840D01*
X40175548Y-50356840D02*
X40698052Y-50356840D01*
X40175548Y-52363440D02*
X40698052Y-52363440D01*
X40175548Y-50943440D02*
X40698052Y-50943440D01*
X40256828Y-27636400D02*
X40779332Y-27636400D01*
X40256828Y-29056400D02*
X40779332Y-29056400D01*
X40261908Y-31037600D02*
X40784412Y-31037600D01*
X40261908Y-29617600D02*
X40784412Y-29617600D01*
X63160600Y-59529800D02*
X75980600Y-59529800D01*
X75980600Y-59529800D02*
X75980600Y-62189800D01*
X75980600Y-62189800D02*
X63160600Y-62189800D01*
X63160600Y-62189800D02*
X63160600Y-59529800D01*
X64110600Y-59199800D02*
X64110600Y-59529800D01*
X64870600Y-59199800D02*
X64870600Y-59529800D01*
X65760600Y-59529800D02*
X65760600Y-62189800D01*
X66650600Y-59132729D02*
X66650600Y-59529800D01*
X67410600Y-59132729D02*
X67410600Y-59529800D01*
X68300600Y-59529800D02*
X68300600Y-62189800D01*
X69190600Y-59132729D02*
X69190600Y-59529800D01*
X69950600Y-59132729D02*
X69950600Y-59529800D01*
X70840600Y-59529800D02*
X70840600Y-62189800D01*
X71730600Y-59132729D02*
X71730600Y-59529800D01*
X72490600Y-59132729D02*
X72490600Y-59529800D01*
X73380600Y-59529800D02*
X73380600Y-62189800D01*
X74270600Y-59132729D02*
X74270600Y-59529800D01*
X75030600Y-59132729D02*
X75030600Y-59529800D01*
X64490600Y-56819800D02*
X63220600Y-56819800D01*
X63220600Y-56819800D02*
X63220600Y-58089800D01*
D14*
G36*
X63160600Y-59529800D02*
G01*
X63160600Y-62189800D01*
X65760600Y-62153800D01*
X65760600Y-59529800D01*
X63160600Y-59529800D01*
G37*
X63160600Y-59529800D02*
X63160600Y-62189800D01*
X65760600Y-62153800D01*
X65760600Y-59529800D01*
X63160600Y-59529800D01*
D13*
X80426879Y-40944940D02*
X80101321Y-40944940D01*
X80426879Y-41964940D02*
X80101321Y-41964940D01*
X41493221Y-44020200D02*
X41818779Y-44020200D01*
X41493221Y-43000200D02*
X41818779Y-43000200D01*
X66939379Y-38404940D02*
X66613821Y-38404940D01*
X66939379Y-39424940D02*
X66613821Y-39424940D01*
X66939379Y-39801940D02*
X66613821Y-39801940D01*
X66939379Y-40821940D02*
X66613821Y-40821940D01*
X66913979Y-41006300D02*
X66588421Y-41006300D01*
X66913979Y-42026300D02*
X66588421Y-42026300D01*
X66913879Y-42278440D02*
X66588321Y-42278440D01*
X66913879Y-43298440D02*
X66588321Y-43298440D01*
X66901379Y-43546300D02*
X66575821Y-43546300D01*
X66901379Y-44566300D02*
X66575821Y-44566300D01*
X66901279Y-44816300D02*
X66575721Y-44816300D01*
X66901279Y-45836300D02*
X66575721Y-45836300D01*
X66901279Y-46086300D02*
X66575721Y-46086300D01*
X66901279Y-47106300D02*
X66575721Y-47106300D01*
X66901379Y-47356300D02*
X66575821Y-47356300D01*
X66901379Y-48376300D02*
X66575821Y-48376300D01*
X80426779Y-38453600D02*
X80101221Y-38453600D01*
X80426779Y-39473600D02*
X80101221Y-39473600D01*
X80426879Y-39674940D02*
X80101321Y-39674940D01*
X80426879Y-40694940D02*
X80101321Y-40694940D01*
X80426779Y-42263600D02*
X80101221Y-42263600D01*
X80426779Y-43283600D02*
X80101221Y-43283600D01*
X80426779Y-43533600D02*
X80101221Y-43533600D01*
X80426779Y-44553600D02*
X80101221Y-44553600D01*
X80414179Y-44803600D02*
X80088621Y-44803600D01*
X80414179Y-45823600D02*
X80088621Y-45823600D01*
X80426779Y-46073600D02*
X80101221Y-46073600D01*
X80426779Y-47093600D02*
X80101221Y-47093600D01*
X80426779Y-47343600D02*
X80101221Y-47343600D01*
X80426779Y-48363600D02*
X80101221Y-48363600D01*
X85741529Y-55751000D02*
X85415971Y-55751000D01*
X85741529Y-56771000D02*
X85415971Y-56771000D01*
X68231900Y-28767500D02*
X68231900Y-30227500D01*
X71391900Y-28767500D02*
X71391900Y-30927500D01*
X71391900Y-28767500D02*
X70461900Y-28767500D01*
X68231900Y-28767500D02*
X69161900Y-28767500D01*
D15*
X46401000Y-47556700D02*
X44801000Y-47556700D01*
X46401000Y-40256700D02*
X52151000Y-40256700D01*
X46401000Y-47906700D02*
X52151000Y-47906700D01*
X46401000Y-40256700D02*
X46401000Y-40706700D01*
X52151000Y-40256700D02*
X52151000Y-40706700D01*
X52151000Y-47906700D02*
X52151000Y-47456700D01*
X46401000Y-47906700D02*
X46401000Y-47556700D01*
D13*
X61188600Y-48481300D02*
X59238600Y-48481300D01*
X61188600Y-48481300D02*
X63138600Y-48481300D01*
X61188600Y-38361300D02*
X59238600Y-38361300D01*
X61188600Y-38361300D02*
X64638600Y-38361300D01*
X74549000Y-38361300D02*
X77999000Y-38361300D01*
X74549000Y-38361300D02*
X72599000Y-38361300D01*
X74549000Y-48481300D02*
X76499000Y-48481300D01*
X74549000Y-48481300D02*
X72599000Y-48481300D01*
D15*
X110953158Y-34000700D02*
X111524586Y-34000700D01*
X111238872Y-34000700D02*
X111238872Y-33000700D01*
X111334110Y-33143558D01*
X111429348Y-33238796D01*
X111524586Y-33286415D01*
X110334110Y-33000700D02*
X110238872Y-33000700D01*
X110143634Y-33048320D01*
X110096015Y-33095939D01*
X110048396Y-33191177D01*
X110000777Y-33381653D01*
X110000777Y-33619748D01*
X110048396Y-33810224D01*
X110096015Y-33905462D01*
X110143634Y-33953081D01*
X110238872Y-34000700D01*
X110334110Y-34000700D01*
X110429348Y-33953081D01*
X110476967Y-33905462D01*
X110524586Y-33810224D01*
X110572205Y-33619748D01*
X110572205Y-33381653D01*
X110524586Y-33191177D01*
X110476967Y-33095939D01*
X110429348Y-33048320D01*
X110334110Y-33000700D01*
X109572205Y-34000700D02*
X109572205Y-33000700D01*
X109476967Y-33619748D02*
X109191253Y-34000700D01*
X109191253Y-33334034D02*
X109572205Y-33714986D01*
X110912518Y-55468780D02*
X111483946Y-55468780D01*
X111198232Y-55468780D02*
X111198232Y-54468780D01*
X111293470Y-54611638D01*
X111388708Y-54706876D01*
X111483946Y-54754495D01*
X110293470Y-54468780D02*
X110198232Y-54468780D01*
X110102994Y-54516400D01*
X110055375Y-54564019D01*
X110007756Y-54659257D01*
X109960137Y-54849733D01*
X109960137Y-55087828D01*
X110007756Y-55278304D01*
X110055375Y-55373542D01*
X110102994Y-55421161D01*
X110198232Y-55468780D01*
X110293470Y-55468780D01*
X110388708Y-55421161D01*
X110436327Y-55373542D01*
X110483946Y-55278304D01*
X110531565Y-55087828D01*
X110531565Y-54849733D01*
X110483946Y-54659257D01*
X110436327Y-54564019D01*
X110388708Y-54516400D01*
X110293470Y-54468780D01*
X109531565Y-55468780D02*
X109531565Y-54468780D01*
X109436327Y-55087828D02*
X109150613Y-55468780D01*
X109150613Y-54802114D02*
X109531565Y-55183066D01*
X45959638Y-36423860D02*
X46531066Y-36423860D01*
X46245352Y-36423860D02*
X46245352Y-35423860D01*
X46340590Y-35566718D01*
X46435828Y-35661956D01*
X46531066Y-35709575D01*
X45340590Y-35423860D02*
X45245352Y-35423860D01*
X45150114Y-35471480D01*
X45102495Y-35519099D01*
X45054876Y-35614337D01*
X45007257Y-35804813D01*
X45007257Y-36042908D01*
X45054876Y-36233384D01*
X45102495Y-36328622D01*
X45150114Y-36376241D01*
X45245352Y-36423860D01*
X45340590Y-36423860D01*
X45435828Y-36376241D01*
X45483447Y-36328622D01*
X45531066Y-36233384D01*
X45578685Y-36042908D01*
X45578685Y-35804813D01*
X45531066Y-35614337D01*
X45483447Y-35519099D01*
X45435828Y-35471480D01*
X45340590Y-35423860D01*
X44578685Y-36423860D02*
X44578685Y-35423860D01*
X44483447Y-36042908D02*
X44197733Y-36423860D01*
X44197733Y-35757194D02*
X44578685Y-36138146D01*
X42723678Y-58902860D02*
X43295106Y-58902860D01*
X43009392Y-58902860D02*
X43009392Y-57902860D01*
X43104630Y-58045718D01*
X43199868Y-58140956D01*
X43295106Y-58188575D01*
X42104630Y-57902860D02*
X42009392Y-57902860D01*
X41914154Y-57950480D01*
X41866535Y-57998099D01*
X41818916Y-58093337D01*
X41771297Y-58283813D01*
X41771297Y-58521908D01*
X41818916Y-58712384D01*
X41866535Y-58807622D01*
X41914154Y-58855241D01*
X42009392Y-58902860D01*
X42104630Y-58902860D01*
X42199868Y-58855241D01*
X42247487Y-58807622D01*
X42295106Y-58712384D01*
X42342725Y-58521908D01*
X42342725Y-58283813D01*
X42295106Y-58093337D01*
X42247487Y-57998099D01*
X42199868Y-57950480D01*
X42104630Y-57902860D01*
X41342725Y-58902860D02*
X41342725Y-57902860D01*
X41247487Y-58521908D02*
X40961773Y-58902860D01*
X40961773Y-58236194D02*
X41342725Y-58617146D01*
X32238154Y-49612300D02*
X31619106Y-49612300D01*
X31952440Y-49993253D01*
X31809582Y-49993253D01*
X31714344Y-50040872D01*
X31666725Y-50088491D01*
X31619106Y-50183729D01*
X31619106Y-50421824D01*
X31666725Y-50517062D01*
X31714344Y-50564681D01*
X31809582Y-50612300D01*
X32095297Y-50612300D01*
X32190535Y-50564681D01*
X32238154Y-50517062D01*
X31285773Y-49612300D02*
X30666725Y-49612300D01*
X31000059Y-49993253D01*
X30857201Y-49993253D01*
X30761963Y-50040872D01*
X30714344Y-50088491D01*
X30666725Y-50183729D01*
X30666725Y-50421824D01*
X30714344Y-50517062D01*
X30761963Y-50564681D01*
X30857201Y-50612300D01*
X31142916Y-50612300D01*
X31238154Y-50564681D01*
X31285773Y-50517062D01*
X30047678Y-49612300D02*
X29952440Y-49612300D01*
X29857201Y-49659920D01*
X29809582Y-49707539D01*
X29761963Y-49802777D01*
X29714344Y-49993253D01*
X29714344Y-50231348D01*
X29761963Y-50421824D01*
X29809582Y-50517062D01*
X29857201Y-50564681D01*
X29952440Y-50612300D01*
X30047678Y-50612300D01*
X30142916Y-50564681D01*
X30190535Y-50517062D01*
X30238154Y-50421824D01*
X30285773Y-50231348D01*
X30285773Y-49993253D01*
X30238154Y-49802777D01*
X30190535Y-49707539D01*
X30142916Y-49659920D01*
X30047678Y-49612300D01*
X111577594Y-49404020D02*
X110958546Y-49404020D01*
X111291880Y-49784973D01*
X111149022Y-49784973D01*
X111053784Y-49832592D01*
X111006165Y-49880211D01*
X110958546Y-49975449D01*
X110958546Y-50213544D01*
X111006165Y-50308782D01*
X111053784Y-50356401D01*
X111149022Y-50404020D01*
X111434737Y-50404020D01*
X111529975Y-50356401D01*
X111577594Y-50308782D01*
X110625213Y-49404020D02*
X110006165Y-49404020D01*
X110339499Y-49784973D01*
X110196641Y-49784973D01*
X110101403Y-49832592D01*
X110053784Y-49880211D01*
X110006165Y-49975449D01*
X110006165Y-50213544D01*
X110053784Y-50308782D01*
X110101403Y-50356401D01*
X110196641Y-50404020D01*
X110482356Y-50404020D01*
X110577594Y-50356401D01*
X110625213Y-50308782D01*
X109387118Y-49404020D02*
X109291880Y-49404020D01*
X109196641Y-49451640D01*
X109149022Y-49499259D01*
X109101403Y-49594497D01*
X109053784Y-49784973D01*
X109053784Y-50023068D01*
X109101403Y-50213544D01*
X109149022Y-50308782D01*
X109196641Y-50356401D01*
X109291880Y-50404020D01*
X109387118Y-50404020D01*
X109482356Y-50356401D01*
X109529975Y-50308782D01*
X109577594Y-50213544D01*
X109625213Y-50023068D01*
X109625213Y-49784973D01*
X109577594Y-49594497D01*
X109529975Y-49499259D01*
X109482356Y-49451640D01*
X109387118Y-49404020D01*
X111581514Y-28068020D02*
X110962466Y-28068020D01*
X111295800Y-28448973D01*
X111152942Y-28448973D01*
X111057704Y-28496592D01*
X111010085Y-28544211D01*
X110962466Y-28639449D01*
X110962466Y-28877544D01*
X111010085Y-28972782D01*
X111057704Y-29020401D01*
X111152942Y-29068020D01*
X111438657Y-29068020D01*
X111533895Y-29020401D01*
X111581514Y-28972782D01*
X110629133Y-28068020D02*
X110010085Y-28068020D01*
X110343419Y-28448973D01*
X110200561Y-28448973D01*
X110105323Y-28496592D01*
X110057704Y-28544211D01*
X110010085Y-28639449D01*
X110010085Y-28877544D01*
X110057704Y-28972782D01*
X110105323Y-29020401D01*
X110200561Y-29068020D01*
X110486276Y-29068020D01*
X110581514Y-29020401D01*
X110629133Y-28972782D01*
X109391038Y-28068020D02*
X109295800Y-28068020D01*
X109200561Y-28115640D01*
X109152942Y-28163259D01*
X109105323Y-28258497D01*
X109057704Y-28448973D01*
X109057704Y-28687068D01*
X109105323Y-28877544D01*
X109152942Y-28972782D01*
X109200561Y-29020401D01*
X109295800Y-29068020D01*
X109391038Y-29068020D01*
X109486276Y-29020401D01*
X109533895Y-28972782D01*
X109581514Y-28877544D01*
X109629133Y-28687068D01*
X109629133Y-28448973D01*
X109581514Y-28258497D01*
X109533895Y-28163259D01*
X109486276Y-28115640D01*
X109391038Y-28068020D01*
X32426114Y-31436060D02*
X31807066Y-31436060D01*
X32140400Y-31817013D01*
X31997542Y-31817013D01*
X31902304Y-31864632D01*
X31854685Y-31912251D01*
X31807066Y-32007489D01*
X31807066Y-32245584D01*
X31854685Y-32340822D01*
X31902304Y-32388441D01*
X31997542Y-32436060D01*
X32283257Y-32436060D01*
X32378495Y-32388441D01*
X32426114Y-32340822D01*
X31473733Y-31436060D02*
X30854685Y-31436060D01*
X31188019Y-31817013D01*
X31045161Y-31817013D01*
X30949923Y-31864632D01*
X30902304Y-31912251D01*
X30854685Y-32007489D01*
X30854685Y-32245584D01*
X30902304Y-32340822D01*
X30949923Y-32388441D01*
X31045161Y-32436060D01*
X31330876Y-32436060D01*
X31426114Y-32388441D01*
X31473733Y-32340822D01*
X30235638Y-31436060D02*
X30140400Y-31436060D01*
X30045161Y-31483680D01*
X29997542Y-31531299D01*
X29949923Y-31626537D01*
X29902304Y-31817013D01*
X29902304Y-32055108D01*
X29949923Y-32245584D01*
X29997542Y-32340822D01*
X30045161Y-32388441D01*
X30140400Y-32436060D01*
X30235638Y-32436060D01*
X30330876Y-32388441D01*
X30378495Y-32340822D01*
X30426114Y-32245584D01*
X30473733Y-32055108D01*
X30473733Y-31817013D01*
X30426114Y-31626537D01*
X30378495Y-31531299D01*
X30330876Y-31483680D01*
X30235638Y-31436060D01*
X99791994Y-26025860D02*
X99172946Y-26025860D01*
X99506280Y-26406813D01*
X99363422Y-26406813D01*
X99268184Y-26454432D01*
X99220565Y-26502051D01*
X99172946Y-26597289D01*
X99172946Y-26835384D01*
X99220565Y-26930622D01*
X99268184Y-26978241D01*
X99363422Y-27025860D01*
X99649137Y-27025860D01*
X99744375Y-26978241D01*
X99791994Y-26930622D01*
X98839613Y-26025860D02*
X98220565Y-26025860D01*
X98553899Y-26406813D01*
X98411041Y-26406813D01*
X98315803Y-26454432D01*
X98268184Y-26502051D01*
X98220565Y-26597289D01*
X98220565Y-26835384D01*
X98268184Y-26930622D01*
X98315803Y-26978241D01*
X98411041Y-27025860D01*
X98696756Y-27025860D01*
X98791994Y-26978241D01*
X98839613Y-26930622D01*
X97601518Y-26025860D02*
X97506280Y-26025860D01*
X97411041Y-26073480D01*
X97363422Y-26121099D01*
X97315803Y-26216337D01*
X97268184Y-26406813D01*
X97268184Y-26644908D01*
X97315803Y-26835384D01*
X97363422Y-26930622D01*
X97411041Y-26978241D01*
X97506280Y-27025860D01*
X97601518Y-27025860D01*
X97696756Y-26978241D01*
X97744375Y-26930622D01*
X97791994Y-26835384D01*
X97839613Y-26644908D01*
X97839613Y-26406813D01*
X97791994Y-26216337D01*
X97744375Y-26121099D01*
X97696756Y-26073480D01*
X97601518Y-26025860D01*
X96129314Y-49231300D02*
X95510266Y-49231300D01*
X95843600Y-49612253D01*
X95700742Y-49612253D01*
X95605504Y-49659872D01*
X95557885Y-49707491D01*
X95510266Y-49802729D01*
X95510266Y-50040824D01*
X95557885Y-50136062D01*
X95605504Y-50183681D01*
X95700742Y-50231300D01*
X95986457Y-50231300D01*
X96081695Y-50183681D01*
X96129314Y-50136062D01*
X95176933Y-49231300D02*
X94557885Y-49231300D01*
X94891219Y-49612253D01*
X94748361Y-49612253D01*
X94653123Y-49659872D01*
X94605504Y-49707491D01*
X94557885Y-49802729D01*
X94557885Y-50040824D01*
X94605504Y-50136062D01*
X94653123Y-50183681D01*
X94748361Y-50231300D01*
X95034076Y-50231300D01*
X95129314Y-50183681D01*
X95176933Y-50136062D01*
X93938838Y-49231300D02*
X93843600Y-49231300D01*
X93748361Y-49278920D01*
X93700742Y-49326539D01*
X93653123Y-49421777D01*
X93605504Y-49612253D01*
X93605504Y-49850348D01*
X93653123Y-50040824D01*
X93700742Y-50136062D01*
X93748361Y-50183681D01*
X93843600Y-50231300D01*
X93938838Y-50231300D01*
X94034076Y-50183681D01*
X94081695Y-50136062D01*
X94129314Y-50040824D01*
X94176933Y-49850348D01*
X94176933Y-49612253D01*
X94129314Y-49421777D01*
X94081695Y-49326539D01*
X94034076Y-49278920D01*
X93938838Y-49231300D01*
X41722514Y-47669220D02*
X41103466Y-47669220D01*
X41436800Y-48050173D01*
X41293942Y-48050173D01*
X41198704Y-48097792D01*
X41151085Y-48145411D01*
X41103466Y-48240649D01*
X41103466Y-48478744D01*
X41151085Y-48573982D01*
X41198704Y-48621601D01*
X41293942Y-48669220D01*
X41579657Y-48669220D01*
X41674895Y-48621601D01*
X41722514Y-48573982D01*
X40770133Y-47669220D02*
X40151085Y-47669220D01*
X40484419Y-48050173D01*
X40341561Y-48050173D01*
X40246323Y-48097792D01*
X40198704Y-48145411D01*
X40151085Y-48240649D01*
X40151085Y-48478744D01*
X40198704Y-48573982D01*
X40246323Y-48621601D01*
X40341561Y-48669220D01*
X40627276Y-48669220D01*
X40722514Y-48621601D01*
X40770133Y-48573982D01*
X39532038Y-47669220D02*
X39436800Y-47669220D01*
X39341561Y-47716840D01*
X39293942Y-47764459D01*
X39246323Y-47859697D01*
X39198704Y-48050173D01*
X39198704Y-48288268D01*
X39246323Y-48478744D01*
X39293942Y-48573982D01*
X39341561Y-48621601D01*
X39436800Y-48669220D01*
X39532038Y-48669220D01*
X39627276Y-48621601D01*
X39674895Y-48573982D01*
X39722514Y-48478744D01*
X39770133Y-48288268D01*
X39770133Y-48050173D01*
X39722514Y-47859697D01*
X39674895Y-47764459D01*
X39627276Y-47716840D01*
X39532038Y-47669220D01*
X41758074Y-26152860D02*
X41139026Y-26152860D01*
X41472360Y-26533813D01*
X41329502Y-26533813D01*
X41234264Y-26581432D01*
X41186645Y-26629051D01*
X41139026Y-26724289D01*
X41139026Y-26962384D01*
X41186645Y-27057622D01*
X41234264Y-27105241D01*
X41329502Y-27152860D01*
X41615217Y-27152860D01*
X41710455Y-27105241D01*
X41758074Y-27057622D01*
X40805693Y-26152860D02*
X40186645Y-26152860D01*
X40519979Y-26533813D01*
X40377121Y-26533813D01*
X40281883Y-26581432D01*
X40234264Y-26629051D01*
X40186645Y-26724289D01*
X40186645Y-26962384D01*
X40234264Y-27057622D01*
X40281883Y-27105241D01*
X40377121Y-27152860D01*
X40662836Y-27152860D01*
X40758074Y-27105241D01*
X40805693Y-27057622D01*
X39567598Y-26152860D02*
X39472360Y-26152860D01*
X39377121Y-26200480D01*
X39329502Y-26248099D01*
X39281883Y-26343337D01*
X39234264Y-26533813D01*
X39234264Y-26771908D01*
X39281883Y-26962384D01*
X39329502Y-27057622D01*
X39377121Y-27105241D01*
X39472360Y-27152860D01*
X39567598Y-27152860D01*
X39662836Y-27105241D01*
X39710455Y-27057622D01*
X39758074Y-26962384D01*
X39805693Y-26771908D01*
X39805693Y-26533813D01*
X39758074Y-26343337D01*
X39710455Y-26248099D01*
X39662836Y-26200480D01*
X39567598Y-26152860D01*
X39294678Y-43942260D02*
X39866106Y-43942260D01*
X39580392Y-43942260D02*
X39580392Y-42942260D01*
X39675630Y-43085118D01*
X39770868Y-43180356D01*
X39866106Y-43227975D01*
X38675630Y-42942260D02*
X38580392Y-42942260D01*
X38485154Y-42989880D01*
X38437535Y-43037499D01*
X38389916Y-43132737D01*
X38342297Y-43323213D01*
X38342297Y-43561308D01*
X38389916Y-43751784D01*
X38437535Y-43847022D01*
X38485154Y-43894641D01*
X38580392Y-43942260D01*
X38675630Y-43942260D01*
X38770868Y-43894641D01*
X38818487Y-43847022D01*
X38866106Y-43751784D01*
X38913725Y-43561308D01*
X38913725Y-43323213D01*
X38866106Y-43132737D01*
X38818487Y-43037499D01*
X38770868Y-42989880D01*
X38675630Y-42942260D01*
X37913725Y-43942260D02*
X37913725Y-42942260D01*
X37818487Y-43561308D02*
X37532773Y-43942260D01*
X37532773Y-43275594D02*
X37913725Y-43656546D01*
X86254198Y-54630580D02*
X86825626Y-54630580D01*
X86539912Y-54630580D02*
X86539912Y-53630580D01*
X86635150Y-53773438D01*
X86730388Y-53868676D01*
X86825626Y-53916295D01*
X85635150Y-53630580D02*
X85539912Y-53630580D01*
X85444674Y-53678200D01*
X85397055Y-53725819D01*
X85349436Y-53821057D01*
X85301817Y-54011533D01*
X85301817Y-54249628D01*
X85349436Y-54440104D01*
X85397055Y-54535342D01*
X85444674Y-54582961D01*
X85539912Y-54630580D01*
X85635150Y-54630580D01*
X85730388Y-54582961D01*
X85778007Y-54535342D01*
X85825626Y-54440104D01*
X85873245Y-54249628D01*
X85873245Y-54011533D01*
X85825626Y-53821057D01*
X85778007Y-53725819D01*
X85730388Y-53678200D01*
X85635150Y-53630580D01*
X84873245Y-54630580D02*
X84873245Y-53630580D01*
X84778007Y-54249628D02*
X84492293Y-54630580D01*
X84492293Y-53963914D02*
X84873245Y-54344866D01*
X72708758Y-30042099D02*
X72803996Y-29994480D01*
X72899234Y-29899241D01*
X73042091Y-29756384D01*
X73137329Y-29708765D01*
X73232567Y-29708765D01*
X73184948Y-29946860D02*
X73280186Y-29899241D01*
X73375424Y-29804003D01*
X73423043Y-29613527D01*
X73423043Y-29280194D01*
X73375424Y-29089718D01*
X73280186Y-28994480D01*
X73184948Y-28946860D01*
X72994472Y-28946860D01*
X72899234Y-28994480D01*
X72803996Y-29089718D01*
X72756377Y-29280194D01*
X72756377Y-29613527D01*
X72803996Y-29804003D01*
X72899234Y-29899241D01*
X72994472Y-29946860D01*
X73184948Y-29946860D01*
X71803996Y-29946860D02*
X72375424Y-29946860D01*
X72089710Y-29946860D02*
X72089710Y-28946860D01*
X72184948Y-29089718D01*
X72280186Y-29184956D01*
X72375424Y-29232575D01*
X48514095Y-49379319D02*
X48514095Y-48569795D01*
X48561714Y-48474557D01*
X48609333Y-48426938D01*
X48704571Y-48379319D01*
X48895047Y-48379319D01*
X48990285Y-48426938D01*
X49037904Y-48474557D01*
X49085523Y-48569795D01*
X49085523Y-49379319D01*
X49514095Y-49284080D02*
X49561714Y-49331700D01*
X49656952Y-49379319D01*
X49895047Y-49379319D01*
X49990285Y-49331700D01*
X50037904Y-49284080D01*
X50085523Y-49188842D01*
X50085523Y-49093604D01*
X50037904Y-48950747D01*
X49466476Y-48379319D01*
X50085523Y-48379319D01*
D10*
X55980685Y-39227057D02*
X55980685Y-38027057D01*
X55523542Y-38027057D01*
X55409257Y-38084200D01*
X55352114Y-38141342D01*
X55294971Y-38255628D01*
X55294971Y-38427057D01*
X55352114Y-38541342D01*
X55409257Y-38598485D01*
X55523542Y-38655628D01*
X55980685Y-38655628D01*
X54780685Y-39227057D02*
X54780685Y-38027057D01*
X53523542Y-39112771D02*
X53580685Y-39169914D01*
X53752114Y-39227057D01*
X53866400Y-39227057D01*
X54037828Y-39169914D01*
X54152114Y-39055628D01*
X54209257Y-38941342D01*
X54266400Y-38712771D01*
X54266400Y-38541342D01*
X54209257Y-38312771D01*
X54152114Y-38198485D01*
X54037828Y-38084200D01*
X53866400Y-38027057D01*
X53752114Y-38027057D01*
X53580685Y-38084200D01*
X53523542Y-38141342D01*
X52380685Y-39227057D02*
X53066400Y-39227057D01*
X52723542Y-39227057D02*
X52723542Y-38027057D01*
X52837828Y-38198485D01*
X52952114Y-38312771D01*
X53066400Y-38369914D01*
X51352114Y-38027057D02*
X51580685Y-38027057D01*
X51694971Y-38084200D01*
X51752114Y-38141342D01*
X51866400Y-38312771D01*
X51923542Y-38541342D01*
X51923542Y-38998485D01*
X51866400Y-39112771D01*
X51809257Y-39169914D01*
X51694971Y-39227057D01*
X51466400Y-39227057D01*
X51352114Y-39169914D01*
X51294971Y-39112771D01*
X51237828Y-38998485D01*
X51237828Y-38712771D01*
X51294971Y-38598485D01*
X51352114Y-38541342D01*
X51466400Y-38484200D01*
X51694971Y-38484200D01*
X51809257Y-38541342D01*
X51866400Y-38598485D01*
X51923542Y-38712771D01*
X50323542Y-38598485D02*
X50723542Y-38598485D01*
X50723542Y-39227057D02*
X50723542Y-38027057D01*
X50152114Y-38027057D01*
X49066400Y-39227057D02*
X49752114Y-39227057D01*
X49409257Y-39227057D02*
X49409257Y-38027057D01*
X49523542Y-38198485D01*
X49637828Y-38312771D01*
X49752114Y-38369914D01*
X47980685Y-38027057D02*
X48552114Y-38027057D01*
X48609257Y-38598485D01*
X48552114Y-38541342D01*
X48437828Y-38484200D01*
X48152114Y-38484200D01*
X48037828Y-38541342D01*
X47980685Y-38598485D01*
X47923542Y-38712771D01*
X47923542Y-38998485D01*
X47980685Y-39112771D01*
X48037828Y-39169914D01*
X48152114Y-39227057D01*
X48437828Y-39227057D01*
X48552114Y-39169914D01*
X48609257Y-39112771D01*
X47180685Y-38027057D02*
X47066400Y-38027057D01*
X46952114Y-38084200D01*
X46894971Y-38141342D01*
X46837828Y-38255628D01*
X46780685Y-38484200D01*
X46780685Y-38769914D01*
X46837828Y-38998485D01*
X46894971Y-39112771D01*
X46952114Y-39169914D01*
X47066400Y-39227057D01*
X47180685Y-39227057D01*
X47294971Y-39169914D01*
X47352114Y-39112771D01*
X47409257Y-38998485D01*
X47466400Y-38769914D01*
X47466400Y-38484200D01*
X47409257Y-38255628D01*
X47352114Y-38141342D01*
X47294971Y-38084200D01*
X47180685Y-38027057D01*
X46209257Y-39227057D02*
X45980685Y-39227057D01*
X45866400Y-39169914D01*
X45809257Y-39112771D01*
X45694971Y-38941342D01*
X45637828Y-38712771D01*
X45637828Y-38255628D01*
X45694971Y-38141342D01*
X45752114Y-38084200D01*
X45866400Y-38027057D01*
X46094971Y-38027057D01*
X46209257Y-38084200D01*
X46266400Y-38141342D01*
X46323542Y-38255628D01*
X46323542Y-38541342D01*
X46266400Y-38655628D01*
X46209257Y-38712771D01*
X46094971Y-38769914D01*
X45866400Y-38769914D01*
X45752114Y-38712771D01*
X45694971Y-38655628D01*
X45637828Y-38541342D01*
X45123542Y-38769914D02*
X44209257Y-38769914D01*
X43637828Y-39227057D02*
X43637828Y-38027057D01*
X43123542Y-39169914D02*
X42952114Y-39227057D01*
X42666400Y-39227057D01*
X42552114Y-39169914D01*
X42494971Y-39112771D01*
X42437828Y-38998485D01*
X42437828Y-38884200D01*
X42494971Y-38769914D01*
X42552114Y-38712771D01*
X42666400Y-38655628D01*
X42894971Y-38598485D01*
X43009257Y-38541342D01*
X43066400Y-38484200D01*
X43123542Y-38369914D01*
X43123542Y-38255628D01*
X43066400Y-38141342D01*
X43009257Y-38084200D01*
X42894971Y-38027057D01*
X42609257Y-38027057D01*
X42437828Y-38084200D01*
X41980685Y-39169914D02*
X41809257Y-39227057D01*
X41523542Y-39227057D01*
X41409257Y-39169914D01*
X41352114Y-39112771D01*
X41294971Y-38998485D01*
X41294971Y-38884200D01*
X41352114Y-38769914D01*
X41409257Y-38712771D01*
X41523542Y-38655628D01*
X41752114Y-38598485D01*
X41866400Y-38541342D01*
X41923542Y-38484200D01*
X41980685Y-38369914D01*
X41980685Y-38255628D01*
X41923542Y-38141342D01*
X41866400Y-38084200D01*
X41752114Y-38027057D01*
X41466400Y-38027057D01*
X41294971Y-38084200D01*
M02*
