G04 #@! TF.GenerationSoftware,KiCad,Pcbnew,(5.1.7)-1*
G04 #@! TF.CreationDate,2020-10-06T16:51:21+07:00*
G04 #@! TF.ProjectId,PIC16F1X_KIT2019,50494331-3646-4315-985f-4b4954323031,rev?*
G04 #@! TF.SameCoordinates,Original*
G04 #@! TF.FileFunction,Other,Fab,Bot*
%FSLAX46Y46*%
G04 Gerber Fmt 4.6, Leading zero omitted, Abs format (unit mm)*
G04 Created by KiCad (PCBNEW (5.1.7)-1) date 2020-10-06 16:51:21*
%MOMM*%
%LPD*%
G01*
G04 APERTURE LIST*
%ADD10C,0.100000*%
%ADD11C,0.150000*%
%ADD12C,0.060000*%
%ADD13C,0.075000*%
G04 APERTURE END LIST*
D10*
X111341520Y-35875520D02*
X111341520Y-34675520D01*
X111341520Y-34675520D02*
X109341520Y-34675520D01*
X109341520Y-34675520D02*
X109341520Y-35875520D01*
X109341520Y-35875520D02*
X111341520Y-35875520D01*
X111313360Y-57231840D02*
X111313360Y-56031840D01*
X111313360Y-56031840D02*
X109313360Y-56031840D01*
X109313360Y-56031840D02*
X109313360Y-57231840D01*
X109313360Y-57231840D02*
X111313360Y-57231840D01*
X41230040Y-35305440D02*
X41230040Y-36505440D01*
X41230040Y-36505440D02*
X43230040Y-36505440D01*
X43230040Y-36505440D02*
X43230040Y-35305440D01*
X43230040Y-35305440D02*
X41230040Y-35305440D01*
X41164000Y-56240120D02*
X41164000Y-57440120D01*
X41164000Y-57440120D02*
X43164000Y-57440120D01*
X43164000Y-57440120D02*
X43164000Y-56240120D01*
X43164000Y-56240120D02*
X41164000Y-56240120D01*
X32074360Y-52268680D02*
X32074360Y-51068680D01*
X32074360Y-51068680D02*
X30074360Y-51068680D01*
X30074360Y-51068680D02*
X30074360Y-52268680D01*
X30074360Y-52268680D02*
X32074360Y-52268680D01*
X111337600Y-52243280D02*
X111337600Y-51043280D01*
X111337600Y-51043280D02*
X109337600Y-51043280D01*
X109337600Y-51043280D02*
X109337600Y-52243280D01*
X109337600Y-52243280D02*
X111337600Y-52243280D01*
X111392320Y-30770120D02*
X111392320Y-29570120D01*
X111392320Y-29570120D02*
X109392320Y-29570120D01*
X109392320Y-29570120D02*
X109392320Y-30770120D01*
X109392320Y-30770120D02*
X111392320Y-30770120D01*
X32064200Y-30927600D02*
X32064200Y-29727600D01*
X32064200Y-29727600D02*
X30064200Y-29727600D01*
X30064200Y-29727600D02*
X30064200Y-30927600D01*
X30064200Y-30927600D02*
X32064200Y-30927600D01*
X99511360Y-28885440D02*
X99511360Y-27685440D01*
X99511360Y-27685440D02*
X97511360Y-27685440D01*
X97511360Y-27685440D02*
X97511360Y-28885440D01*
X97511360Y-28885440D02*
X99511360Y-28885440D01*
X99516440Y-30876800D02*
X99516440Y-29676800D01*
X99516440Y-29676800D02*
X97516440Y-29676800D01*
X97516440Y-29676800D02*
X97516440Y-30876800D01*
X97516440Y-30876800D02*
X99516440Y-30876800D01*
X97525440Y-50338280D02*
X99525440Y-50338280D01*
X97525440Y-49138280D02*
X97525440Y-50338280D01*
X99525440Y-49138280D02*
X97525440Y-49138280D01*
X99525440Y-50338280D02*
X99525440Y-49138280D01*
X99516440Y-52319480D02*
X99516440Y-51119480D01*
X99516440Y-51119480D02*
X97516440Y-51119480D01*
X97516440Y-51119480D02*
X97516440Y-52319480D01*
X97516440Y-52319480D02*
X99516440Y-52319480D01*
X41436800Y-49046840D02*
X39436800Y-49046840D01*
X41436800Y-50246840D02*
X41436800Y-49046840D01*
X39436800Y-50246840D02*
X41436800Y-50246840D01*
X39436800Y-49046840D02*
X39436800Y-50246840D01*
X39436800Y-51053440D02*
X39436800Y-52253440D01*
X39436800Y-52253440D02*
X41436800Y-52253440D01*
X41436800Y-52253440D02*
X41436800Y-51053440D01*
X41436800Y-51053440D02*
X39436800Y-51053440D01*
X41518080Y-27746400D02*
X39518080Y-27746400D01*
X41518080Y-28946400D02*
X41518080Y-27746400D01*
X39518080Y-28946400D02*
X41518080Y-28946400D01*
X39518080Y-27746400D02*
X39518080Y-28946400D01*
X39523160Y-29727600D02*
X39523160Y-30927600D01*
X39523160Y-30927600D02*
X41523160Y-30927600D01*
X41523160Y-30927600D02*
X41523160Y-29727600D01*
X41523160Y-29727600D02*
X39523160Y-29727600D01*
X63220600Y-60224800D02*
X63220600Y-62129800D01*
X63220600Y-62129800D02*
X75920600Y-62129800D01*
X75920600Y-62129800D02*
X75920600Y-59589800D01*
X75920600Y-59589800D02*
X63855600Y-59589800D01*
X63855600Y-59589800D02*
X63220600Y-60224800D01*
X64170600Y-57769800D02*
X64170600Y-59589800D01*
X64170600Y-57769800D02*
X64810600Y-57769800D01*
X64810600Y-57769800D02*
X64810600Y-59589800D01*
X66710600Y-57769800D02*
X66710600Y-59589800D01*
X66710600Y-57769800D02*
X67350600Y-57769800D01*
X67350600Y-57769800D02*
X67350600Y-59589800D01*
X69250600Y-57769800D02*
X69250600Y-59589800D01*
X69250600Y-57769800D02*
X69890600Y-57769800D01*
X69890600Y-57769800D02*
X69890600Y-59589800D01*
X71790600Y-57769800D02*
X71790600Y-59589800D01*
X71790600Y-57769800D02*
X72430600Y-57769800D01*
X72430600Y-57769800D02*
X72430600Y-59589800D01*
X74330600Y-57769800D02*
X74330600Y-59589800D01*
X74330600Y-57769800D02*
X74970600Y-57769800D01*
X74970600Y-57769800D02*
X74970600Y-59589800D01*
X81064100Y-41854940D02*
X81064100Y-41054940D01*
X81064100Y-41054940D02*
X79464100Y-41054940D01*
X79464100Y-41054940D02*
X79464100Y-41854940D01*
X79464100Y-41854940D02*
X81064100Y-41854940D01*
X40856000Y-43110200D02*
X40856000Y-43910200D01*
X40856000Y-43910200D02*
X42456000Y-43910200D01*
X42456000Y-43910200D02*
X42456000Y-43110200D01*
X42456000Y-43110200D02*
X40856000Y-43110200D01*
X67576600Y-39314940D02*
X67576600Y-38514940D01*
X67576600Y-38514940D02*
X65976600Y-38514940D01*
X65976600Y-38514940D02*
X65976600Y-39314940D01*
X65976600Y-39314940D02*
X67576600Y-39314940D01*
X67576600Y-40711940D02*
X67576600Y-39911940D01*
X67576600Y-39911940D02*
X65976600Y-39911940D01*
X65976600Y-39911940D02*
X65976600Y-40711940D01*
X65976600Y-40711940D02*
X67576600Y-40711940D01*
X67551200Y-41916300D02*
X67551200Y-41116300D01*
X67551200Y-41116300D02*
X65951200Y-41116300D01*
X65951200Y-41116300D02*
X65951200Y-41916300D01*
X65951200Y-41916300D02*
X67551200Y-41916300D01*
X67551100Y-43188440D02*
X67551100Y-42388440D01*
X67551100Y-42388440D02*
X65951100Y-42388440D01*
X65951100Y-42388440D02*
X65951100Y-43188440D01*
X65951100Y-43188440D02*
X67551100Y-43188440D01*
X67538600Y-44456300D02*
X67538600Y-43656300D01*
X67538600Y-43656300D02*
X65938600Y-43656300D01*
X65938600Y-43656300D02*
X65938600Y-44456300D01*
X65938600Y-44456300D02*
X67538600Y-44456300D01*
X67538500Y-45726300D02*
X67538500Y-44926300D01*
X67538500Y-44926300D02*
X65938500Y-44926300D01*
X65938500Y-44926300D02*
X65938500Y-45726300D01*
X65938500Y-45726300D02*
X67538500Y-45726300D01*
X67538500Y-46996300D02*
X67538500Y-46196300D01*
X67538500Y-46196300D02*
X65938500Y-46196300D01*
X65938500Y-46196300D02*
X65938500Y-46996300D01*
X65938500Y-46996300D02*
X67538500Y-46996300D01*
X67538600Y-48266300D02*
X67538600Y-47466300D01*
X67538600Y-47466300D02*
X65938600Y-47466300D01*
X65938600Y-47466300D02*
X65938600Y-48266300D01*
X65938600Y-48266300D02*
X67538600Y-48266300D01*
X81064000Y-39363600D02*
X81064000Y-38563600D01*
X81064000Y-38563600D02*
X79464000Y-38563600D01*
X79464000Y-38563600D02*
X79464000Y-39363600D01*
X79464000Y-39363600D02*
X81064000Y-39363600D01*
X81064100Y-40584940D02*
X81064100Y-39784940D01*
X81064100Y-39784940D02*
X79464100Y-39784940D01*
X79464100Y-39784940D02*
X79464100Y-40584940D01*
X79464100Y-40584940D02*
X81064100Y-40584940D01*
X81064000Y-43173600D02*
X81064000Y-42373600D01*
X81064000Y-42373600D02*
X79464000Y-42373600D01*
X79464000Y-42373600D02*
X79464000Y-43173600D01*
X79464000Y-43173600D02*
X81064000Y-43173600D01*
X81064000Y-44443600D02*
X81064000Y-43643600D01*
X81064000Y-43643600D02*
X79464000Y-43643600D01*
X79464000Y-43643600D02*
X79464000Y-44443600D01*
X79464000Y-44443600D02*
X81064000Y-44443600D01*
X81051400Y-45713600D02*
X81051400Y-44913600D01*
X81051400Y-44913600D02*
X79451400Y-44913600D01*
X79451400Y-44913600D02*
X79451400Y-45713600D01*
X79451400Y-45713600D02*
X81051400Y-45713600D01*
X81064000Y-46983600D02*
X81064000Y-46183600D01*
X81064000Y-46183600D02*
X79464000Y-46183600D01*
X79464000Y-46183600D02*
X79464000Y-46983600D01*
X79464000Y-46983600D02*
X81064000Y-46983600D01*
X81064000Y-48253600D02*
X81064000Y-47453600D01*
X81064000Y-47453600D02*
X79464000Y-47453600D01*
X79464000Y-47453600D02*
X79464000Y-48253600D01*
X79464000Y-48253600D02*
X81064000Y-48253600D01*
X86378750Y-56661000D02*
X86378750Y-55861000D01*
X86378750Y-55861000D02*
X84778750Y-55861000D01*
X84778750Y-55861000D02*
X84778750Y-56661000D01*
X84778750Y-56661000D02*
X86378750Y-56661000D01*
X68291900Y-30227500D02*
X68291900Y-28827500D01*
X71331900Y-28827500D02*
X68291900Y-28827500D01*
X70761900Y-30227500D02*
X71331900Y-29677500D01*
X71331900Y-29677500D02*
X71331900Y-28827500D01*
X70761900Y-30227500D02*
X68311900Y-30227500D01*
D11*
X46626000Y-46681700D02*
X47626000Y-47681700D01*
X46626000Y-40481700D02*
X46626000Y-46681700D01*
X51926000Y-40481700D02*
X46626000Y-40481700D01*
X51926000Y-47681700D02*
X51926000Y-40481700D01*
X47626000Y-47681700D02*
X51926000Y-47681700D01*
D10*
X62163600Y-38471300D02*
X59238600Y-38471300D01*
X59238600Y-38471300D02*
X59238600Y-48371300D01*
X59238600Y-48371300D02*
X63138600Y-48371300D01*
X63138600Y-48371300D02*
X63138600Y-39446300D01*
X63138600Y-39446300D02*
X62163600Y-38471300D01*
X76499000Y-39446300D02*
X75524000Y-38471300D01*
X76499000Y-48371300D02*
X76499000Y-39446300D01*
X72599000Y-48371300D02*
X76499000Y-48371300D01*
X72599000Y-38471300D02*
X72599000Y-48371300D01*
X75524000Y-38471300D02*
X72599000Y-38471300D01*
D12*
X110408186Y-35456472D02*
X110541520Y-35265996D01*
X110636758Y-35456472D02*
X110636758Y-35056472D01*
X110484377Y-35056472D01*
X110446281Y-35075520D01*
X110427234Y-35094567D01*
X110408186Y-35132662D01*
X110408186Y-35189805D01*
X110427234Y-35227900D01*
X110446281Y-35246948D01*
X110484377Y-35265996D01*
X110636758Y-35265996D01*
X110255805Y-35094567D02*
X110236758Y-35075520D01*
X110198662Y-35056472D01*
X110103424Y-35056472D01*
X110065329Y-35075520D01*
X110046281Y-35094567D01*
X110027234Y-35132662D01*
X110027234Y-35170758D01*
X110046281Y-35227900D01*
X110274853Y-35456472D01*
X110027234Y-35456472D01*
X110380026Y-56812792D02*
X110513360Y-56622316D01*
X110608598Y-56812792D02*
X110608598Y-56412792D01*
X110456217Y-56412792D01*
X110418121Y-56431840D01*
X110399074Y-56450887D01*
X110380026Y-56488982D01*
X110380026Y-56546125D01*
X110399074Y-56584220D01*
X110418121Y-56603268D01*
X110456217Y-56622316D01*
X110608598Y-56622316D01*
X109999074Y-56812792D02*
X110227645Y-56812792D01*
X110113360Y-56812792D02*
X110113360Y-56412792D01*
X110151455Y-56469935D01*
X110189550Y-56508030D01*
X110227645Y-56527078D01*
X42296706Y-36086392D02*
X42430040Y-35895916D01*
X42525278Y-36086392D02*
X42525278Y-35686392D01*
X42372897Y-35686392D01*
X42334801Y-35705440D01*
X42315754Y-35724487D01*
X42296706Y-35762582D01*
X42296706Y-35819725D01*
X42315754Y-35857820D01*
X42334801Y-35876868D01*
X42372897Y-35895916D01*
X42525278Y-35895916D01*
X42106230Y-36086392D02*
X42030040Y-36086392D01*
X41991944Y-36067344D01*
X41972897Y-36048297D01*
X41934801Y-35991154D01*
X41915754Y-35914963D01*
X41915754Y-35762582D01*
X41934801Y-35724487D01*
X41953849Y-35705440D01*
X41991944Y-35686392D01*
X42068135Y-35686392D01*
X42106230Y-35705440D01*
X42125278Y-35724487D01*
X42144325Y-35762582D01*
X42144325Y-35857820D01*
X42125278Y-35895916D01*
X42106230Y-35914963D01*
X42068135Y-35934011D01*
X41991944Y-35934011D01*
X41953849Y-35914963D01*
X41934801Y-35895916D01*
X41915754Y-35857820D01*
X42230666Y-57021072D02*
X42364000Y-56830596D01*
X42459238Y-57021072D02*
X42459238Y-56621072D01*
X42306857Y-56621072D01*
X42268761Y-56640120D01*
X42249714Y-56659167D01*
X42230666Y-56697262D01*
X42230666Y-56754405D01*
X42249714Y-56792500D01*
X42268761Y-56811548D01*
X42306857Y-56830596D01*
X42459238Y-56830596D01*
X42097333Y-56621072D02*
X41830666Y-56621072D01*
X42002095Y-57021072D01*
X31141026Y-51849632D02*
X31274360Y-51659156D01*
X31369598Y-51849632D02*
X31369598Y-51449632D01*
X31217217Y-51449632D01*
X31179121Y-51468680D01*
X31160074Y-51487727D01*
X31141026Y-51525822D01*
X31141026Y-51582965D01*
X31160074Y-51621060D01*
X31179121Y-51640108D01*
X31217217Y-51659156D01*
X31369598Y-51659156D01*
X30912455Y-51621060D02*
X30950550Y-51602013D01*
X30969598Y-51582965D01*
X30988645Y-51544870D01*
X30988645Y-51525822D01*
X30969598Y-51487727D01*
X30950550Y-51468680D01*
X30912455Y-51449632D01*
X30836264Y-51449632D01*
X30798169Y-51468680D01*
X30779121Y-51487727D01*
X30760074Y-51525822D01*
X30760074Y-51544870D01*
X30779121Y-51582965D01*
X30798169Y-51602013D01*
X30836264Y-51621060D01*
X30912455Y-51621060D01*
X30950550Y-51640108D01*
X30969598Y-51659156D01*
X30988645Y-51697251D01*
X30988645Y-51773441D01*
X30969598Y-51811537D01*
X30950550Y-51830584D01*
X30912455Y-51849632D01*
X30836264Y-51849632D01*
X30798169Y-51830584D01*
X30779121Y-51811537D01*
X30760074Y-51773441D01*
X30760074Y-51697251D01*
X30779121Y-51659156D01*
X30798169Y-51640108D01*
X30836264Y-51621060D01*
X110404266Y-51824232D02*
X110537600Y-51633756D01*
X110632838Y-51824232D02*
X110632838Y-51424232D01*
X110480457Y-51424232D01*
X110442361Y-51443280D01*
X110423314Y-51462327D01*
X110404266Y-51500422D01*
X110404266Y-51557565D01*
X110423314Y-51595660D01*
X110442361Y-51614708D01*
X110480457Y-51633756D01*
X110632838Y-51633756D01*
X110042361Y-51424232D02*
X110232838Y-51424232D01*
X110251885Y-51614708D01*
X110232838Y-51595660D01*
X110194742Y-51576613D01*
X110099504Y-51576613D01*
X110061409Y-51595660D01*
X110042361Y-51614708D01*
X110023314Y-51652803D01*
X110023314Y-51748041D01*
X110042361Y-51786137D01*
X110061409Y-51805184D01*
X110099504Y-51824232D01*
X110194742Y-51824232D01*
X110232838Y-51805184D01*
X110251885Y-51786137D01*
X110458986Y-30351072D02*
X110592320Y-30160596D01*
X110687558Y-30351072D02*
X110687558Y-29951072D01*
X110535177Y-29951072D01*
X110497081Y-29970120D01*
X110478034Y-29989167D01*
X110458986Y-30027262D01*
X110458986Y-30084405D01*
X110478034Y-30122500D01*
X110497081Y-30141548D01*
X110535177Y-30160596D01*
X110687558Y-30160596D01*
X110116129Y-29951072D02*
X110192320Y-29951072D01*
X110230415Y-29970120D01*
X110249462Y-29989167D01*
X110287558Y-30046310D01*
X110306605Y-30122500D01*
X110306605Y-30274881D01*
X110287558Y-30312977D01*
X110268510Y-30332024D01*
X110230415Y-30351072D01*
X110154224Y-30351072D01*
X110116129Y-30332024D01*
X110097081Y-30312977D01*
X110078034Y-30274881D01*
X110078034Y-30179643D01*
X110097081Y-30141548D01*
X110116129Y-30122500D01*
X110154224Y-30103453D01*
X110230415Y-30103453D01*
X110268510Y-30122500D01*
X110287558Y-30141548D01*
X110306605Y-30179643D01*
X31321342Y-30508552D02*
X31454676Y-30318076D01*
X31549914Y-30508552D02*
X31549914Y-30108552D01*
X31397533Y-30108552D01*
X31359438Y-30127600D01*
X31340390Y-30146647D01*
X31321342Y-30184742D01*
X31321342Y-30241885D01*
X31340390Y-30279980D01*
X31359438Y-30299028D01*
X31397533Y-30318076D01*
X31549914Y-30318076D01*
X30940390Y-30508552D02*
X31168961Y-30508552D01*
X31054676Y-30508552D02*
X31054676Y-30108552D01*
X31092771Y-30165695D01*
X31130866Y-30203790D01*
X31168961Y-30222838D01*
X30559438Y-30508552D02*
X30788009Y-30508552D01*
X30673723Y-30508552D02*
X30673723Y-30108552D01*
X30711819Y-30165695D01*
X30749914Y-30203790D01*
X30788009Y-30222838D01*
X98768502Y-28466392D02*
X98901836Y-28275916D01*
X98997074Y-28466392D02*
X98997074Y-28066392D01*
X98844693Y-28066392D01*
X98806598Y-28085440D01*
X98787550Y-28104487D01*
X98768502Y-28142582D01*
X98768502Y-28199725D01*
X98787550Y-28237820D01*
X98806598Y-28256868D01*
X98844693Y-28275916D01*
X98997074Y-28275916D01*
X98635169Y-28066392D02*
X98387550Y-28066392D01*
X98520883Y-28218773D01*
X98463740Y-28218773D01*
X98425645Y-28237820D01*
X98406598Y-28256868D01*
X98387550Y-28294963D01*
X98387550Y-28390201D01*
X98406598Y-28428297D01*
X98425645Y-28447344D01*
X98463740Y-28466392D01*
X98578026Y-28466392D01*
X98616121Y-28447344D01*
X98635169Y-28428297D01*
X98139931Y-28066392D02*
X98101836Y-28066392D01*
X98063740Y-28085440D01*
X98044693Y-28104487D01*
X98025645Y-28142582D01*
X98006598Y-28218773D01*
X98006598Y-28314011D01*
X98025645Y-28390201D01*
X98044693Y-28428297D01*
X98063740Y-28447344D01*
X98101836Y-28466392D01*
X98139931Y-28466392D01*
X98178026Y-28447344D01*
X98197074Y-28428297D01*
X98216121Y-28390201D01*
X98235169Y-28314011D01*
X98235169Y-28218773D01*
X98216121Y-28142582D01*
X98197074Y-28104487D01*
X98178026Y-28085440D01*
X98139931Y-28066392D01*
D11*
X96378234Y-29719020D02*
X95759186Y-29719020D01*
X96092520Y-30099973D01*
X95949662Y-30099973D01*
X95854424Y-30147592D01*
X95806805Y-30195211D01*
X95759186Y-30290449D01*
X95759186Y-30528544D01*
X95806805Y-30623782D01*
X95854424Y-30671401D01*
X95949662Y-30719020D01*
X96235377Y-30719020D01*
X96330615Y-30671401D01*
X96378234Y-30623782D01*
X95425853Y-29719020D02*
X94806805Y-29719020D01*
X95140139Y-30099973D01*
X94997281Y-30099973D01*
X94902043Y-30147592D01*
X94854424Y-30195211D01*
X94806805Y-30290449D01*
X94806805Y-30528544D01*
X94854424Y-30623782D01*
X94902043Y-30671401D01*
X94997281Y-30719020D01*
X95282996Y-30719020D01*
X95378234Y-30671401D01*
X95425853Y-30623782D01*
X94187758Y-29719020D02*
X94092520Y-29719020D01*
X93997281Y-29766640D01*
X93949662Y-29814259D01*
X93902043Y-29909497D01*
X93854424Y-30099973D01*
X93854424Y-30338068D01*
X93902043Y-30528544D01*
X93949662Y-30623782D01*
X93997281Y-30671401D01*
X94092520Y-30719020D01*
X94187758Y-30719020D01*
X94282996Y-30671401D01*
X94330615Y-30623782D01*
X94378234Y-30528544D01*
X94425853Y-30338068D01*
X94425853Y-30099973D01*
X94378234Y-29909497D01*
X94330615Y-29814259D01*
X94282996Y-29766640D01*
X94187758Y-29719020D01*
D12*
X98773582Y-30457752D02*
X98906916Y-30267276D01*
X99002154Y-30457752D02*
X99002154Y-30057752D01*
X98849773Y-30057752D01*
X98811678Y-30076800D01*
X98792630Y-30095847D01*
X98773582Y-30133942D01*
X98773582Y-30191085D01*
X98792630Y-30229180D01*
X98811678Y-30248228D01*
X98849773Y-30267276D01*
X99002154Y-30267276D01*
X98640249Y-30057752D02*
X98392630Y-30057752D01*
X98525963Y-30210133D01*
X98468820Y-30210133D01*
X98430725Y-30229180D01*
X98411678Y-30248228D01*
X98392630Y-30286323D01*
X98392630Y-30381561D01*
X98411678Y-30419657D01*
X98430725Y-30438704D01*
X98468820Y-30457752D01*
X98583106Y-30457752D01*
X98621201Y-30438704D01*
X98640249Y-30419657D01*
X98145011Y-30057752D02*
X98106916Y-30057752D01*
X98068820Y-30076800D01*
X98049773Y-30095847D01*
X98030725Y-30133942D01*
X98011678Y-30210133D01*
X98011678Y-30305371D01*
X98030725Y-30381561D01*
X98049773Y-30419657D01*
X98068820Y-30438704D01*
X98106916Y-30457752D01*
X98145011Y-30457752D01*
X98183106Y-30438704D01*
X98202154Y-30419657D01*
X98221201Y-30381561D01*
X98240249Y-30305371D01*
X98240249Y-30210133D01*
X98221201Y-30133942D01*
X98202154Y-30095847D01*
X98183106Y-30076800D01*
X98145011Y-30057752D01*
X98782582Y-49919232D02*
X98915916Y-49728756D01*
X99011154Y-49919232D02*
X99011154Y-49519232D01*
X98858773Y-49519232D01*
X98820678Y-49538280D01*
X98801630Y-49557327D01*
X98782582Y-49595422D01*
X98782582Y-49652565D01*
X98801630Y-49690660D01*
X98820678Y-49709708D01*
X98858773Y-49728756D01*
X99011154Y-49728756D01*
X98630201Y-49557327D02*
X98611154Y-49538280D01*
X98573059Y-49519232D01*
X98477820Y-49519232D01*
X98439725Y-49538280D01*
X98420678Y-49557327D01*
X98401630Y-49595422D01*
X98401630Y-49633518D01*
X98420678Y-49690660D01*
X98649249Y-49919232D01*
X98401630Y-49919232D01*
X98211154Y-49919232D02*
X98134963Y-49919232D01*
X98096868Y-49900184D01*
X98077820Y-49881137D01*
X98039725Y-49823994D01*
X98020678Y-49747803D01*
X98020678Y-49595422D01*
X98039725Y-49557327D01*
X98058773Y-49538280D01*
X98096868Y-49519232D01*
X98173059Y-49519232D01*
X98211154Y-49538280D01*
X98230201Y-49557327D01*
X98249249Y-49595422D01*
X98249249Y-49690660D01*
X98230201Y-49728756D01*
X98211154Y-49747803D01*
X98173059Y-49766851D01*
X98096868Y-49766851D01*
X98058773Y-49747803D01*
X98039725Y-49728756D01*
X98020678Y-49690660D01*
D11*
X96149634Y-51217580D02*
X95530586Y-51217580D01*
X95863920Y-51598533D01*
X95721062Y-51598533D01*
X95625824Y-51646152D01*
X95578205Y-51693771D01*
X95530586Y-51789009D01*
X95530586Y-52027104D01*
X95578205Y-52122342D01*
X95625824Y-52169961D01*
X95721062Y-52217580D01*
X96006777Y-52217580D01*
X96102015Y-52169961D01*
X96149634Y-52122342D01*
X95197253Y-51217580D02*
X94578205Y-51217580D01*
X94911539Y-51598533D01*
X94768681Y-51598533D01*
X94673443Y-51646152D01*
X94625824Y-51693771D01*
X94578205Y-51789009D01*
X94578205Y-52027104D01*
X94625824Y-52122342D01*
X94673443Y-52169961D01*
X94768681Y-52217580D01*
X95054396Y-52217580D01*
X95149634Y-52169961D01*
X95197253Y-52122342D01*
X93959158Y-51217580D02*
X93863920Y-51217580D01*
X93768681Y-51265200D01*
X93721062Y-51312819D01*
X93673443Y-51408057D01*
X93625824Y-51598533D01*
X93625824Y-51836628D01*
X93673443Y-52027104D01*
X93721062Y-52122342D01*
X93768681Y-52169961D01*
X93863920Y-52217580D01*
X93959158Y-52217580D01*
X94054396Y-52169961D01*
X94102015Y-52122342D01*
X94149634Y-52027104D01*
X94197253Y-51836628D01*
X94197253Y-51598533D01*
X94149634Y-51408057D01*
X94102015Y-51312819D01*
X94054396Y-51265200D01*
X93959158Y-51217580D01*
D12*
X98773582Y-51900432D02*
X98906916Y-51709956D01*
X99002154Y-51900432D02*
X99002154Y-51500432D01*
X98849773Y-51500432D01*
X98811678Y-51519480D01*
X98792630Y-51538527D01*
X98773582Y-51576622D01*
X98773582Y-51633765D01*
X98792630Y-51671860D01*
X98811678Y-51690908D01*
X98849773Y-51709956D01*
X99002154Y-51709956D01*
X98621201Y-51538527D02*
X98602154Y-51519480D01*
X98564059Y-51500432D01*
X98468820Y-51500432D01*
X98430725Y-51519480D01*
X98411678Y-51538527D01*
X98392630Y-51576622D01*
X98392630Y-51614718D01*
X98411678Y-51671860D01*
X98640249Y-51900432D01*
X98392630Y-51900432D01*
X98202154Y-51900432D02*
X98125963Y-51900432D01*
X98087868Y-51881384D01*
X98068820Y-51862337D01*
X98030725Y-51805194D01*
X98011678Y-51729003D01*
X98011678Y-51576622D01*
X98030725Y-51538527D01*
X98049773Y-51519480D01*
X98087868Y-51500432D01*
X98164059Y-51500432D01*
X98202154Y-51519480D01*
X98221201Y-51538527D01*
X98240249Y-51576622D01*
X98240249Y-51671860D01*
X98221201Y-51709956D01*
X98202154Y-51729003D01*
X98164059Y-51748051D01*
X98087868Y-51748051D01*
X98049773Y-51729003D01*
X98030725Y-51709956D01*
X98011678Y-51671860D01*
X40693942Y-49827792D02*
X40827276Y-49637316D01*
X40922514Y-49827792D02*
X40922514Y-49427792D01*
X40770133Y-49427792D01*
X40732038Y-49446840D01*
X40712990Y-49465887D01*
X40693942Y-49503982D01*
X40693942Y-49561125D01*
X40712990Y-49599220D01*
X40732038Y-49618268D01*
X40770133Y-49637316D01*
X40922514Y-49637316D01*
X40560609Y-49427792D02*
X40312990Y-49427792D01*
X40446323Y-49580173D01*
X40389180Y-49580173D01*
X40351085Y-49599220D01*
X40332038Y-49618268D01*
X40312990Y-49656363D01*
X40312990Y-49751601D01*
X40332038Y-49789697D01*
X40351085Y-49808744D01*
X40389180Y-49827792D01*
X40503466Y-49827792D01*
X40541561Y-49808744D01*
X40560609Y-49789697D01*
X39932038Y-49827792D02*
X40160609Y-49827792D01*
X40046323Y-49827792D02*
X40046323Y-49427792D01*
X40084419Y-49484935D01*
X40122514Y-49523030D01*
X40160609Y-49542078D01*
D11*
X41722514Y-49675820D02*
X41103466Y-49675820D01*
X41436800Y-50056773D01*
X41293942Y-50056773D01*
X41198704Y-50104392D01*
X41151085Y-50152011D01*
X41103466Y-50247249D01*
X41103466Y-50485344D01*
X41151085Y-50580582D01*
X41198704Y-50628201D01*
X41293942Y-50675820D01*
X41579657Y-50675820D01*
X41674895Y-50628201D01*
X41722514Y-50580582D01*
X40770133Y-49675820D02*
X40151085Y-49675820D01*
X40484419Y-50056773D01*
X40341561Y-50056773D01*
X40246323Y-50104392D01*
X40198704Y-50152011D01*
X40151085Y-50247249D01*
X40151085Y-50485344D01*
X40198704Y-50580582D01*
X40246323Y-50628201D01*
X40341561Y-50675820D01*
X40627276Y-50675820D01*
X40722514Y-50628201D01*
X40770133Y-50580582D01*
X39532038Y-49675820D02*
X39436800Y-49675820D01*
X39341561Y-49723440D01*
X39293942Y-49771059D01*
X39246323Y-49866297D01*
X39198704Y-50056773D01*
X39198704Y-50294868D01*
X39246323Y-50485344D01*
X39293942Y-50580582D01*
X39341561Y-50628201D01*
X39436800Y-50675820D01*
X39532038Y-50675820D01*
X39627276Y-50628201D01*
X39674895Y-50580582D01*
X39722514Y-50485344D01*
X39770133Y-50294868D01*
X39770133Y-50056773D01*
X39722514Y-49866297D01*
X39674895Y-49771059D01*
X39627276Y-49723440D01*
X39532038Y-49675820D01*
D12*
X40693942Y-51834392D02*
X40827276Y-51643916D01*
X40922514Y-51834392D02*
X40922514Y-51434392D01*
X40770133Y-51434392D01*
X40732038Y-51453440D01*
X40712990Y-51472487D01*
X40693942Y-51510582D01*
X40693942Y-51567725D01*
X40712990Y-51605820D01*
X40732038Y-51624868D01*
X40770133Y-51643916D01*
X40922514Y-51643916D01*
X40560609Y-51434392D02*
X40312990Y-51434392D01*
X40446323Y-51586773D01*
X40389180Y-51586773D01*
X40351085Y-51605820D01*
X40332038Y-51624868D01*
X40312990Y-51662963D01*
X40312990Y-51758201D01*
X40332038Y-51796297D01*
X40351085Y-51815344D01*
X40389180Y-51834392D01*
X40503466Y-51834392D01*
X40541561Y-51815344D01*
X40560609Y-51796297D01*
X39932038Y-51834392D02*
X40160609Y-51834392D01*
X40046323Y-51834392D02*
X40046323Y-51434392D01*
X40084419Y-51491535D01*
X40122514Y-51529630D01*
X40160609Y-51548678D01*
D11*
X45212474Y-27819100D02*
X44593426Y-27819100D01*
X44926760Y-28200053D01*
X44783902Y-28200053D01*
X44688664Y-28247672D01*
X44641045Y-28295291D01*
X44593426Y-28390529D01*
X44593426Y-28628624D01*
X44641045Y-28723862D01*
X44688664Y-28771481D01*
X44783902Y-28819100D01*
X45069617Y-28819100D01*
X45164855Y-28771481D01*
X45212474Y-28723862D01*
X44260093Y-27819100D02*
X43641045Y-27819100D01*
X43974379Y-28200053D01*
X43831521Y-28200053D01*
X43736283Y-28247672D01*
X43688664Y-28295291D01*
X43641045Y-28390529D01*
X43641045Y-28628624D01*
X43688664Y-28723862D01*
X43736283Y-28771481D01*
X43831521Y-28819100D01*
X44117236Y-28819100D01*
X44212474Y-28771481D01*
X44260093Y-28723862D01*
X43021998Y-27819100D02*
X42926760Y-27819100D01*
X42831521Y-27866720D01*
X42783902Y-27914339D01*
X42736283Y-28009577D01*
X42688664Y-28200053D01*
X42688664Y-28438148D01*
X42736283Y-28628624D01*
X42783902Y-28723862D01*
X42831521Y-28771481D01*
X42926760Y-28819100D01*
X43021998Y-28819100D01*
X43117236Y-28771481D01*
X43164855Y-28723862D01*
X43212474Y-28628624D01*
X43260093Y-28438148D01*
X43260093Y-28200053D01*
X43212474Y-28009577D01*
X43164855Y-27914339D01*
X43117236Y-27866720D01*
X43021998Y-27819100D01*
D12*
X40775222Y-28527352D02*
X40908556Y-28336876D01*
X41003794Y-28527352D02*
X41003794Y-28127352D01*
X40851413Y-28127352D01*
X40813318Y-28146400D01*
X40794270Y-28165447D01*
X40775222Y-28203542D01*
X40775222Y-28260685D01*
X40794270Y-28298780D01*
X40813318Y-28317828D01*
X40851413Y-28336876D01*
X41003794Y-28336876D01*
X40641889Y-28127352D02*
X40394270Y-28127352D01*
X40527603Y-28279733D01*
X40470460Y-28279733D01*
X40432365Y-28298780D01*
X40413318Y-28317828D01*
X40394270Y-28355923D01*
X40394270Y-28451161D01*
X40413318Y-28489257D01*
X40432365Y-28508304D01*
X40470460Y-28527352D01*
X40584746Y-28527352D01*
X40622841Y-28508304D01*
X40641889Y-28489257D01*
X40241889Y-28165447D02*
X40222841Y-28146400D01*
X40184746Y-28127352D01*
X40089508Y-28127352D01*
X40051413Y-28146400D01*
X40032365Y-28165447D01*
X40013318Y-28203542D01*
X40013318Y-28241638D01*
X40032365Y-28298780D01*
X40260937Y-28527352D01*
X40013318Y-28527352D01*
X40780302Y-30508552D02*
X40913636Y-30318076D01*
X41008874Y-30508552D02*
X41008874Y-30108552D01*
X40856493Y-30108552D01*
X40818398Y-30127600D01*
X40799350Y-30146647D01*
X40780302Y-30184742D01*
X40780302Y-30241885D01*
X40799350Y-30279980D01*
X40818398Y-30299028D01*
X40856493Y-30318076D01*
X41008874Y-30318076D01*
X40646969Y-30108552D02*
X40399350Y-30108552D01*
X40532683Y-30260933D01*
X40475540Y-30260933D01*
X40437445Y-30279980D01*
X40418398Y-30299028D01*
X40399350Y-30337123D01*
X40399350Y-30432361D01*
X40418398Y-30470457D01*
X40437445Y-30489504D01*
X40475540Y-30508552D01*
X40589826Y-30508552D01*
X40627921Y-30489504D01*
X40646969Y-30470457D01*
X40246969Y-30146647D02*
X40227921Y-30127600D01*
X40189826Y-30108552D01*
X40094588Y-30108552D01*
X40056493Y-30127600D01*
X40037445Y-30146647D01*
X40018398Y-30184742D01*
X40018398Y-30222838D01*
X40037445Y-30279980D01*
X40266017Y-30508552D01*
X40018398Y-30508552D01*
D11*
X77372980Y-61498609D02*
X76372980Y-61498609D01*
X77325361Y-61927180D02*
X77372980Y-62070038D01*
X77372980Y-62308133D01*
X77325361Y-62403371D01*
X77277742Y-62450990D01*
X77182504Y-62498609D01*
X77087266Y-62498609D01*
X76992028Y-62450990D01*
X76944409Y-62403371D01*
X76896790Y-62308133D01*
X76849171Y-62117657D01*
X76801552Y-62022419D01*
X76753933Y-61974800D01*
X76658695Y-61927180D01*
X76563457Y-61927180D01*
X76468219Y-61974800D01*
X76420600Y-62022419D01*
X76372980Y-62117657D01*
X76372980Y-62355752D01*
X76420600Y-62498609D01*
X77372980Y-62927180D02*
X76372980Y-62927180D01*
X76372980Y-63308133D01*
X76420600Y-63403371D01*
X76468219Y-63450990D01*
X76563457Y-63498609D01*
X76706314Y-63498609D01*
X76801552Y-63450990D01*
X76849171Y-63403371D01*
X76896790Y-63308133D01*
X76896790Y-62927180D01*
X69903933Y-60312180D02*
X69903933Y-61026466D01*
X69951552Y-61169323D01*
X70046790Y-61264561D01*
X70189647Y-61312180D01*
X70284885Y-61312180D01*
X69475361Y-60407419D02*
X69427742Y-60359800D01*
X69332504Y-60312180D01*
X69094409Y-60312180D01*
X68999171Y-60359800D01*
X68951552Y-60407419D01*
X68903933Y-60502657D01*
X68903933Y-60597895D01*
X68951552Y-60740752D01*
X69522980Y-61312180D01*
X68903933Y-61312180D01*
D12*
X80521242Y-41635892D02*
X80654576Y-41445416D01*
X80749814Y-41635892D02*
X80749814Y-41235892D01*
X80597433Y-41235892D01*
X80559338Y-41254940D01*
X80540290Y-41273987D01*
X80521242Y-41312082D01*
X80521242Y-41369225D01*
X80540290Y-41407320D01*
X80559338Y-41426368D01*
X80597433Y-41445416D01*
X80749814Y-41445416D01*
X80368861Y-41273987D02*
X80349814Y-41254940D01*
X80311719Y-41235892D01*
X80216480Y-41235892D01*
X80178385Y-41254940D01*
X80159338Y-41273987D01*
X80140290Y-41312082D01*
X80140290Y-41350178D01*
X80159338Y-41407320D01*
X80387909Y-41635892D01*
X80140290Y-41635892D01*
X79987909Y-41273987D02*
X79968861Y-41254940D01*
X79930766Y-41235892D01*
X79835528Y-41235892D01*
X79797433Y-41254940D01*
X79778385Y-41273987D01*
X79759338Y-41312082D01*
X79759338Y-41350178D01*
X79778385Y-41407320D01*
X80006957Y-41635892D01*
X79759338Y-41635892D01*
X67033742Y-39095892D02*
X67167076Y-38905416D01*
X67262314Y-39095892D02*
X67262314Y-38695892D01*
X67109933Y-38695892D01*
X67071838Y-38714940D01*
X67052790Y-38733987D01*
X67033742Y-38772082D01*
X67033742Y-38829225D01*
X67052790Y-38867320D01*
X67071838Y-38886368D01*
X67109933Y-38905416D01*
X67262314Y-38905416D01*
X66652790Y-39095892D02*
X66881361Y-39095892D01*
X66767076Y-39095892D02*
X66767076Y-38695892D01*
X66805171Y-38753035D01*
X66843266Y-38791130D01*
X66881361Y-38810178D01*
X66500409Y-38733987D02*
X66481361Y-38714940D01*
X66443266Y-38695892D01*
X66348028Y-38695892D01*
X66309933Y-38714940D01*
X66290885Y-38733987D01*
X66271838Y-38772082D01*
X66271838Y-38810178D01*
X66290885Y-38867320D01*
X66519457Y-39095892D01*
X66271838Y-39095892D01*
X67033742Y-40492892D02*
X67167076Y-40302416D01*
X67262314Y-40492892D02*
X67262314Y-40092892D01*
X67109933Y-40092892D01*
X67071838Y-40111940D01*
X67052790Y-40130987D01*
X67033742Y-40169082D01*
X67033742Y-40226225D01*
X67052790Y-40264320D01*
X67071838Y-40283368D01*
X67109933Y-40302416D01*
X67262314Y-40302416D01*
X66652790Y-40492892D02*
X66881361Y-40492892D01*
X66767076Y-40492892D02*
X66767076Y-40092892D01*
X66805171Y-40150035D01*
X66843266Y-40188130D01*
X66881361Y-40207178D01*
X66519457Y-40092892D02*
X66271838Y-40092892D01*
X66405171Y-40245273D01*
X66348028Y-40245273D01*
X66309933Y-40264320D01*
X66290885Y-40283368D01*
X66271838Y-40321463D01*
X66271838Y-40416701D01*
X66290885Y-40454797D01*
X66309933Y-40473844D01*
X66348028Y-40492892D01*
X66462314Y-40492892D01*
X66500409Y-40473844D01*
X66519457Y-40454797D01*
X67008342Y-41697252D02*
X67141676Y-41506776D01*
X67236914Y-41697252D02*
X67236914Y-41297252D01*
X67084533Y-41297252D01*
X67046438Y-41316300D01*
X67027390Y-41335347D01*
X67008342Y-41373442D01*
X67008342Y-41430585D01*
X67027390Y-41468680D01*
X67046438Y-41487728D01*
X67084533Y-41506776D01*
X67236914Y-41506776D01*
X66627390Y-41697252D02*
X66855961Y-41697252D01*
X66741676Y-41697252D02*
X66741676Y-41297252D01*
X66779771Y-41354395D01*
X66817866Y-41392490D01*
X66855961Y-41411538D01*
X66284533Y-41430585D02*
X66284533Y-41697252D01*
X66379771Y-41278204D02*
X66475009Y-41563919D01*
X66227390Y-41563919D01*
X67008242Y-42969392D02*
X67141576Y-42778916D01*
X67236814Y-42969392D02*
X67236814Y-42569392D01*
X67084433Y-42569392D01*
X67046338Y-42588440D01*
X67027290Y-42607487D01*
X67008242Y-42645582D01*
X67008242Y-42702725D01*
X67027290Y-42740820D01*
X67046338Y-42759868D01*
X67084433Y-42778916D01*
X67236814Y-42778916D01*
X66627290Y-42969392D02*
X66855861Y-42969392D01*
X66741576Y-42969392D02*
X66741576Y-42569392D01*
X66779671Y-42626535D01*
X66817766Y-42664630D01*
X66855861Y-42683678D01*
X66265385Y-42569392D02*
X66455861Y-42569392D01*
X66474909Y-42759868D01*
X66455861Y-42740820D01*
X66417766Y-42721773D01*
X66322528Y-42721773D01*
X66284433Y-42740820D01*
X66265385Y-42759868D01*
X66246338Y-42797963D01*
X66246338Y-42893201D01*
X66265385Y-42931297D01*
X66284433Y-42950344D01*
X66322528Y-42969392D01*
X66417766Y-42969392D01*
X66455861Y-42950344D01*
X66474909Y-42931297D01*
X66995742Y-44237252D02*
X67129076Y-44046776D01*
X67224314Y-44237252D02*
X67224314Y-43837252D01*
X67071933Y-43837252D01*
X67033838Y-43856300D01*
X67014790Y-43875347D01*
X66995742Y-43913442D01*
X66995742Y-43970585D01*
X67014790Y-44008680D01*
X67033838Y-44027728D01*
X67071933Y-44046776D01*
X67224314Y-44046776D01*
X66614790Y-44237252D02*
X66843361Y-44237252D01*
X66729076Y-44237252D02*
X66729076Y-43837252D01*
X66767171Y-43894395D01*
X66805266Y-43932490D01*
X66843361Y-43951538D01*
X66271933Y-43837252D02*
X66348123Y-43837252D01*
X66386219Y-43856300D01*
X66405266Y-43875347D01*
X66443361Y-43932490D01*
X66462409Y-44008680D01*
X66462409Y-44161061D01*
X66443361Y-44199157D01*
X66424314Y-44218204D01*
X66386219Y-44237252D01*
X66310028Y-44237252D01*
X66271933Y-44218204D01*
X66252885Y-44199157D01*
X66233838Y-44161061D01*
X66233838Y-44065823D01*
X66252885Y-44027728D01*
X66271933Y-44008680D01*
X66310028Y-43989633D01*
X66386219Y-43989633D01*
X66424314Y-44008680D01*
X66443361Y-44027728D01*
X66462409Y-44065823D01*
X66995642Y-45507252D02*
X67128976Y-45316776D01*
X67224214Y-45507252D02*
X67224214Y-45107252D01*
X67071833Y-45107252D01*
X67033738Y-45126300D01*
X67014690Y-45145347D01*
X66995642Y-45183442D01*
X66995642Y-45240585D01*
X67014690Y-45278680D01*
X67033738Y-45297728D01*
X67071833Y-45316776D01*
X67224214Y-45316776D01*
X66614690Y-45507252D02*
X66843261Y-45507252D01*
X66728976Y-45507252D02*
X66728976Y-45107252D01*
X66767071Y-45164395D01*
X66805166Y-45202490D01*
X66843261Y-45221538D01*
X66481357Y-45107252D02*
X66214690Y-45107252D01*
X66386119Y-45507252D01*
X66995642Y-46777252D02*
X67128976Y-46586776D01*
X67224214Y-46777252D02*
X67224214Y-46377252D01*
X67071833Y-46377252D01*
X67033738Y-46396300D01*
X67014690Y-46415347D01*
X66995642Y-46453442D01*
X66995642Y-46510585D01*
X67014690Y-46548680D01*
X67033738Y-46567728D01*
X67071833Y-46586776D01*
X67224214Y-46586776D01*
X66614690Y-46777252D02*
X66843261Y-46777252D01*
X66728976Y-46777252D02*
X66728976Y-46377252D01*
X66767071Y-46434395D01*
X66805166Y-46472490D01*
X66843261Y-46491538D01*
X66386119Y-46548680D02*
X66424214Y-46529633D01*
X66443261Y-46510585D01*
X66462309Y-46472490D01*
X66462309Y-46453442D01*
X66443261Y-46415347D01*
X66424214Y-46396300D01*
X66386119Y-46377252D01*
X66309928Y-46377252D01*
X66271833Y-46396300D01*
X66252785Y-46415347D01*
X66233738Y-46453442D01*
X66233738Y-46472490D01*
X66252785Y-46510585D01*
X66271833Y-46529633D01*
X66309928Y-46548680D01*
X66386119Y-46548680D01*
X66424214Y-46567728D01*
X66443261Y-46586776D01*
X66462309Y-46624871D01*
X66462309Y-46701061D01*
X66443261Y-46739157D01*
X66424214Y-46758204D01*
X66386119Y-46777252D01*
X66309928Y-46777252D01*
X66271833Y-46758204D01*
X66252785Y-46739157D01*
X66233738Y-46701061D01*
X66233738Y-46624871D01*
X66252785Y-46586776D01*
X66271833Y-46567728D01*
X66309928Y-46548680D01*
X66995742Y-48047252D02*
X67129076Y-47856776D01*
X67224314Y-48047252D02*
X67224314Y-47647252D01*
X67071933Y-47647252D01*
X67033838Y-47666300D01*
X67014790Y-47685347D01*
X66995742Y-47723442D01*
X66995742Y-47780585D01*
X67014790Y-47818680D01*
X67033838Y-47837728D01*
X67071933Y-47856776D01*
X67224314Y-47856776D01*
X66614790Y-48047252D02*
X66843361Y-48047252D01*
X66729076Y-48047252D02*
X66729076Y-47647252D01*
X66767171Y-47704395D01*
X66805266Y-47742490D01*
X66843361Y-47761538D01*
X66424314Y-48047252D02*
X66348123Y-48047252D01*
X66310028Y-48028204D01*
X66290980Y-48009157D01*
X66252885Y-47952014D01*
X66233838Y-47875823D01*
X66233838Y-47723442D01*
X66252885Y-47685347D01*
X66271933Y-47666300D01*
X66310028Y-47647252D01*
X66386219Y-47647252D01*
X66424314Y-47666300D01*
X66443361Y-47685347D01*
X66462409Y-47723442D01*
X66462409Y-47818680D01*
X66443361Y-47856776D01*
X66424314Y-47875823D01*
X66386219Y-47894871D01*
X66310028Y-47894871D01*
X66271933Y-47875823D01*
X66252885Y-47856776D01*
X66233838Y-47818680D01*
X80521142Y-39144552D02*
X80654476Y-38954076D01*
X80749714Y-39144552D02*
X80749714Y-38744552D01*
X80597333Y-38744552D01*
X80559238Y-38763600D01*
X80540190Y-38782647D01*
X80521142Y-38820742D01*
X80521142Y-38877885D01*
X80540190Y-38915980D01*
X80559238Y-38935028D01*
X80597333Y-38954076D01*
X80749714Y-38954076D01*
X80368761Y-38782647D02*
X80349714Y-38763600D01*
X80311619Y-38744552D01*
X80216380Y-38744552D01*
X80178285Y-38763600D01*
X80159238Y-38782647D01*
X80140190Y-38820742D01*
X80140190Y-38858838D01*
X80159238Y-38915980D01*
X80387809Y-39144552D01*
X80140190Y-39144552D01*
X79892571Y-38744552D02*
X79854476Y-38744552D01*
X79816380Y-38763600D01*
X79797333Y-38782647D01*
X79778285Y-38820742D01*
X79759238Y-38896933D01*
X79759238Y-38992171D01*
X79778285Y-39068361D01*
X79797333Y-39106457D01*
X79816380Y-39125504D01*
X79854476Y-39144552D01*
X79892571Y-39144552D01*
X79930666Y-39125504D01*
X79949714Y-39106457D01*
X79968761Y-39068361D01*
X79987809Y-38992171D01*
X79987809Y-38896933D01*
X79968761Y-38820742D01*
X79949714Y-38782647D01*
X79930666Y-38763600D01*
X79892571Y-38744552D01*
X80521242Y-40365892D02*
X80654576Y-40175416D01*
X80749814Y-40365892D02*
X80749814Y-39965892D01*
X80597433Y-39965892D01*
X80559338Y-39984940D01*
X80540290Y-40003987D01*
X80521242Y-40042082D01*
X80521242Y-40099225D01*
X80540290Y-40137320D01*
X80559338Y-40156368D01*
X80597433Y-40175416D01*
X80749814Y-40175416D01*
X80368861Y-40003987D02*
X80349814Y-39984940D01*
X80311719Y-39965892D01*
X80216480Y-39965892D01*
X80178385Y-39984940D01*
X80159338Y-40003987D01*
X80140290Y-40042082D01*
X80140290Y-40080178D01*
X80159338Y-40137320D01*
X80387909Y-40365892D01*
X80140290Y-40365892D01*
X79759338Y-40365892D02*
X79987909Y-40365892D01*
X79873623Y-40365892D02*
X79873623Y-39965892D01*
X79911719Y-40023035D01*
X79949814Y-40061130D01*
X79987909Y-40080178D01*
X80521142Y-42954552D02*
X80654476Y-42764076D01*
X80749714Y-42954552D02*
X80749714Y-42554552D01*
X80597333Y-42554552D01*
X80559238Y-42573600D01*
X80540190Y-42592647D01*
X80521142Y-42630742D01*
X80521142Y-42687885D01*
X80540190Y-42725980D01*
X80559238Y-42745028D01*
X80597333Y-42764076D01*
X80749714Y-42764076D01*
X80368761Y-42592647D02*
X80349714Y-42573600D01*
X80311619Y-42554552D01*
X80216380Y-42554552D01*
X80178285Y-42573600D01*
X80159238Y-42592647D01*
X80140190Y-42630742D01*
X80140190Y-42668838D01*
X80159238Y-42725980D01*
X80387809Y-42954552D01*
X80140190Y-42954552D01*
X80006857Y-42554552D02*
X79759238Y-42554552D01*
X79892571Y-42706933D01*
X79835428Y-42706933D01*
X79797333Y-42725980D01*
X79778285Y-42745028D01*
X79759238Y-42783123D01*
X79759238Y-42878361D01*
X79778285Y-42916457D01*
X79797333Y-42935504D01*
X79835428Y-42954552D01*
X79949714Y-42954552D01*
X79987809Y-42935504D01*
X80006857Y-42916457D01*
X80521142Y-44224552D02*
X80654476Y-44034076D01*
X80749714Y-44224552D02*
X80749714Y-43824552D01*
X80597333Y-43824552D01*
X80559238Y-43843600D01*
X80540190Y-43862647D01*
X80521142Y-43900742D01*
X80521142Y-43957885D01*
X80540190Y-43995980D01*
X80559238Y-44015028D01*
X80597333Y-44034076D01*
X80749714Y-44034076D01*
X80368761Y-43862647D02*
X80349714Y-43843600D01*
X80311619Y-43824552D01*
X80216380Y-43824552D01*
X80178285Y-43843600D01*
X80159238Y-43862647D01*
X80140190Y-43900742D01*
X80140190Y-43938838D01*
X80159238Y-43995980D01*
X80387809Y-44224552D01*
X80140190Y-44224552D01*
X79797333Y-43957885D02*
X79797333Y-44224552D01*
X79892571Y-43805504D02*
X79987809Y-44091219D01*
X79740190Y-44091219D01*
X80508542Y-45494552D02*
X80641876Y-45304076D01*
X80737114Y-45494552D02*
X80737114Y-45094552D01*
X80584733Y-45094552D01*
X80546638Y-45113600D01*
X80527590Y-45132647D01*
X80508542Y-45170742D01*
X80508542Y-45227885D01*
X80527590Y-45265980D01*
X80546638Y-45285028D01*
X80584733Y-45304076D01*
X80737114Y-45304076D01*
X80356161Y-45132647D02*
X80337114Y-45113600D01*
X80299019Y-45094552D01*
X80203780Y-45094552D01*
X80165685Y-45113600D01*
X80146638Y-45132647D01*
X80127590Y-45170742D01*
X80127590Y-45208838D01*
X80146638Y-45265980D01*
X80375209Y-45494552D01*
X80127590Y-45494552D01*
X79765685Y-45094552D02*
X79956161Y-45094552D01*
X79975209Y-45285028D01*
X79956161Y-45265980D01*
X79918066Y-45246933D01*
X79822828Y-45246933D01*
X79784733Y-45265980D01*
X79765685Y-45285028D01*
X79746638Y-45323123D01*
X79746638Y-45418361D01*
X79765685Y-45456457D01*
X79784733Y-45475504D01*
X79822828Y-45494552D01*
X79918066Y-45494552D01*
X79956161Y-45475504D01*
X79975209Y-45456457D01*
X80521142Y-46764552D02*
X80654476Y-46574076D01*
X80749714Y-46764552D02*
X80749714Y-46364552D01*
X80597333Y-46364552D01*
X80559238Y-46383600D01*
X80540190Y-46402647D01*
X80521142Y-46440742D01*
X80521142Y-46497885D01*
X80540190Y-46535980D01*
X80559238Y-46555028D01*
X80597333Y-46574076D01*
X80749714Y-46574076D01*
X80368761Y-46402647D02*
X80349714Y-46383600D01*
X80311619Y-46364552D01*
X80216380Y-46364552D01*
X80178285Y-46383600D01*
X80159238Y-46402647D01*
X80140190Y-46440742D01*
X80140190Y-46478838D01*
X80159238Y-46535980D01*
X80387809Y-46764552D01*
X80140190Y-46764552D01*
X79797333Y-46364552D02*
X79873523Y-46364552D01*
X79911619Y-46383600D01*
X79930666Y-46402647D01*
X79968761Y-46459790D01*
X79987809Y-46535980D01*
X79987809Y-46688361D01*
X79968761Y-46726457D01*
X79949714Y-46745504D01*
X79911619Y-46764552D01*
X79835428Y-46764552D01*
X79797333Y-46745504D01*
X79778285Y-46726457D01*
X79759238Y-46688361D01*
X79759238Y-46593123D01*
X79778285Y-46555028D01*
X79797333Y-46535980D01*
X79835428Y-46516933D01*
X79911619Y-46516933D01*
X79949714Y-46535980D01*
X79968761Y-46555028D01*
X79987809Y-46593123D01*
X80521142Y-48034552D02*
X80654476Y-47844076D01*
X80749714Y-48034552D02*
X80749714Y-47634552D01*
X80597333Y-47634552D01*
X80559238Y-47653600D01*
X80540190Y-47672647D01*
X80521142Y-47710742D01*
X80521142Y-47767885D01*
X80540190Y-47805980D01*
X80559238Y-47825028D01*
X80597333Y-47844076D01*
X80749714Y-47844076D01*
X80368761Y-47672647D02*
X80349714Y-47653600D01*
X80311619Y-47634552D01*
X80216380Y-47634552D01*
X80178285Y-47653600D01*
X80159238Y-47672647D01*
X80140190Y-47710742D01*
X80140190Y-47748838D01*
X80159238Y-47805980D01*
X80387809Y-48034552D01*
X80140190Y-48034552D01*
X80006857Y-47634552D02*
X79740190Y-47634552D01*
X79911619Y-48034552D01*
X85835892Y-56441952D02*
X85969226Y-56251476D01*
X86064464Y-56441952D02*
X86064464Y-56041952D01*
X85912083Y-56041952D01*
X85873988Y-56061000D01*
X85854940Y-56080047D01*
X85835892Y-56118142D01*
X85835892Y-56175285D01*
X85854940Y-56213380D01*
X85873988Y-56232428D01*
X85912083Y-56251476D01*
X86064464Y-56251476D01*
X85683511Y-56080047D02*
X85664464Y-56061000D01*
X85626369Y-56041952D01*
X85531130Y-56041952D01*
X85493035Y-56061000D01*
X85473988Y-56080047D01*
X85454940Y-56118142D01*
X85454940Y-56156238D01*
X85473988Y-56213380D01*
X85702559Y-56441952D01*
X85454940Y-56441952D01*
X85226369Y-56213380D02*
X85264464Y-56194333D01*
X85283511Y-56175285D01*
X85302559Y-56137190D01*
X85302559Y-56118142D01*
X85283511Y-56080047D01*
X85264464Y-56061000D01*
X85226369Y-56041952D01*
X85150178Y-56041952D01*
X85112083Y-56061000D01*
X85093035Y-56080047D01*
X85073988Y-56118142D01*
X85073988Y-56137190D01*
X85093035Y-56175285D01*
X85112083Y-56194333D01*
X85150178Y-56213380D01*
X85226369Y-56213380D01*
X85264464Y-56232428D01*
X85283511Y-56251476D01*
X85302559Y-56289571D01*
X85302559Y-56365761D01*
X85283511Y-56403857D01*
X85264464Y-56422904D01*
X85226369Y-56441952D01*
X85150178Y-56441952D01*
X85112083Y-56422904D01*
X85093035Y-56403857D01*
X85073988Y-56365761D01*
X85073988Y-56289571D01*
X85093035Y-56251476D01*
X85112083Y-56232428D01*
X85150178Y-56213380D01*
D11*
X67240471Y-27646547D02*
X67288090Y-27789404D01*
X67335709Y-27837023D01*
X67430947Y-27884642D01*
X67573804Y-27884642D01*
X67669042Y-27837023D01*
X67716661Y-27789404D01*
X67764280Y-27694166D01*
X67764280Y-27313214D01*
X66764280Y-27313214D01*
X66764280Y-27646547D01*
X66811900Y-27741785D01*
X66859519Y-27789404D01*
X66954757Y-27837023D01*
X67049995Y-27837023D01*
X67145233Y-27789404D01*
X67192852Y-27741785D01*
X67240471Y-27646547D01*
X67240471Y-27313214D01*
X67716661Y-28265595D02*
X67764280Y-28408452D01*
X67764280Y-28646547D01*
X67716661Y-28741785D01*
X67669042Y-28789404D01*
X67573804Y-28837023D01*
X67478566Y-28837023D01*
X67383328Y-28789404D01*
X67335709Y-28741785D01*
X67288090Y-28646547D01*
X67240471Y-28456071D01*
X67192852Y-28360833D01*
X67145233Y-28313214D01*
X67049995Y-28265595D01*
X66954757Y-28265595D01*
X66859519Y-28313214D01*
X66811900Y-28360833D01*
X66764280Y-28456071D01*
X66764280Y-28694166D01*
X66811900Y-28837023D01*
X67764280Y-29265595D02*
X66764280Y-29265595D01*
X67764280Y-29837023D01*
X66764280Y-29837023D01*
X66859519Y-30265595D02*
X66811900Y-30313214D01*
X66764280Y-30408452D01*
X66764280Y-30646547D01*
X66811900Y-30741785D01*
X66859519Y-30789404D01*
X66954757Y-30837023D01*
X67049995Y-30837023D01*
X67192852Y-30789404D01*
X67764280Y-30217976D01*
X67764280Y-30837023D01*
X66764280Y-31456071D02*
X66764280Y-31551309D01*
X66811900Y-31646547D01*
X66859519Y-31694166D01*
X66954757Y-31741785D01*
X67145233Y-31789404D01*
X67383328Y-31789404D01*
X67573804Y-31741785D01*
X67669042Y-31694166D01*
X67716661Y-31646547D01*
X67764280Y-31551309D01*
X67764280Y-31456071D01*
X67716661Y-31360833D01*
X67669042Y-31313214D01*
X67573804Y-31265595D01*
X67383328Y-31217976D01*
X67145233Y-31217976D01*
X66954757Y-31265595D01*
X66859519Y-31313214D01*
X66811900Y-31360833D01*
X66764280Y-31456071D01*
D13*
X69859519Y-29801309D02*
X69907138Y-29777500D01*
X69954757Y-29729880D01*
X70026185Y-29658452D01*
X70073804Y-29634642D01*
X70121423Y-29634642D01*
X70097614Y-29753690D02*
X70145233Y-29729880D01*
X70192852Y-29682261D01*
X70216661Y-29587023D01*
X70216661Y-29420357D01*
X70192852Y-29325119D01*
X70145233Y-29277500D01*
X70097614Y-29253690D01*
X70002376Y-29253690D01*
X69954757Y-29277500D01*
X69907138Y-29325119D01*
X69883328Y-29420357D01*
X69883328Y-29587023D01*
X69907138Y-29682261D01*
X69954757Y-29729880D01*
X70002376Y-29753690D01*
X70097614Y-29753690D01*
X69407138Y-29753690D02*
X69692852Y-29753690D01*
X69549995Y-29753690D02*
X69549995Y-29253690D01*
X69597614Y-29325119D01*
X69645233Y-29372738D01*
X69692852Y-29396547D01*
D11*
X49885523Y-43643604D02*
X49885523Y-44291223D01*
X49847428Y-44367414D01*
X49809333Y-44405509D01*
X49733142Y-44443604D01*
X49580761Y-44443604D01*
X49504571Y-44405509D01*
X49466476Y-44367414D01*
X49428380Y-44291223D01*
X49428380Y-43643604D01*
X49085523Y-43719795D02*
X49047428Y-43681700D01*
X48971238Y-43643604D01*
X48780761Y-43643604D01*
X48704571Y-43681700D01*
X48666476Y-43719795D01*
X48628380Y-43795985D01*
X48628380Y-43872176D01*
X48666476Y-43986461D01*
X49123619Y-44443604D01*
X48628380Y-44443604D01*
X64450504Y-48773680D02*
X63783838Y-48773680D01*
X64212409Y-49773680D01*
X62974314Y-49107014D02*
X62974314Y-49773680D01*
X63212409Y-48726061D02*
X63450504Y-49440347D01*
X62831457Y-49440347D01*
X62450504Y-49773680D02*
X62450504Y-48773680D01*
X62450504Y-49249871D02*
X61879076Y-49249871D01*
X61879076Y-49773680D02*
X61879076Y-48773680D01*
X60831457Y-49678442D02*
X60879076Y-49726061D01*
X61021933Y-49773680D01*
X61117171Y-49773680D01*
X61260028Y-49726061D01*
X61355266Y-49630823D01*
X61402885Y-49535585D01*
X61450504Y-49345109D01*
X61450504Y-49202252D01*
X61402885Y-49011776D01*
X61355266Y-48916538D01*
X61260028Y-48821300D01*
X61117171Y-48773680D01*
X61021933Y-48773680D01*
X60879076Y-48821300D01*
X60831457Y-48868919D01*
X59926695Y-48773680D02*
X60402885Y-48773680D01*
X60450504Y-49249871D01*
X60402885Y-49202252D01*
X60307647Y-49154633D01*
X60069552Y-49154633D01*
X59974314Y-49202252D01*
X59926695Y-49249871D01*
X59879076Y-49345109D01*
X59879076Y-49583204D01*
X59926695Y-49678442D01*
X59974314Y-49726061D01*
X60069552Y-49773680D01*
X60307647Y-49773680D01*
X60402885Y-49726061D01*
X60450504Y-49678442D01*
X59402885Y-49773680D02*
X59212409Y-49773680D01*
X59117171Y-49726061D01*
X59069552Y-49678442D01*
X58974314Y-49535585D01*
X58926695Y-49345109D01*
X58926695Y-48964157D01*
X58974314Y-48868919D01*
X59021933Y-48821300D01*
X59117171Y-48773680D01*
X59307647Y-48773680D01*
X59402885Y-48821300D01*
X59450504Y-48868919D01*
X59498123Y-48964157D01*
X59498123Y-49202252D01*
X59450504Y-49297490D01*
X59402885Y-49345109D01*
X59307647Y-49392728D01*
X59117171Y-49392728D01*
X59021933Y-49345109D01*
X58974314Y-49297490D01*
X58926695Y-49202252D01*
X58021933Y-48773680D02*
X58498123Y-48773680D01*
X58545742Y-49249871D01*
X58498123Y-49202252D01*
X58402885Y-49154633D01*
X58164790Y-49154633D01*
X58069552Y-49202252D01*
X58021933Y-49249871D01*
X57974314Y-49345109D01*
X57974314Y-49583204D01*
X58021933Y-49678442D01*
X58069552Y-49726061D01*
X58164790Y-49773680D01*
X58402885Y-49773680D01*
X58498123Y-49726061D01*
X58545742Y-49678442D01*
X61935266Y-42884633D02*
X61935266Y-43677966D01*
X61888600Y-43771300D01*
X61841933Y-43817966D01*
X61748600Y-43864633D01*
X61561933Y-43864633D01*
X61468600Y-43817966D01*
X61421933Y-43771300D01*
X61375266Y-43677966D01*
X61375266Y-42884633D01*
X60395266Y-43864633D02*
X60955266Y-43864633D01*
X60675266Y-43864633D02*
X60675266Y-42884633D01*
X60768600Y-43024633D01*
X60861933Y-43117966D01*
X60955266Y-43164633D01*
X77810904Y-48773680D02*
X77144238Y-48773680D01*
X77572809Y-49773680D01*
X76334714Y-49107014D02*
X76334714Y-49773680D01*
X76572809Y-48726061D02*
X76810904Y-49440347D01*
X76191857Y-49440347D01*
X75810904Y-49773680D02*
X75810904Y-48773680D01*
X75810904Y-49249871D02*
X75239476Y-49249871D01*
X75239476Y-49773680D02*
X75239476Y-48773680D01*
X74191857Y-49678442D02*
X74239476Y-49726061D01*
X74382333Y-49773680D01*
X74477571Y-49773680D01*
X74620428Y-49726061D01*
X74715666Y-49630823D01*
X74763285Y-49535585D01*
X74810904Y-49345109D01*
X74810904Y-49202252D01*
X74763285Y-49011776D01*
X74715666Y-48916538D01*
X74620428Y-48821300D01*
X74477571Y-48773680D01*
X74382333Y-48773680D01*
X74239476Y-48821300D01*
X74191857Y-48868919D01*
X73287095Y-48773680D02*
X73763285Y-48773680D01*
X73810904Y-49249871D01*
X73763285Y-49202252D01*
X73668047Y-49154633D01*
X73429952Y-49154633D01*
X73334714Y-49202252D01*
X73287095Y-49249871D01*
X73239476Y-49345109D01*
X73239476Y-49583204D01*
X73287095Y-49678442D01*
X73334714Y-49726061D01*
X73429952Y-49773680D01*
X73668047Y-49773680D01*
X73763285Y-49726061D01*
X73810904Y-49678442D01*
X72763285Y-49773680D02*
X72572809Y-49773680D01*
X72477571Y-49726061D01*
X72429952Y-49678442D01*
X72334714Y-49535585D01*
X72287095Y-49345109D01*
X72287095Y-48964157D01*
X72334714Y-48868919D01*
X72382333Y-48821300D01*
X72477571Y-48773680D01*
X72668047Y-48773680D01*
X72763285Y-48821300D01*
X72810904Y-48868919D01*
X72858523Y-48964157D01*
X72858523Y-49202252D01*
X72810904Y-49297490D01*
X72763285Y-49345109D01*
X72668047Y-49392728D01*
X72477571Y-49392728D01*
X72382333Y-49345109D01*
X72334714Y-49297490D01*
X72287095Y-49202252D01*
X71382333Y-48773680D02*
X71858523Y-48773680D01*
X71906142Y-49249871D01*
X71858523Y-49202252D01*
X71763285Y-49154633D01*
X71525190Y-49154633D01*
X71429952Y-49202252D01*
X71382333Y-49249871D01*
X71334714Y-49345109D01*
X71334714Y-49583204D01*
X71382333Y-49678442D01*
X71429952Y-49726061D01*
X71525190Y-49773680D01*
X71763285Y-49773680D01*
X71858523Y-49726061D01*
X71906142Y-49678442D01*
X75295666Y-42884633D02*
X75295666Y-43677966D01*
X75249000Y-43771300D01*
X75202333Y-43817966D01*
X75109000Y-43864633D01*
X74922333Y-43864633D01*
X74829000Y-43817966D01*
X74782333Y-43771300D01*
X74735666Y-43677966D01*
X74735666Y-42884633D01*
X73849000Y-43211300D02*
X73849000Y-43864633D01*
X74082333Y-42837966D02*
X74315666Y-43537966D01*
X73709000Y-43537966D01*
M02*
