G04 #@! TF.GenerationSoftware,KiCad,Pcbnew,(5.1.7)-1*
G04 #@! TF.CreationDate,2020-10-06T16:51:20+07:00*
G04 #@! TF.ProjectId,PIC16F1X_KIT2019,50494331-3646-4315-985f-4b4954323031,rev?*
G04 #@! TF.SameCoordinates,Original*
G04 #@! TF.FileFunction,Legend,Top*
G04 #@! TF.FilePolarity,Positive*
%FSLAX46Y46*%
G04 Gerber Fmt 4.6, Leading zero omitted, Abs format (unit mm)*
G04 Created by KiCad (PCBNEW (5.1.7)-1) date 2020-10-06 16:51:20*
%MOMM*%
%LPD*%
G01*
G04 APERTURE LIST*
%ADD10C,0.500000*%
%ADD11C,0.050000*%
%ADD12C,0.120000*%
%ADD13C,0.150000*%
%ADD14C,0.200000*%
%ADD15C,0.300000*%
G04 APERTURE END LIST*
D10*
X29417664Y-66238641D02*
X28274807Y-66238641D01*
X28846236Y-66238641D02*
X28846236Y-64238641D01*
X28655760Y-64524356D01*
X28465283Y-64714832D01*
X28274807Y-64810070D01*
X31322426Y-66238641D02*
X30179569Y-66238641D01*
X30750998Y-66238641D02*
X30750998Y-64238641D01*
X30560521Y-64524356D01*
X30370045Y-64714832D01*
X30179569Y-64810070D01*
X33608140Y-64143403D02*
X31893855Y-66714832D01*
X34179569Y-64429118D02*
X34274807Y-64333880D01*
X34465283Y-64238641D01*
X34941474Y-64238641D01*
X35131950Y-64333880D01*
X35227188Y-64429118D01*
X35322426Y-64619594D01*
X35322426Y-64810070D01*
X35227188Y-65095784D01*
X34084331Y-66238641D01*
X35322426Y-66238641D01*
X36560521Y-64238641D02*
X36750998Y-64238641D01*
X36941474Y-64333880D01*
X37036712Y-64429118D01*
X37131950Y-64619594D01*
X37227188Y-65000546D01*
X37227188Y-65476737D01*
X37131950Y-65857689D01*
X37036712Y-66048165D01*
X36941474Y-66143403D01*
X36750998Y-66238641D01*
X36560521Y-66238641D01*
X36370045Y-66143403D01*
X36274807Y-66048165D01*
X36179569Y-65857689D01*
X36084331Y-65476737D01*
X36084331Y-65000546D01*
X36179569Y-64619594D01*
X36274807Y-64429118D01*
X36370045Y-64333880D01*
X36560521Y-64238641D01*
X39131950Y-66238641D02*
X37989093Y-66238641D01*
X38560521Y-66238641D02*
X38560521Y-64238641D01*
X38370045Y-64524356D01*
X38179569Y-64714832D01*
X37989093Y-64810070D01*
X40084331Y-66238641D02*
X40465283Y-66238641D01*
X40655760Y-66143403D01*
X40750998Y-66048165D01*
X40941474Y-65762451D01*
X41036712Y-65381499D01*
X41036712Y-64619594D01*
X40941474Y-64429118D01*
X40846236Y-64333880D01*
X40655760Y-64238641D01*
X40274807Y-64238641D01*
X40084331Y-64333880D01*
X39989093Y-64429118D01*
X39893855Y-64619594D01*
X39893855Y-65095784D01*
X39989093Y-65286260D01*
X40084331Y-65381499D01*
X40274807Y-65476737D01*
X40655760Y-65476737D01*
X40846236Y-65381499D01*
X40941474Y-65286260D01*
X41036712Y-65095784D01*
X91226643Y-66116721D02*
X91226643Y-64116721D01*
X91893310Y-65545293D01*
X92559977Y-64116721D01*
X92559977Y-66116721D01*
X93512358Y-66116721D02*
X93512358Y-64783388D01*
X93512358Y-64116721D02*
X93417120Y-64211960D01*
X93512358Y-64307198D01*
X93607596Y-64211960D01*
X93512358Y-64116721D01*
X93512358Y-64307198D01*
X94464739Y-64783388D02*
X94464739Y-66116721D01*
X94464739Y-64973864D02*
X94559977Y-64878626D01*
X94750453Y-64783388D01*
X95036167Y-64783388D01*
X95226643Y-64878626D01*
X95321881Y-65069102D01*
X95321881Y-66116721D01*
X97131405Y-66116721D02*
X97131405Y-64116721D01*
X97131405Y-66021483D02*
X96940929Y-66116721D01*
X96559977Y-66116721D01*
X96369500Y-66021483D01*
X96274262Y-65926245D01*
X96179024Y-65735769D01*
X96179024Y-65164340D01*
X96274262Y-64973864D01*
X96369500Y-64878626D01*
X96559977Y-64783388D01*
X96940929Y-64783388D01*
X97131405Y-64878626D01*
X100464739Y-64783388D02*
X100464739Y-66402436D01*
X100369500Y-66592912D01*
X100274262Y-66688150D01*
X100083786Y-66783388D01*
X99798072Y-66783388D01*
X99607596Y-66688150D01*
X100464739Y-66021483D02*
X100274262Y-66116721D01*
X99893310Y-66116721D01*
X99702834Y-66021483D01*
X99607596Y-65926245D01*
X99512358Y-65735769D01*
X99512358Y-65164340D01*
X99607596Y-64973864D01*
X99702834Y-64878626D01*
X99893310Y-64783388D01*
X100274262Y-64783388D01*
X100464739Y-64878626D01*
X102274262Y-66116721D02*
X102274262Y-65069102D01*
X102179024Y-64878626D01*
X101988548Y-64783388D01*
X101607596Y-64783388D01*
X101417120Y-64878626D01*
X102274262Y-66021483D02*
X102083786Y-66116721D01*
X101607596Y-66116721D01*
X101417120Y-66021483D01*
X101321881Y-65831007D01*
X101321881Y-65640531D01*
X101417120Y-65450055D01*
X101607596Y-65354817D01*
X102083786Y-65354817D01*
X102274262Y-65259579D01*
X103226643Y-66116721D02*
X103226643Y-64783388D01*
X103226643Y-64973864D02*
X103321881Y-64878626D01*
X103512358Y-64783388D01*
X103798072Y-64783388D01*
X103988548Y-64878626D01*
X104083786Y-65069102D01*
X104083786Y-66116721D01*
X104083786Y-65069102D02*
X104179024Y-64878626D01*
X104369500Y-64783388D01*
X104655215Y-64783388D01*
X104845691Y-64878626D01*
X104940929Y-65069102D01*
X104940929Y-66116721D01*
X106655215Y-66021483D02*
X106464739Y-66116721D01*
X106083786Y-66116721D01*
X105893310Y-66021483D01*
X105798072Y-65831007D01*
X105798072Y-65069102D01*
X105893310Y-64878626D01*
X106083786Y-64783388D01*
X106464739Y-64783388D01*
X106655215Y-64878626D01*
X106750453Y-65069102D01*
X106750453Y-65259579D01*
X105798072Y-65450055D01*
X108940929Y-64783388D02*
X109417120Y-66116721D01*
X109893310Y-64783388D01*
X111702834Y-66116721D02*
X110559977Y-66116721D01*
X111131405Y-66116721D02*
X111131405Y-64116721D01*
X110940929Y-64402436D01*
X110750453Y-64592912D01*
X110559977Y-64688150D01*
D11*
X26439720Y-65024000D02*
G75*
G03*
X26439720Y-65024000I-3071720J0D01*
G01*
X26439720Y-22225000D02*
G75*
G03*
X26439720Y-22225000I-3071720J0D01*
G01*
X118768720Y-22225000D02*
G75*
G03*
X118768720Y-22225000I-3071720J0D01*
G01*
X118768720Y-65024000D02*
G75*
G03*
X118768720Y-65024000I-3071720J0D01*
G01*
D12*
X119380000Y-18923000D02*
X19685000Y-18923000D01*
X119380000Y-18923000D02*
X119380000Y-118618000D01*
X19685000Y-118618000D02*
X19685000Y-18923000D01*
X19685000Y-118618000D02*
X119380000Y-118618000D01*
X115366520Y-47988200D02*
X115366520Y-50708200D01*
X115366520Y-57568200D02*
X115366520Y-60288200D01*
X103066520Y-55708200D02*
X103066520Y-52568200D01*
X103066520Y-60288200D02*
X103066520Y-57568200D01*
X113895570Y-54178200D02*
G75*
G03*
X113895570Y-54178200I-4579050J0D01*
G01*
X103066520Y-50708200D02*
X103066520Y-47988200D01*
X115366520Y-60288200D02*
X103066520Y-60288200D01*
X115366520Y-52568200D02*
X115366520Y-55708200D01*
X103066520Y-47988200D02*
X115366520Y-47988200D01*
X36032160Y-47988200D02*
X36032160Y-50708200D01*
X36032160Y-57568200D02*
X36032160Y-60288200D01*
X23732160Y-55708200D02*
X23732160Y-52568200D01*
X23732160Y-60288200D02*
X23732160Y-57568200D01*
X34561210Y-54178200D02*
G75*
G03*
X34561210Y-54178200I-4579050J0D01*
G01*
X23732160Y-50708200D02*
X23732160Y-47988200D01*
X36032160Y-60288200D02*
X23732160Y-60288200D01*
X36032160Y-52568200D02*
X36032160Y-55708200D01*
X23732160Y-47988200D02*
X36032160Y-47988200D01*
X103066520Y-26626800D02*
X115366520Y-26626800D01*
X115366520Y-31206800D02*
X115366520Y-34346800D01*
X115366520Y-38926800D02*
X103066520Y-38926800D01*
X103066520Y-29346800D02*
X103066520Y-26626800D01*
X113895570Y-32816800D02*
G75*
G03*
X113895570Y-32816800I-4579050J0D01*
G01*
X103066520Y-38926800D02*
X103066520Y-36206800D01*
X103066520Y-34346800D02*
X103066520Y-31206800D01*
X115366520Y-36206800D02*
X115366520Y-38926800D01*
X115366520Y-26626800D02*
X115366520Y-29346800D01*
X36032160Y-26674333D02*
X36032160Y-29394333D01*
X36032160Y-36254333D02*
X36032160Y-38974333D01*
X23732160Y-34394333D02*
X23732160Y-31254333D01*
X23732160Y-38974333D02*
X23732160Y-36254333D01*
X34561210Y-32864333D02*
G75*
G03*
X34561210Y-32864333I-4579050J0D01*
G01*
X23732160Y-29394333D02*
X23732160Y-26674333D01*
X36032160Y-38974333D02*
X23732160Y-38974333D01*
X36032160Y-31254333D02*
X36032160Y-34394333D01*
X23732160Y-26674333D02*
X36032160Y-26674333D01*
X53553579Y-56732900D02*
X53228021Y-56732900D01*
X53553579Y-55712900D02*
X53228021Y-55712900D01*
X72392321Y-54773100D02*
X72717879Y-54773100D01*
X72392321Y-55793100D02*
X72717879Y-55793100D01*
X75632500Y-26162000D02*
G75*
G03*
X75632500Y-26162000I-6100000J0D01*
G01*
X70770200Y-54323100D02*
X67910200Y-54323100D01*
X70770200Y-56243100D02*
X70770200Y-54323100D01*
X67910200Y-56243100D02*
X70770200Y-56243100D01*
X50316250Y-61286000D02*
X50316250Y-57586000D01*
X56436250Y-61286000D02*
X50316250Y-61286000D01*
X56436250Y-57586000D02*
X56436250Y-61286000D01*
X50316250Y-57586000D02*
X56436250Y-57586000D01*
X82518750Y-61286000D02*
X82518750Y-57586000D01*
X88638750Y-61286000D02*
X82518750Y-61286000D01*
X88638750Y-57586000D02*
X88638750Y-61286000D01*
X82518750Y-57586000D02*
X88638750Y-57586000D01*
D13*
X60093600Y-38395900D02*
X59093600Y-43395900D01*
X59093600Y-43395900D02*
X58093600Y-48395900D01*
X58093600Y-48395900D02*
X65093600Y-48395900D01*
X65093600Y-48395900D02*
X66093600Y-43395900D01*
X67093600Y-38395900D02*
X66093600Y-43395900D01*
X66093600Y-43395900D02*
X59093600Y-43395900D01*
X60093600Y-38395900D02*
X67093600Y-38395900D01*
X69393600Y-52995900D02*
X56793600Y-52995900D01*
X56793600Y-37695900D02*
X56793600Y-49095900D01*
X69393600Y-37695900D02*
X69393600Y-49095900D01*
X56793600Y-33795900D02*
X69393600Y-33795900D01*
X67540814Y-48395900D02*
G75*
G03*
X67540814Y-48395900I-447214J0D01*
G01*
X80596414Y-48395900D02*
G75*
G03*
X80596414Y-48395900I-447214J0D01*
G01*
X69849200Y-33795900D02*
X82449200Y-33795900D01*
X82449200Y-37695900D02*
X82449200Y-49095900D01*
X69849200Y-37695900D02*
X69849200Y-49095900D01*
X82449200Y-52995900D02*
X69849200Y-52995900D01*
X73149200Y-38395900D02*
X80149200Y-38395900D01*
X79149200Y-43395900D02*
X72149200Y-43395900D01*
X80149200Y-38395900D02*
X79149200Y-43395900D01*
X78149200Y-48395900D02*
X79149200Y-43395900D01*
X71149200Y-48395900D02*
X78149200Y-48395900D01*
X72149200Y-43395900D02*
X71149200Y-48395900D01*
X73149200Y-38395900D02*
X72149200Y-43395900D01*
D12*
X67780120Y-62492080D02*
X67780120Y-62882080D01*
X67780120Y-62492080D02*
X68230120Y-62492080D01*
X73350120Y-63192080D02*
X72700120Y-63192080D01*
X73350120Y-64922080D02*
X73350120Y-63192080D01*
X65730120Y-67492080D02*
X65730120Y-67282080D01*
X73350120Y-67492080D02*
X73350120Y-67282080D01*
X65730120Y-64922080D02*
X65730120Y-63192080D01*
X65730120Y-63192080D02*
X66390120Y-63192080D01*
X100432680Y-56256700D02*
X100432680Y-51972700D01*
X100372680Y-54114700D02*
G75*
G03*
X100372680Y-54114700I-4000000J0D01*
G01*
X91782680Y-54114214D02*
G75*
G03*
X100432680Y-56255845I4590000J-486D01*
G01*
X91782680Y-54115186D02*
G75*
G02*
X100432680Y-51973555I4590000J486D01*
G01*
X100432680Y-34895300D02*
X100432680Y-30611300D01*
X100372680Y-32753300D02*
G75*
G03*
X100372680Y-32753300I-4000000J0D01*
G01*
X91782680Y-32752814D02*
G75*
G03*
X100432680Y-34894445I4590000J-486D01*
G01*
X91782680Y-32753786D02*
G75*
G02*
X100432680Y-30612155I4590000J486D01*
G01*
X46707560Y-54114700D02*
G75*
G03*
X46707560Y-54114700I-4000000J0D01*
G01*
X38647560Y-51972700D02*
X38647560Y-56256700D01*
X47297560Y-54114214D02*
G75*
G02*
X38647560Y-56255845I-4590000J-486D01*
G01*
X47297560Y-54115186D02*
G75*
G03*
X38647560Y-51973555I-4590000J486D01*
G01*
X46697400Y-32800833D02*
G75*
G03*
X46697400Y-32800833I-4000000J0D01*
G01*
X38637400Y-30658833D02*
X38637400Y-34942833D01*
X47287400Y-32800347D02*
G75*
G02*
X38637400Y-34941978I-4590000J-486D01*
G01*
X47287400Y-32801319D02*
G75*
G03*
X38637400Y-30659688I-4590000J486D01*
G01*
X87447840Y-55072400D02*
X84587840Y-55072400D01*
X87447840Y-56992400D02*
X87447840Y-55072400D01*
X84587840Y-56992400D02*
X87447840Y-56992400D01*
X81700187Y-55517320D02*
X81357653Y-55517320D01*
X81700187Y-56537320D02*
X81357653Y-56537320D01*
D10*
X102143085Y-46939721D02*
X101476419Y-45987340D01*
X101000228Y-46939721D02*
X101000228Y-44939721D01*
X101762133Y-44939721D01*
X101952609Y-45034960D01*
X102047847Y-45130198D01*
X102143085Y-45320674D01*
X102143085Y-45606388D01*
X102047847Y-45796864D01*
X101952609Y-45892102D01*
X101762133Y-45987340D01*
X101000228Y-45987340D01*
X103000228Y-45892102D02*
X103666895Y-45892102D01*
X103952609Y-46939721D02*
X103000228Y-46939721D01*
X103000228Y-44939721D01*
X103952609Y-44939721D01*
X104809752Y-46939721D02*
X104809752Y-44939721D01*
X105285942Y-44939721D01*
X105571657Y-45034960D01*
X105762133Y-45225436D01*
X105857371Y-45415912D01*
X105952609Y-45796864D01*
X105952609Y-46082579D01*
X105857371Y-46463531D01*
X105762133Y-46654007D01*
X105571657Y-46844483D01*
X105285942Y-46939721D01*
X104809752Y-46939721D01*
D14*
X110681805Y-59585200D02*
X111253234Y-59585200D01*
X110567520Y-59928057D02*
X110967520Y-58728057D01*
X111367520Y-59928057D01*
X110653234Y-49514057D02*
X110653234Y-48314057D01*
X111338948Y-49514057D02*
X110824662Y-48828342D01*
X111338948Y-48314057D02*
X110653234Y-48999771D01*
D10*
X33405226Y-45055280D02*
X33214750Y-44960041D01*
X32929036Y-44960041D01*
X32643321Y-45055280D01*
X32452845Y-45245756D01*
X32357607Y-45436232D01*
X32262369Y-45817184D01*
X32262369Y-46102899D01*
X32357607Y-46483851D01*
X32452845Y-46674327D01*
X32643321Y-46864803D01*
X32929036Y-46960041D01*
X33119512Y-46960041D01*
X33405226Y-46864803D01*
X33500464Y-46769565D01*
X33500464Y-46102899D01*
X33119512Y-46102899D01*
X35500464Y-46960041D02*
X34833798Y-46007660D01*
X34357607Y-46960041D02*
X34357607Y-44960041D01*
X35119512Y-44960041D01*
X35309988Y-45055280D01*
X35405226Y-45150518D01*
X35500464Y-45340994D01*
X35500464Y-45626708D01*
X35405226Y-45817184D01*
X35309988Y-45912422D01*
X35119512Y-46007660D01*
X34357607Y-46007660D01*
X36357607Y-45912422D02*
X37024274Y-45912422D01*
X37309988Y-46960041D02*
X36357607Y-46960041D01*
X36357607Y-44960041D01*
X37309988Y-44960041D01*
X38167131Y-45912422D02*
X38833798Y-45912422D01*
X39119512Y-46960041D02*
X38167131Y-46960041D01*
X38167131Y-44960041D01*
X39119512Y-44960041D01*
X39976655Y-46960041D02*
X39976655Y-44960041D01*
X41119512Y-46960041D01*
X41119512Y-44960041D01*
D14*
X31347445Y-59585200D02*
X31918874Y-59585200D01*
X31233160Y-59928057D02*
X31633160Y-58728057D01*
X32033160Y-59928057D01*
X31318874Y-49514057D02*
X31318874Y-48314057D01*
X32004588Y-49514057D02*
X31490302Y-48828342D01*
X32004588Y-48314057D02*
X31318874Y-48999771D01*
D10*
X100530352Y-24449422D02*
X100816066Y-24544660D01*
X100911304Y-24639899D01*
X101006542Y-24830375D01*
X101006542Y-25116089D01*
X100911304Y-25306565D01*
X100816066Y-25401803D01*
X100625590Y-25497041D01*
X99863685Y-25497041D01*
X99863685Y-23497041D01*
X100530352Y-23497041D01*
X100720828Y-23592280D01*
X100816066Y-23687518D01*
X100911304Y-23877994D01*
X100911304Y-24068470D01*
X100816066Y-24258946D01*
X100720828Y-24354184D01*
X100530352Y-24449422D01*
X99863685Y-24449422D01*
X102816066Y-25497041D02*
X101863685Y-25497041D01*
X101863685Y-23497041D01*
X103482733Y-23497041D02*
X103482733Y-25116089D01*
X103577971Y-25306565D01*
X103673209Y-25401803D01*
X103863685Y-25497041D01*
X104244638Y-25497041D01*
X104435114Y-25401803D01*
X104530352Y-25306565D01*
X104625590Y-25116089D01*
X104625590Y-23497041D01*
X105577971Y-24449422D02*
X106244638Y-24449422D01*
X106530352Y-25497041D02*
X105577971Y-25497041D01*
X105577971Y-23497041D01*
X106530352Y-23497041D01*
D14*
X110653234Y-28152657D02*
X110653234Y-26952657D01*
X111338948Y-28152657D02*
X110824662Y-27466942D01*
X111338948Y-26952657D02*
X110653234Y-27638371D01*
X110681805Y-38223800D02*
X111253234Y-38223800D01*
X110567520Y-38566657D02*
X110967520Y-37366657D01*
X111367520Y-38566657D01*
D10*
X32435754Y-24666580D02*
X32435754Y-25618961D01*
X31769087Y-23618961D02*
X32435754Y-24666580D01*
X33102420Y-23618961D01*
X33769087Y-24571342D02*
X34435754Y-24571342D01*
X34721468Y-25618961D02*
X33769087Y-25618961D01*
X33769087Y-23618961D01*
X34721468Y-23618961D01*
X36530992Y-25618961D02*
X35578611Y-25618961D01*
X35578611Y-23618961D01*
X38150040Y-25618961D02*
X37197659Y-25618961D01*
X37197659Y-23618961D01*
X39197659Y-23618961D02*
X39578611Y-23618961D01*
X39769087Y-23714200D01*
X39959563Y-23904676D01*
X40054801Y-24285628D01*
X40054801Y-24952295D01*
X39959563Y-25333247D01*
X39769087Y-25523723D01*
X39578611Y-25618961D01*
X39197659Y-25618961D01*
X39007182Y-25523723D01*
X38816706Y-25333247D01*
X38721468Y-24952295D01*
X38721468Y-24285628D01*
X38816706Y-23904676D01*
X39007182Y-23714200D01*
X39197659Y-23618961D01*
X40721468Y-23618961D02*
X41197659Y-25618961D01*
X41578611Y-24190390D01*
X41959563Y-25618961D01*
X42435754Y-23618961D01*
D14*
X31347445Y-38271333D02*
X31918874Y-38271333D01*
X31233160Y-38614190D02*
X31633160Y-37414190D01*
X32033160Y-38614190D01*
X31318874Y-28200190D02*
X31318874Y-27000190D01*
X32004588Y-28200190D02*
X31490302Y-27514475D01*
X32004588Y-27000190D02*
X31318874Y-27685904D01*
X52676514Y-55102057D02*
X51990800Y-55102057D01*
X52333657Y-55102057D02*
X52333657Y-53902057D01*
X52219371Y-54073485D01*
X52105085Y-54187771D01*
X51990800Y-54244914D01*
X53419371Y-53902057D02*
X53533657Y-53902057D01*
X53647942Y-53959200D01*
X53705085Y-54016342D01*
X53762228Y-54130628D01*
X53819371Y-54359200D01*
X53819371Y-54644914D01*
X53762228Y-54873485D01*
X53705085Y-54987771D01*
X53647942Y-55044914D01*
X53533657Y-55102057D01*
X53419371Y-55102057D01*
X53305085Y-55044914D01*
X53247942Y-54987771D01*
X53190800Y-54873485D01*
X53133657Y-54644914D01*
X53133657Y-54359200D01*
X53190800Y-54130628D01*
X53247942Y-54016342D01*
X53305085Y-53959200D01*
X53419371Y-53902057D01*
X54333657Y-55102057D02*
X54333657Y-53902057D01*
X54447942Y-54644914D02*
X54790800Y-55102057D01*
X54790800Y-54302057D02*
X54333657Y-54759200D01*
X75320542Y-55775157D02*
X74634828Y-55775157D01*
X74977685Y-55775157D02*
X74977685Y-54575157D01*
X74863400Y-54746585D01*
X74749114Y-54860871D01*
X74634828Y-54918014D01*
X75834828Y-55775157D02*
X75834828Y-54575157D01*
X75949114Y-55318014D02*
X76291971Y-55775157D01*
X76291971Y-54975157D02*
X75834828Y-55432300D01*
D13*
X68842047Y-26204871D02*
X68984904Y-26252490D01*
X69032523Y-26300109D01*
X69080142Y-26395347D01*
X69080142Y-26538204D01*
X69032523Y-26633442D01*
X68984904Y-26681061D01*
X68889666Y-26728680D01*
X68508714Y-26728680D01*
X68508714Y-25728680D01*
X68842047Y-25728680D01*
X68937285Y-25776300D01*
X68984904Y-25823919D01*
X69032523Y-25919157D01*
X69032523Y-26014395D01*
X68984904Y-26109633D01*
X68937285Y-26157252D01*
X68842047Y-26204871D01*
X68508714Y-26204871D01*
X69413476Y-25728680D02*
X70080142Y-25728680D01*
X69413476Y-26728680D01*
X70080142Y-26728680D01*
X70984904Y-26728680D02*
X70413476Y-26728680D01*
X70699190Y-26728680D02*
X70699190Y-25728680D01*
X70603952Y-25871538D01*
X70508714Y-25966776D01*
X70413476Y-26014395D01*
D15*
X64960595Y-23764857D02*
X66484404Y-23764857D01*
X65722500Y-24526761D02*
X65722500Y-23002952D01*
X63214466Y-55909295D02*
X63214466Y-54609295D01*
X63709704Y-54609295D01*
X63833514Y-54671200D01*
X63895419Y-54733104D01*
X63957323Y-54856914D01*
X63957323Y-55042628D01*
X63895419Y-55166438D01*
X63833514Y-55228342D01*
X63709704Y-55290247D01*
X63214466Y-55290247D01*
X64390657Y-54609295D02*
X64700180Y-55909295D01*
X64947800Y-54980723D01*
X65195419Y-55909295D01*
X65504942Y-54609295D01*
X66743038Y-55909295D02*
X66309704Y-55290247D01*
X66000180Y-55909295D02*
X66000180Y-54609295D01*
X66495419Y-54609295D01*
X66619228Y-54671200D01*
X66681133Y-54733104D01*
X66743038Y-54856914D01*
X66743038Y-55042628D01*
X66681133Y-55166438D01*
X66619228Y-55228342D01*
X66495419Y-55290247D01*
X66000180Y-55290247D01*
D13*
X52017516Y-59840761D02*
X52160373Y-59888380D01*
X52398469Y-59888380D01*
X52493707Y-59840761D01*
X52541326Y-59793142D01*
X52588945Y-59697904D01*
X52588945Y-59602666D01*
X52541326Y-59507428D01*
X52493707Y-59459809D01*
X52398469Y-59412190D01*
X52207992Y-59364571D01*
X52112754Y-59316952D01*
X52065135Y-59269333D01*
X52017516Y-59174095D01*
X52017516Y-59078857D01*
X52065135Y-58983619D01*
X52112754Y-58936000D01*
X52207992Y-58888380D01*
X52446088Y-58888380D01*
X52588945Y-58936000D01*
X52922278Y-58888380D02*
X53160373Y-59888380D01*
X53350850Y-59174095D01*
X53541326Y-59888380D01*
X53779421Y-58888380D01*
X54065135Y-58888380D02*
X54684183Y-58888380D01*
X54350850Y-59269333D01*
X54493707Y-59269333D01*
X54588945Y-59316952D01*
X54636564Y-59364571D01*
X54684183Y-59459809D01*
X54684183Y-59697904D01*
X54636564Y-59793142D01*
X54588945Y-59840761D01*
X54493707Y-59888380D01*
X54207992Y-59888380D01*
X54112754Y-59840761D01*
X54065135Y-59793142D01*
D15*
X50985710Y-64010449D02*
X50452377Y-63248544D01*
X50071424Y-64010449D02*
X50071424Y-62410449D01*
X50680948Y-62410449D01*
X50833329Y-62486640D01*
X50909520Y-62562830D01*
X50985710Y-62715211D01*
X50985710Y-62943782D01*
X50909520Y-63096163D01*
X50833329Y-63172354D01*
X50680948Y-63248544D01*
X50071424Y-63248544D01*
X51671424Y-63172354D02*
X52204758Y-63172354D01*
X52433329Y-64010449D02*
X51671424Y-64010449D01*
X51671424Y-62410449D01*
X52433329Y-62410449D01*
X53042853Y-63934259D02*
X53271424Y-64010449D01*
X53652377Y-64010449D01*
X53804758Y-63934259D01*
X53880948Y-63858068D01*
X53957139Y-63705687D01*
X53957139Y-63553306D01*
X53880948Y-63400925D01*
X53804758Y-63324735D01*
X53652377Y-63248544D01*
X53347615Y-63172354D01*
X53195234Y-63096163D01*
X53119043Y-63019973D01*
X53042853Y-62867592D01*
X53042853Y-62715211D01*
X53119043Y-62562830D01*
X53195234Y-62486640D01*
X53347615Y-62410449D01*
X53728567Y-62410449D01*
X53957139Y-62486640D01*
X54642853Y-63172354D02*
X55176186Y-63172354D01*
X55404758Y-64010449D02*
X54642853Y-64010449D01*
X54642853Y-62410449D01*
X55404758Y-62410449D01*
X55861900Y-62410449D02*
X56776186Y-62410449D01*
X56319043Y-64010449D02*
X56319043Y-62410449D01*
D13*
X84156516Y-59789961D02*
X84299373Y-59837580D01*
X84537469Y-59837580D01*
X84632707Y-59789961D01*
X84680326Y-59742342D01*
X84727945Y-59647104D01*
X84727945Y-59551866D01*
X84680326Y-59456628D01*
X84632707Y-59409009D01*
X84537469Y-59361390D01*
X84346992Y-59313771D01*
X84251754Y-59266152D01*
X84204135Y-59218533D01*
X84156516Y-59123295D01*
X84156516Y-59028057D01*
X84204135Y-58932819D01*
X84251754Y-58885200D01*
X84346992Y-58837580D01*
X84585088Y-58837580D01*
X84727945Y-58885200D01*
X85061278Y-58837580D02*
X85299373Y-59837580D01*
X85489850Y-59123295D01*
X85680326Y-59837580D01*
X85918421Y-58837580D01*
X86727945Y-58837580D02*
X86537469Y-58837580D01*
X86442230Y-58885200D01*
X86394611Y-58932819D01*
X86299373Y-59075676D01*
X86251754Y-59266152D01*
X86251754Y-59647104D01*
X86299373Y-59742342D01*
X86346992Y-59789961D01*
X86442230Y-59837580D01*
X86632707Y-59837580D01*
X86727945Y-59789961D01*
X86775564Y-59742342D01*
X86823183Y-59647104D01*
X86823183Y-59409009D01*
X86775564Y-59313771D01*
X86727945Y-59266152D01*
X86632707Y-59218533D01*
X86442230Y-59218533D01*
X86346992Y-59266152D01*
X86299373Y-59313771D01*
X86251754Y-59409009D01*
D15*
X82507430Y-63842809D02*
X82707430Y-62242809D01*
X83097906Y-63385666D01*
X83774097Y-62242809D01*
X83574097Y-63842809D01*
X84840764Y-62242809D02*
X85145525Y-62242809D01*
X85288383Y-62319000D01*
X85421716Y-62471380D01*
X85459811Y-62776142D01*
X85393145Y-63309476D01*
X85278859Y-63614238D01*
X85107430Y-63766619D01*
X84945525Y-63842809D01*
X84640764Y-63842809D01*
X84497906Y-63766619D01*
X84364573Y-63614238D01*
X84326478Y-63309476D01*
X84393145Y-62776142D01*
X84507430Y-62471380D01*
X84678859Y-62319000D01*
X84840764Y-62242809D01*
X86012192Y-63842809D02*
X86212192Y-62242809D01*
X86593145Y-62242809D01*
X86812192Y-62319000D01*
X86945525Y-62471380D01*
X87002668Y-62623761D01*
X87040764Y-62928523D01*
X87012192Y-63157095D01*
X86897906Y-63461857D01*
X86802668Y-63614238D01*
X86631240Y-63766619D01*
X86393145Y-63842809D01*
X86012192Y-63842809D01*
X87716954Y-63004714D02*
X88250287Y-63004714D01*
X88374097Y-63842809D02*
X87612192Y-63842809D01*
X87812192Y-62242809D01*
X88574097Y-62242809D01*
D13*
X68101580Y-44157804D02*
X68911104Y-44157804D01*
X69006342Y-44110185D01*
X69053961Y-44062566D01*
X69101580Y-43967328D01*
X69101580Y-43776852D01*
X69053961Y-43681614D01*
X69006342Y-43633995D01*
X68911104Y-43586376D01*
X68101580Y-43586376D01*
X68101580Y-42633995D02*
X68101580Y-43110185D01*
X68577771Y-43157804D01*
X68530152Y-43110185D01*
X68482533Y-43014947D01*
X68482533Y-42776852D01*
X68530152Y-42681614D01*
X68577771Y-42633995D01*
X68673009Y-42586376D01*
X68911104Y-42586376D01*
X69006342Y-42633995D01*
X69053961Y-42681614D01*
X69101580Y-42776852D01*
X69101580Y-43014947D01*
X69053961Y-43110185D01*
X69006342Y-43157804D01*
X83778316Y-54834780D02*
X83778316Y-53834780D01*
X84111649Y-54549066D01*
X84444982Y-53834780D01*
X84444982Y-54834780D01*
X85111649Y-53834780D02*
X85302125Y-53834780D01*
X85397363Y-53882400D01*
X85492601Y-53977638D01*
X85540220Y-54168114D01*
X85540220Y-54501447D01*
X85492601Y-54691923D01*
X85397363Y-54787161D01*
X85302125Y-54834780D01*
X85111649Y-54834780D01*
X85016411Y-54787161D01*
X84921173Y-54691923D01*
X84873554Y-54501447D01*
X84873554Y-54168114D01*
X84921173Y-53977638D01*
X85016411Y-53882400D01*
X85111649Y-53834780D01*
X85968792Y-54834780D02*
X85968792Y-53834780D01*
X86206887Y-53834780D01*
X86349744Y-53882400D01*
X86444982Y-53977638D01*
X86492601Y-54072876D01*
X86540220Y-54263352D01*
X86540220Y-54406209D01*
X86492601Y-54596685D01*
X86444982Y-54691923D01*
X86349744Y-54787161D01*
X86206887Y-54834780D01*
X85968792Y-54834780D01*
X86968792Y-54310971D02*
X87302125Y-54310971D01*
X87444982Y-54834780D02*
X86968792Y-54834780D01*
X86968792Y-53834780D01*
X87444982Y-53834780D01*
X81496232Y-55189380D02*
X80924803Y-55189380D01*
X81210518Y-55189380D02*
X81210518Y-54189380D01*
X81115280Y-54332238D01*
X81020041Y-54427476D01*
X80924803Y-54475095D01*
X81924803Y-55189380D02*
X81924803Y-54189380D01*
X82020041Y-54808428D02*
X82305756Y-55189380D01*
X82305756Y-54522714D02*
X81924803Y-54903666D01*
M02*
