G04 #@! TF.GenerationSoftware,KiCad,Pcbnew,(5.1.7)-1*
G04 #@! TF.CreationDate,2020-10-06T16:51:21+07:00*
G04 #@! TF.ProjectId,PIC16F1X_KIT2019,50494331-3646-4315-985f-4b4954323031,rev?*
G04 #@! TF.SameCoordinates,Original*
G04 #@! TF.FileFunction,Other,User*
%FSLAX46Y46*%
G04 Gerber Fmt 4.6, Leading zero omitted, Abs format (unit mm)*
G04 Created by KiCad (PCBNEW (5.1.7)-1) date 2020-10-06 16:51:21*
%MOMM*%
%LPD*%
G01*
G04 APERTURE LIST*
%ADD10C,0.050000*%
G04 APERTURE END LIST*
D10*
X117876960Y-115275360D02*
G75*
G03*
X117876960Y-115275360I-2500000J0D01*
G01*
X24979000Y-115824000D02*
G75*
G03*
X24979000Y-115824000I-2500000J0D01*
G01*
X117216520Y-60388200D02*
X101196520Y-60388200D01*
X117216520Y-60388200D02*
X117216520Y-47888200D01*
X101196520Y-47888200D02*
X101196520Y-60388200D01*
X101196520Y-47888200D02*
X117216520Y-47888200D01*
X37882160Y-60388200D02*
X21862160Y-60388200D01*
X37882160Y-60388200D02*
X37882160Y-47888200D01*
X21862160Y-47888200D02*
X21862160Y-60388200D01*
X21862160Y-47888200D02*
X37882160Y-47888200D01*
X101196520Y-26526800D02*
X117216520Y-26526800D01*
X101196520Y-26526800D02*
X101196520Y-39026800D01*
X117216520Y-39026800D02*
X117216520Y-26526800D01*
X117216520Y-39026800D02*
X101196520Y-39026800D01*
X37882160Y-39074333D02*
X21862160Y-39074333D01*
X37882160Y-39074333D02*
X37882160Y-26574333D01*
X21862160Y-26574333D02*
X21862160Y-39074333D01*
X21862160Y-26574333D02*
X37882160Y-26574333D01*
X54870800Y-55492900D02*
X54870800Y-56952900D01*
X54870800Y-56952900D02*
X51910800Y-56952900D01*
X51910800Y-56952900D02*
X51910800Y-55492900D01*
X51910800Y-55492900D02*
X54870800Y-55492900D01*
X71075100Y-56013100D02*
X71075100Y-54553100D01*
X71075100Y-54553100D02*
X74035100Y-54553100D01*
X74035100Y-54553100D02*
X74035100Y-56013100D01*
X74035100Y-56013100D02*
X71075100Y-56013100D01*
X118197000Y-65024000D02*
G75*
G03*
X118197000Y-65024000I-2500000J0D01*
G01*
X25868000Y-22225000D02*
G75*
G03*
X25868000Y-22225000I-2500000J0D01*
G01*
X25868000Y-65024000D02*
G75*
G03*
X25868000Y-65024000I-2500000J0D01*
G01*
X118197000Y-22225000D02*
G75*
G03*
X118197000Y-22225000I-2500000J0D01*
G01*
X75782500Y-26162000D02*
G75*
G03*
X75782500Y-26162000I-6250000J0D01*
G01*
X67060200Y-54333100D02*
X70760200Y-54333100D01*
X67060200Y-56233100D02*
X67060200Y-54333100D01*
X70760200Y-56233100D02*
X67060200Y-56233100D01*
X70760200Y-54333100D02*
X70760200Y-56233100D01*
X48476250Y-57386000D02*
X58276250Y-57386000D01*
X58276250Y-57386000D02*
X58276250Y-61486000D01*
X58276250Y-61486000D02*
X48476250Y-61486000D01*
X48476250Y-61486000D02*
X48476250Y-57386000D01*
X80678750Y-57386000D02*
X90478750Y-57386000D01*
X90478750Y-57386000D02*
X90478750Y-61486000D01*
X90478750Y-61486000D02*
X80678750Y-61486000D01*
X80678750Y-61486000D02*
X80678750Y-57386000D01*
X56343600Y-53395900D02*
X56343600Y-33395900D01*
X69843600Y-53395900D02*
X56343600Y-53395900D01*
X69843600Y-33395900D02*
X69843600Y-53395900D01*
X56343600Y-33395900D02*
X69843600Y-33395900D01*
X69399200Y-33395900D02*
X82899200Y-33395900D01*
X82899200Y-33395900D02*
X82899200Y-53395900D01*
X82899200Y-53395900D02*
X69399200Y-53395900D01*
X69399200Y-53395900D02*
X69399200Y-33395900D01*
X64940120Y-69352080D02*
X64940120Y-62252080D01*
X64940120Y-62252080D02*
X74140120Y-62252080D01*
X74140120Y-62252080D02*
X74140120Y-69352080D01*
X64940120Y-69352080D02*
X74140120Y-69352080D01*
X91542680Y-58964700D02*
X101192680Y-58964700D01*
X91542680Y-49264700D02*
X91542680Y-58964700D01*
X101192680Y-49264700D02*
X91542680Y-49264700D01*
X101192680Y-58964700D02*
X101192680Y-49264700D01*
X91542680Y-37603300D02*
X101192680Y-37603300D01*
X91542680Y-27903300D02*
X91542680Y-37603300D01*
X101192680Y-27903300D02*
X91542680Y-27903300D01*
X101192680Y-37603300D02*
X101192680Y-27903300D01*
X37887560Y-49264700D02*
X37887560Y-58964700D01*
X37887560Y-58964700D02*
X47537560Y-58964700D01*
X47537560Y-58964700D02*
X47537560Y-49264700D01*
X47537560Y-49264700D02*
X37887560Y-49264700D01*
X37877400Y-27950833D02*
X37877400Y-37650833D01*
X37877400Y-37650833D02*
X47527400Y-37650833D01*
X47527400Y-37650833D02*
X47527400Y-27950833D01*
X47527400Y-27950833D02*
X37877400Y-27950833D01*
X83737840Y-55082400D02*
X87437840Y-55082400D01*
X83737840Y-56982400D02*
X83737840Y-55082400D01*
X87437840Y-56982400D02*
X83737840Y-56982400D01*
X87437840Y-55082400D02*
X87437840Y-56982400D01*
X79878920Y-55297320D02*
X83178920Y-55297320D01*
X79878920Y-56757320D02*
X79878920Y-55297320D01*
X83178920Y-56757320D02*
X79878920Y-56757320D01*
X83178920Y-55297320D02*
X83178920Y-56757320D01*
M02*
