M48
; DRILL file {KiCad (5.1.7)-1} date 10/06/20 16:51:26
; FORMAT={-:-/ absolute / metric / decimal}
; #@! TF.CreationDate,2020-10-06T16:51:26+07:00
; #@! TF.GenerationSoftware,Kicad,Pcbnew,(5.1.7)-1
; #@! TF.FileFunction,Plated,1,2,PTH
FMAT,2
METRIC
T1C0.400
T2C0.450
T3C0.600
T4C0.800
T5C0.900
T6C1.000
T7C1.200
T8C2.700
%
G90
G05
T1
X60.731Y-45.468
X61.138Y-43.03
X61.138Y-44.3
X61.189Y-40.541
X68.542Y-42.788
X68.542Y-44.058
X68.542Y-45.328
X68.542Y-46.598
X68.555Y-41.506
X70.574Y-41.518
X73.825Y-40.248
X77.445Y-37.797
X82.017Y-42.776
X82.017Y-44.046
X82.017Y-45.316
X82.017Y-46.586
T3
X46.253Y-51.577
X46.269Y-49.185
X47.186Y-32.88
X47.186Y-35.034
X48.118Y-44.232
X50.749Y-30.493
X55.748Y-45.547
X56.378Y-41.514
X59.339Y-54.285
X69.596Y-33.106
X74.188Y-45.756
X74.193Y-44.097
X75.714Y-30.527
X88.87Y-56.302
T4
X71.069Y-35.776
X71.069Y-51.016
X73.609Y-35.776
X73.609Y-51.016
X76.149Y-35.776
X76.149Y-51.016
X78.689Y-35.776
X78.689Y-51.016
X81.229Y-35.776
X81.229Y-51.016
X58.014Y-35.776
X58.014Y-51.016
X60.554Y-35.776
X60.554Y-51.016
X63.094Y-35.776
X63.094Y-51.016
X65.634Y-35.776
X65.634Y-51.016
X68.174Y-35.776
X68.174Y-51.016
T5
X95.103Y-32.753
X97.643Y-32.753
X41.427Y-32.801
X43.967Y-32.801
X95.103Y-54.115
X97.643Y-54.115
X41.438Y-54.115
X43.978Y-54.115
T6
X109.317Y-26.213
X109.317Y-39.294
X29.982Y-47.574
X29.982Y-60.655
X65.733Y-26.162
X73.332Y-26.162
X64.491Y-58.09
X67.031Y-58.09
X69.571Y-58.09
X72.111Y-58.09
X74.651Y-58.09
X109.317Y-47.574
X109.317Y-60.655
X29.982Y-26.26
X29.982Y-39.341
T7
X102.967Y-51.638
X102.967Y-56.638
X115.467Y-51.638
X115.467Y-56.638
X23.632Y-30.324
X23.632Y-35.324
X36.132Y-30.324
X36.132Y-35.324
X102.967Y-30.277
X102.967Y-35.277
X115.467Y-30.277
X115.467Y-35.277
X23.632Y-51.638
X23.632Y-56.638
X36.132Y-51.638
X36.132Y-56.638
T8
X23.368Y-65.024
X115.697Y-22.225
X22.479Y-115.824
X115.377Y-115.275
X23.368Y-22.225
X115.697Y-65.024
T2
G00X65.965Y-66.502
M15
G01X65.965Y-65.702
M16
G05
G00X73.115Y-65.702
M15
G01X73.115Y-66.502
M16
G05
T0
M30
