G04 #@! TF.GenerationSoftware,KiCad,Pcbnew,(5.1.7)-1*
G04 #@! TF.CreationDate,2020-10-06T16:51:20+07:00*
G04 #@! TF.ProjectId,PIC16F1X_KIT2019,50494331-3646-4315-985f-4b4954323031,rev?*
G04 #@! TF.SameCoordinates,Original*
G04 #@! TF.FileFunction,Soldermask,Bot*
G04 #@! TF.FilePolarity,Negative*
%FSLAX46Y46*%
G04 Gerber Fmt 4.6, Leading zero omitted, Abs format (unit mm)*
G04 Created by KiCad (PCBNEW (5.1.7)-1) date 2020-10-06 16:51:20*
%MOMM*%
%LPD*%
G01*
G04 APERTURE LIST*
%ADD10C,4.602000*%
%ADD11O,1.802000X1.802000*%
%ADD12O,3.150000X2.102000*%
%ADD13C,2.102000*%
%ADD14O,1.626000X2.626000*%
%ADD15O,1.152000X2.002000*%
%ADD16C,1.902000*%
%ADD17C,0.100000*%
G04 APERTURE END LIST*
D10*
X115376960Y-115275360D03*
X22479000Y-115824000D03*
G36*
G01*
X109942520Y-34796692D02*
X109942520Y-35754348D01*
G75*
G02*
X109670348Y-36026520I-272172J0D01*
G01*
X108962692Y-36026520D01*
G75*
G02*
X108690520Y-35754348I0J272172D01*
G01*
X108690520Y-34796692D01*
G75*
G02*
X108962692Y-34524520I272172J0D01*
G01*
X109670348Y-34524520D01*
G75*
G02*
X109942520Y-34796692I0J-272172D01*
G01*
G37*
G36*
G01*
X111992520Y-34796692D02*
X111992520Y-35754348D01*
G75*
G02*
X111720348Y-36026520I-272172J0D01*
G01*
X111012692Y-36026520D01*
G75*
G02*
X110740520Y-35754348I0J272172D01*
G01*
X110740520Y-34796692D01*
G75*
G02*
X111012692Y-34524520I272172J0D01*
G01*
X111720348Y-34524520D01*
G75*
G02*
X111992520Y-34796692I0J-272172D01*
G01*
G37*
G36*
G01*
X109914360Y-56153012D02*
X109914360Y-57110668D01*
G75*
G02*
X109642188Y-57382840I-272172J0D01*
G01*
X108934532Y-57382840D01*
G75*
G02*
X108662360Y-57110668I0J272172D01*
G01*
X108662360Y-56153012D01*
G75*
G02*
X108934532Y-55880840I272172J0D01*
G01*
X109642188Y-55880840D01*
G75*
G02*
X109914360Y-56153012I0J-272172D01*
G01*
G37*
G36*
G01*
X111964360Y-56153012D02*
X111964360Y-57110668D01*
G75*
G02*
X111692188Y-57382840I-272172J0D01*
G01*
X110984532Y-57382840D01*
G75*
G02*
X110712360Y-57110668I0J272172D01*
G01*
X110712360Y-56153012D01*
G75*
G02*
X110984532Y-55880840I272172J0D01*
G01*
X111692188Y-55880840D01*
G75*
G02*
X111964360Y-56153012I0J-272172D01*
G01*
G37*
G36*
G01*
X42629040Y-36384268D02*
X42629040Y-35426612D01*
G75*
G02*
X42901212Y-35154440I272172J0D01*
G01*
X43608868Y-35154440D01*
G75*
G02*
X43881040Y-35426612I0J-272172D01*
G01*
X43881040Y-36384268D01*
G75*
G02*
X43608868Y-36656440I-272172J0D01*
G01*
X42901212Y-36656440D01*
G75*
G02*
X42629040Y-36384268I0J272172D01*
G01*
G37*
G36*
G01*
X40579040Y-36384268D02*
X40579040Y-35426612D01*
G75*
G02*
X40851212Y-35154440I272172J0D01*
G01*
X41558868Y-35154440D01*
G75*
G02*
X41831040Y-35426612I0J-272172D01*
G01*
X41831040Y-36384268D01*
G75*
G02*
X41558868Y-36656440I-272172J0D01*
G01*
X40851212Y-36656440D01*
G75*
G02*
X40579040Y-36384268I0J272172D01*
G01*
G37*
G36*
G01*
X42563000Y-57318948D02*
X42563000Y-56361292D01*
G75*
G02*
X42835172Y-56089120I272172J0D01*
G01*
X43542828Y-56089120D01*
G75*
G02*
X43815000Y-56361292I0J-272172D01*
G01*
X43815000Y-57318948D01*
G75*
G02*
X43542828Y-57591120I-272172J0D01*
G01*
X42835172Y-57591120D01*
G75*
G02*
X42563000Y-57318948I0J272172D01*
G01*
G37*
G36*
G01*
X40513000Y-57318948D02*
X40513000Y-56361292D01*
G75*
G02*
X40785172Y-56089120I272172J0D01*
G01*
X41492828Y-56089120D01*
G75*
G02*
X41765000Y-56361292I0J-272172D01*
G01*
X41765000Y-57318948D01*
G75*
G02*
X41492828Y-57591120I-272172J0D01*
G01*
X40785172Y-57591120D01*
G75*
G02*
X40513000Y-57318948I0J272172D01*
G01*
G37*
G36*
G01*
X30675360Y-51189852D02*
X30675360Y-52147508D01*
G75*
G02*
X30403188Y-52419680I-272172J0D01*
G01*
X29695532Y-52419680D01*
G75*
G02*
X29423360Y-52147508I0J272172D01*
G01*
X29423360Y-51189852D01*
G75*
G02*
X29695532Y-50917680I272172J0D01*
G01*
X30403188Y-50917680D01*
G75*
G02*
X30675360Y-51189852I0J-272172D01*
G01*
G37*
G36*
G01*
X32725360Y-51189852D02*
X32725360Y-52147508D01*
G75*
G02*
X32453188Y-52419680I-272172J0D01*
G01*
X31745532Y-52419680D01*
G75*
G02*
X31473360Y-52147508I0J272172D01*
G01*
X31473360Y-51189852D01*
G75*
G02*
X31745532Y-50917680I272172J0D01*
G01*
X32453188Y-50917680D01*
G75*
G02*
X32725360Y-51189852I0J-272172D01*
G01*
G37*
G36*
G01*
X109938600Y-51164452D02*
X109938600Y-52122108D01*
G75*
G02*
X109666428Y-52394280I-272172J0D01*
G01*
X108958772Y-52394280D01*
G75*
G02*
X108686600Y-52122108I0J272172D01*
G01*
X108686600Y-51164452D01*
G75*
G02*
X108958772Y-50892280I272172J0D01*
G01*
X109666428Y-50892280D01*
G75*
G02*
X109938600Y-51164452I0J-272172D01*
G01*
G37*
G36*
G01*
X111988600Y-51164452D02*
X111988600Y-52122108D01*
G75*
G02*
X111716428Y-52394280I-272172J0D01*
G01*
X111008772Y-52394280D01*
G75*
G02*
X110736600Y-52122108I0J272172D01*
G01*
X110736600Y-51164452D01*
G75*
G02*
X111008772Y-50892280I272172J0D01*
G01*
X111716428Y-50892280D01*
G75*
G02*
X111988600Y-51164452I0J-272172D01*
G01*
G37*
G36*
G01*
X109993320Y-29691292D02*
X109993320Y-30648948D01*
G75*
G02*
X109721148Y-30921120I-272172J0D01*
G01*
X109013492Y-30921120D01*
G75*
G02*
X108741320Y-30648948I0J272172D01*
G01*
X108741320Y-29691292D01*
G75*
G02*
X109013492Y-29419120I272172J0D01*
G01*
X109721148Y-29419120D01*
G75*
G02*
X109993320Y-29691292I0J-272172D01*
G01*
G37*
G36*
G01*
X112043320Y-29691292D02*
X112043320Y-30648948D01*
G75*
G02*
X111771148Y-30921120I-272172J0D01*
G01*
X111063492Y-30921120D01*
G75*
G02*
X110791320Y-30648948I0J272172D01*
G01*
X110791320Y-29691292D01*
G75*
G02*
X111063492Y-29419120I272172J0D01*
G01*
X111771148Y-29419120D01*
G75*
G02*
X112043320Y-29691292I0J-272172D01*
G01*
G37*
G36*
G01*
X30665200Y-29848772D02*
X30665200Y-30806428D01*
G75*
G02*
X30393028Y-31078600I-272172J0D01*
G01*
X29685372Y-31078600D01*
G75*
G02*
X29413200Y-30806428I0J272172D01*
G01*
X29413200Y-29848772D01*
G75*
G02*
X29685372Y-29576600I272172J0D01*
G01*
X30393028Y-29576600D01*
G75*
G02*
X30665200Y-29848772I0J-272172D01*
G01*
G37*
G36*
G01*
X32715200Y-29848772D02*
X32715200Y-30806428D01*
G75*
G02*
X32443028Y-31078600I-272172J0D01*
G01*
X31735372Y-31078600D01*
G75*
G02*
X31463200Y-30806428I0J272172D01*
G01*
X31463200Y-29848772D01*
G75*
G02*
X31735372Y-29576600I272172J0D01*
G01*
X32443028Y-29576600D01*
G75*
G02*
X32715200Y-29848772I0J-272172D01*
G01*
G37*
G36*
G01*
X98112360Y-27806612D02*
X98112360Y-28764268D01*
G75*
G02*
X97840188Y-29036440I-272172J0D01*
G01*
X97132532Y-29036440D01*
G75*
G02*
X96860360Y-28764268I0J272172D01*
G01*
X96860360Y-27806612D01*
G75*
G02*
X97132532Y-27534440I272172J0D01*
G01*
X97840188Y-27534440D01*
G75*
G02*
X98112360Y-27806612I0J-272172D01*
G01*
G37*
G36*
G01*
X100162360Y-27806612D02*
X100162360Y-28764268D01*
G75*
G02*
X99890188Y-29036440I-272172J0D01*
G01*
X99182532Y-29036440D01*
G75*
G02*
X98910360Y-28764268I0J272172D01*
G01*
X98910360Y-27806612D01*
G75*
G02*
X99182532Y-27534440I272172J0D01*
G01*
X99890188Y-27534440D01*
G75*
G02*
X100162360Y-27806612I0J-272172D01*
G01*
G37*
G36*
G01*
X98117440Y-29797972D02*
X98117440Y-30755628D01*
G75*
G02*
X97845268Y-31027800I-272172J0D01*
G01*
X97137612Y-31027800D01*
G75*
G02*
X96865440Y-30755628I0J272172D01*
G01*
X96865440Y-29797972D01*
G75*
G02*
X97137612Y-29525800I272172J0D01*
G01*
X97845268Y-29525800D01*
G75*
G02*
X98117440Y-29797972I0J-272172D01*
G01*
G37*
G36*
G01*
X100167440Y-29797972D02*
X100167440Y-30755628D01*
G75*
G02*
X99895268Y-31027800I-272172J0D01*
G01*
X99187612Y-31027800D01*
G75*
G02*
X98915440Y-30755628I0J272172D01*
G01*
X98915440Y-29797972D01*
G75*
G02*
X99187612Y-29525800I272172J0D01*
G01*
X99895268Y-29525800D01*
G75*
G02*
X100167440Y-29797972I0J-272172D01*
G01*
G37*
G36*
G01*
X100176440Y-49259452D02*
X100176440Y-50217108D01*
G75*
G02*
X99904268Y-50489280I-272172J0D01*
G01*
X99196612Y-50489280D01*
G75*
G02*
X98924440Y-50217108I0J272172D01*
G01*
X98924440Y-49259452D01*
G75*
G02*
X99196612Y-48987280I272172J0D01*
G01*
X99904268Y-48987280D01*
G75*
G02*
X100176440Y-49259452I0J-272172D01*
G01*
G37*
G36*
G01*
X98126440Y-49259452D02*
X98126440Y-50217108D01*
G75*
G02*
X97854268Y-50489280I-272172J0D01*
G01*
X97146612Y-50489280D01*
G75*
G02*
X96874440Y-50217108I0J272172D01*
G01*
X96874440Y-49259452D01*
G75*
G02*
X97146612Y-48987280I272172J0D01*
G01*
X97854268Y-48987280D01*
G75*
G02*
X98126440Y-49259452I0J-272172D01*
G01*
G37*
G36*
G01*
X98117440Y-51240652D02*
X98117440Y-52198308D01*
G75*
G02*
X97845268Y-52470480I-272172J0D01*
G01*
X97137612Y-52470480D01*
G75*
G02*
X96865440Y-52198308I0J272172D01*
G01*
X96865440Y-51240652D01*
G75*
G02*
X97137612Y-50968480I272172J0D01*
G01*
X97845268Y-50968480D01*
G75*
G02*
X98117440Y-51240652I0J-272172D01*
G01*
G37*
G36*
G01*
X100167440Y-51240652D02*
X100167440Y-52198308D01*
G75*
G02*
X99895268Y-52470480I-272172J0D01*
G01*
X99187612Y-52470480D01*
G75*
G02*
X98915440Y-52198308I0J272172D01*
G01*
X98915440Y-51240652D01*
G75*
G02*
X99187612Y-50968480I272172J0D01*
G01*
X99895268Y-50968480D01*
G75*
G02*
X100167440Y-51240652I0J-272172D01*
G01*
G37*
G36*
G01*
X38785800Y-50125668D02*
X38785800Y-49168012D01*
G75*
G02*
X39057972Y-48895840I272172J0D01*
G01*
X39765628Y-48895840D01*
G75*
G02*
X40037800Y-49168012I0J-272172D01*
G01*
X40037800Y-50125668D01*
G75*
G02*
X39765628Y-50397840I-272172J0D01*
G01*
X39057972Y-50397840D01*
G75*
G02*
X38785800Y-50125668I0J272172D01*
G01*
G37*
G36*
G01*
X40835800Y-50125668D02*
X40835800Y-49168012D01*
G75*
G02*
X41107972Y-48895840I272172J0D01*
G01*
X41815628Y-48895840D01*
G75*
G02*
X42087800Y-49168012I0J-272172D01*
G01*
X42087800Y-50125668D01*
G75*
G02*
X41815628Y-50397840I-272172J0D01*
G01*
X41107972Y-50397840D01*
G75*
G02*
X40835800Y-50125668I0J272172D01*
G01*
G37*
G36*
G01*
X40835800Y-52132268D02*
X40835800Y-51174612D01*
G75*
G02*
X41107972Y-50902440I272172J0D01*
G01*
X41815628Y-50902440D01*
G75*
G02*
X42087800Y-51174612I0J-272172D01*
G01*
X42087800Y-52132268D01*
G75*
G02*
X41815628Y-52404440I-272172J0D01*
G01*
X41107972Y-52404440D01*
G75*
G02*
X40835800Y-52132268I0J272172D01*
G01*
G37*
G36*
G01*
X38785800Y-52132268D02*
X38785800Y-51174612D01*
G75*
G02*
X39057972Y-50902440I272172J0D01*
G01*
X39765628Y-50902440D01*
G75*
G02*
X40037800Y-51174612I0J-272172D01*
G01*
X40037800Y-52132268D01*
G75*
G02*
X39765628Y-52404440I-272172J0D01*
G01*
X39057972Y-52404440D01*
G75*
G02*
X38785800Y-52132268I0J272172D01*
G01*
G37*
G36*
G01*
X38867080Y-28825228D02*
X38867080Y-27867572D01*
G75*
G02*
X39139252Y-27595400I272172J0D01*
G01*
X39846908Y-27595400D01*
G75*
G02*
X40119080Y-27867572I0J-272172D01*
G01*
X40119080Y-28825228D01*
G75*
G02*
X39846908Y-29097400I-272172J0D01*
G01*
X39139252Y-29097400D01*
G75*
G02*
X38867080Y-28825228I0J272172D01*
G01*
G37*
G36*
G01*
X40917080Y-28825228D02*
X40917080Y-27867572D01*
G75*
G02*
X41189252Y-27595400I272172J0D01*
G01*
X41896908Y-27595400D01*
G75*
G02*
X42169080Y-27867572I0J-272172D01*
G01*
X42169080Y-28825228D01*
G75*
G02*
X41896908Y-29097400I-272172J0D01*
G01*
X41189252Y-29097400D01*
G75*
G02*
X40917080Y-28825228I0J272172D01*
G01*
G37*
G36*
G01*
X40922160Y-30806428D02*
X40922160Y-29848772D01*
G75*
G02*
X41194332Y-29576600I272172J0D01*
G01*
X41901988Y-29576600D01*
G75*
G02*
X42174160Y-29848772I0J-272172D01*
G01*
X42174160Y-30806428D01*
G75*
G02*
X41901988Y-31078600I-272172J0D01*
G01*
X41194332Y-31078600D01*
G75*
G02*
X40922160Y-30806428I0J272172D01*
G01*
G37*
G36*
G01*
X38872160Y-30806428D02*
X38872160Y-29848772D01*
G75*
G02*
X39144332Y-29576600I272172J0D01*
G01*
X39851988Y-29576600D01*
G75*
G02*
X40124160Y-29848772I0J-272172D01*
G01*
X40124160Y-30806428D01*
G75*
G02*
X39851988Y-31078600I-272172J0D01*
G01*
X39144332Y-31078600D01*
G75*
G02*
X38872160Y-30806428I0J272172D01*
G01*
G37*
D11*
X74650600Y-58089800D03*
X72110600Y-58089800D03*
X69570600Y-58089800D03*
X67030600Y-58089800D03*
G36*
G01*
X63640600Y-57188800D02*
X65340600Y-57188800D01*
G75*
G02*
X65391600Y-57239800I0J-51000D01*
G01*
X65391600Y-58939800D01*
G75*
G02*
X65340600Y-58990800I-51000J0D01*
G01*
X63640600Y-58990800D01*
G75*
G02*
X63589600Y-58939800I0J51000D01*
G01*
X63589600Y-57239800D01*
G75*
G02*
X63640600Y-57188800I51000J0D01*
G01*
G37*
D12*
X115466520Y-51638200D03*
X115466520Y-56638200D03*
X102966520Y-51638200D03*
X102966520Y-56638200D03*
D13*
X109316520Y-47574200D03*
X109316520Y-60655200D03*
D12*
X36132160Y-51638200D03*
X36132160Y-56638200D03*
X23632160Y-51638200D03*
X23632160Y-56638200D03*
D13*
X29982160Y-47574200D03*
X29982160Y-60655200D03*
X109316520Y-39293800D03*
X109316520Y-26212800D03*
D12*
X102966520Y-35276800D03*
X102966520Y-30276800D03*
X115466520Y-35276800D03*
X115466520Y-30276800D03*
X36132160Y-30324333D03*
X36132160Y-35324333D03*
X23632160Y-30324333D03*
X23632160Y-35324333D03*
D13*
X29982160Y-26260333D03*
X29982160Y-39341333D03*
G36*
G01*
X79965100Y-41173190D02*
X79965100Y-41736690D01*
G75*
G02*
X79720850Y-41980940I-244250J0D01*
G01*
X79232350Y-41980940D01*
G75*
G02*
X78988100Y-41736690I0J244250D01*
G01*
X78988100Y-41173190D01*
G75*
G02*
X79232350Y-40928940I244250J0D01*
G01*
X79720850Y-40928940D01*
G75*
G02*
X79965100Y-41173190I0J-244250D01*
G01*
G37*
G36*
G01*
X81540100Y-41173190D02*
X81540100Y-41736690D01*
G75*
G02*
X81295850Y-41980940I-244250J0D01*
G01*
X80807350Y-41980940D01*
G75*
G02*
X80563100Y-41736690I0J244250D01*
G01*
X80563100Y-41173190D01*
G75*
G02*
X80807350Y-40928940I244250J0D01*
G01*
X81295850Y-40928940D01*
G75*
G02*
X81540100Y-41173190I0J-244250D01*
G01*
G37*
G36*
G01*
X41955000Y-43791950D02*
X41955000Y-43228450D01*
G75*
G02*
X42199250Y-42984200I244250J0D01*
G01*
X42687750Y-42984200D01*
G75*
G02*
X42932000Y-43228450I0J-244250D01*
G01*
X42932000Y-43791950D01*
G75*
G02*
X42687750Y-44036200I-244250J0D01*
G01*
X42199250Y-44036200D01*
G75*
G02*
X41955000Y-43791950I0J244250D01*
G01*
G37*
G36*
G01*
X40380000Y-43791950D02*
X40380000Y-43228450D01*
G75*
G02*
X40624250Y-42984200I244250J0D01*
G01*
X41112750Y-42984200D01*
G75*
G02*
X41357000Y-43228450I0J-244250D01*
G01*
X41357000Y-43791950D01*
G75*
G02*
X41112750Y-44036200I-244250J0D01*
G01*
X40624250Y-44036200D01*
G75*
G02*
X40380000Y-43791950I0J244250D01*
G01*
G37*
G36*
G01*
X66477600Y-38633190D02*
X66477600Y-39196690D01*
G75*
G02*
X66233350Y-39440940I-244250J0D01*
G01*
X65744850Y-39440940D01*
G75*
G02*
X65500600Y-39196690I0J244250D01*
G01*
X65500600Y-38633190D01*
G75*
G02*
X65744850Y-38388940I244250J0D01*
G01*
X66233350Y-38388940D01*
G75*
G02*
X66477600Y-38633190I0J-244250D01*
G01*
G37*
G36*
G01*
X68052600Y-38633190D02*
X68052600Y-39196690D01*
G75*
G02*
X67808350Y-39440940I-244250J0D01*
G01*
X67319850Y-39440940D01*
G75*
G02*
X67075600Y-39196690I0J244250D01*
G01*
X67075600Y-38633190D01*
G75*
G02*
X67319850Y-38388940I244250J0D01*
G01*
X67808350Y-38388940D01*
G75*
G02*
X68052600Y-38633190I0J-244250D01*
G01*
G37*
G36*
G01*
X66477600Y-40030190D02*
X66477600Y-40593690D01*
G75*
G02*
X66233350Y-40837940I-244250J0D01*
G01*
X65744850Y-40837940D01*
G75*
G02*
X65500600Y-40593690I0J244250D01*
G01*
X65500600Y-40030190D01*
G75*
G02*
X65744850Y-39785940I244250J0D01*
G01*
X66233350Y-39785940D01*
G75*
G02*
X66477600Y-40030190I0J-244250D01*
G01*
G37*
G36*
G01*
X68052600Y-40030190D02*
X68052600Y-40593690D01*
G75*
G02*
X67808350Y-40837940I-244250J0D01*
G01*
X67319850Y-40837940D01*
G75*
G02*
X67075600Y-40593690I0J244250D01*
G01*
X67075600Y-40030190D01*
G75*
G02*
X67319850Y-39785940I244250J0D01*
G01*
X67808350Y-39785940D01*
G75*
G02*
X68052600Y-40030190I0J-244250D01*
G01*
G37*
G36*
G01*
X66452200Y-41234550D02*
X66452200Y-41798050D01*
G75*
G02*
X66207950Y-42042300I-244250J0D01*
G01*
X65719450Y-42042300D01*
G75*
G02*
X65475200Y-41798050I0J244250D01*
G01*
X65475200Y-41234550D01*
G75*
G02*
X65719450Y-40990300I244250J0D01*
G01*
X66207950Y-40990300D01*
G75*
G02*
X66452200Y-41234550I0J-244250D01*
G01*
G37*
G36*
G01*
X68027200Y-41234550D02*
X68027200Y-41798050D01*
G75*
G02*
X67782950Y-42042300I-244250J0D01*
G01*
X67294450Y-42042300D01*
G75*
G02*
X67050200Y-41798050I0J244250D01*
G01*
X67050200Y-41234550D01*
G75*
G02*
X67294450Y-40990300I244250J0D01*
G01*
X67782950Y-40990300D01*
G75*
G02*
X68027200Y-41234550I0J-244250D01*
G01*
G37*
G36*
G01*
X66452100Y-42506690D02*
X66452100Y-43070190D01*
G75*
G02*
X66207850Y-43314440I-244250J0D01*
G01*
X65719350Y-43314440D01*
G75*
G02*
X65475100Y-43070190I0J244250D01*
G01*
X65475100Y-42506690D01*
G75*
G02*
X65719350Y-42262440I244250J0D01*
G01*
X66207850Y-42262440D01*
G75*
G02*
X66452100Y-42506690I0J-244250D01*
G01*
G37*
G36*
G01*
X68027100Y-42506690D02*
X68027100Y-43070190D01*
G75*
G02*
X67782850Y-43314440I-244250J0D01*
G01*
X67294350Y-43314440D01*
G75*
G02*
X67050100Y-43070190I0J244250D01*
G01*
X67050100Y-42506690D01*
G75*
G02*
X67294350Y-42262440I244250J0D01*
G01*
X67782850Y-42262440D01*
G75*
G02*
X68027100Y-42506690I0J-244250D01*
G01*
G37*
G36*
G01*
X66439600Y-43774550D02*
X66439600Y-44338050D01*
G75*
G02*
X66195350Y-44582300I-244250J0D01*
G01*
X65706850Y-44582300D01*
G75*
G02*
X65462600Y-44338050I0J244250D01*
G01*
X65462600Y-43774550D01*
G75*
G02*
X65706850Y-43530300I244250J0D01*
G01*
X66195350Y-43530300D01*
G75*
G02*
X66439600Y-43774550I0J-244250D01*
G01*
G37*
G36*
G01*
X68014600Y-43774550D02*
X68014600Y-44338050D01*
G75*
G02*
X67770350Y-44582300I-244250J0D01*
G01*
X67281850Y-44582300D01*
G75*
G02*
X67037600Y-44338050I0J244250D01*
G01*
X67037600Y-43774550D01*
G75*
G02*
X67281850Y-43530300I244250J0D01*
G01*
X67770350Y-43530300D01*
G75*
G02*
X68014600Y-43774550I0J-244250D01*
G01*
G37*
G36*
G01*
X66439500Y-45044550D02*
X66439500Y-45608050D01*
G75*
G02*
X66195250Y-45852300I-244250J0D01*
G01*
X65706750Y-45852300D01*
G75*
G02*
X65462500Y-45608050I0J244250D01*
G01*
X65462500Y-45044550D01*
G75*
G02*
X65706750Y-44800300I244250J0D01*
G01*
X66195250Y-44800300D01*
G75*
G02*
X66439500Y-45044550I0J-244250D01*
G01*
G37*
G36*
G01*
X68014500Y-45044550D02*
X68014500Y-45608050D01*
G75*
G02*
X67770250Y-45852300I-244250J0D01*
G01*
X67281750Y-45852300D01*
G75*
G02*
X67037500Y-45608050I0J244250D01*
G01*
X67037500Y-45044550D01*
G75*
G02*
X67281750Y-44800300I244250J0D01*
G01*
X67770250Y-44800300D01*
G75*
G02*
X68014500Y-45044550I0J-244250D01*
G01*
G37*
G36*
G01*
X66439500Y-46314550D02*
X66439500Y-46878050D01*
G75*
G02*
X66195250Y-47122300I-244250J0D01*
G01*
X65706750Y-47122300D01*
G75*
G02*
X65462500Y-46878050I0J244250D01*
G01*
X65462500Y-46314550D01*
G75*
G02*
X65706750Y-46070300I244250J0D01*
G01*
X66195250Y-46070300D01*
G75*
G02*
X66439500Y-46314550I0J-244250D01*
G01*
G37*
G36*
G01*
X68014500Y-46314550D02*
X68014500Y-46878050D01*
G75*
G02*
X67770250Y-47122300I-244250J0D01*
G01*
X67281750Y-47122300D01*
G75*
G02*
X67037500Y-46878050I0J244250D01*
G01*
X67037500Y-46314550D01*
G75*
G02*
X67281750Y-46070300I244250J0D01*
G01*
X67770250Y-46070300D01*
G75*
G02*
X68014500Y-46314550I0J-244250D01*
G01*
G37*
G36*
G01*
X66439600Y-47584550D02*
X66439600Y-48148050D01*
G75*
G02*
X66195350Y-48392300I-244250J0D01*
G01*
X65706850Y-48392300D01*
G75*
G02*
X65462600Y-48148050I0J244250D01*
G01*
X65462600Y-47584550D01*
G75*
G02*
X65706850Y-47340300I244250J0D01*
G01*
X66195350Y-47340300D01*
G75*
G02*
X66439600Y-47584550I0J-244250D01*
G01*
G37*
G36*
G01*
X68014600Y-47584550D02*
X68014600Y-48148050D01*
G75*
G02*
X67770350Y-48392300I-244250J0D01*
G01*
X67281850Y-48392300D01*
G75*
G02*
X67037600Y-48148050I0J244250D01*
G01*
X67037600Y-47584550D01*
G75*
G02*
X67281850Y-47340300I244250J0D01*
G01*
X67770350Y-47340300D01*
G75*
G02*
X68014600Y-47584550I0J-244250D01*
G01*
G37*
G36*
G01*
X79965000Y-38681850D02*
X79965000Y-39245350D01*
G75*
G02*
X79720750Y-39489600I-244250J0D01*
G01*
X79232250Y-39489600D01*
G75*
G02*
X78988000Y-39245350I0J244250D01*
G01*
X78988000Y-38681850D01*
G75*
G02*
X79232250Y-38437600I244250J0D01*
G01*
X79720750Y-38437600D01*
G75*
G02*
X79965000Y-38681850I0J-244250D01*
G01*
G37*
G36*
G01*
X81540000Y-38681850D02*
X81540000Y-39245350D01*
G75*
G02*
X81295750Y-39489600I-244250J0D01*
G01*
X80807250Y-39489600D01*
G75*
G02*
X80563000Y-39245350I0J244250D01*
G01*
X80563000Y-38681850D01*
G75*
G02*
X80807250Y-38437600I244250J0D01*
G01*
X81295750Y-38437600D01*
G75*
G02*
X81540000Y-38681850I0J-244250D01*
G01*
G37*
G36*
G01*
X79965100Y-39903190D02*
X79965100Y-40466690D01*
G75*
G02*
X79720850Y-40710940I-244250J0D01*
G01*
X79232350Y-40710940D01*
G75*
G02*
X78988100Y-40466690I0J244250D01*
G01*
X78988100Y-39903190D01*
G75*
G02*
X79232350Y-39658940I244250J0D01*
G01*
X79720850Y-39658940D01*
G75*
G02*
X79965100Y-39903190I0J-244250D01*
G01*
G37*
G36*
G01*
X81540100Y-39903190D02*
X81540100Y-40466690D01*
G75*
G02*
X81295850Y-40710940I-244250J0D01*
G01*
X80807350Y-40710940D01*
G75*
G02*
X80563100Y-40466690I0J244250D01*
G01*
X80563100Y-39903190D01*
G75*
G02*
X80807350Y-39658940I244250J0D01*
G01*
X81295850Y-39658940D01*
G75*
G02*
X81540100Y-39903190I0J-244250D01*
G01*
G37*
G36*
G01*
X79965000Y-42491850D02*
X79965000Y-43055350D01*
G75*
G02*
X79720750Y-43299600I-244250J0D01*
G01*
X79232250Y-43299600D01*
G75*
G02*
X78988000Y-43055350I0J244250D01*
G01*
X78988000Y-42491850D01*
G75*
G02*
X79232250Y-42247600I244250J0D01*
G01*
X79720750Y-42247600D01*
G75*
G02*
X79965000Y-42491850I0J-244250D01*
G01*
G37*
G36*
G01*
X81540000Y-42491850D02*
X81540000Y-43055350D01*
G75*
G02*
X81295750Y-43299600I-244250J0D01*
G01*
X80807250Y-43299600D01*
G75*
G02*
X80563000Y-43055350I0J244250D01*
G01*
X80563000Y-42491850D01*
G75*
G02*
X80807250Y-42247600I244250J0D01*
G01*
X81295750Y-42247600D01*
G75*
G02*
X81540000Y-42491850I0J-244250D01*
G01*
G37*
G36*
G01*
X79965000Y-43761850D02*
X79965000Y-44325350D01*
G75*
G02*
X79720750Y-44569600I-244250J0D01*
G01*
X79232250Y-44569600D01*
G75*
G02*
X78988000Y-44325350I0J244250D01*
G01*
X78988000Y-43761850D01*
G75*
G02*
X79232250Y-43517600I244250J0D01*
G01*
X79720750Y-43517600D01*
G75*
G02*
X79965000Y-43761850I0J-244250D01*
G01*
G37*
G36*
G01*
X81540000Y-43761850D02*
X81540000Y-44325350D01*
G75*
G02*
X81295750Y-44569600I-244250J0D01*
G01*
X80807250Y-44569600D01*
G75*
G02*
X80563000Y-44325350I0J244250D01*
G01*
X80563000Y-43761850D01*
G75*
G02*
X80807250Y-43517600I244250J0D01*
G01*
X81295750Y-43517600D01*
G75*
G02*
X81540000Y-43761850I0J-244250D01*
G01*
G37*
G36*
G01*
X79952400Y-45031850D02*
X79952400Y-45595350D01*
G75*
G02*
X79708150Y-45839600I-244250J0D01*
G01*
X79219650Y-45839600D01*
G75*
G02*
X78975400Y-45595350I0J244250D01*
G01*
X78975400Y-45031850D01*
G75*
G02*
X79219650Y-44787600I244250J0D01*
G01*
X79708150Y-44787600D01*
G75*
G02*
X79952400Y-45031850I0J-244250D01*
G01*
G37*
G36*
G01*
X81527400Y-45031850D02*
X81527400Y-45595350D01*
G75*
G02*
X81283150Y-45839600I-244250J0D01*
G01*
X80794650Y-45839600D01*
G75*
G02*
X80550400Y-45595350I0J244250D01*
G01*
X80550400Y-45031850D01*
G75*
G02*
X80794650Y-44787600I244250J0D01*
G01*
X81283150Y-44787600D01*
G75*
G02*
X81527400Y-45031850I0J-244250D01*
G01*
G37*
G36*
G01*
X79965000Y-46301850D02*
X79965000Y-46865350D01*
G75*
G02*
X79720750Y-47109600I-244250J0D01*
G01*
X79232250Y-47109600D01*
G75*
G02*
X78988000Y-46865350I0J244250D01*
G01*
X78988000Y-46301850D01*
G75*
G02*
X79232250Y-46057600I244250J0D01*
G01*
X79720750Y-46057600D01*
G75*
G02*
X79965000Y-46301850I0J-244250D01*
G01*
G37*
G36*
G01*
X81540000Y-46301850D02*
X81540000Y-46865350D01*
G75*
G02*
X81295750Y-47109600I-244250J0D01*
G01*
X80807250Y-47109600D01*
G75*
G02*
X80563000Y-46865350I0J244250D01*
G01*
X80563000Y-46301850D01*
G75*
G02*
X80807250Y-46057600I244250J0D01*
G01*
X81295750Y-46057600D01*
G75*
G02*
X81540000Y-46301850I0J-244250D01*
G01*
G37*
G36*
G01*
X79965000Y-47571850D02*
X79965000Y-48135350D01*
G75*
G02*
X79720750Y-48379600I-244250J0D01*
G01*
X79232250Y-48379600D01*
G75*
G02*
X78988000Y-48135350I0J244250D01*
G01*
X78988000Y-47571850D01*
G75*
G02*
X79232250Y-47327600I244250J0D01*
G01*
X79720750Y-47327600D01*
G75*
G02*
X79965000Y-47571850I0J-244250D01*
G01*
G37*
G36*
G01*
X81540000Y-47571850D02*
X81540000Y-48135350D01*
G75*
G02*
X81295750Y-48379600I-244250J0D01*
G01*
X80807250Y-48379600D01*
G75*
G02*
X80563000Y-48135350I0J244250D01*
G01*
X80563000Y-47571850D01*
G75*
G02*
X80807250Y-47327600I244250J0D01*
G01*
X81295750Y-47327600D01*
G75*
G02*
X81540000Y-47571850I0J-244250D01*
G01*
G37*
G36*
G01*
X85279750Y-55979250D02*
X85279750Y-56542750D01*
G75*
G02*
X85035500Y-56787000I-244250J0D01*
G01*
X84547000Y-56787000D01*
G75*
G02*
X84302750Y-56542750I0J244250D01*
G01*
X84302750Y-55979250D01*
G75*
G02*
X84547000Y-55735000I244250J0D01*
G01*
X85035500Y-55735000D01*
G75*
G02*
X85279750Y-55979250I0J-244250D01*
G01*
G37*
G36*
G01*
X86854750Y-55979250D02*
X86854750Y-56542750D01*
G75*
G02*
X86610500Y-56787000I-244250J0D01*
G01*
X86122000Y-56787000D01*
G75*
G02*
X85877750Y-56542750I0J244250D01*
G01*
X85877750Y-55979250D01*
G75*
G02*
X86122000Y-55735000I244250J0D01*
G01*
X86610500Y-55735000D01*
G75*
G02*
X86854750Y-55979250I0J-244250D01*
G01*
G37*
D10*
X115697000Y-65024000D03*
X23368000Y-22225000D03*
X23368000Y-65024000D03*
X115697000Y-22225000D03*
G36*
G01*
X64681500Y-27162000D02*
X64681500Y-25162000D01*
G75*
G02*
X64732500Y-25111000I51000J0D01*
G01*
X66732500Y-25111000D01*
G75*
G02*
X66783500Y-25162000I0J-51000D01*
G01*
X66783500Y-27162000D01*
G75*
G02*
X66732500Y-27213000I-51000J0D01*
G01*
X64732500Y-27213000D01*
G75*
G02*
X64681500Y-27162000I0J51000D01*
G01*
G37*
D13*
X73332500Y-26162000D03*
G36*
G01*
X71161900Y-31028500D02*
X70361900Y-31028500D01*
G75*
G02*
X70310900Y-30977500I0J51000D01*
G01*
X70310900Y-30077500D01*
G75*
G02*
X70361900Y-30026500I51000J0D01*
G01*
X71161900Y-30026500D01*
G75*
G02*
X71212900Y-30077500I0J-51000D01*
G01*
X71212900Y-30977500D01*
G75*
G02*
X71161900Y-31028500I-51000J0D01*
G01*
G37*
G36*
G01*
X69261900Y-31028500D02*
X68461900Y-31028500D01*
G75*
G02*
X68410900Y-30977500I0J51000D01*
G01*
X68410900Y-30077500D01*
G75*
G02*
X68461900Y-30026500I51000J0D01*
G01*
X69261900Y-30026500D01*
G75*
G02*
X69312900Y-30077500I0J-51000D01*
G01*
X69312900Y-30977500D01*
G75*
G02*
X69261900Y-31028500I-51000J0D01*
G01*
G37*
G36*
G01*
X70211900Y-29028500D02*
X69411900Y-29028500D01*
G75*
G02*
X69360900Y-28977500I0J51000D01*
G01*
X69360900Y-28077500D01*
G75*
G02*
X69411900Y-28026500I51000J0D01*
G01*
X70211900Y-28026500D01*
G75*
G02*
X70262900Y-28077500I0J-51000D01*
G01*
X70262900Y-28977500D01*
G75*
G02*
X70211900Y-29028500I-51000J0D01*
G01*
G37*
G36*
G01*
X44750000Y-47231700D02*
X44750000Y-46781700D01*
G75*
G02*
X44801000Y-46730700I51000J0D01*
G01*
X46551000Y-46730700D01*
G75*
G02*
X46602000Y-46781700I0J-51000D01*
G01*
X46602000Y-47231700D01*
G75*
G02*
X46551000Y-47282700I-51000J0D01*
G01*
X44801000Y-47282700D01*
G75*
G02*
X44750000Y-47231700I0J51000D01*
G01*
G37*
G36*
G01*
X44750000Y-46581700D02*
X44750000Y-46131700D01*
G75*
G02*
X44801000Y-46080700I51000J0D01*
G01*
X46551000Y-46080700D01*
G75*
G02*
X46602000Y-46131700I0J-51000D01*
G01*
X46602000Y-46581700D01*
G75*
G02*
X46551000Y-46632700I-51000J0D01*
G01*
X44801000Y-46632700D01*
G75*
G02*
X44750000Y-46581700I0J51000D01*
G01*
G37*
G36*
G01*
X44750000Y-45931700D02*
X44750000Y-45481700D01*
G75*
G02*
X44801000Y-45430700I51000J0D01*
G01*
X46551000Y-45430700D01*
G75*
G02*
X46602000Y-45481700I0J-51000D01*
G01*
X46602000Y-45931700D01*
G75*
G02*
X46551000Y-45982700I-51000J0D01*
G01*
X44801000Y-45982700D01*
G75*
G02*
X44750000Y-45931700I0J51000D01*
G01*
G37*
G36*
G01*
X44750000Y-45281700D02*
X44750000Y-44831700D01*
G75*
G02*
X44801000Y-44780700I51000J0D01*
G01*
X46551000Y-44780700D01*
G75*
G02*
X46602000Y-44831700I0J-51000D01*
G01*
X46602000Y-45281700D01*
G75*
G02*
X46551000Y-45332700I-51000J0D01*
G01*
X44801000Y-45332700D01*
G75*
G02*
X44750000Y-45281700I0J51000D01*
G01*
G37*
G36*
G01*
X44750000Y-44631700D02*
X44750000Y-44181700D01*
G75*
G02*
X44801000Y-44130700I51000J0D01*
G01*
X46551000Y-44130700D01*
G75*
G02*
X46602000Y-44181700I0J-51000D01*
G01*
X46602000Y-44631700D01*
G75*
G02*
X46551000Y-44682700I-51000J0D01*
G01*
X44801000Y-44682700D01*
G75*
G02*
X44750000Y-44631700I0J51000D01*
G01*
G37*
G36*
G01*
X44750000Y-43981700D02*
X44750000Y-43531700D01*
G75*
G02*
X44801000Y-43480700I51000J0D01*
G01*
X46551000Y-43480700D01*
G75*
G02*
X46602000Y-43531700I0J-51000D01*
G01*
X46602000Y-43981700D01*
G75*
G02*
X46551000Y-44032700I-51000J0D01*
G01*
X44801000Y-44032700D01*
G75*
G02*
X44750000Y-43981700I0J51000D01*
G01*
G37*
G36*
G01*
X44750000Y-43331700D02*
X44750000Y-42881700D01*
G75*
G02*
X44801000Y-42830700I51000J0D01*
G01*
X46551000Y-42830700D01*
G75*
G02*
X46602000Y-42881700I0J-51000D01*
G01*
X46602000Y-43331700D01*
G75*
G02*
X46551000Y-43382700I-51000J0D01*
G01*
X44801000Y-43382700D01*
G75*
G02*
X44750000Y-43331700I0J51000D01*
G01*
G37*
G36*
G01*
X44750000Y-42681700D02*
X44750000Y-42231700D01*
G75*
G02*
X44801000Y-42180700I51000J0D01*
G01*
X46551000Y-42180700D01*
G75*
G02*
X46602000Y-42231700I0J-51000D01*
G01*
X46602000Y-42681700D01*
G75*
G02*
X46551000Y-42732700I-51000J0D01*
G01*
X44801000Y-42732700D01*
G75*
G02*
X44750000Y-42681700I0J51000D01*
G01*
G37*
G36*
G01*
X44750000Y-42031700D02*
X44750000Y-41581700D01*
G75*
G02*
X44801000Y-41530700I51000J0D01*
G01*
X46551000Y-41530700D01*
G75*
G02*
X46602000Y-41581700I0J-51000D01*
G01*
X46602000Y-42031700D01*
G75*
G02*
X46551000Y-42082700I-51000J0D01*
G01*
X44801000Y-42082700D01*
G75*
G02*
X44750000Y-42031700I0J51000D01*
G01*
G37*
G36*
G01*
X44750000Y-41381700D02*
X44750000Y-40931700D01*
G75*
G02*
X44801000Y-40880700I51000J0D01*
G01*
X46551000Y-40880700D01*
G75*
G02*
X46602000Y-40931700I0J-51000D01*
G01*
X46602000Y-41381700D01*
G75*
G02*
X46551000Y-41432700I-51000J0D01*
G01*
X44801000Y-41432700D01*
G75*
G02*
X44750000Y-41381700I0J51000D01*
G01*
G37*
G36*
G01*
X51950000Y-41381700D02*
X51950000Y-40931700D01*
G75*
G02*
X52001000Y-40880700I51000J0D01*
G01*
X53751000Y-40880700D01*
G75*
G02*
X53802000Y-40931700I0J-51000D01*
G01*
X53802000Y-41381700D01*
G75*
G02*
X53751000Y-41432700I-51000J0D01*
G01*
X52001000Y-41432700D01*
G75*
G02*
X51950000Y-41381700I0J51000D01*
G01*
G37*
G36*
G01*
X51950000Y-42031700D02*
X51950000Y-41581700D01*
G75*
G02*
X52001000Y-41530700I51000J0D01*
G01*
X53751000Y-41530700D01*
G75*
G02*
X53802000Y-41581700I0J-51000D01*
G01*
X53802000Y-42031700D01*
G75*
G02*
X53751000Y-42082700I-51000J0D01*
G01*
X52001000Y-42082700D01*
G75*
G02*
X51950000Y-42031700I0J51000D01*
G01*
G37*
G36*
G01*
X51950000Y-42681700D02*
X51950000Y-42231700D01*
G75*
G02*
X52001000Y-42180700I51000J0D01*
G01*
X53751000Y-42180700D01*
G75*
G02*
X53802000Y-42231700I0J-51000D01*
G01*
X53802000Y-42681700D01*
G75*
G02*
X53751000Y-42732700I-51000J0D01*
G01*
X52001000Y-42732700D01*
G75*
G02*
X51950000Y-42681700I0J51000D01*
G01*
G37*
G36*
G01*
X51950000Y-43331700D02*
X51950000Y-42881700D01*
G75*
G02*
X52001000Y-42830700I51000J0D01*
G01*
X53751000Y-42830700D01*
G75*
G02*
X53802000Y-42881700I0J-51000D01*
G01*
X53802000Y-43331700D01*
G75*
G02*
X53751000Y-43382700I-51000J0D01*
G01*
X52001000Y-43382700D01*
G75*
G02*
X51950000Y-43331700I0J51000D01*
G01*
G37*
G36*
G01*
X51950000Y-43981700D02*
X51950000Y-43531700D01*
G75*
G02*
X52001000Y-43480700I51000J0D01*
G01*
X53751000Y-43480700D01*
G75*
G02*
X53802000Y-43531700I0J-51000D01*
G01*
X53802000Y-43981700D01*
G75*
G02*
X53751000Y-44032700I-51000J0D01*
G01*
X52001000Y-44032700D01*
G75*
G02*
X51950000Y-43981700I0J51000D01*
G01*
G37*
G36*
G01*
X51950000Y-44631700D02*
X51950000Y-44181700D01*
G75*
G02*
X52001000Y-44130700I51000J0D01*
G01*
X53751000Y-44130700D01*
G75*
G02*
X53802000Y-44181700I0J-51000D01*
G01*
X53802000Y-44631700D01*
G75*
G02*
X53751000Y-44682700I-51000J0D01*
G01*
X52001000Y-44682700D01*
G75*
G02*
X51950000Y-44631700I0J51000D01*
G01*
G37*
G36*
G01*
X51950000Y-45281700D02*
X51950000Y-44831700D01*
G75*
G02*
X52001000Y-44780700I51000J0D01*
G01*
X53751000Y-44780700D01*
G75*
G02*
X53802000Y-44831700I0J-51000D01*
G01*
X53802000Y-45281700D01*
G75*
G02*
X53751000Y-45332700I-51000J0D01*
G01*
X52001000Y-45332700D01*
G75*
G02*
X51950000Y-45281700I0J51000D01*
G01*
G37*
G36*
G01*
X51950000Y-45931700D02*
X51950000Y-45481700D01*
G75*
G02*
X52001000Y-45430700I51000J0D01*
G01*
X53751000Y-45430700D01*
G75*
G02*
X53802000Y-45481700I0J-51000D01*
G01*
X53802000Y-45931700D01*
G75*
G02*
X53751000Y-45982700I-51000J0D01*
G01*
X52001000Y-45982700D01*
G75*
G02*
X51950000Y-45931700I0J51000D01*
G01*
G37*
G36*
G01*
X51950000Y-46581700D02*
X51950000Y-46131700D01*
G75*
G02*
X52001000Y-46080700I51000J0D01*
G01*
X53751000Y-46080700D01*
G75*
G02*
X53802000Y-46131700I0J-51000D01*
G01*
X53802000Y-46581700D01*
G75*
G02*
X53751000Y-46632700I-51000J0D01*
G01*
X52001000Y-46632700D01*
G75*
G02*
X51950000Y-46581700I0J51000D01*
G01*
G37*
G36*
G01*
X51950000Y-47231700D02*
X51950000Y-46781700D01*
G75*
G02*
X52001000Y-46730700I51000J0D01*
G01*
X53751000Y-46730700D01*
G75*
G02*
X53802000Y-46781700I0J-51000D01*
G01*
X53802000Y-47231700D01*
G75*
G02*
X53751000Y-47282700I-51000J0D01*
G01*
X52001000Y-47282700D01*
G75*
G02*
X51950000Y-47231700I0J51000D01*
G01*
G37*
G36*
G01*
X59739600Y-38800800D02*
X59739600Y-39151800D01*
G75*
G02*
X59564100Y-39327300I-175500J0D01*
G01*
X57863100Y-39327300D01*
G75*
G02*
X57687600Y-39151800I0J175500D01*
G01*
X57687600Y-38800800D01*
G75*
G02*
X57863100Y-38625300I175500J0D01*
G01*
X59564100Y-38625300D01*
G75*
G02*
X59739600Y-38800800I0J-175500D01*
G01*
G37*
G36*
G01*
X59739600Y-40070800D02*
X59739600Y-40421800D01*
G75*
G02*
X59564100Y-40597300I-175500J0D01*
G01*
X57863100Y-40597300D01*
G75*
G02*
X57687600Y-40421800I0J175500D01*
G01*
X57687600Y-40070800D01*
G75*
G02*
X57863100Y-39895300I175500J0D01*
G01*
X59564100Y-39895300D01*
G75*
G02*
X59739600Y-40070800I0J-175500D01*
G01*
G37*
G36*
G01*
X59739600Y-41340800D02*
X59739600Y-41691800D01*
G75*
G02*
X59564100Y-41867300I-175500J0D01*
G01*
X57863100Y-41867300D01*
G75*
G02*
X57687600Y-41691800I0J175500D01*
G01*
X57687600Y-41340800D01*
G75*
G02*
X57863100Y-41165300I175500J0D01*
G01*
X59564100Y-41165300D01*
G75*
G02*
X59739600Y-41340800I0J-175500D01*
G01*
G37*
G36*
G01*
X59739600Y-42610800D02*
X59739600Y-42961800D01*
G75*
G02*
X59564100Y-43137300I-175500J0D01*
G01*
X57863100Y-43137300D01*
G75*
G02*
X57687600Y-42961800I0J175500D01*
G01*
X57687600Y-42610800D01*
G75*
G02*
X57863100Y-42435300I175500J0D01*
G01*
X59564100Y-42435300D01*
G75*
G02*
X59739600Y-42610800I0J-175500D01*
G01*
G37*
G36*
G01*
X59739600Y-43880800D02*
X59739600Y-44231800D01*
G75*
G02*
X59564100Y-44407300I-175500J0D01*
G01*
X57863100Y-44407300D01*
G75*
G02*
X57687600Y-44231800I0J175500D01*
G01*
X57687600Y-43880800D01*
G75*
G02*
X57863100Y-43705300I175500J0D01*
G01*
X59564100Y-43705300D01*
G75*
G02*
X59739600Y-43880800I0J-175500D01*
G01*
G37*
G36*
G01*
X59739600Y-45150800D02*
X59739600Y-45501800D01*
G75*
G02*
X59564100Y-45677300I-175500J0D01*
G01*
X57863100Y-45677300D01*
G75*
G02*
X57687600Y-45501800I0J175500D01*
G01*
X57687600Y-45150800D01*
G75*
G02*
X57863100Y-44975300I175500J0D01*
G01*
X59564100Y-44975300D01*
G75*
G02*
X59739600Y-45150800I0J-175500D01*
G01*
G37*
G36*
G01*
X59739600Y-46420800D02*
X59739600Y-46771800D01*
G75*
G02*
X59564100Y-46947300I-175500J0D01*
G01*
X57863100Y-46947300D01*
G75*
G02*
X57687600Y-46771800I0J175500D01*
G01*
X57687600Y-46420800D01*
G75*
G02*
X57863100Y-46245300I175500J0D01*
G01*
X59564100Y-46245300D01*
G75*
G02*
X59739600Y-46420800I0J-175500D01*
G01*
G37*
G36*
G01*
X59739600Y-47690800D02*
X59739600Y-48041800D01*
G75*
G02*
X59564100Y-48217300I-175500J0D01*
G01*
X57863100Y-48217300D01*
G75*
G02*
X57687600Y-48041800I0J175500D01*
G01*
X57687600Y-47690800D01*
G75*
G02*
X57863100Y-47515300I175500J0D01*
G01*
X59564100Y-47515300D01*
G75*
G02*
X59739600Y-47690800I0J-175500D01*
G01*
G37*
G36*
G01*
X64689600Y-47690800D02*
X64689600Y-48041800D01*
G75*
G02*
X64514100Y-48217300I-175500J0D01*
G01*
X62813100Y-48217300D01*
G75*
G02*
X62637600Y-48041800I0J175500D01*
G01*
X62637600Y-47690800D01*
G75*
G02*
X62813100Y-47515300I175500J0D01*
G01*
X64514100Y-47515300D01*
G75*
G02*
X64689600Y-47690800I0J-175500D01*
G01*
G37*
G36*
G01*
X64689600Y-46420800D02*
X64689600Y-46771800D01*
G75*
G02*
X64514100Y-46947300I-175500J0D01*
G01*
X62813100Y-46947300D01*
G75*
G02*
X62637600Y-46771800I0J175500D01*
G01*
X62637600Y-46420800D01*
G75*
G02*
X62813100Y-46245300I175500J0D01*
G01*
X64514100Y-46245300D01*
G75*
G02*
X64689600Y-46420800I0J-175500D01*
G01*
G37*
G36*
G01*
X64689600Y-45150800D02*
X64689600Y-45501800D01*
G75*
G02*
X64514100Y-45677300I-175500J0D01*
G01*
X62813100Y-45677300D01*
G75*
G02*
X62637600Y-45501800I0J175500D01*
G01*
X62637600Y-45150800D01*
G75*
G02*
X62813100Y-44975300I175500J0D01*
G01*
X64514100Y-44975300D01*
G75*
G02*
X64689600Y-45150800I0J-175500D01*
G01*
G37*
G36*
G01*
X64689600Y-43880800D02*
X64689600Y-44231800D01*
G75*
G02*
X64514100Y-44407300I-175500J0D01*
G01*
X62813100Y-44407300D01*
G75*
G02*
X62637600Y-44231800I0J175500D01*
G01*
X62637600Y-43880800D01*
G75*
G02*
X62813100Y-43705300I175500J0D01*
G01*
X64514100Y-43705300D01*
G75*
G02*
X64689600Y-43880800I0J-175500D01*
G01*
G37*
G36*
G01*
X64689600Y-42610800D02*
X64689600Y-42961800D01*
G75*
G02*
X64514100Y-43137300I-175500J0D01*
G01*
X62813100Y-43137300D01*
G75*
G02*
X62637600Y-42961800I0J175500D01*
G01*
X62637600Y-42610800D01*
G75*
G02*
X62813100Y-42435300I175500J0D01*
G01*
X64514100Y-42435300D01*
G75*
G02*
X64689600Y-42610800I0J-175500D01*
G01*
G37*
G36*
G01*
X64689600Y-41340800D02*
X64689600Y-41691800D01*
G75*
G02*
X64514100Y-41867300I-175500J0D01*
G01*
X62813100Y-41867300D01*
G75*
G02*
X62637600Y-41691800I0J175500D01*
G01*
X62637600Y-41340800D01*
G75*
G02*
X62813100Y-41165300I175500J0D01*
G01*
X64514100Y-41165300D01*
G75*
G02*
X64689600Y-41340800I0J-175500D01*
G01*
G37*
G36*
G01*
X64689600Y-40070800D02*
X64689600Y-40421800D01*
G75*
G02*
X64514100Y-40597300I-175500J0D01*
G01*
X62813100Y-40597300D01*
G75*
G02*
X62637600Y-40421800I0J175500D01*
G01*
X62637600Y-40070800D01*
G75*
G02*
X62813100Y-39895300I175500J0D01*
G01*
X64514100Y-39895300D01*
G75*
G02*
X64689600Y-40070800I0J-175500D01*
G01*
G37*
G36*
G01*
X64689600Y-38800800D02*
X64689600Y-39151800D01*
G75*
G02*
X64514100Y-39327300I-175500J0D01*
G01*
X62813100Y-39327300D01*
G75*
G02*
X62637600Y-39151800I0J175500D01*
G01*
X62637600Y-38800800D01*
G75*
G02*
X62813100Y-38625300I175500J0D01*
G01*
X64514100Y-38625300D01*
G75*
G02*
X64689600Y-38800800I0J-175500D01*
G01*
G37*
D14*
X58013600Y-35775900D03*
X60553600Y-35775900D03*
X63093600Y-35775900D03*
X65633600Y-35775900D03*
X68173600Y-35775900D03*
X68173600Y-51015900D03*
X65633600Y-51015900D03*
X63093600Y-51015900D03*
X60553600Y-51015900D03*
G36*
G01*
X57200600Y-52277900D02*
X57200600Y-49753900D01*
G75*
G02*
X57251600Y-49702900I51000J0D01*
G01*
X58775600Y-49702900D01*
G75*
G02*
X58826600Y-49753900I0J-51000D01*
G01*
X58826600Y-52277900D01*
G75*
G02*
X58775600Y-52328900I-51000J0D01*
G01*
X57251600Y-52328900D01*
G75*
G02*
X57200600Y-52277900I0J51000D01*
G01*
G37*
G36*
G01*
X78050000Y-38800800D02*
X78050000Y-39151800D01*
G75*
G02*
X77874500Y-39327300I-175500J0D01*
G01*
X76173500Y-39327300D01*
G75*
G02*
X75998000Y-39151800I0J175500D01*
G01*
X75998000Y-38800800D01*
G75*
G02*
X76173500Y-38625300I175500J0D01*
G01*
X77874500Y-38625300D01*
G75*
G02*
X78050000Y-38800800I0J-175500D01*
G01*
G37*
G36*
G01*
X78050000Y-40070800D02*
X78050000Y-40421800D01*
G75*
G02*
X77874500Y-40597300I-175500J0D01*
G01*
X76173500Y-40597300D01*
G75*
G02*
X75998000Y-40421800I0J175500D01*
G01*
X75998000Y-40070800D01*
G75*
G02*
X76173500Y-39895300I175500J0D01*
G01*
X77874500Y-39895300D01*
G75*
G02*
X78050000Y-40070800I0J-175500D01*
G01*
G37*
G36*
G01*
X78050000Y-41340800D02*
X78050000Y-41691800D01*
G75*
G02*
X77874500Y-41867300I-175500J0D01*
G01*
X76173500Y-41867300D01*
G75*
G02*
X75998000Y-41691800I0J175500D01*
G01*
X75998000Y-41340800D01*
G75*
G02*
X76173500Y-41165300I175500J0D01*
G01*
X77874500Y-41165300D01*
G75*
G02*
X78050000Y-41340800I0J-175500D01*
G01*
G37*
G36*
G01*
X78050000Y-42610800D02*
X78050000Y-42961800D01*
G75*
G02*
X77874500Y-43137300I-175500J0D01*
G01*
X76173500Y-43137300D01*
G75*
G02*
X75998000Y-42961800I0J175500D01*
G01*
X75998000Y-42610800D01*
G75*
G02*
X76173500Y-42435300I175500J0D01*
G01*
X77874500Y-42435300D01*
G75*
G02*
X78050000Y-42610800I0J-175500D01*
G01*
G37*
G36*
G01*
X78050000Y-43880800D02*
X78050000Y-44231800D01*
G75*
G02*
X77874500Y-44407300I-175500J0D01*
G01*
X76173500Y-44407300D01*
G75*
G02*
X75998000Y-44231800I0J175500D01*
G01*
X75998000Y-43880800D01*
G75*
G02*
X76173500Y-43705300I175500J0D01*
G01*
X77874500Y-43705300D01*
G75*
G02*
X78050000Y-43880800I0J-175500D01*
G01*
G37*
G36*
G01*
X78050000Y-45150800D02*
X78050000Y-45501800D01*
G75*
G02*
X77874500Y-45677300I-175500J0D01*
G01*
X76173500Y-45677300D01*
G75*
G02*
X75998000Y-45501800I0J175500D01*
G01*
X75998000Y-45150800D01*
G75*
G02*
X76173500Y-44975300I175500J0D01*
G01*
X77874500Y-44975300D01*
G75*
G02*
X78050000Y-45150800I0J-175500D01*
G01*
G37*
G36*
G01*
X78050000Y-46420800D02*
X78050000Y-46771800D01*
G75*
G02*
X77874500Y-46947300I-175500J0D01*
G01*
X76173500Y-46947300D01*
G75*
G02*
X75998000Y-46771800I0J175500D01*
G01*
X75998000Y-46420800D01*
G75*
G02*
X76173500Y-46245300I175500J0D01*
G01*
X77874500Y-46245300D01*
G75*
G02*
X78050000Y-46420800I0J-175500D01*
G01*
G37*
G36*
G01*
X78050000Y-47690800D02*
X78050000Y-48041800D01*
G75*
G02*
X77874500Y-48217300I-175500J0D01*
G01*
X76173500Y-48217300D01*
G75*
G02*
X75998000Y-48041800I0J175500D01*
G01*
X75998000Y-47690800D01*
G75*
G02*
X76173500Y-47515300I175500J0D01*
G01*
X77874500Y-47515300D01*
G75*
G02*
X78050000Y-47690800I0J-175500D01*
G01*
G37*
G36*
G01*
X73100000Y-47690800D02*
X73100000Y-48041800D01*
G75*
G02*
X72924500Y-48217300I-175500J0D01*
G01*
X71223500Y-48217300D01*
G75*
G02*
X71048000Y-48041800I0J175500D01*
G01*
X71048000Y-47690800D01*
G75*
G02*
X71223500Y-47515300I175500J0D01*
G01*
X72924500Y-47515300D01*
G75*
G02*
X73100000Y-47690800I0J-175500D01*
G01*
G37*
G36*
G01*
X73100000Y-46420800D02*
X73100000Y-46771800D01*
G75*
G02*
X72924500Y-46947300I-175500J0D01*
G01*
X71223500Y-46947300D01*
G75*
G02*
X71048000Y-46771800I0J175500D01*
G01*
X71048000Y-46420800D01*
G75*
G02*
X71223500Y-46245300I175500J0D01*
G01*
X72924500Y-46245300D01*
G75*
G02*
X73100000Y-46420800I0J-175500D01*
G01*
G37*
G36*
G01*
X73100000Y-45150800D02*
X73100000Y-45501800D01*
G75*
G02*
X72924500Y-45677300I-175500J0D01*
G01*
X71223500Y-45677300D01*
G75*
G02*
X71048000Y-45501800I0J175500D01*
G01*
X71048000Y-45150800D01*
G75*
G02*
X71223500Y-44975300I175500J0D01*
G01*
X72924500Y-44975300D01*
G75*
G02*
X73100000Y-45150800I0J-175500D01*
G01*
G37*
G36*
G01*
X73100000Y-43880800D02*
X73100000Y-44231800D01*
G75*
G02*
X72924500Y-44407300I-175500J0D01*
G01*
X71223500Y-44407300D01*
G75*
G02*
X71048000Y-44231800I0J175500D01*
G01*
X71048000Y-43880800D01*
G75*
G02*
X71223500Y-43705300I175500J0D01*
G01*
X72924500Y-43705300D01*
G75*
G02*
X73100000Y-43880800I0J-175500D01*
G01*
G37*
G36*
G01*
X73100000Y-42610800D02*
X73100000Y-42961800D01*
G75*
G02*
X72924500Y-43137300I-175500J0D01*
G01*
X71223500Y-43137300D01*
G75*
G02*
X71048000Y-42961800I0J175500D01*
G01*
X71048000Y-42610800D01*
G75*
G02*
X71223500Y-42435300I175500J0D01*
G01*
X72924500Y-42435300D01*
G75*
G02*
X73100000Y-42610800I0J-175500D01*
G01*
G37*
G36*
G01*
X73100000Y-41340800D02*
X73100000Y-41691800D01*
G75*
G02*
X72924500Y-41867300I-175500J0D01*
G01*
X71223500Y-41867300D01*
G75*
G02*
X71048000Y-41691800I0J175500D01*
G01*
X71048000Y-41340800D01*
G75*
G02*
X71223500Y-41165300I175500J0D01*
G01*
X72924500Y-41165300D01*
G75*
G02*
X73100000Y-41340800I0J-175500D01*
G01*
G37*
G36*
G01*
X73100000Y-40070800D02*
X73100000Y-40421800D01*
G75*
G02*
X72924500Y-40597300I-175500J0D01*
G01*
X71223500Y-40597300D01*
G75*
G02*
X71048000Y-40421800I0J175500D01*
G01*
X71048000Y-40070800D01*
G75*
G02*
X71223500Y-39895300I175500J0D01*
G01*
X72924500Y-39895300D01*
G75*
G02*
X73100000Y-40070800I0J-175500D01*
G01*
G37*
G36*
G01*
X73100000Y-38800800D02*
X73100000Y-39151800D01*
G75*
G02*
X72924500Y-39327300I-175500J0D01*
G01*
X71223500Y-39327300D01*
G75*
G02*
X71048000Y-39151800I0J175500D01*
G01*
X71048000Y-38800800D01*
G75*
G02*
X71223500Y-38625300I175500J0D01*
G01*
X72924500Y-38625300D01*
G75*
G02*
X73100000Y-38800800I0J-175500D01*
G01*
G37*
G36*
G01*
X70256200Y-52277900D02*
X70256200Y-49753900D01*
G75*
G02*
X70307200Y-49702900I51000J0D01*
G01*
X71831200Y-49702900D01*
G75*
G02*
X71882200Y-49753900I0J-51000D01*
G01*
X71882200Y-52277900D01*
G75*
G02*
X71831200Y-52328900I-51000J0D01*
G01*
X70307200Y-52328900D01*
G75*
G02*
X70256200Y-52277900I0J51000D01*
G01*
G37*
X73609200Y-51015900D03*
X76149200Y-51015900D03*
X78689200Y-51015900D03*
X81229200Y-51015900D03*
X81229200Y-35775900D03*
X78689200Y-35775900D03*
X76149200Y-35775900D03*
X73609200Y-35775900D03*
X71069200Y-35775900D03*
D15*
X65965120Y-66102080D03*
X73115120Y-66102080D03*
G36*
G01*
X98593680Y-53214700D02*
X98593680Y-55014700D01*
G75*
G02*
X98542680Y-55065700I-51000J0D01*
G01*
X96742680Y-55065700D01*
G75*
G02*
X96691680Y-55014700I0J51000D01*
G01*
X96691680Y-53214700D01*
G75*
G02*
X96742680Y-53163700I51000J0D01*
G01*
X98542680Y-53163700D01*
G75*
G02*
X98593680Y-53214700I0J-51000D01*
G01*
G37*
D16*
X95102680Y-54114700D03*
G36*
G01*
X98593680Y-31853300D02*
X98593680Y-33653300D01*
G75*
G02*
X98542680Y-33704300I-51000J0D01*
G01*
X96742680Y-33704300D01*
G75*
G02*
X96691680Y-33653300I0J51000D01*
G01*
X96691680Y-31853300D01*
G75*
G02*
X96742680Y-31802300I51000J0D01*
G01*
X98542680Y-31802300D01*
G75*
G02*
X98593680Y-31853300I0J-51000D01*
G01*
G37*
X95102680Y-32753300D03*
X43977560Y-54114700D03*
G36*
G01*
X40486560Y-55014700D02*
X40486560Y-53214700D01*
G75*
G02*
X40537560Y-53163700I51000J0D01*
G01*
X42337560Y-53163700D01*
G75*
G02*
X42388560Y-53214700I0J-51000D01*
G01*
X42388560Y-55014700D01*
G75*
G02*
X42337560Y-55065700I-51000J0D01*
G01*
X40537560Y-55065700D01*
G75*
G02*
X40486560Y-55014700I0J51000D01*
G01*
G37*
X43967400Y-32800833D03*
G36*
G01*
X40476400Y-33700833D02*
X40476400Y-31900833D01*
G75*
G02*
X40527400Y-31849833I51000J0D01*
G01*
X42327400Y-31849833D01*
G75*
G02*
X42378400Y-31900833I0J-51000D01*
G01*
X42378400Y-33700833D01*
G75*
G02*
X42327400Y-33751833I-51000J0D01*
G01*
X40527400Y-33751833D01*
G75*
G02*
X40476400Y-33700833I0J51000D01*
G01*
G37*
D17*
G36*
X68015665Y-46876424D02*
G01*
X68016500Y-46878050D01*
X68016500Y-46934410D01*
X68016490Y-46934606D01*
X68012405Y-46976087D01*
X68012329Y-46976472D01*
X68002021Y-47010450D01*
X68001871Y-47010812D01*
X67985130Y-47042133D01*
X67984912Y-47042459D01*
X67962385Y-47069908D01*
X67962108Y-47070185D01*
X67934659Y-47092712D01*
X67934333Y-47092930D01*
X67903011Y-47109672D01*
X67902649Y-47109822D01*
X67890342Y-47113555D01*
X67867977Y-47122819D01*
X67847930Y-47136214D01*
X67830883Y-47153261D01*
X67817488Y-47173309D01*
X67808262Y-47195582D01*
X67803558Y-47219233D01*
X67803558Y-47243339D01*
X67808263Y-47266989D01*
X67817489Y-47289263D01*
X67830884Y-47309310D01*
X67847931Y-47326357D01*
X67867979Y-47339752D01*
X67890343Y-47349016D01*
X67902753Y-47352780D01*
X67903115Y-47352930D01*
X67934433Y-47369670D01*
X67934759Y-47369888D01*
X67962208Y-47392415D01*
X67962485Y-47392692D01*
X67985012Y-47420141D01*
X67985230Y-47420467D01*
X68001971Y-47451788D01*
X68002121Y-47452150D01*
X68012429Y-47486128D01*
X68012505Y-47486513D01*
X68016590Y-47527994D01*
X68016600Y-47528190D01*
X68016600Y-47584550D01*
X68015600Y-47586282D01*
X68013600Y-47586282D01*
X68012610Y-47584746D01*
X68007937Y-47537294D01*
X67994151Y-47491849D01*
X67971765Y-47449968D01*
X67941640Y-47413260D01*
X67904932Y-47383135D01*
X67863051Y-47360749D01*
X67817606Y-47346963D01*
X67770256Y-47342300D01*
X67281944Y-47342300D01*
X67234594Y-47346963D01*
X67189149Y-47360749D01*
X67147268Y-47383135D01*
X67110560Y-47413260D01*
X67080435Y-47449968D01*
X67058049Y-47491849D01*
X67044263Y-47537294D01*
X67039590Y-47584746D01*
X67038425Y-47586372D01*
X67036435Y-47586176D01*
X67035600Y-47584550D01*
X67035600Y-47528190D01*
X67035610Y-47527994D01*
X67039695Y-47486513D01*
X67039771Y-47486128D01*
X67050079Y-47452150D01*
X67050229Y-47451788D01*
X67066970Y-47420467D01*
X67067188Y-47420141D01*
X67089715Y-47392692D01*
X67089992Y-47392415D01*
X67117441Y-47369888D01*
X67117767Y-47369670D01*
X67149089Y-47352928D01*
X67149451Y-47352778D01*
X67161758Y-47349045D01*
X67184123Y-47339781D01*
X67204170Y-47326386D01*
X67221217Y-47309339D01*
X67234612Y-47289291D01*
X67243838Y-47267018D01*
X67248542Y-47243367D01*
X67248542Y-47219261D01*
X67243837Y-47195611D01*
X67234611Y-47173337D01*
X67221216Y-47153290D01*
X67204169Y-47136243D01*
X67184121Y-47122848D01*
X67161757Y-47113584D01*
X67149347Y-47109820D01*
X67148985Y-47109670D01*
X67117667Y-47092930D01*
X67117341Y-47092712D01*
X67089892Y-47070185D01*
X67089615Y-47069908D01*
X67067088Y-47042459D01*
X67066870Y-47042133D01*
X67050129Y-47010812D01*
X67049979Y-47010450D01*
X67039671Y-46976472D01*
X67039595Y-46976087D01*
X67035510Y-46934606D01*
X67035500Y-46934410D01*
X67035500Y-46878050D01*
X67036500Y-46876318D01*
X67038500Y-46876318D01*
X67039490Y-46877854D01*
X67044163Y-46925306D01*
X67057949Y-46970751D01*
X67080335Y-47012632D01*
X67110460Y-47049340D01*
X67147168Y-47079465D01*
X67189049Y-47101851D01*
X67234494Y-47115637D01*
X67281844Y-47120300D01*
X67770156Y-47120300D01*
X67817506Y-47115637D01*
X67862951Y-47101851D01*
X67904832Y-47079465D01*
X67941540Y-47049340D01*
X67971665Y-47012632D01*
X67994051Y-46970751D01*
X68007837Y-46925306D01*
X68012510Y-46877854D01*
X68013675Y-46876228D01*
X68015665Y-46876424D01*
G37*
G36*
X66440665Y-46876424D02*
G01*
X66441500Y-46878050D01*
X66441500Y-46934410D01*
X66441490Y-46934606D01*
X66437405Y-46976087D01*
X66437329Y-46976472D01*
X66427021Y-47010450D01*
X66426871Y-47010812D01*
X66410130Y-47042133D01*
X66409912Y-47042459D01*
X66387385Y-47069908D01*
X66387108Y-47070185D01*
X66359659Y-47092712D01*
X66359333Y-47092930D01*
X66328011Y-47109672D01*
X66327649Y-47109822D01*
X66315342Y-47113555D01*
X66292977Y-47122819D01*
X66272930Y-47136214D01*
X66255883Y-47153261D01*
X66242488Y-47173309D01*
X66233262Y-47195582D01*
X66228558Y-47219233D01*
X66228558Y-47243339D01*
X66233263Y-47266989D01*
X66242489Y-47289263D01*
X66255884Y-47309310D01*
X66272931Y-47326357D01*
X66292979Y-47339752D01*
X66315343Y-47349016D01*
X66327753Y-47352780D01*
X66328115Y-47352930D01*
X66359433Y-47369670D01*
X66359759Y-47369888D01*
X66387208Y-47392415D01*
X66387485Y-47392692D01*
X66410012Y-47420141D01*
X66410230Y-47420467D01*
X66426971Y-47451788D01*
X66427121Y-47452150D01*
X66437429Y-47486128D01*
X66437505Y-47486513D01*
X66441590Y-47527994D01*
X66441600Y-47528190D01*
X66441600Y-47584550D01*
X66440600Y-47586282D01*
X66438600Y-47586282D01*
X66437610Y-47584746D01*
X66432937Y-47537294D01*
X66419151Y-47491849D01*
X66396765Y-47449968D01*
X66366640Y-47413260D01*
X66329932Y-47383135D01*
X66288051Y-47360749D01*
X66242606Y-47346963D01*
X66195256Y-47342300D01*
X65706944Y-47342300D01*
X65659594Y-47346963D01*
X65614149Y-47360749D01*
X65572268Y-47383135D01*
X65535560Y-47413260D01*
X65505435Y-47449968D01*
X65483049Y-47491849D01*
X65469263Y-47537294D01*
X65464590Y-47584746D01*
X65463425Y-47586372D01*
X65461435Y-47586176D01*
X65460600Y-47584550D01*
X65460600Y-47528190D01*
X65460610Y-47527994D01*
X65464695Y-47486513D01*
X65464771Y-47486128D01*
X65475079Y-47452150D01*
X65475229Y-47451788D01*
X65491970Y-47420467D01*
X65492188Y-47420141D01*
X65514715Y-47392692D01*
X65514992Y-47392415D01*
X65542441Y-47369888D01*
X65542767Y-47369670D01*
X65574089Y-47352928D01*
X65574451Y-47352778D01*
X65586758Y-47349045D01*
X65609123Y-47339781D01*
X65629170Y-47326386D01*
X65646217Y-47309339D01*
X65659612Y-47289291D01*
X65668838Y-47267018D01*
X65673542Y-47243367D01*
X65673542Y-47219261D01*
X65668837Y-47195611D01*
X65659611Y-47173337D01*
X65646216Y-47153290D01*
X65629169Y-47136243D01*
X65609121Y-47122848D01*
X65586757Y-47113584D01*
X65574347Y-47109820D01*
X65573985Y-47109670D01*
X65542667Y-47092930D01*
X65542341Y-47092712D01*
X65514892Y-47070185D01*
X65514615Y-47069908D01*
X65492088Y-47042459D01*
X65491870Y-47042133D01*
X65475129Y-47010812D01*
X65474979Y-47010450D01*
X65464671Y-46976472D01*
X65464595Y-46976087D01*
X65460510Y-46934606D01*
X65460500Y-46934410D01*
X65460500Y-46878050D01*
X65461500Y-46876318D01*
X65463500Y-46876318D01*
X65464490Y-46877854D01*
X65469163Y-46925306D01*
X65482949Y-46970751D01*
X65505335Y-47012632D01*
X65535460Y-47049340D01*
X65572168Y-47079465D01*
X65614049Y-47101851D01*
X65659494Y-47115637D01*
X65706844Y-47120300D01*
X66195156Y-47120300D01*
X66242506Y-47115637D01*
X66287951Y-47101851D01*
X66329832Y-47079465D01*
X66366540Y-47049340D01*
X66396665Y-47012632D01*
X66419051Y-46970751D01*
X66432837Y-46925306D01*
X66437510Y-46877854D01*
X66438675Y-46876228D01*
X66440665Y-46876424D01*
G37*
G36*
X81541165Y-46863724D02*
G01*
X81542000Y-46865350D01*
X81542000Y-46921710D01*
X81541990Y-46921906D01*
X81537905Y-46963387D01*
X81537829Y-46963772D01*
X81527521Y-46997750D01*
X81527371Y-46998112D01*
X81510630Y-47029433D01*
X81510412Y-47029759D01*
X81487885Y-47057208D01*
X81487608Y-47057485D01*
X81460159Y-47080012D01*
X81459833Y-47080230D01*
X81428515Y-47096970D01*
X81428153Y-47097120D01*
X81415793Y-47100869D01*
X81393428Y-47110134D01*
X81373380Y-47123528D01*
X81356333Y-47140575D01*
X81342939Y-47160623D01*
X81333712Y-47182897D01*
X81329008Y-47206547D01*
X81329008Y-47230653D01*
X81333712Y-47254303D01*
X81342939Y-47276577D01*
X81356333Y-47296625D01*
X81373380Y-47313672D01*
X81393428Y-47327066D01*
X81415793Y-47336331D01*
X81428153Y-47340080D01*
X81428515Y-47340230D01*
X81459833Y-47356970D01*
X81460159Y-47357188D01*
X81487608Y-47379715D01*
X81487885Y-47379992D01*
X81510412Y-47407441D01*
X81510630Y-47407767D01*
X81527371Y-47439088D01*
X81527521Y-47439450D01*
X81537829Y-47473428D01*
X81537905Y-47473813D01*
X81541990Y-47515294D01*
X81542000Y-47515490D01*
X81542000Y-47571850D01*
X81541000Y-47573582D01*
X81539000Y-47573582D01*
X81538010Y-47572046D01*
X81533337Y-47524594D01*
X81519551Y-47479149D01*
X81497165Y-47437268D01*
X81467040Y-47400560D01*
X81430332Y-47370435D01*
X81388451Y-47348049D01*
X81343006Y-47334263D01*
X81295656Y-47329600D01*
X80807344Y-47329600D01*
X80759994Y-47334263D01*
X80714549Y-47348049D01*
X80672668Y-47370435D01*
X80635960Y-47400560D01*
X80605835Y-47437268D01*
X80583449Y-47479149D01*
X80569663Y-47524594D01*
X80564990Y-47572046D01*
X80563825Y-47573672D01*
X80561835Y-47573476D01*
X80561000Y-47571850D01*
X80561000Y-47515490D01*
X80561010Y-47515294D01*
X80565095Y-47473813D01*
X80565171Y-47473428D01*
X80575479Y-47439450D01*
X80575629Y-47439088D01*
X80592370Y-47407767D01*
X80592588Y-47407441D01*
X80615115Y-47379992D01*
X80615392Y-47379715D01*
X80642841Y-47357188D01*
X80643167Y-47356970D01*
X80674485Y-47340230D01*
X80674847Y-47340080D01*
X80687207Y-47336331D01*
X80709572Y-47327066D01*
X80729620Y-47313672D01*
X80746667Y-47296625D01*
X80760061Y-47276577D01*
X80769288Y-47254303D01*
X80773992Y-47230653D01*
X80773992Y-47206547D01*
X80769288Y-47182897D01*
X80760061Y-47160623D01*
X80746667Y-47140575D01*
X80729620Y-47123528D01*
X80709572Y-47110134D01*
X80687207Y-47100869D01*
X80674847Y-47097120D01*
X80674485Y-47096970D01*
X80643167Y-47080230D01*
X80642841Y-47080012D01*
X80615392Y-47057485D01*
X80615115Y-47057208D01*
X80592588Y-47029759D01*
X80592370Y-47029433D01*
X80575629Y-46998112D01*
X80575479Y-46997750D01*
X80565171Y-46963772D01*
X80565095Y-46963387D01*
X80561010Y-46921906D01*
X80561000Y-46921710D01*
X80561000Y-46865350D01*
X80562000Y-46863618D01*
X80564000Y-46863618D01*
X80564990Y-46865154D01*
X80569663Y-46912606D01*
X80583449Y-46958051D01*
X80605835Y-46999932D01*
X80635960Y-47036640D01*
X80672668Y-47066765D01*
X80714549Y-47089151D01*
X80759994Y-47102937D01*
X80807344Y-47107600D01*
X81295656Y-47107600D01*
X81343006Y-47102937D01*
X81388451Y-47089151D01*
X81430332Y-47066765D01*
X81467040Y-47036640D01*
X81497165Y-46999932D01*
X81519551Y-46958051D01*
X81533337Y-46912606D01*
X81538010Y-46865154D01*
X81539175Y-46863528D01*
X81541165Y-46863724D01*
G37*
G36*
X79966165Y-46863724D02*
G01*
X79967000Y-46865350D01*
X79967000Y-46921710D01*
X79966990Y-46921906D01*
X79962905Y-46963387D01*
X79962829Y-46963772D01*
X79952521Y-46997750D01*
X79952371Y-46998112D01*
X79935630Y-47029433D01*
X79935412Y-47029759D01*
X79912885Y-47057208D01*
X79912608Y-47057485D01*
X79885159Y-47080012D01*
X79884833Y-47080230D01*
X79853515Y-47096970D01*
X79853153Y-47097120D01*
X79840793Y-47100869D01*
X79818428Y-47110134D01*
X79798380Y-47123528D01*
X79781333Y-47140575D01*
X79767939Y-47160623D01*
X79758712Y-47182897D01*
X79754008Y-47206547D01*
X79754008Y-47230653D01*
X79758712Y-47254303D01*
X79767939Y-47276577D01*
X79781333Y-47296625D01*
X79798380Y-47313672D01*
X79818428Y-47327066D01*
X79840793Y-47336331D01*
X79853153Y-47340080D01*
X79853515Y-47340230D01*
X79884833Y-47356970D01*
X79885159Y-47357188D01*
X79912608Y-47379715D01*
X79912885Y-47379992D01*
X79935412Y-47407441D01*
X79935630Y-47407767D01*
X79952371Y-47439088D01*
X79952521Y-47439450D01*
X79962829Y-47473428D01*
X79962905Y-47473813D01*
X79966990Y-47515294D01*
X79967000Y-47515490D01*
X79967000Y-47571850D01*
X79966000Y-47573582D01*
X79964000Y-47573582D01*
X79963010Y-47572046D01*
X79958337Y-47524594D01*
X79944551Y-47479149D01*
X79922165Y-47437268D01*
X79892040Y-47400560D01*
X79855332Y-47370435D01*
X79813451Y-47348049D01*
X79768006Y-47334263D01*
X79720656Y-47329600D01*
X79232344Y-47329600D01*
X79184994Y-47334263D01*
X79139549Y-47348049D01*
X79097668Y-47370435D01*
X79060960Y-47400560D01*
X79030835Y-47437268D01*
X79008449Y-47479149D01*
X78994663Y-47524594D01*
X78989990Y-47572046D01*
X78988825Y-47573672D01*
X78986835Y-47573476D01*
X78986000Y-47571850D01*
X78986000Y-47515490D01*
X78986010Y-47515294D01*
X78990095Y-47473813D01*
X78990171Y-47473428D01*
X79000479Y-47439450D01*
X79000629Y-47439088D01*
X79017370Y-47407767D01*
X79017588Y-47407441D01*
X79040115Y-47379992D01*
X79040392Y-47379715D01*
X79067841Y-47357188D01*
X79068167Y-47356970D01*
X79099485Y-47340230D01*
X79099847Y-47340080D01*
X79112207Y-47336331D01*
X79134572Y-47327066D01*
X79154620Y-47313672D01*
X79171667Y-47296625D01*
X79185061Y-47276577D01*
X79194288Y-47254303D01*
X79198992Y-47230653D01*
X79198992Y-47206547D01*
X79194288Y-47182897D01*
X79185061Y-47160623D01*
X79171667Y-47140575D01*
X79154620Y-47123528D01*
X79134572Y-47110134D01*
X79112207Y-47100869D01*
X79099847Y-47097120D01*
X79099485Y-47096970D01*
X79068167Y-47080230D01*
X79067841Y-47080012D01*
X79040392Y-47057485D01*
X79040115Y-47057208D01*
X79017588Y-47029759D01*
X79017370Y-47029433D01*
X79000629Y-46998112D01*
X79000479Y-46997750D01*
X78990171Y-46963772D01*
X78990095Y-46963387D01*
X78986010Y-46921906D01*
X78986000Y-46921710D01*
X78986000Y-46865350D01*
X78987000Y-46863618D01*
X78989000Y-46863618D01*
X78989990Y-46865154D01*
X78994663Y-46912606D01*
X79008449Y-46958051D01*
X79030835Y-46999932D01*
X79060960Y-47036640D01*
X79097668Y-47066765D01*
X79139549Y-47089151D01*
X79184994Y-47102937D01*
X79232344Y-47107600D01*
X79720656Y-47107600D01*
X79768006Y-47102937D01*
X79813451Y-47089151D01*
X79855332Y-47066765D01*
X79892040Y-47036640D01*
X79922165Y-46999932D01*
X79944551Y-46958051D01*
X79958337Y-46912606D01*
X79963010Y-46865154D01*
X79964175Y-46863528D01*
X79966165Y-46863724D01*
G37*
G36*
X46603732Y-46631700D02*
G01*
X46604000Y-46632700D01*
X46604000Y-46730700D01*
X46603000Y-46732432D01*
X46602000Y-46732700D01*
X44750000Y-46732700D01*
X44748268Y-46731700D01*
X44748000Y-46730700D01*
X44748000Y-46632700D01*
X44749000Y-46630968D01*
X44750000Y-46630700D01*
X46602000Y-46630700D01*
X46603732Y-46631700D01*
G37*
G36*
X53803732Y-46631700D02*
G01*
X53804000Y-46632700D01*
X53804000Y-46730700D01*
X53803000Y-46732432D01*
X53802000Y-46732700D01*
X51950000Y-46732700D01*
X51948268Y-46731700D01*
X51948000Y-46730700D01*
X51948000Y-46632700D01*
X51949000Y-46630968D01*
X51950000Y-46630700D01*
X53802000Y-46630700D01*
X53803732Y-46631700D01*
G37*
G36*
X66440665Y-45606424D02*
G01*
X66441500Y-45608050D01*
X66441500Y-45664410D01*
X66441490Y-45664606D01*
X66437405Y-45706087D01*
X66437329Y-45706472D01*
X66427021Y-45740450D01*
X66426871Y-45740812D01*
X66410130Y-45772133D01*
X66409912Y-45772459D01*
X66387385Y-45799908D01*
X66387108Y-45800185D01*
X66359659Y-45822712D01*
X66359333Y-45822930D01*
X66328015Y-45839670D01*
X66327653Y-45839820D01*
X66315293Y-45843569D01*
X66292928Y-45852834D01*
X66272880Y-45866228D01*
X66255833Y-45883275D01*
X66242439Y-45903323D01*
X66233212Y-45925597D01*
X66228508Y-45949247D01*
X66228508Y-45973353D01*
X66233212Y-45997003D01*
X66242439Y-46019277D01*
X66255833Y-46039325D01*
X66272880Y-46056372D01*
X66292928Y-46069766D01*
X66315293Y-46079031D01*
X66327653Y-46082780D01*
X66328015Y-46082930D01*
X66359333Y-46099670D01*
X66359659Y-46099888D01*
X66387108Y-46122415D01*
X66387385Y-46122692D01*
X66409912Y-46150141D01*
X66410130Y-46150467D01*
X66426871Y-46181788D01*
X66427021Y-46182150D01*
X66437329Y-46216128D01*
X66437405Y-46216513D01*
X66441490Y-46257994D01*
X66441500Y-46258190D01*
X66441500Y-46314550D01*
X66440500Y-46316282D01*
X66438500Y-46316282D01*
X66437510Y-46314746D01*
X66432837Y-46267294D01*
X66419051Y-46221849D01*
X66396665Y-46179968D01*
X66366540Y-46143260D01*
X66329832Y-46113135D01*
X66287951Y-46090749D01*
X66242506Y-46076963D01*
X66195156Y-46072300D01*
X65706844Y-46072300D01*
X65659494Y-46076963D01*
X65614049Y-46090749D01*
X65572168Y-46113135D01*
X65535460Y-46143260D01*
X65505335Y-46179968D01*
X65482949Y-46221849D01*
X65469163Y-46267294D01*
X65464490Y-46314746D01*
X65463325Y-46316372D01*
X65461335Y-46316176D01*
X65460500Y-46314550D01*
X65460500Y-46258190D01*
X65460510Y-46257994D01*
X65464595Y-46216513D01*
X65464671Y-46216128D01*
X65474979Y-46182150D01*
X65475129Y-46181788D01*
X65491870Y-46150467D01*
X65492088Y-46150141D01*
X65514615Y-46122692D01*
X65514892Y-46122415D01*
X65542341Y-46099888D01*
X65542667Y-46099670D01*
X65573985Y-46082930D01*
X65574347Y-46082780D01*
X65586707Y-46079031D01*
X65609072Y-46069766D01*
X65629120Y-46056372D01*
X65646167Y-46039325D01*
X65659561Y-46019277D01*
X65668788Y-45997003D01*
X65673492Y-45973353D01*
X65673492Y-45949247D01*
X65668788Y-45925597D01*
X65659561Y-45903323D01*
X65646167Y-45883275D01*
X65629120Y-45866228D01*
X65609072Y-45852834D01*
X65586707Y-45843569D01*
X65574347Y-45839820D01*
X65573985Y-45839670D01*
X65542667Y-45822930D01*
X65542341Y-45822712D01*
X65514892Y-45800185D01*
X65514615Y-45799908D01*
X65492088Y-45772459D01*
X65491870Y-45772133D01*
X65475129Y-45740812D01*
X65474979Y-45740450D01*
X65464671Y-45706472D01*
X65464595Y-45706087D01*
X65460510Y-45664606D01*
X65460500Y-45664410D01*
X65460500Y-45608050D01*
X65461500Y-45606318D01*
X65463500Y-45606318D01*
X65464490Y-45607854D01*
X65469163Y-45655306D01*
X65482949Y-45700751D01*
X65505335Y-45742632D01*
X65535460Y-45779340D01*
X65572168Y-45809465D01*
X65614049Y-45831851D01*
X65659494Y-45845637D01*
X65706844Y-45850300D01*
X66195156Y-45850300D01*
X66242506Y-45845637D01*
X66287951Y-45831851D01*
X66329832Y-45809465D01*
X66366540Y-45779340D01*
X66396665Y-45742632D01*
X66419051Y-45700751D01*
X66432837Y-45655306D01*
X66437510Y-45607854D01*
X66438675Y-45606228D01*
X66440665Y-45606424D01*
G37*
G36*
X68015665Y-45606424D02*
G01*
X68016500Y-45608050D01*
X68016500Y-45664410D01*
X68016490Y-45664606D01*
X68012405Y-45706087D01*
X68012329Y-45706472D01*
X68002021Y-45740450D01*
X68001871Y-45740812D01*
X67985130Y-45772133D01*
X67984912Y-45772459D01*
X67962385Y-45799908D01*
X67962108Y-45800185D01*
X67934659Y-45822712D01*
X67934333Y-45822930D01*
X67903015Y-45839670D01*
X67902653Y-45839820D01*
X67890293Y-45843569D01*
X67867928Y-45852834D01*
X67847880Y-45866228D01*
X67830833Y-45883275D01*
X67817439Y-45903323D01*
X67808212Y-45925597D01*
X67803508Y-45949247D01*
X67803508Y-45973353D01*
X67808212Y-45997003D01*
X67817439Y-46019277D01*
X67830833Y-46039325D01*
X67847880Y-46056372D01*
X67867928Y-46069766D01*
X67890293Y-46079031D01*
X67902653Y-46082780D01*
X67903015Y-46082930D01*
X67934333Y-46099670D01*
X67934659Y-46099888D01*
X67962108Y-46122415D01*
X67962385Y-46122692D01*
X67984912Y-46150141D01*
X67985130Y-46150467D01*
X68001871Y-46181788D01*
X68002021Y-46182150D01*
X68012329Y-46216128D01*
X68012405Y-46216513D01*
X68016490Y-46257994D01*
X68016500Y-46258190D01*
X68016500Y-46314550D01*
X68015500Y-46316282D01*
X68013500Y-46316282D01*
X68012510Y-46314746D01*
X68007837Y-46267294D01*
X67994051Y-46221849D01*
X67971665Y-46179968D01*
X67941540Y-46143260D01*
X67904832Y-46113135D01*
X67862951Y-46090749D01*
X67817506Y-46076963D01*
X67770156Y-46072300D01*
X67281844Y-46072300D01*
X67234494Y-46076963D01*
X67189049Y-46090749D01*
X67147168Y-46113135D01*
X67110460Y-46143260D01*
X67080335Y-46179968D01*
X67057949Y-46221849D01*
X67044163Y-46267294D01*
X67039490Y-46314746D01*
X67038325Y-46316372D01*
X67036335Y-46316176D01*
X67035500Y-46314550D01*
X67035500Y-46258190D01*
X67035510Y-46257994D01*
X67039595Y-46216513D01*
X67039671Y-46216128D01*
X67049979Y-46182150D01*
X67050129Y-46181788D01*
X67066870Y-46150467D01*
X67067088Y-46150141D01*
X67089615Y-46122692D01*
X67089892Y-46122415D01*
X67117341Y-46099888D01*
X67117667Y-46099670D01*
X67148985Y-46082930D01*
X67149347Y-46082780D01*
X67161707Y-46079031D01*
X67184072Y-46069766D01*
X67204120Y-46056372D01*
X67221167Y-46039325D01*
X67234561Y-46019277D01*
X67243788Y-45997003D01*
X67248492Y-45973353D01*
X67248492Y-45949247D01*
X67243788Y-45925597D01*
X67234561Y-45903323D01*
X67221167Y-45883275D01*
X67204120Y-45866228D01*
X67184072Y-45852834D01*
X67161707Y-45843569D01*
X67149347Y-45839820D01*
X67148985Y-45839670D01*
X67117667Y-45822930D01*
X67117341Y-45822712D01*
X67089892Y-45800185D01*
X67089615Y-45799908D01*
X67067088Y-45772459D01*
X67066870Y-45772133D01*
X67050129Y-45740812D01*
X67049979Y-45740450D01*
X67039671Y-45706472D01*
X67039595Y-45706087D01*
X67035510Y-45664606D01*
X67035500Y-45664410D01*
X67035500Y-45608050D01*
X67036500Y-45606318D01*
X67038500Y-45606318D01*
X67039490Y-45607854D01*
X67044163Y-45655306D01*
X67057949Y-45700751D01*
X67080335Y-45742632D01*
X67110460Y-45779340D01*
X67147168Y-45809465D01*
X67189049Y-45831851D01*
X67234494Y-45845637D01*
X67281844Y-45850300D01*
X67770156Y-45850300D01*
X67817506Y-45845637D01*
X67862951Y-45831851D01*
X67904832Y-45809465D01*
X67941540Y-45779340D01*
X67971665Y-45742632D01*
X67994051Y-45700751D01*
X68007837Y-45655306D01*
X68012510Y-45607854D01*
X68013675Y-45606228D01*
X68015665Y-45606424D01*
G37*
G36*
X79953565Y-45593724D02*
G01*
X79954400Y-45595350D01*
X79954400Y-45651710D01*
X79954390Y-45651906D01*
X79950305Y-45693387D01*
X79950229Y-45693772D01*
X79939921Y-45727750D01*
X79939771Y-45728112D01*
X79923030Y-45759433D01*
X79922812Y-45759759D01*
X79900285Y-45787208D01*
X79900008Y-45787485D01*
X79872559Y-45810012D01*
X79872233Y-45810230D01*
X79840912Y-45826972D01*
X79840549Y-45827122D01*
X79834495Y-45828958D01*
X79812127Y-45838223D01*
X79792080Y-45851618D01*
X79775033Y-45868665D01*
X79761638Y-45888712D01*
X79752412Y-45910986D01*
X79747708Y-45934636D01*
X79747708Y-45958743D01*
X79752413Y-45982393D01*
X79761639Y-46004667D01*
X79775034Y-46024714D01*
X79792081Y-46041761D01*
X79812128Y-46055156D01*
X79834493Y-46064420D01*
X79853153Y-46070080D01*
X79853515Y-46070230D01*
X79884833Y-46086970D01*
X79885159Y-46087188D01*
X79912608Y-46109715D01*
X79912885Y-46109992D01*
X79935412Y-46137441D01*
X79935630Y-46137767D01*
X79952371Y-46169088D01*
X79952521Y-46169450D01*
X79962829Y-46203428D01*
X79962905Y-46203813D01*
X79966990Y-46245294D01*
X79967000Y-46245490D01*
X79967000Y-46301850D01*
X79966000Y-46303582D01*
X79964000Y-46303582D01*
X79963010Y-46302046D01*
X79958337Y-46254594D01*
X79944551Y-46209149D01*
X79922165Y-46167268D01*
X79892040Y-46130560D01*
X79855332Y-46100435D01*
X79813451Y-46078049D01*
X79768006Y-46064263D01*
X79720656Y-46059600D01*
X79232344Y-46059600D01*
X79184994Y-46064263D01*
X79139549Y-46078049D01*
X79097668Y-46100435D01*
X79060960Y-46130560D01*
X79030835Y-46167268D01*
X79008449Y-46209149D01*
X78994663Y-46254594D01*
X78989990Y-46302046D01*
X78988825Y-46303672D01*
X78986835Y-46303476D01*
X78986000Y-46301850D01*
X78986000Y-46245490D01*
X78986010Y-46245294D01*
X78990095Y-46203813D01*
X78990171Y-46203428D01*
X79000479Y-46169450D01*
X79000629Y-46169088D01*
X79017370Y-46137767D01*
X79017588Y-46137441D01*
X79040115Y-46109992D01*
X79040392Y-46109715D01*
X79067841Y-46087188D01*
X79068167Y-46086970D01*
X79099488Y-46070228D01*
X79099851Y-46070078D01*
X79105905Y-46068242D01*
X79128273Y-46058977D01*
X79148320Y-46045582D01*
X79165367Y-46028535D01*
X79178762Y-46008488D01*
X79187988Y-45986214D01*
X79192692Y-45962564D01*
X79192692Y-45938457D01*
X79187987Y-45914807D01*
X79178761Y-45892533D01*
X79165366Y-45872486D01*
X79148319Y-45855439D01*
X79128272Y-45842044D01*
X79105907Y-45832780D01*
X79087247Y-45827120D01*
X79086885Y-45826970D01*
X79055567Y-45810230D01*
X79055241Y-45810012D01*
X79027792Y-45787485D01*
X79027515Y-45787208D01*
X79004988Y-45759759D01*
X79004770Y-45759433D01*
X78988029Y-45728112D01*
X78987879Y-45727750D01*
X78977571Y-45693772D01*
X78977495Y-45693387D01*
X78973410Y-45651906D01*
X78973400Y-45651710D01*
X78973400Y-45595350D01*
X78974400Y-45593618D01*
X78976400Y-45593618D01*
X78977390Y-45595154D01*
X78982063Y-45642606D01*
X78995849Y-45688051D01*
X79018235Y-45729932D01*
X79048360Y-45766640D01*
X79085068Y-45796765D01*
X79126949Y-45819151D01*
X79172394Y-45832937D01*
X79219744Y-45837600D01*
X79708056Y-45837600D01*
X79755406Y-45832937D01*
X79800851Y-45819151D01*
X79842732Y-45796765D01*
X79879440Y-45766640D01*
X79909565Y-45729932D01*
X79931951Y-45688051D01*
X79945737Y-45642606D01*
X79950410Y-45595154D01*
X79951575Y-45593528D01*
X79953565Y-45593724D01*
G37*
G36*
X81528565Y-45593724D02*
G01*
X81529400Y-45595350D01*
X81529400Y-45651710D01*
X81529390Y-45651906D01*
X81525305Y-45693387D01*
X81525229Y-45693772D01*
X81514921Y-45727750D01*
X81514771Y-45728112D01*
X81498030Y-45759433D01*
X81497812Y-45759759D01*
X81475285Y-45787208D01*
X81475008Y-45787485D01*
X81447559Y-45810012D01*
X81447233Y-45810230D01*
X81415912Y-45826972D01*
X81415549Y-45827122D01*
X81409495Y-45828958D01*
X81387127Y-45838223D01*
X81367080Y-45851618D01*
X81350033Y-45868665D01*
X81336638Y-45888712D01*
X81327412Y-45910986D01*
X81322708Y-45934636D01*
X81322708Y-45958743D01*
X81327413Y-45982393D01*
X81336639Y-46004667D01*
X81350034Y-46024714D01*
X81367081Y-46041761D01*
X81387128Y-46055156D01*
X81409493Y-46064420D01*
X81428153Y-46070080D01*
X81428515Y-46070230D01*
X81459833Y-46086970D01*
X81460159Y-46087188D01*
X81487608Y-46109715D01*
X81487885Y-46109992D01*
X81510412Y-46137441D01*
X81510630Y-46137767D01*
X81527371Y-46169088D01*
X81527521Y-46169450D01*
X81537829Y-46203428D01*
X81537905Y-46203813D01*
X81541990Y-46245294D01*
X81542000Y-46245490D01*
X81542000Y-46301850D01*
X81541000Y-46303582D01*
X81539000Y-46303582D01*
X81538010Y-46302046D01*
X81533337Y-46254594D01*
X81519551Y-46209149D01*
X81497165Y-46167268D01*
X81467040Y-46130560D01*
X81430332Y-46100435D01*
X81388451Y-46078049D01*
X81343006Y-46064263D01*
X81295656Y-46059600D01*
X80807344Y-46059600D01*
X80759994Y-46064263D01*
X80714549Y-46078049D01*
X80672668Y-46100435D01*
X80635960Y-46130560D01*
X80605835Y-46167268D01*
X80583449Y-46209149D01*
X80569663Y-46254594D01*
X80564990Y-46302046D01*
X80563825Y-46303672D01*
X80561835Y-46303476D01*
X80561000Y-46301850D01*
X80561000Y-46245490D01*
X80561010Y-46245294D01*
X80565095Y-46203813D01*
X80565171Y-46203428D01*
X80575479Y-46169450D01*
X80575629Y-46169088D01*
X80592370Y-46137767D01*
X80592588Y-46137441D01*
X80615115Y-46109992D01*
X80615392Y-46109715D01*
X80642841Y-46087188D01*
X80643167Y-46086970D01*
X80674488Y-46070228D01*
X80674851Y-46070078D01*
X80680905Y-46068242D01*
X80703273Y-46058977D01*
X80723320Y-46045582D01*
X80740367Y-46028535D01*
X80753762Y-46008488D01*
X80762988Y-45986214D01*
X80767692Y-45962564D01*
X80767692Y-45938457D01*
X80762987Y-45914807D01*
X80753761Y-45892533D01*
X80740366Y-45872486D01*
X80723319Y-45855439D01*
X80703272Y-45842044D01*
X80680907Y-45832780D01*
X80662247Y-45827120D01*
X80661885Y-45826970D01*
X80630567Y-45810230D01*
X80630241Y-45810012D01*
X80602792Y-45787485D01*
X80602515Y-45787208D01*
X80579988Y-45759759D01*
X80579770Y-45759433D01*
X80563029Y-45728112D01*
X80562879Y-45727750D01*
X80552571Y-45693772D01*
X80552495Y-45693387D01*
X80548410Y-45651906D01*
X80548400Y-45651710D01*
X80548400Y-45595350D01*
X80549400Y-45593618D01*
X80551400Y-45593618D01*
X80552390Y-45595154D01*
X80557063Y-45642606D01*
X80570849Y-45688051D01*
X80593235Y-45729932D01*
X80623360Y-45766640D01*
X80660068Y-45796765D01*
X80701949Y-45819151D01*
X80747394Y-45832937D01*
X80794744Y-45837600D01*
X81283056Y-45837600D01*
X81330406Y-45832937D01*
X81375851Y-45819151D01*
X81417732Y-45796765D01*
X81454440Y-45766640D01*
X81484565Y-45729932D01*
X81506951Y-45688051D01*
X81520737Y-45642606D01*
X81525410Y-45595154D01*
X81526575Y-45593528D01*
X81528565Y-45593724D01*
G37*
G36*
X46603732Y-45981700D02*
G01*
X46604000Y-45982700D01*
X46604000Y-46080700D01*
X46603000Y-46082432D01*
X46602000Y-46082700D01*
X44750000Y-46082700D01*
X44748268Y-46081700D01*
X44748000Y-46080700D01*
X44748000Y-45982700D01*
X44749000Y-45980968D01*
X44750000Y-45980700D01*
X46602000Y-45980700D01*
X46603732Y-45981700D01*
G37*
G36*
X53803732Y-45981700D02*
G01*
X53804000Y-45982700D01*
X53804000Y-46080700D01*
X53803000Y-46082432D01*
X53802000Y-46082700D01*
X51950000Y-46082700D01*
X51948268Y-46081700D01*
X51948000Y-46080700D01*
X51948000Y-45982700D01*
X51949000Y-45980968D01*
X51950000Y-45980700D01*
X53802000Y-45980700D01*
X53803732Y-45981700D01*
G37*
G36*
X46603732Y-45331700D02*
G01*
X46604000Y-45332700D01*
X46604000Y-45430700D01*
X46603000Y-45432432D01*
X46602000Y-45432700D01*
X44750000Y-45432700D01*
X44748268Y-45431700D01*
X44748000Y-45430700D01*
X44748000Y-45332700D01*
X44749000Y-45330968D01*
X44750000Y-45330700D01*
X46602000Y-45330700D01*
X46603732Y-45331700D01*
G37*
G36*
X53803732Y-45331700D02*
G01*
X53804000Y-45332700D01*
X53804000Y-45430700D01*
X53803000Y-45432432D01*
X53802000Y-45432700D01*
X51950000Y-45432700D01*
X51948268Y-45431700D01*
X51948000Y-45430700D01*
X51948000Y-45332700D01*
X51949000Y-45330968D01*
X51950000Y-45330700D01*
X53802000Y-45330700D01*
X53803732Y-45331700D01*
G37*
G36*
X68015765Y-44336424D02*
G01*
X68016600Y-44338050D01*
X68016600Y-44394410D01*
X68016590Y-44394606D01*
X68012505Y-44436087D01*
X68012429Y-44436472D01*
X68002121Y-44470450D01*
X68001971Y-44470812D01*
X67985230Y-44502133D01*
X67985012Y-44502459D01*
X67962485Y-44529908D01*
X67962208Y-44530185D01*
X67934759Y-44552712D01*
X67934433Y-44552930D01*
X67903115Y-44569670D01*
X67902753Y-44569820D01*
X67890343Y-44573584D01*
X67867979Y-44582848D01*
X67847931Y-44596243D01*
X67830884Y-44613290D01*
X67817489Y-44633337D01*
X67808263Y-44655611D01*
X67803558Y-44679261D01*
X67803558Y-44703367D01*
X67808262Y-44727018D01*
X67817488Y-44749291D01*
X67830883Y-44769339D01*
X67847930Y-44786386D01*
X67867977Y-44799781D01*
X67890342Y-44809045D01*
X67902649Y-44812778D01*
X67903011Y-44812928D01*
X67934333Y-44829670D01*
X67934659Y-44829888D01*
X67962108Y-44852415D01*
X67962385Y-44852692D01*
X67984912Y-44880141D01*
X67985130Y-44880467D01*
X68001871Y-44911788D01*
X68002021Y-44912150D01*
X68012329Y-44946128D01*
X68012405Y-44946513D01*
X68016490Y-44987994D01*
X68016500Y-44988190D01*
X68016500Y-45044550D01*
X68015500Y-45046282D01*
X68013500Y-45046282D01*
X68012510Y-45044746D01*
X68007837Y-44997294D01*
X67994051Y-44951849D01*
X67971665Y-44909968D01*
X67941540Y-44873260D01*
X67904832Y-44843135D01*
X67862951Y-44820749D01*
X67817506Y-44806963D01*
X67770156Y-44802300D01*
X67281844Y-44802300D01*
X67234494Y-44806963D01*
X67189049Y-44820749D01*
X67147168Y-44843135D01*
X67110460Y-44873260D01*
X67080335Y-44909968D01*
X67057949Y-44951849D01*
X67044163Y-44997294D01*
X67039490Y-45044746D01*
X67038325Y-45046372D01*
X67036335Y-45046176D01*
X67035500Y-45044550D01*
X67035500Y-44988190D01*
X67035510Y-44987994D01*
X67039595Y-44946513D01*
X67039671Y-44946128D01*
X67049979Y-44912150D01*
X67050129Y-44911788D01*
X67066870Y-44880467D01*
X67067088Y-44880141D01*
X67089615Y-44852692D01*
X67089892Y-44852415D01*
X67117341Y-44829888D01*
X67117667Y-44829670D01*
X67148985Y-44812930D01*
X67149347Y-44812780D01*
X67161757Y-44809016D01*
X67184121Y-44799752D01*
X67204169Y-44786357D01*
X67221216Y-44769310D01*
X67234611Y-44749263D01*
X67243837Y-44726989D01*
X67248542Y-44703339D01*
X67248542Y-44679233D01*
X67243838Y-44655582D01*
X67234612Y-44633309D01*
X67221217Y-44613261D01*
X67204170Y-44596214D01*
X67184123Y-44582819D01*
X67161758Y-44573555D01*
X67149451Y-44569822D01*
X67149089Y-44569672D01*
X67117767Y-44552930D01*
X67117441Y-44552712D01*
X67089992Y-44530185D01*
X67089715Y-44529908D01*
X67067188Y-44502459D01*
X67066970Y-44502133D01*
X67050229Y-44470812D01*
X67050079Y-44470450D01*
X67039771Y-44436472D01*
X67039695Y-44436087D01*
X67035610Y-44394606D01*
X67035600Y-44394410D01*
X67035600Y-44338050D01*
X67036600Y-44336318D01*
X67038600Y-44336318D01*
X67039590Y-44337854D01*
X67044263Y-44385306D01*
X67058049Y-44430751D01*
X67080435Y-44472632D01*
X67110560Y-44509340D01*
X67147268Y-44539465D01*
X67189149Y-44561851D01*
X67234594Y-44575637D01*
X67281944Y-44580300D01*
X67770256Y-44580300D01*
X67817606Y-44575637D01*
X67863051Y-44561851D01*
X67904932Y-44539465D01*
X67941640Y-44509340D01*
X67971765Y-44472632D01*
X67994151Y-44430751D01*
X68007937Y-44385306D01*
X68012610Y-44337854D01*
X68013775Y-44336228D01*
X68015765Y-44336424D01*
G37*
G36*
X66440765Y-44336424D02*
G01*
X66441600Y-44338050D01*
X66441600Y-44394410D01*
X66441590Y-44394606D01*
X66437505Y-44436087D01*
X66437429Y-44436472D01*
X66427121Y-44470450D01*
X66426971Y-44470812D01*
X66410230Y-44502133D01*
X66410012Y-44502459D01*
X66387485Y-44529908D01*
X66387208Y-44530185D01*
X66359759Y-44552712D01*
X66359433Y-44552930D01*
X66328115Y-44569670D01*
X66327753Y-44569820D01*
X66315343Y-44573584D01*
X66292979Y-44582848D01*
X66272931Y-44596243D01*
X66255884Y-44613290D01*
X66242489Y-44633337D01*
X66233263Y-44655611D01*
X66228558Y-44679261D01*
X66228558Y-44703367D01*
X66233262Y-44727018D01*
X66242488Y-44749291D01*
X66255883Y-44769339D01*
X66272930Y-44786386D01*
X66292977Y-44799781D01*
X66315342Y-44809045D01*
X66327649Y-44812778D01*
X66328011Y-44812928D01*
X66359333Y-44829670D01*
X66359659Y-44829888D01*
X66387108Y-44852415D01*
X66387385Y-44852692D01*
X66409912Y-44880141D01*
X66410130Y-44880467D01*
X66426871Y-44911788D01*
X66427021Y-44912150D01*
X66437329Y-44946128D01*
X66437405Y-44946513D01*
X66441490Y-44987994D01*
X66441500Y-44988190D01*
X66441500Y-45044550D01*
X66440500Y-45046282D01*
X66438500Y-45046282D01*
X66437510Y-45044746D01*
X66432837Y-44997294D01*
X66419051Y-44951849D01*
X66396665Y-44909968D01*
X66366540Y-44873260D01*
X66329832Y-44843135D01*
X66287951Y-44820749D01*
X66242506Y-44806963D01*
X66195156Y-44802300D01*
X65706844Y-44802300D01*
X65659494Y-44806963D01*
X65614049Y-44820749D01*
X65572168Y-44843135D01*
X65535460Y-44873260D01*
X65505335Y-44909968D01*
X65482949Y-44951849D01*
X65469163Y-44997294D01*
X65464490Y-45044746D01*
X65463325Y-45046372D01*
X65461335Y-45046176D01*
X65460500Y-45044550D01*
X65460500Y-44988190D01*
X65460510Y-44987994D01*
X65464595Y-44946513D01*
X65464671Y-44946128D01*
X65474979Y-44912150D01*
X65475129Y-44911788D01*
X65491870Y-44880467D01*
X65492088Y-44880141D01*
X65514615Y-44852692D01*
X65514892Y-44852415D01*
X65542341Y-44829888D01*
X65542667Y-44829670D01*
X65573985Y-44812930D01*
X65574347Y-44812780D01*
X65586757Y-44809016D01*
X65609121Y-44799752D01*
X65629169Y-44786357D01*
X65646216Y-44769310D01*
X65659611Y-44749263D01*
X65668837Y-44726989D01*
X65673542Y-44703339D01*
X65673542Y-44679233D01*
X65668838Y-44655582D01*
X65659612Y-44633309D01*
X65646217Y-44613261D01*
X65629170Y-44596214D01*
X65609123Y-44582819D01*
X65586758Y-44573555D01*
X65574451Y-44569822D01*
X65574089Y-44569672D01*
X65542767Y-44552930D01*
X65542441Y-44552712D01*
X65514992Y-44530185D01*
X65514715Y-44529908D01*
X65492188Y-44502459D01*
X65491970Y-44502133D01*
X65475229Y-44470812D01*
X65475079Y-44470450D01*
X65464771Y-44436472D01*
X65464695Y-44436087D01*
X65460610Y-44394606D01*
X65460600Y-44394410D01*
X65460600Y-44338050D01*
X65461600Y-44336318D01*
X65463600Y-44336318D01*
X65464590Y-44337854D01*
X65469263Y-44385306D01*
X65483049Y-44430751D01*
X65505435Y-44472632D01*
X65535560Y-44509340D01*
X65572268Y-44539465D01*
X65614149Y-44561851D01*
X65659594Y-44575637D01*
X65706944Y-44580300D01*
X66195256Y-44580300D01*
X66242606Y-44575637D01*
X66288051Y-44561851D01*
X66329932Y-44539465D01*
X66366640Y-44509340D01*
X66396765Y-44472632D01*
X66419151Y-44430751D01*
X66432937Y-44385306D01*
X66437610Y-44337854D01*
X66438775Y-44336228D01*
X66440765Y-44336424D01*
G37*
G36*
X81541165Y-44323724D02*
G01*
X81542000Y-44325350D01*
X81542000Y-44381710D01*
X81541990Y-44381906D01*
X81537905Y-44423387D01*
X81537829Y-44423772D01*
X81527521Y-44457750D01*
X81527371Y-44458112D01*
X81510630Y-44489433D01*
X81510412Y-44489759D01*
X81487885Y-44517208D01*
X81487608Y-44517485D01*
X81460159Y-44540012D01*
X81459833Y-44540230D01*
X81428515Y-44556970D01*
X81428153Y-44557120D01*
X81409493Y-44562780D01*
X81387128Y-44572045D01*
X81367081Y-44585439D01*
X81350034Y-44602486D01*
X81336639Y-44622534D01*
X81327413Y-44644807D01*
X81322708Y-44668458D01*
X81322708Y-44692564D01*
X81327412Y-44716214D01*
X81336639Y-44738488D01*
X81350033Y-44758535D01*
X81367080Y-44775582D01*
X81387128Y-44788977D01*
X81409495Y-44798242D01*
X81415549Y-44800078D01*
X81415912Y-44800228D01*
X81447233Y-44816970D01*
X81447559Y-44817188D01*
X81475008Y-44839715D01*
X81475285Y-44839992D01*
X81497812Y-44867441D01*
X81498030Y-44867767D01*
X81514771Y-44899088D01*
X81514921Y-44899450D01*
X81525229Y-44933428D01*
X81525305Y-44933813D01*
X81529390Y-44975294D01*
X81529400Y-44975490D01*
X81529400Y-45031850D01*
X81528400Y-45033582D01*
X81526400Y-45033582D01*
X81525410Y-45032046D01*
X81520737Y-44984594D01*
X81506951Y-44939149D01*
X81484565Y-44897268D01*
X81454440Y-44860560D01*
X81417732Y-44830435D01*
X81375851Y-44808049D01*
X81330406Y-44794263D01*
X81283056Y-44789600D01*
X80794744Y-44789600D01*
X80747394Y-44794263D01*
X80701949Y-44808049D01*
X80660068Y-44830435D01*
X80623360Y-44860560D01*
X80593235Y-44897268D01*
X80570849Y-44939149D01*
X80557063Y-44984594D01*
X80552390Y-45032046D01*
X80551225Y-45033672D01*
X80549235Y-45033476D01*
X80548400Y-45031850D01*
X80548400Y-44975490D01*
X80548410Y-44975294D01*
X80552495Y-44933813D01*
X80552571Y-44933428D01*
X80562879Y-44899450D01*
X80563029Y-44899088D01*
X80579770Y-44867767D01*
X80579988Y-44867441D01*
X80602515Y-44839992D01*
X80602792Y-44839715D01*
X80630241Y-44817188D01*
X80630567Y-44816970D01*
X80661885Y-44800230D01*
X80662247Y-44800080D01*
X80680907Y-44794420D01*
X80703272Y-44785155D01*
X80723319Y-44771761D01*
X80740366Y-44754714D01*
X80753761Y-44734666D01*
X80762987Y-44712393D01*
X80767692Y-44688742D01*
X80767692Y-44664636D01*
X80762988Y-44640986D01*
X80753761Y-44618712D01*
X80740367Y-44598665D01*
X80723320Y-44581618D01*
X80703272Y-44568223D01*
X80680905Y-44558958D01*
X80674851Y-44557122D01*
X80674488Y-44556972D01*
X80643167Y-44540230D01*
X80642841Y-44540012D01*
X80615392Y-44517485D01*
X80615115Y-44517208D01*
X80592588Y-44489759D01*
X80592370Y-44489433D01*
X80575629Y-44458112D01*
X80575479Y-44457750D01*
X80565171Y-44423772D01*
X80565095Y-44423387D01*
X80561010Y-44381906D01*
X80561000Y-44381710D01*
X80561000Y-44325350D01*
X80562000Y-44323618D01*
X80564000Y-44323618D01*
X80564990Y-44325154D01*
X80569663Y-44372606D01*
X80583449Y-44418051D01*
X80605835Y-44459932D01*
X80635960Y-44496640D01*
X80672668Y-44526765D01*
X80714549Y-44549151D01*
X80759994Y-44562937D01*
X80807344Y-44567600D01*
X81295656Y-44567600D01*
X81343006Y-44562937D01*
X81388451Y-44549151D01*
X81430332Y-44526765D01*
X81467040Y-44496640D01*
X81497165Y-44459932D01*
X81519551Y-44418051D01*
X81533337Y-44372606D01*
X81538010Y-44325154D01*
X81539175Y-44323528D01*
X81541165Y-44323724D01*
G37*
G36*
X79966165Y-44323724D02*
G01*
X79967000Y-44325350D01*
X79967000Y-44381710D01*
X79966990Y-44381906D01*
X79962905Y-44423387D01*
X79962829Y-44423772D01*
X79952521Y-44457750D01*
X79952371Y-44458112D01*
X79935630Y-44489433D01*
X79935412Y-44489759D01*
X79912885Y-44517208D01*
X79912608Y-44517485D01*
X79885159Y-44540012D01*
X79884833Y-44540230D01*
X79853515Y-44556970D01*
X79853153Y-44557120D01*
X79834493Y-44562780D01*
X79812128Y-44572045D01*
X79792081Y-44585439D01*
X79775034Y-44602486D01*
X79761639Y-44622534D01*
X79752413Y-44644807D01*
X79747708Y-44668458D01*
X79747708Y-44692564D01*
X79752412Y-44716214D01*
X79761639Y-44738488D01*
X79775033Y-44758535D01*
X79792080Y-44775582D01*
X79812128Y-44788977D01*
X79834495Y-44798242D01*
X79840549Y-44800078D01*
X79840912Y-44800228D01*
X79872233Y-44816970D01*
X79872559Y-44817188D01*
X79900008Y-44839715D01*
X79900285Y-44839992D01*
X79922812Y-44867441D01*
X79923030Y-44867767D01*
X79939771Y-44899088D01*
X79939921Y-44899450D01*
X79950229Y-44933428D01*
X79950305Y-44933813D01*
X79954390Y-44975294D01*
X79954400Y-44975490D01*
X79954400Y-45031850D01*
X79953400Y-45033582D01*
X79951400Y-45033582D01*
X79950410Y-45032046D01*
X79945737Y-44984594D01*
X79931951Y-44939149D01*
X79909565Y-44897268D01*
X79879440Y-44860560D01*
X79842732Y-44830435D01*
X79800851Y-44808049D01*
X79755406Y-44794263D01*
X79708056Y-44789600D01*
X79219744Y-44789600D01*
X79172394Y-44794263D01*
X79126949Y-44808049D01*
X79085068Y-44830435D01*
X79048360Y-44860560D01*
X79018235Y-44897268D01*
X78995849Y-44939149D01*
X78982063Y-44984594D01*
X78977390Y-45032046D01*
X78976225Y-45033672D01*
X78974235Y-45033476D01*
X78973400Y-45031850D01*
X78973400Y-44975490D01*
X78973410Y-44975294D01*
X78977495Y-44933813D01*
X78977571Y-44933428D01*
X78987879Y-44899450D01*
X78988029Y-44899088D01*
X79004770Y-44867767D01*
X79004988Y-44867441D01*
X79027515Y-44839992D01*
X79027792Y-44839715D01*
X79055241Y-44817188D01*
X79055567Y-44816970D01*
X79086885Y-44800230D01*
X79087247Y-44800080D01*
X79105907Y-44794420D01*
X79128272Y-44785155D01*
X79148319Y-44771761D01*
X79165366Y-44754714D01*
X79178761Y-44734666D01*
X79187987Y-44712393D01*
X79192692Y-44688742D01*
X79192692Y-44664636D01*
X79187988Y-44640986D01*
X79178761Y-44618712D01*
X79165367Y-44598665D01*
X79148320Y-44581618D01*
X79128272Y-44568223D01*
X79105905Y-44558958D01*
X79099851Y-44557122D01*
X79099488Y-44556972D01*
X79068167Y-44540230D01*
X79067841Y-44540012D01*
X79040392Y-44517485D01*
X79040115Y-44517208D01*
X79017588Y-44489759D01*
X79017370Y-44489433D01*
X79000629Y-44458112D01*
X79000479Y-44457750D01*
X78990171Y-44423772D01*
X78990095Y-44423387D01*
X78986010Y-44381906D01*
X78986000Y-44381710D01*
X78986000Y-44325350D01*
X78987000Y-44323618D01*
X78989000Y-44323618D01*
X78989990Y-44325154D01*
X78994663Y-44372606D01*
X79008449Y-44418051D01*
X79030835Y-44459932D01*
X79060960Y-44496640D01*
X79097668Y-44526765D01*
X79139549Y-44549151D01*
X79184994Y-44562937D01*
X79232344Y-44567600D01*
X79720656Y-44567600D01*
X79768006Y-44562937D01*
X79813451Y-44549151D01*
X79855332Y-44526765D01*
X79892040Y-44496640D01*
X79922165Y-44459932D01*
X79944551Y-44418051D01*
X79958337Y-44372606D01*
X79963010Y-44325154D01*
X79964175Y-44323528D01*
X79966165Y-44323724D01*
G37*
G36*
X46603732Y-44681700D02*
G01*
X46604000Y-44682700D01*
X46604000Y-44780700D01*
X46603000Y-44782432D01*
X46602000Y-44782700D01*
X44750000Y-44782700D01*
X44748268Y-44781700D01*
X44748000Y-44780700D01*
X44748000Y-44682700D01*
X44749000Y-44680968D01*
X44750000Y-44680700D01*
X46602000Y-44680700D01*
X46603732Y-44681700D01*
G37*
G36*
X53803732Y-44681700D02*
G01*
X53804000Y-44682700D01*
X53804000Y-44780700D01*
X53803000Y-44782432D01*
X53802000Y-44782700D01*
X51950000Y-44782700D01*
X51948268Y-44781700D01*
X51948000Y-44780700D01*
X51948000Y-44682700D01*
X51949000Y-44680968D01*
X51950000Y-44680700D01*
X53802000Y-44680700D01*
X53803732Y-44681700D01*
G37*
G36*
X46603732Y-44031700D02*
G01*
X46604000Y-44032700D01*
X46604000Y-44130700D01*
X46603000Y-44132432D01*
X46602000Y-44132700D01*
X44750000Y-44132700D01*
X44748268Y-44131700D01*
X44748000Y-44130700D01*
X44748000Y-44032700D01*
X44749000Y-44030968D01*
X44750000Y-44030700D01*
X46602000Y-44030700D01*
X46603732Y-44031700D01*
G37*
G36*
X53803732Y-44031700D02*
G01*
X53804000Y-44032700D01*
X53804000Y-44130700D01*
X53803000Y-44132432D01*
X53802000Y-44132700D01*
X51950000Y-44132700D01*
X51948268Y-44131700D01*
X51948000Y-44130700D01*
X51948000Y-44032700D01*
X51949000Y-44030968D01*
X51950000Y-44030700D01*
X53802000Y-44030700D01*
X53803732Y-44031700D01*
G37*
G36*
X68028265Y-43068564D02*
G01*
X68029100Y-43070190D01*
X68029100Y-43126550D01*
X68029090Y-43126746D01*
X68025005Y-43168227D01*
X68024929Y-43168612D01*
X68014621Y-43202590D01*
X68014471Y-43202952D01*
X67997730Y-43234273D01*
X67997512Y-43234599D01*
X67974985Y-43262048D01*
X67974708Y-43262325D01*
X67947259Y-43284852D01*
X67946933Y-43285070D01*
X67915611Y-43301812D01*
X67915249Y-43301962D01*
X67900170Y-43306536D01*
X67877805Y-43315800D01*
X67857758Y-43329195D01*
X67840711Y-43346242D01*
X67827316Y-43366290D01*
X67818090Y-43388564D01*
X67813386Y-43412214D01*
X67813386Y-43436320D01*
X67818091Y-43459970D01*
X67827317Y-43482244D01*
X67840712Y-43502291D01*
X67857759Y-43519338D01*
X67877807Y-43532733D01*
X67900173Y-43541997D01*
X67902748Y-43542778D01*
X67903111Y-43542928D01*
X67934433Y-43559670D01*
X67934759Y-43559888D01*
X67962208Y-43582415D01*
X67962485Y-43582692D01*
X67985012Y-43610141D01*
X67985230Y-43610467D01*
X68001971Y-43641788D01*
X68002121Y-43642150D01*
X68012429Y-43676128D01*
X68012505Y-43676513D01*
X68016590Y-43717994D01*
X68016600Y-43718190D01*
X68016600Y-43774550D01*
X68015600Y-43776282D01*
X68013600Y-43776282D01*
X68012610Y-43774746D01*
X68007937Y-43727294D01*
X67994151Y-43681849D01*
X67971765Y-43639968D01*
X67941640Y-43603260D01*
X67904932Y-43573135D01*
X67863051Y-43550749D01*
X67817606Y-43536963D01*
X67770256Y-43532300D01*
X67281944Y-43532300D01*
X67234594Y-43536963D01*
X67189149Y-43550749D01*
X67147268Y-43573135D01*
X67110560Y-43603260D01*
X67080435Y-43639968D01*
X67058049Y-43681849D01*
X67044263Y-43727294D01*
X67039590Y-43774746D01*
X67038425Y-43776372D01*
X67036435Y-43776176D01*
X67035600Y-43774550D01*
X67035600Y-43718190D01*
X67035610Y-43717994D01*
X67039695Y-43676513D01*
X67039771Y-43676128D01*
X67050079Y-43642150D01*
X67050229Y-43641788D01*
X67066970Y-43610467D01*
X67067188Y-43610141D01*
X67089715Y-43582692D01*
X67089992Y-43582415D01*
X67117441Y-43559888D01*
X67117767Y-43559670D01*
X67149089Y-43542928D01*
X67149451Y-43542778D01*
X67164530Y-43538204D01*
X67186895Y-43528940D01*
X67206942Y-43515545D01*
X67223989Y-43498498D01*
X67237384Y-43478450D01*
X67246610Y-43456176D01*
X67251314Y-43432526D01*
X67251314Y-43408420D01*
X67246609Y-43384770D01*
X67237383Y-43362496D01*
X67223988Y-43342449D01*
X67206941Y-43325402D01*
X67186893Y-43312007D01*
X67164527Y-43302743D01*
X67161952Y-43301962D01*
X67161589Y-43301812D01*
X67130267Y-43285070D01*
X67129941Y-43284852D01*
X67102492Y-43262325D01*
X67102215Y-43262048D01*
X67079688Y-43234599D01*
X67079470Y-43234273D01*
X67062729Y-43202952D01*
X67062579Y-43202590D01*
X67052271Y-43168612D01*
X67052195Y-43168227D01*
X67048110Y-43126746D01*
X67048100Y-43126550D01*
X67048100Y-43070190D01*
X67049100Y-43068458D01*
X67051100Y-43068458D01*
X67052090Y-43069994D01*
X67056763Y-43117446D01*
X67070549Y-43162891D01*
X67092935Y-43204772D01*
X67123060Y-43241480D01*
X67159768Y-43271605D01*
X67201649Y-43293991D01*
X67247094Y-43307777D01*
X67294444Y-43312440D01*
X67782756Y-43312440D01*
X67830106Y-43307777D01*
X67875551Y-43293991D01*
X67917432Y-43271605D01*
X67954140Y-43241480D01*
X67984265Y-43204772D01*
X68006651Y-43162891D01*
X68020437Y-43117446D01*
X68025110Y-43069994D01*
X68026275Y-43068368D01*
X68028265Y-43068564D01*
G37*
G36*
X66453265Y-43068564D02*
G01*
X66454100Y-43070190D01*
X66454100Y-43126550D01*
X66454090Y-43126746D01*
X66450005Y-43168227D01*
X66449929Y-43168612D01*
X66439621Y-43202590D01*
X66439471Y-43202952D01*
X66422730Y-43234273D01*
X66422512Y-43234599D01*
X66399985Y-43262048D01*
X66399708Y-43262325D01*
X66372259Y-43284852D01*
X66371933Y-43285070D01*
X66340611Y-43301812D01*
X66340249Y-43301962D01*
X66325170Y-43306536D01*
X66302805Y-43315800D01*
X66282758Y-43329195D01*
X66265711Y-43346242D01*
X66252316Y-43366290D01*
X66243090Y-43388564D01*
X66238386Y-43412214D01*
X66238386Y-43436320D01*
X66243091Y-43459970D01*
X66252317Y-43482244D01*
X66265712Y-43502291D01*
X66282759Y-43519338D01*
X66302807Y-43532733D01*
X66325173Y-43541997D01*
X66327748Y-43542778D01*
X66328111Y-43542928D01*
X66359433Y-43559670D01*
X66359759Y-43559888D01*
X66387208Y-43582415D01*
X66387485Y-43582692D01*
X66410012Y-43610141D01*
X66410230Y-43610467D01*
X66426971Y-43641788D01*
X66427121Y-43642150D01*
X66437429Y-43676128D01*
X66437505Y-43676513D01*
X66441590Y-43717994D01*
X66441600Y-43718190D01*
X66441600Y-43774550D01*
X66440600Y-43776282D01*
X66438600Y-43776282D01*
X66437610Y-43774746D01*
X66432937Y-43727294D01*
X66419151Y-43681849D01*
X66396765Y-43639968D01*
X66366640Y-43603260D01*
X66329932Y-43573135D01*
X66288051Y-43550749D01*
X66242606Y-43536963D01*
X66195256Y-43532300D01*
X65706944Y-43532300D01*
X65659594Y-43536963D01*
X65614149Y-43550749D01*
X65572268Y-43573135D01*
X65535560Y-43603260D01*
X65505435Y-43639968D01*
X65483049Y-43681849D01*
X65469263Y-43727294D01*
X65464590Y-43774746D01*
X65463425Y-43776372D01*
X65461435Y-43776176D01*
X65460600Y-43774550D01*
X65460600Y-43718190D01*
X65460610Y-43717994D01*
X65464695Y-43676513D01*
X65464771Y-43676128D01*
X65475079Y-43642150D01*
X65475229Y-43641788D01*
X65491970Y-43610467D01*
X65492188Y-43610141D01*
X65514715Y-43582692D01*
X65514992Y-43582415D01*
X65542441Y-43559888D01*
X65542767Y-43559670D01*
X65574089Y-43542928D01*
X65574451Y-43542778D01*
X65589530Y-43538204D01*
X65611895Y-43528940D01*
X65631942Y-43515545D01*
X65648989Y-43498498D01*
X65662384Y-43478450D01*
X65671610Y-43456176D01*
X65676314Y-43432526D01*
X65676314Y-43408420D01*
X65671609Y-43384770D01*
X65662383Y-43362496D01*
X65648988Y-43342449D01*
X65631941Y-43325402D01*
X65611893Y-43312007D01*
X65589527Y-43302743D01*
X65586952Y-43301962D01*
X65586589Y-43301812D01*
X65555267Y-43285070D01*
X65554941Y-43284852D01*
X65527492Y-43262325D01*
X65527215Y-43262048D01*
X65504688Y-43234599D01*
X65504470Y-43234273D01*
X65487729Y-43202952D01*
X65487579Y-43202590D01*
X65477271Y-43168612D01*
X65477195Y-43168227D01*
X65473110Y-43126746D01*
X65473100Y-43126550D01*
X65473100Y-43070190D01*
X65474100Y-43068458D01*
X65476100Y-43068458D01*
X65477090Y-43069994D01*
X65481763Y-43117446D01*
X65495549Y-43162891D01*
X65517935Y-43204772D01*
X65548060Y-43241480D01*
X65584768Y-43271605D01*
X65626649Y-43293991D01*
X65672094Y-43307777D01*
X65719444Y-43312440D01*
X66207756Y-43312440D01*
X66255106Y-43307777D01*
X66300551Y-43293991D01*
X66342432Y-43271605D01*
X66379140Y-43241480D01*
X66409265Y-43204772D01*
X66431651Y-43162891D01*
X66445437Y-43117446D01*
X66450110Y-43069994D01*
X66451275Y-43068368D01*
X66453265Y-43068564D01*
G37*
G36*
X79966165Y-43053724D02*
G01*
X79967000Y-43055350D01*
X79967000Y-43111710D01*
X79966990Y-43111906D01*
X79962905Y-43153387D01*
X79962829Y-43153772D01*
X79952521Y-43187750D01*
X79952371Y-43188112D01*
X79935630Y-43219433D01*
X79935412Y-43219759D01*
X79912885Y-43247208D01*
X79912608Y-43247485D01*
X79885159Y-43270012D01*
X79884833Y-43270230D01*
X79853515Y-43286970D01*
X79853153Y-43287120D01*
X79840793Y-43290869D01*
X79818428Y-43300134D01*
X79798380Y-43313528D01*
X79781333Y-43330575D01*
X79767939Y-43350623D01*
X79758712Y-43372897D01*
X79754008Y-43396547D01*
X79754008Y-43420653D01*
X79758712Y-43444303D01*
X79767939Y-43466577D01*
X79781333Y-43486625D01*
X79798380Y-43503672D01*
X79818428Y-43517066D01*
X79840793Y-43526331D01*
X79853153Y-43530080D01*
X79853515Y-43530230D01*
X79884833Y-43546970D01*
X79885159Y-43547188D01*
X79912608Y-43569715D01*
X79912885Y-43569992D01*
X79935412Y-43597441D01*
X79935630Y-43597767D01*
X79952371Y-43629088D01*
X79952521Y-43629450D01*
X79962829Y-43663428D01*
X79962905Y-43663813D01*
X79966990Y-43705294D01*
X79967000Y-43705490D01*
X79967000Y-43761850D01*
X79966000Y-43763582D01*
X79964000Y-43763582D01*
X79963010Y-43762046D01*
X79958337Y-43714594D01*
X79944551Y-43669149D01*
X79922165Y-43627268D01*
X79892040Y-43590560D01*
X79855332Y-43560435D01*
X79813451Y-43538049D01*
X79768006Y-43524263D01*
X79720656Y-43519600D01*
X79232344Y-43519600D01*
X79184994Y-43524263D01*
X79139549Y-43538049D01*
X79097668Y-43560435D01*
X79060960Y-43590560D01*
X79030835Y-43627268D01*
X79008449Y-43669149D01*
X78994663Y-43714594D01*
X78989990Y-43762046D01*
X78988825Y-43763672D01*
X78986835Y-43763476D01*
X78986000Y-43761850D01*
X78986000Y-43705490D01*
X78986010Y-43705294D01*
X78990095Y-43663813D01*
X78990171Y-43663428D01*
X79000479Y-43629450D01*
X79000629Y-43629088D01*
X79017370Y-43597767D01*
X79017588Y-43597441D01*
X79040115Y-43569992D01*
X79040392Y-43569715D01*
X79067841Y-43547188D01*
X79068167Y-43546970D01*
X79099485Y-43530230D01*
X79099847Y-43530080D01*
X79112207Y-43526331D01*
X79134572Y-43517066D01*
X79154620Y-43503672D01*
X79171667Y-43486625D01*
X79185061Y-43466577D01*
X79194288Y-43444303D01*
X79198992Y-43420653D01*
X79198992Y-43396547D01*
X79194288Y-43372897D01*
X79185061Y-43350623D01*
X79171667Y-43330575D01*
X79154620Y-43313528D01*
X79134572Y-43300134D01*
X79112207Y-43290869D01*
X79099847Y-43287120D01*
X79099485Y-43286970D01*
X79068167Y-43270230D01*
X79067841Y-43270012D01*
X79040392Y-43247485D01*
X79040115Y-43247208D01*
X79017588Y-43219759D01*
X79017370Y-43219433D01*
X79000629Y-43188112D01*
X79000479Y-43187750D01*
X78990171Y-43153772D01*
X78990095Y-43153387D01*
X78986010Y-43111906D01*
X78986000Y-43111710D01*
X78986000Y-43055350D01*
X78987000Y-43053618D01*
X78989000Y-43053618D01*
X78989990Y-43055154D01*
X78994663Y-43102606D01*
X79008449Y-43148051D01*
X79030835Y-43189932D01*
X79060960Y-43226640D01*
X79097668Y-43256765D01*
X79139549Y-43279151D01*
X79184994Y-43292937D01*
X79232344Y-43297600D01*
X79720656Y-43297600D01*
X79768006Y-43292937D01*
X79813451Y-43279151D01*
X79855332Y-43256765D01*
X79892040Y-43226640D01*
X79922165Y-43189932D01*
X79944551Y-43148051D01*
X79958337Y-43102606D01*
X79963010Y-43055154D01*
X79964175Y-43053528D01*
X79966165Y-43053724D01*
G37*
G36*
X81541165Y-43053724D02*
G01*
X81542000Y-43055350D01*
X81542000Y-43111710D01*
X81541990Y-43111906D01*
X81537905Y-43153387D01*
X81537829Y-43153772D01*
X81527521Y-43187750D01*
X81527371Y-43188112D01*
X81510630Y-43219433D01*
X81510412Y-43219759D01*
X81487885Y-43247208D01*
X81487608Y-43247485D01*
X81460159Y-43270012D01*
X81459833Y-43270230D01*
X81428515Y-43286970D01*
X81428153Y-43287120D01*
X81415793Y-43290869D01*
X81393428Y-43300134D01*
X81373380Y-43313528D01*
X81356333Y-43330575D01*
X81342939Y-43350623D01*
X81333712Y-43372897D01*
X81329008Y-43396547D01*
X81329008Y-43420653D01*
X81333712Y-43444303D01*
X81342939Y-43466577D01*
X81356333Y-43486625D01*
X81373380Y-43503672D01*
X81393428Y-43517066D01*
X81415793Y-43526331D01*
X81428153Y-43530080D01*
X81428515Y-43530230D01*
X81459833Y-43546970D01*
X81460159Y-43547188D01*
X81487608Y-43569715D01*
X81487885Y-43569992D01*
X81510412Y-43597441D01*
X81510630Y-43597767D01*
X81527371Y-43629088D01*
X81527521Y-43629450D01*
X81537829Y-43663428D01*
X81537905Y-43663813D01*
X81541990Y-43705294D01*
X81542000Y-43705490D01*
X81542000Y-43761850D01*
X81541000Y-43763582D01*
X81539000Y-43763582D01*
X81538010Y-43762046D01*
X81533337Y-43714594D01*
X81519551Y-43669149D01*
X81497165Y-43627268D01*
X81467040Y-43590560D01*
X81430332Y-43560435D01*
X81388451Y-43538049D01*
X81343006Y-43524263D01*
X81295656Y-43519600D01*
X80807344Y-43519600D01*
X80759994Y-43524263D01*
X80714549Y-43538049D01*
X80672668Y-43560435D01*
X80635960Y-43590560D01*
X80605835Y-43627268D01*
X80583449Y-43669149D01*
X80569663Y-43714594D01*
X80564990Y-43762046D01*
X80563825Y-43763672D01*
X80561835Y-43763476D01*
X80561000Y-43761850D01*
X80561000Y-43705490D01*
X80561010Y-43705294D01*
X80565095Y-43663813D01*
X80565171Y-43663428D01*
X80575479Y-43629450D01*
X80575629Y-43629088D01*
X80592370Y-43597767D01*
X80592588Y-43597441D01*
X80615115Y-43569992D01*
X80615392Y-43569715D01*
X80642841Y-43547188D01*
X80643167Y-43546970D01*
X80674485Y-43530230D01*
X80674847Y-43530080D01*
X80687207Y-43526331D01*
X80709572Y-43517066D01*
X80729620Y-43503672D01*
X80746667Y-43486625D01*
X80760061Y-43466577D01*
X80769288Y-43444303D01*
X80773992Y-43420653D01*
X80773992Y-43396547D01*
X80769288Y-43372897D01*
X80760061Y-43350623D01*
X80746667Y-43330575D01*
X80729620Y-43313528D01*
X80709572Y-43300134D01*
X80687207Y-43290869D01*
X80674847Y-43287120D01*
X80674485Y-43286970D01*
X80643167Y-43270230D01*
X80642841Y-43270012D01*
X80615392Y-43247485D01*
X80615115Y-43247208D01*
X80592588Y-43219759D01*
X80592370Y-43219433D01*
X80575629Y-43188112D01*
X80575479Y-43187750D01*
X80565171Y-43153772D01*
X80565095Y-43153387D01*
X80561010Y-43111906D01*
X80561000Y-43111710D01*
X80561000Y-43055350D01*
X80562000Y-43053618D01*
X80564000Y-43053618D01*
X80564990Y-43055154D01*
X80569663Y-43102606D01*
X80583449Y-43148051D01*
X80605835Y-43189932D01*
X80635960Y-43226640D01*
X80672668Y-43256765D01*
X80714549Y-43279151D01*
X80759994Y-43292937D01*
X80807344Y-43297600D01*
X81295656Y-43297600D01*
X81343006Y-43292937D01*
X81388451Y-43279151D01*
X81430332Y-43256765D01*
X81467040Y-43226640D01*
X81497165Y-43189932D01*
X81519551Y-43148051D01*
X81533337Y-43102606D01*
X81538010Y-43055154D01*
X81539175Y-43053528D01*
X81541165Y-43053724D01*
G37*
G36*
X46603732Y-43381700D02*
G01*
X46604000Y-43382700D01*
X46604000Y-43480700D01*
X46603000Y-43482432D01*
X46602000Y-43482700D01*
X44750000Y-43482700D01*
X44748268Y-43481700D01*
X44748000Y-43480700D01*
X44748000Y-43382700D01*
X44749000Y-43380968D01*
X44750000Y-43380700D01*
X46602000Y-43380700D01*
X46603732Y-43381700D01*
G37*
G36*
X53803732Y-43381700D02*
G01*
X53804000Y-43382700D01*
X53804000Y-43480700D01*
X53803000Y-43482432D01*
X53802000Y-43482700D01*
X51950000Y-43482700D01*
X51948268Y-43481700D01*
X51948000Y-43480700D01*
X51948000Y-43382700D01*
X51949000Y-43380968D01*
X51950000Y-43380700D01*
X53802000Y-43380700D01*
X53803732Y-43381700D01*
G37*
G36*
X46603732Y-42731700D02*
G01*
X46604000Y-42732700D01*
X46604000Y-42830700D01*
X46603000Y-42832432D01*
X46602000Y-42832700D01*
X44750000Y-42832700D01*
X44748268Y-42831700D01*
X44748000Y-42830700D01*
X44748000Y-42732700D01*
X44749000Y-42730968D01*
X44750000Y-42730700D01*
X46602000Y-42730700D01*
X46603732Y-42731700D01*
G37*
G36*
X53803732Y-42731700D02*
G01*
X53804000Y-42732700D01*
X53804000Y-42830700D01*
X53803000Y-42832432D01*
X53802000Y-42832700D01*
X51950000Y-42832700D01*
X51948268Y-42831700D01*
X51948000Y-42830700D01*
X51948000Y-42732700D01*
X51949000Y-42730968D01*
X51950000Y-42730700D01*
X53802000Y-42730700D01*
X53803732Y-42731700D01*
G37*
G36*
X68028365Y-41796424D02*
G01*
X68029200Y-41798050D01*
X68029200Y-41854410D01*
X68029190Y-41854606D01*
X68025105Y-41896087D01*
X68025029Y-41896472D01*
X68014721Y-41930450D01*
X68014571Y-41930812D01*
X67997830Y-41962133D01*
X67997612Y-41962459D01*
X67975085Y-41989908D01*
X67974808Y-41990185D01*
X67947359Y-42012712D01*
X67947033Y-42012930D01*
X67915715Y-42029670D01*
X67915353Y-42029820D01*
X67899416Y-42034654D01*
X67877051Y-42043919D01*
X67857004Y-42057313D01*
X67839957Y-42074360D01*
X67826562Y-42094408D01*
X67817336Y-42116681D01*
X67812631Y-42140332D01*
X67812631Y-42164438D01*
X67817335Y-42188088D01*
X67826562Y-42210362D01*
X67839956Y-42230409D01*
X67857003Y-42247456D01*
X67877051Y-42260851D01*
X67899415Y-42270115D01*
X67915249Y-42274918D01*
X67915611Y-42275068D01*
X67946933Y-42291810D01*
X67947259Y-42292028D01*
X67974708Y-42314555D01*
X67974985Y-42314832D01*
X67997512Y-42342281D01*
X67997730Y-42342607D01*
X68014471Y-42373928D01*
X68014621Y-42374290D01*
X68024929Y-42408268D01*
X68025005Y-42408653D01*
X68029090Y-42450134D01*
X68029100Y-42450330D01*
X68029100Y-42506690D01*
X68028100Y-42508422D01*
X68026100Y-42508422D01*
X68025110Y-42506886D01*
X68020437Y-42459434D01*
X68006651Y-42413989D01*
X67984265Y-42372108D01*
X67954140Y-42335400D01*
X67917432Y-42305275D01*
X67875551Y-42282889D01*
X67830106Y-42269103D01*
X67782756Y-42264440D01*
X67294444Y-42264440D01*
X67247094Y-42269103D01*
X67201649Y-42282889D01*
X67159768Y-42305275D01*
X67123060Y-42335400D01*
X67092935Y-42372108D01*
X67070549Y-42413989D01*
X67056763Y-42459434D01*
X67052090Y-42506886D01*
X67050925Y-42508512D01*
X67048935Y-42508316D01*
X67048100Y-42506690D01*
X67048100Y-42450330D01*
X67048110Y-42450134D01*
X67052195Y-42408653D01*
X67052271Y-42408268D01*
X67062579Y-42374290D01*
X67062729Y-42373928D01*
X67079470Y-42342607D01*
X67079688Y-42342281D01*
X67102215Y-42314832D01*
X67102492Y-42314555D01*
X67129941Y-42292028D01*
X67130267Y-42291810D01*
X67161585Y-42275070D01*
X67161947Y-42274920D01*
X67177884Y-42270086D01*
X67200249Y-42260821D01*
X67220296Y-42247427D01*
X67237343Y-42230380D01*
X67250738Y-42210332D01*
X67259964Y-42188059D01*
X67264669Y-42164408D01*
X67264669Y-42140302D01*
X67259965Y-42116652D01*
X67250738Y-42094378D01*
X67237344Y-42074331D01*
X67220297Y-42057284D01*
X67200249Y-42043889D01*
X67177885Y-42034625D01*
X67162051Y-42029822D01*
X67161689Y-42029672D01*
X67130367Y-42012930D01*
X67130041Y-42012712D01*
X67102592Y-41990185D01*
X67102315Y-41989908D01*
X67079788Y-41962459D01*
X67079570Y-41962133D01*
X67062829Y-41930812D01*
X67062679Y-41930450D01*
X67052371Y-41896472D01*
X67052295Y-41896087D01*
X67048210Y-41854606D01*
X67048200Y-41854410D01*
X67048200Y-41798050D01*
X67049200Y-41796318D01*
X67051200Y-41796318D01*
X67052190Y-41797854D01*
X67056863Y-41845306D01*
X67070649Y-41890751D01*
X67093035Y-41932632D01*
X67123160Y-41969340D01*
X67159868Y-41999465D01*
X67201749Y-42021851D01*
X67247194Y-42035637D01*
X67294544Y-42040300D01*
X67782856Y-42040300D01*
X67830206Y-42035637D01*
X67875651Y-42021851D01*
X67917532Y-41999465D01*
X67954240Y-41969340D01*
X67984365Y-41932632D01*
X68006751Y-41890751D01*
X68020537Y-41845306D01*
X68025210Y-41797854D01*
X68026375Y-41796228D01*
X68028365Y-41796424D01*
G37*
G36*
X66453365Y-41796424D02*
G01*
X66454200Y-41798050D01*
X66454200Y-41854410D01*
X66454190Y-41854606D01*
X66450105Y-41896087D01*
X66450029Y-41896472D01*
X66439721Y-41930450D01*
X66439571Y-41930812D01*
X66422830Y-41962133D01*
X66422612Y-41962459D01*
X66400085Y-41989908D01*
X66399808Y-41990185D01*
X66372359Y-42012712D01*
X66372033Y-42012930D01*
X66340715Y-42029670D01*
X66340353Y-42029820D01*
X66324416Y-42034654D01*
X66302051Y-42043919D01*
X66282004Y-42057313D01*
X66264957Y-42074360D01*
X66251562Y-42094408D01*
X66242336Y-42116681D01*
X66237631Y-42140332D01*
X66237631Y-42164438D01*
X66242335Y-42188088D01*
X66251562Y-42210362D01*
X66264956Y-42230409D01*
X66282003Y-42247456D01*
X66302051Y-42260851D01*
X66324415Y-42270115D01*
X66340249Y-42274918D01*
X66340611Y-42275068D01*
X66371933Y-42291810D01*
X66372259Y-42292028D01*
X66399708Y-42314555D01*
X66399985Y-42314832D01*
X66422512Y-42342281D01*
X66422730Y-42342607D01*
X66439471Y-42373928D01*
X66439621Y-42374290D01*
X66449929Y-42408268D01*
X66450005Y-42408653D01*
X66454090Y-42450134D01*
X66454100Y-42450330D01*
X66454100Y-42506690D01*
X66453100Y-42508422D01*
X66451100Y-42508422D01*
X66450110Y-42506886D01*
X66445437Y-42459434D01*
X66431651Y-42413989D01*
X66409265Y-42372108D01*
X66379140Y-42335400D01*
X66342432Y-42305275D01*
X66300551Y-42282889D01*
X66255106Y-42269103D01*
X66207756Y-42264440D01*
X65719444Y-42264440D01*
X65672094Y-42269103D01*
X65626649Y-42282889D01*
X65584768Y-42305275D01*
X65548060Y-42335400D01*
X65517935Y-42372108D01*
X65495549Y-42413989D01*
X65481763Y-42459434D01*
X65477090Y-42506886D01*
X65475925Y-42508512D01*
X65473935Y-42508316D01*
X65473100Y-42506690D01*
X65473100Y-42450330D01*
X65473110Y-42450134D01*
X65477195Y-42408653D01*
X65477271Y-42408268D01*
X65487579Y-42374290D01*
X65487729Y-42373928D01*
X65504470Y-42342607D01*
X65504688Y-42342281D01*
X65527215Y-42314832D01*
X65527492Y-42314555D01*
X65554941Y-42292028D01*
X65555267Y-42291810D01*
X65586585Y-42275070D01*
X65586947Y-42274920D01*
X65602884Y-42270086D01*
X65625249Y-42260821D01*
X65645296Y-42247427D01*
X65662343Y-42230380D01*
X65675738Y-42210332D01*
X65684964Y-42188059D01*
X65689669Y-42164408D01*
X65689669Y-42140302D01*
X65684965Y-42116652D01*
X65675738Y-42094378D01*
X65662344Y-42074331D01*
X65645297Y-42057284D01*
X65625249Y-42043889D01*
X65602885Y-42034625D01*
X65587051Y-42029822D01*
X65586689Y-42029672D01*
X65555367Y-42012930D01*
X65555041Y-42012712D01*
X65527592Y-41990185D01*
X65527315Y-41989908D01*
X65504788Y-41962459D01*
X65504570Y-41962133D01*
X65487829Y-41930812D01*
X65487679Y-41930450D01*
X65477371Y-41896472D01*
X65477295Y-41896087D01*
X65473210Y-41854606D01*
X65473200Y-41854410D01*
X65473200Y-41798050D01*
X65474200Y-41796318D01*
X65476200Y-41796318D01*
X65477190Y-41797854D01*
X65481863Y-41845306D01*
X65495649Y-41890751D01*
X65518035Y-41932632D01*
X65548160Y-41969340D01*
X65584868Y-41999465D01*
X65626749Y-42021851D01*
X65672194Y-42035637D01*
X65719544Y-42040300D01*
X66207856Y-42040300D01*
X66255206Y-42035637D01*
X66300651Y-42021851D01*
X66342532Y-41999465D01*
X66379240Y-41969340D01*
X66409365Y-41932632D01*
X66431751Y-41890751D01*
X66445537Y-41845306D01*
X66450210Y-41797854D01*
X66451375Y-41796228D01*
X66453365Y-41796424D01*
G37*
G36*
X46603732Y-42081700D02*
G01*
X46604000Y-42082700D01*
X46604000Y-42180700D01*
X46603000Y-42182432D01*
X46602000Y-42182700D01*
X44750000Y-42182700D01*
X44748268Y-42181700D01*
X44748000Y-42180700D01*
X44748000Y-42082700D01*
X44749000Y-42080968D01*
X44750000Y-42080700D01*
X46602000Y-42080700D01*
X46603732Y-42081700D01*
G37*
G36*
X53803732Y-42081700D02*
G01*
X53804000Y-42082700D01*
X53804000Y-42180700D01*
X53803000Y-42182432D01*
X53802000Y-42182700D01*
X51950000Y-42182700D01*
X51948268Y-42181700D01*
X51948000Y-42180700D01*
X51948000Y-42082700D01*
X51949000Y-42080968D01*
X51950000Y-42080700D01*
X53802000Y-42080700D01*
X53803732Y-42081700D01*
G37*
G36*
X46603732Y-41431700D02*
G01*
X46604000Y-41432700D01*
X46604000Y-41530700D01*
X46603000Y-41532432D01*
X46602000Y-41532700D01*
X44750000Y-41532700D01*
X44748268Y-41531700D01*
X44748000Y-41530700D01*
X44748000Y-41432700D01*
X44749000Y-41430968D01*
X44750000Y-41430700D01*
X46602000Y-41430700D01*
X46603732Y-41431700D01*
G37*
G36*
X53803732Y-41431700D02*
G01*
X53804000Y-41432700D01*
X53804000Y-41530700D01*
X53803000Y-41532432D01*
X53802000Y-41532700D01*
X51950000Y-41532700D01*
X51948268Y-41531700D01*
X51948000Y-41530700D01*
X51948000Y-41432700D01*
X51949000Y-41430968D01*
X51950000Y-41430700D01*
X53802000Y-41430700D01*
X53803732Y-41431700D01*
G37*
G36*
X66478765Y-40592064D02*
G01*
X66479600Y-40593690D01*
X66479600Y-40650050D01*
X66479590Y-40650246D01*
X66475505Y-40691727D01*
X66475429Y-40692112D01*
X66465121Y-40726090D01*
X66464971Y-40726452D01*
X66448230Y-40757773D01*
X66448012Y-40758099D01*
X66425485Y-40785548D01*
X66425208Y-40785825D01*
X66397757Y-40808353D01*
X66397431Y-40808571D01*
X66388745Y-40813214D01*
X66368617Y-40826663D01*
X66351570Y-40843710D01*
X66338176Y-40863757D01*
X66328949Y-40886031D01*
X66324245Y-40909681D01*
X66324245Y-40933787D01*
X66328950Y-40957438D01*
X66338176Y-40979711D01*
X66351571Y-40999759D01*
X66368684Y-41016872D01*
X66399808Y-41042415D01*
X66400085Y-41042692D01*
X66422612Y-41070141D01*
X66422830Y-41070467D01*
X66439571Y-41101788D01*
X66439721Y-41102150D01*
X66450029Y-41136128D01*
X66450105Y-41136513D01*
X66454190Y-41177994D01*
X66454200Y-41178190D01*
X66454200Y-41234550D01*
X66453200Y-41236282D01*
X66451200Y-41236282D01*
X66450210Y-41234746D01*
X66445537Y-41187294D01*
X66431751Y-41141849D01*
X66409365Y-41099968D01*
X66379240Y-41063260D01*
X66342532Y-41033135D01*
X66300651Y-41010749D01*
X66255206Y-40996963D01*
X66207856Y-40992300D01*
X65719544Y-40992300D01*
X65672194Y-40996963D01*
X65626749Y-41010749D01*
X65584868Y-41033135D01*
X65548160Y-41063260D01*
X65518035Y-41099968D01*
X65495649Y-41141849D01*
X65481863Y-41187294D01*
X65477190Y-41234746D01*
X65476025Y-41236372D01*
X65474035Y-41236176D01*
X65473200Y-41234550D01*
X65473200Y-41178190D01*
X65473210Y-41177994D01*
X65477295Y-41136513D01*
X65477371Y-41136128D01*
X65487679Y-41102150D01*
X65487829Y-41101788D01*
X65504570Y-41070467D01*
X65504788Y-41070141D01*
X65527315Y-41042692D01*
X65527592Y-41042415D01*
X65555043Y-41019887D01*
X65555369Y-41019669D01*
X65564055Y-41015026D01*
X65584183Y-41001577D01*
X65601230Y-40984530D01*
X65614624Y-40964483D01*
X65623851Y-40942209D01*
X65628555Y-40918559D01*
X65628555Y-40894453D01*
X65623850Y-40870802D01*
X65614624Y-40848529D01*
X65601229Y-40828481D01*
X65584116Y-40811368D01*
X65552992Y-40785825D01*
X65552715Y-40785548D01*
X65530188Y-40758099D01*
X65529970Y-40757773D01*
X65513229Y-40726452D01*
X65513079Y-40726090D01*
X65502771Y-40692112D01*
X65502695Y-40691727D01*
X65498610Y-40650246D01*
X65498600Y-40650050D01*
X65498600Y-40593690D01*
X65499600Y-40591958D01*
X65501600Y-40591958D01*
X65502590Y-40593494D01*
X65507263Y-40640946D01*
X65521049Y-40686391D01*
X65543435Y-40728272D01*
X65573560Y-40764980D01*
X65610268Y-40795105D01*
X65652149Y-40817491D01*
X65697594Y-40831277D01*
X65744944Y-40835940D01*
X66233256Y-40835940D01*
X66280606Y-40831277D01*
X66326051Y-40817491D01*
X66367932Y-40795105D01*
X66404640Y-40764980D01*
X66434765Y-40728272D01*
X66457151Y-40686391D01*
X66470937Y-40640946D01*
X66475610Y-40593494D01*
X66476775Y-40591868D01*
X66478765Y-40592064D01*
G37*
G36*
X68053765Y-40592064D02*
G01*
X68054600Y-40593690D01*
X68054600Y-40650050D01*
X68054590Y-40650246D01*
X68050505Y-40691727D01*
X68050429Y-40692112D01*
X68040121Y-40726090D01*
X68039971Y-40726452D01*
X68023230Y-40757773D01*
X68023012Y-40758099D01*
X68000485Y-40785548D01*
X68000208Y-40785825D01*
X67972757Y-40808353D01*
X67972431Y-40808571D01*
X67963745Y-40813214D01*
X67943617Y-40826663D01*
X67926570Y-40843710D01*
X67913176Y-40863757D01*
X67903949Y-40886031D01*
X67899245Y-40909681D01*
X67899245Y-40933787D01*
X67903950Y-40957438D01*
X67913176Y-40979711D01*
X67926571Y-40999759D01*
X67943684Y-41016872D01*
X67974808Y-41042415D01*
X67975085Y-41042692D01*
X67997612Y-41070141D01*
X67997830Y-41070467D01*
X68014571Y-41101788D01*
X68014721Y-41102150D01*
X68025029Y-41136128D01*
X68025105Y-41136513D01*
X68029190Y-41177994D01*
X68029200Y-41178190D01*
X68029200Y-41234550D01*
X68028200Y-41236282D01*
X68026200Y-41236282D01*
X68025210Y-41234746D01*
X68020537Y-41187294D01*
X68006751Y-41141849D01*
X67984365Y-41099968D01*
X67954240Y-41063260D01*
X67917532Y-41033135D01*
X67875651Y-41010749D01*
X67830206Y-40996963D01*
X67782856Y-40992300D01*
X67294544Y-40992300D01*
X67247194Y-40996963D01*
X67201749Y-41010749D01*
X67159868Y-41033135D01*
X67123160Y-41063260D01*
X67093035Y-41099968D01*
X67070649Y-41141849D01*
X67056863Y-41187294D01*
X67052190Y-41234746D01*
X67051025Y-41236372D01*
X67049035Y-41236176D01*
X67048200Y-41234550D01*
X67048200Y-41178190D01*
X67048210Y-41177994D01*
X67052295Y-41136513D01*
X67052371Y-41136128D01*
X67062679Y-41102150D01*
X67062829Y-41101788D01*
X67079570Y-41070467D01*
X67079788Y-41070141D01*
X67102315Y-41042692D01*
X67102592Y-41042415D01*
X67130043Y-41019887D01*
X67130369Y-41019669D01*
X67139055Y-41015026D01*
X67159183Y-41001577D01*
X67176230Y-40984530D01*
X67189624Y-40964483D01*
X67198851Y-40942209D01*
X67203555Y-40918559D01*
X67203555Y-40894453D01*
X67198850Y-40870802D01*
X67189624Y-40848529D01*
X67176229Y-40828481D01*
X67159116Y-40811368D01*
X67127992Y-40785825D01*
X67127715Y-40785548D01*
X67105188Y-40758099D01*
X67104970Y-40757773D01*
X67088229Y-40726452D01*
X67088079Y-40726090D01*
X67077771Y-40692112D01*
X67077695Y-40691727D01*
X67073610Y-40650246D01*
X67073600Y-40650050D01*
X67073600Y-40593690D01*
X67074600Y-40591958D01*
X67076600Y-40591958D01*
X67077590Y-40593494D01*
X67082263Y-40640946D01*
X67096049Y-40686391D01*
X67118435Y-40728272D01*
X67148560Y-40764980D01*
X67185268Y-40795105D01*
X67227149Y-40817491D01*
X67272594Y-40831277D01*
X67319944Y-40835940D01*
X67808256Y-40835940D01*
X67855606Y-40831277D01*
X67901051Y-40817491D01*
X67942932Y-40795105D01*
X67979640Y-40764980D01*
X68009765Y-40728272D01*
X68032151Y-40686391D01*
X68045937Y-40640946D01*
X68050610Y-40593494D01*
X68051775Y-40591868D01*
X68053765Y-40592064D01*
G37*
G36*
X81541265Y-40465064D02*
G01*
X81542100Y-40466690D01*
X81542100Y-40523050D01*
X81542090Y-40523246D01*
X81538005Y-40564727D01*
X81537929Y-40565112D01*
X81527621Y-40599090D01*
X81527471Y-40599452D01*
X81510730Y-40630773D01*
X81510512Y-40631099D01*
X81487985Y-40658548D01*
X81487708Y-40658825D01*
X81460259Y-40681352D01*
X81459933Y-40681570D01*
X81428615Y-40698310D01*
X81428253Y-40698460D01*
X81415893Y-40702209D01*
X81393528Y-40711474D01*
X81373480Y-40724868D01*
X81356433Y-40741915D01*
X81343039Y-40761963D01*
X81333812Y-40784237D01*
X81329108Y-40807887D01*
X81329108Y-40831993D01*
X81333812Y-40855643D01*
X81343039Y-40877917D01*
X81356433Y-40897965D01*
X81373480Y-40915012D01*
X81393528Y-40928406D01*
X81415893Y-40937671D01*
X81428253Y-40941420D01*
X81428615Y-40941570D01*
X81459933Y-40958310D01*
X81460259Y-40958528D01*
X81487708Y-40981055D01*
X81487985Y-40981332D01*
X81510512Y-41008781D01*
X81510730Y-41009107D01*
X81527471Y-41040428D01*
X81527621Y-41040790D01*
X81537929Y-41074768D01*
X81538005Y-41075153D01*
X81542090Y-41116634D01*
X81542100Y-41116830D01*
X81542100Y-41173190D01*
X81541100Y-41174922D01*
X81539100Y-41174922D01*
X81538110Y-41173386D01*
X81533437Y-41125934D01*
X81519651Y-41080489D01*
X81497265Y-41038608D01*
X81467140Y-41001900D01*
X81430432Y-40971775D01*
X81388551Y-40949389D01*
X81343106Y-40935603D01*
X81295756Y-40930940D01*
X80807444Y-40930940D01*
X80760094Y-40935603D01*
X80714649Y-40949389D01*
X80672768Y-40971775D01*
X80636060Y-41001900D01*
X80605935Y-41038608D01*
X80583549Y-41080489D01*
X80569763Y-41125934D01*
X80565090Y-41173386D01*
X80563925Y-41175012D01*
X80561935Y-41174816D01*
X80561100Y-41173190D01*
X80561100Y-41116830D01*
X80561110Y-41116634D01*
X80565195Y-41075153D01*
X80565271Y-41074768D01*
X80575579Y-41040790D01*
X80575729Y-41040428D01*
X80592470Y-41009107D01*
X80592688Y-41008781D01*
X80615215Y-40981332D01*
X80615492Y-40981055D01*
X80642941Y-40958528D01*
X80643267Y-40958310D01*
X80674585Y-40941570D01*
X80674947Y-40941420D01*
X80687307Y-40937671D01*
X80709672Y-40928406D01*
X80729720Y-40915012D01*
X80746767Y-40897965D01*
X80760161Y-40877917D01*
X80769388Y-40855643D01*
X80774092Y-40831993D01*
X80774092Y-40807887D01*
X80769388Y-40784237D01*
X80760161Y-40761963D01*
X80746767Y-40741915D01*
X80729720Y-40724868D01*
X80709672Y-40711474D01*
X80687307Y-40702209D01*
X80674947Y-40698460D01*
X80674585Y-40698310D01*
X80643267Y-40681570D01*
X80642941Y-40681352D01*
X80615492Y-40658825D01*
X80615215Y-40658548D01*
X80592688Y-40631099D01*
X80592470Y-40630773D01*
X80575729Y-40599452D01*
X80575579Y-40599090D01*
X80565271Y-40565112D01*
X80565195Y-40564727D01*
X80561110Y-40523246D01*
X80561100Y-40523050D01*
X80561100Y-40466690D01*
X80562100Y-40464958D01*
X80564100Y-40464958D01*
X80565090Y-40466494D01*
X80569763Y-40513946D01*
X80583549Y-40559391D01*
X80605935Y-40601272D01*
X80636060Y-40637980D01*
X80672768Y-40668105D01*
X80714649Y-40690491D01*
X80760094Y-40704277D01*
X80807444Y-40708940D01*
X81295756Y-40708940D01*
X81343106Y-40704277D01*
X81388551Y-40690491D01*
X81430432Y-40668105D01*
X81467140Y-40637980D01*
X81497265Y-40601272D01*
X81519651Y-40559391D01*
X81533437Y-40513946D01*
X81538110Y-40466494D01*
X81539275Y-40464868D01*
X81541265Y-40465064D01*
G37*
G36*
X79966265Y-40465064D02*
G01*
X79967100Y-40466690D01*
X79967100Y-40523050D01*
X79967090Y-40523246D01*
X79963005Y-40564727D01*
X79962929Y-40565112D01*
X79952621Y-40599090D01*
X79952471Y-40599452D01*
X79935730Y-40630773D01*
X79935512Y-40631099D01*
X79912985Y-40658548D01*
X79912708Y-40658825D01*
X79885259Y-40681352D01*
X79884933Y-40681570D01*
X79853615Y-40698310D01*
X79853253Y-40698460D01*
X79840893Y-40702209D01*
X79818528Y-40711474D01*
X79798480Y-40724868D01*
X79781433Y-40741915D01*
X79768039Y-40761963D01*
X79758812Y-40784237D01*
X79754108Y-40807887D01*
X79754108Y-40831993D01*
X79758812Y-40855643D01*
X79768039Y-40877917D01*
X79781433Y-40897965D01*
X79798480Y-40915012D01*
X79818528Y-40928406D01*
X79840893Y-40937671D01*
X79853253Y-40941420D01*
X79853615Y-40941570D01*
X79884933Y-40958310D01*
X79885259Y-40958528D01*
X79912708Y-40981055D01*
X79912985Y-40981332D01*
X79935512Y-41008781D01*
X79935730Y-41009107D01*
X79952471Y-41040428D01*
X79952621Y-41040790D01*
X79962929Y-41074768D01*
X79963005Y-41075153D01*
X79967090Y-41116634D01*
X79967100Y-41116830D01*
X79967100Y-41173190D01*
X79966100Y-41174922D01*
X79964100Y-41174922D01*
X79963110Y-41173386D01*
X79958437Y-41125934D01*
X79944651Y-41080489D01*
X79922265Y-41038608D01*
X79892140Y-41001900D01*
X79855432Y-40971775D01*
X79813551Y-40949389D01*
X79768106Y-40935603D01*
X79720756Y-40930940D01*
X79232444Y-40930940D01*
X79185094Y-40935603D01*
X79139649Y-40949389D01*
X79097768Y-40971775D01*
X79061060Y-41001900D01*
X79030935Y-41038608D01*
X79008549Y-41080489D01*
X78994763Y-41125934D01*
X78990090Y-41173386D01*
X78988925Y-41175012D01*
X78986935Y-41174816D01*
X78986100Y-41173190D01*
X78986100Y-41116830D01*
X78986110Y-41116634D01*
X78990195Y-41075153D01*
X78990271Y-41074768D01*
X79000579Y-41040790D01*
X79000729Y-41040428D01*
X79017470Y-41009107D01*
X79017688Y-41008781D01*
X79040215Y-40981332D01*
X79040492Y-40981055D01*
X79067941Y-40958528D01*
X79068267Y-40958310D01*
X79099585Y-40941570D01*
X79099947Y-40941420D01*
X79112307Y-40937671D01*
X79134672Y-40928406D01*
X79154720Y-40915012D01*
X79171767Y-40897965D01*
X79185161Y-40877917D01*
X79194388Y-40855643D01*
X79199092Y-40831993D01*
X79199092Y-40807887D01*
X79194388Y-40784237D01*
X79185161Y-40761963D01*
X79171767Y-40741915D01*
X79154720Y-40724868D01*
X79134672Y-40711474D01*
X79112307Y-40702209D01*
X79099947Y-40698460D01*
X79099585Y-40698310D01*
X79068267Y-40681570D01*
X79067941Y-40681352D01*
X79040492Y-40658825D01*
X79040215Y-40658548D01*
X79017688Y-40631099D01*
X79017470Y-40630773D01*
X79000729Y-40599452D01*
X79000579Y-40599090D01*
X78990271Y-40565112D01*
X78990195Y-40564727D01*
X78986110Y-40523246D01*
X78986100Y-40523050D01*
X78986100Y-40466690D01*
X78987100Y-40464958D01*
X78989100Y-40464958D01*
X78990090Y-40466494D01*
X78994763Y-40513946D01*
X79008549Y-40559391D01*
X79030935Y-40601272D01*
X79061060Y-40637980D01*
X79097768Y-40668105D01*
X79139649Y-40690491D01*
X79185094Y-40704277D01*
X79232444Y-40708940D01*
X79720756Y-40708940D01*
X79768106Y-40704277D01*
X79813551Y-40690491D01*
X79855432Y-40668105D01*
X79892140Y-40637980D01*
X79922265Y-40601272D01*
X79944651Y-40559391D01*
X79958437Y-40513946D01*
X79963110Y-40466494D01*
X79964275Y-40464868D01*
X79966265Y-40465064D01*
G37*
G36*
X79966165Y-39243724D02*
G01*
X79967000Y-39245350D01*
X79967000Y-39301710D01*
X79966990Y-39301906D01*
X79962905Y-39343387D01*
X79962829Y-39343772D01*
X79952521Y-39377750D01*
X79952371Y-39378112D01*
X79935630Y-39409433D01*
X79935412Y-39409759D01*
X79912885Y-39437208D01*
X79912608Y-39437485D01*
X79885159Y-39460011D01*
X79884833Y-39460229D01*
X79874559Y-39465721D01*
X79854429Y-39479171D01*
X79837382Y-39496218D01*
X79823987Y-39516265D01*
X79814761Y-39538539D01*
X79810056Y-39562189D01*
X79810056Y-39586295D01*
X79814760Y-39609945D01*
X79823986Y-39632219D01*
X79837381Y-39652267D01*
X79854428Y-39669314D01*
X79874555Y-39682763D01*
X79884933Y-39688310D01*
X79885259Y-39688528D01*
X79912708Y-39711055D01*
X79912985Y-39711332D01*
X79935512Y-39738781D01*
X79935730Y-39739107D01*
X79952471Y-39770428D01*
X79952621Y-39770790D01*
X79962929Y-39804768D01*
X79963005Y-39805153D01*
X79967090Y-39846634D01*
X79967100Y-39846830D01*
X79967100Y-39903190D01*
X79966100Y-39904922D01*
X79964100Y-39904922D01*
X79963110Y-39903386D01*
X79958437Y-39855934D01*
X79944651Y-39810489D01*
X79922265Y-39768608D01*
X79892140Y-39731900D01*
X79855432Y-39701775D01*
X79813551Y-39679389D01*
X79768106Y-39665603D01*
X79720756Y-39660940D01*
X79232444Y-39660940D01*
X79185094Y-39665603D01*
X79139649Y-39679389D01*
X79097768Y-39701775D01*
X79061060Y-39731900D01*
X79030935Y-39768608D01*
X79008549Y-39810489D01*
X78994763Y-39855934D01*
X78990090Y-39903386D01*
X78988925Y-39905012D01*
X78986935Y-39904816D01*
X78986100Y-39903190D01*
X78986100Y-39846830D01*
X78986110Y-39846634D01*
X78990195Y-39805153D01*
X78990271Y-39804768D01*
X79000579Y-39770790D01*
X79000729Y-39770428D01*
X79017470Y-39739107D01*
X79017688Y-39738781D01*
X79040215Y-39711332D01*
X79040492Y-39711055D01*
X79067941Y-39688529D01*
X79068267Y-39688311D01*
X79078543Y-39682818D01*
X79098671Y-39669369D01*
X79115718Y-39652322D01*
X79129113Y-39632275D01*
X79138339Y-39610001D01*
X79143044Y-39586351D01*
X79143044Y-39562245D01*
X79138340Y-39538595D01*
X79129114Y-39516321D01*
X79115719Y-39496273D01*
X79098672Y-39479226D01*
X79078545Y-39465777D01*
X79068167Y-39460230D01*
X79067841Y-39460012D01*
X79040392Y-39437485D01*
X79040115Y-39437208D01*
X79017588Y-39409759D01*
X79017370Y-39409433D01*
X79000629Y-39378112D01*
X79000479Y-39377750D01*
X78990171Y-39343772D01*
X78990095Y-39343387D01*
X78986010Y-39301906D01*
X78986000Y-39301710D01*
X78986000Y-39245350D01*
X78987000Y-39243618D01*
X78989000Y-39243618D01*
X78989990Y-39245154D01*
X78994663Y-39292606D01*
X79008449Y-39338051D01*
X79030835Y-39379932D01*
X79060960Y-39416640D01*
X79097668Y-39446765D01*
X79139549Y-39469151D01*
X79184994Y-39482937D01*
X79232344Y-39487600D01*
X79720656Y-39487600D01*
X79768006Y-39482937D01*
X79813451Y-39469151D01*
X79855332Y-39446765D01*
X79892040Y-39416640D01*
X79922165Y-39379932D01*
X79944551Y-39338051D01*
X79958337Y-39292606D01*
X79963010Y-39245154D01*
X79964175Y-39243528D01*
X79966165Y-39243724D01*
G37*
G36*
X81541165Y-39243724D02*
G01*
X81542000Y-39245350D01*
X81542000Y-39301710D01*
X81541990Y-39301906D01*
X81537905Y-39343387D01*
X81537829Y-39343772D01*
X81527521Y-39377750D01*
X81527371Y-39378112D01*
X81510630Y-39409433D01*
X81510412Y-39409759D01*
X81487885Y-39437208D01*
X81487608Y-39437485D01*
X81460159Y-39460011D01*
X81459833Y-39460229D01*
X81449559Y-39465721D01*
X81429429Y-39479171D01*
X81412382Y-39496218D01*
X81398987Y-39516265D01*
X81389761Y-39538539D01*
X81385056Y-39562189D01*
X81385056Y-39586295D01*
X81389760Y-39609945D01*
X81398986Y-39632219D01*
X81412381Y-39652267D01*
X81429428Y-39669314D01*
X81449555Y-39682763D01*
X81459933Y-39688310D01*
X81460259Y-39688528D01*
X81487708Y-39711055D01*
X81487985Y-39711332D01*
X81510512Y-39738781D01*
X81510730Y-39739107D01*
X81527471Y-39770428D01*
X81527621Y-39770790D01*
X81537929Y-39804768D01*
X81538005Y-39805153D01*
X81542090Y-39846634D01*
X81542100Y-39846830D01*
X81542100Y-39903190D01*
X81541100Y-39904922D01*
X81539100Y-39904922D01*
X81538110Y-39903386D01*
X81533437Y-39855934D01*
X81519651Y-39810489D01*
X81497265Y-39768608D01*
X81467140Y-39731900D01*
X81430432Y-39701775D01*
X81388551Y-39679389D01*
X81343106Y-39665603D01*
X81295756Y-39660940D01*
X80807444Y-39660940D01*
X80760094Y-39665603D01*
X80714649Y-39679389D01*
X80672768Y-39701775D01*
X80636060Y-39731900D01*
X80605935Y-39768608D01*
X80583549Y-39810489D01*
X80569763Y-39855934D01*
X80565090Y-39903386D01*
X80563925Y-39905012D01*
X80561935Y-39904816D01*
X80561100Y-39903190D01*
X80561100Y-39846830D01*
X80561110Y-39846634D01*
X80565195Y-39805153D01*
X80565271Y-39804768D01*
X80575579Y-39770790D01*
X80575729Y-39770428D01*
X80592470Y-39739107D01*
X80592688Y-39738781D01*
X80615215Y-39711332D01*
X80615492Y-39711055D01*
X80642941Y-39688529D01*
X80643267Y-39688311D01*
X80653543Y-39682818D01*
X80673671Y-39669369D01*
X80690718Y-39652322D01*
X80704113Y-39632275D01*
X80713339Y-39610001D01*
X80718044Y-39586351D01*
X80718044Y-39562245D01*
X80713340Y-39538595D01*
X80704114Y-39516321D01*
X80690719Y-39496273D01*
X80673672Y-39479226D01*
X80653545Y-39465777D01*
X80643167Y-39460230D01*
X80642841Y-39460012D01*
X80615392Y-39437485D01*
X80615115Y-39437208D01*
X80592588Y-39409759D01*
X80592370Y-39409433D01*
X80575629Y-39378112D01*
X80575479Y-39377750D01*
X80565171Y-39343772D01*
X80565095Y-39343387D01*
X80561010Y-39301906D01*
X80561000Y-39301710D01*
X80561000Y-39245350D01*
X80562000Y-39243618D01*
X80564000Y-39243618D01*
X80564990Y-39245154D01*
X80569663Y-39292606D01*
X80583449Y-39338051D01*
X80605835Y-39379932D01*
X80635960Y-39416640D01*
X80672668Y-39446765D01*
X80714549Y-39469151D01*
X80759994Y-39482937D01*
X80807344Y-39487600D01*
X81295656Y-39487600D01*
X81343006Y-39482937D01*
X81388451Y-39469151D01*
X81430332Y-39446765D01*
X81467040Y-39416640D01*
X81497165Y-39379932D01*
X81519551Y-39338051D01*
X81533337Y-39292606D01*
X81538010Y-39245154D01*
X81539175Y-39243528D01*
X81541165Y-39243724D01*
G37*
M02*
