G04 #@! TF.GenerationSoftware,KiCad,Pcbnew,(5.1.7)-1*
G04 #@! TF.CreationDate,2020-10-06T16:51:20+07:00*
G04 #@! TF.ProjectId,PIC16F1X_KIT2019,50494331-3646-4315-985f-4b4954323031,rev?*
G04 #@! TF.SameCoordinates,Original*
G04 #@! TF.FileFunction,Copper,L1,Top*
G04 #@! TF.FilePolarity,Positive*
%FSLAX46Y46*%
G04 Gerber Fmt 4.6, Leading zero omitted, Abs format (unit mm)*
G04 Created by KiCad (PCBNEW (5.1.7)-1) date 2020-10-06 16:51:20*
%MOMM*%
%LPD*%
G01*
G04 APERTURE LIST*
G04 #@! TA.AperFunction,ComponentPad*
%ADD10C,4.500000*%
G04 #@! TD*
G04 #@! TA.AperFunction,ComponentPad*
%ADD11O,1.700000X1.700000*%
G04 #@! TD*
G04 #@! TA.AperFunction,ComponentPad*
%ADD12R,1.700000X1.700000*%
G04 #@! TD*
G04 #@! TA.AperFunction,ComponentPad*
%ADD13O,3.048000X2.000000*%
G04 #@! TD*
G04 #@! TA.AperFunction,ComponentPad*
%ADD14C,2.000000*%
G04 #@! TD*
G04 #@! TA.AperFunction,ComponentPad*
%ADD15R,2.000000X2.000000*%
G04 #@! TD*
G04 #@! TA.AperFunction,SMDPad,CuDef*
%ADD16R,1.500000X1.500000*%
G04 #@! TD*
G04 #@! TA.AperFunction,ComponentPad*
%ADD17O,1.524000X2.524000*%
G04 #@! TD*
G04 #@! TA.AperFunction,ComponentPad*
%ADD18R,1.524000X2.524000*%
G04 #@! TD*
G04 #@! TA.AperFunction,SMDPad,CuDef*
%ADD19R,1.750000X1.900000*%
G04 #@! TD*
G04 #@! TA.AperFunction,SMDPad,CuDef*
%ADD20R,0.400000X1.400000*%
G04 #@! TD*
G04 #@! TA.AperFunction,ComponentPad*
%ADD21O,1.050000X1.900000*%
G04 #@! TD*
G04 #@! TA.AperFunction,SMDPad,CuDef*
%ADD22R,1.150000X1.450000*%
G04 #@! TD*
G04 #@! TA.AperFunction,ComponentPad*
%ADD23R,1.800000X1.800000*%
G04 #@! TD*
G04 #@! TA.AperFunction,ComponentPad*
%ADD24C,1.800000*%
G04 #@! TD*
G04 #@! TA.AperFunction,ViaPad*
%ADD25C,1.600000*%
G04 #@! TD*
G04 #@! TA.AperFunction,ViaPad*
%ADD26C,0.800000*%
G04 #@! TD*
G04 #@! TA.AperFunction,ViaPad*
%ADD27C,1.200000*%
G04 #@! TD*
G04 #@! TA.AperFunction,ViaPad*
%ADD28C,1.500000*%
G04 #@! TD*
G04 #@! TA.AperFunction,Conductor*
%ADD29C,0.400000*%
G04 #@! TD*
G04 #@! TA.AperFunction,Conductor*
%ADD30C,0.800000*%
G04 #@! TD*
G04 #@! TA.AperFunction,Conductor*
%ADD31C,1.200000*%
G04 #@! TD*
G04 #@! TA.AperFunction,Conductor*
%ADD32C,0.250000*%
G04 #@! TD*
G04 #@! TA.AperFunction,Conductor*
%ADD33C,0.254000*%
G04 #@! TD*
G04 #@! TA.AperFunction,Conductor*
%ADD34C,0.100000*%
G04 #@! TD*
G04 APERTURE END LIST*
D10*
X115376960Y-115275360D03*
X22479000Y-115824000D03*
D11*
X74650600Y-58089800D03*
X72110600Y-58089800D03*
X69570600Y-58089800D03*
X67030600Y-58089800D03*
D12*
X64490600Y-58089800D03*
D13*
X115466520Y-51638200D03*
X115466520Y-56638200D03*
X102966520Y-51638200D03*
X102966520Y-56638200D03*
D14*
X109316520Y-47574200D03*
X109316520Y-60655200D03*
D13*
X36132160Y-51638200D03*
X36132160Y-56638200D03*
X23632160Y-51638200D03*
X23632160Y-56638200D03*
D14*
X29982160Y-47574200D03*
X29982160Y-60655200D03*
X109316520Y-39293800D03*
X109316520Y-26212800D03*
D13*
X102966520Y-35276800D03*
X102966520Y-30276800D03*
X115466520Y-35276800D03*
X115466520Y-30276800D03*
X36132160Y-30324333D03*
X36132160Y-35324333D03*
X23632160Y-30324333D03*
X23632160Y-35324333D03*
D14*
X29982160Y-26260333D03*
X29982160Y-39341333D03*
G04 #@! TA.AperFunction,SMDPad,CuDef*
G36*
G01*
X53040800Y-55966650D02*
X53040800Y-56479150D01*
G75*
G02*
X52822050Y-56697900I-218750J0D01*
G01*
X52384550Y-56697900D01*
G75*
G02*
X52165800Y-56479150I0J218750D01*
G01*
X52165800Y-55966650D01*
G75*
G02*
X52384550Y-55747900I218750J0D01*
G01*
X52822050Y-55747900D01*
G75*
G02*
X53040800Y-55966650I0J-218750D01*
G01*
G37*
G04 #@! TD.AperFunction*
G04 #@! TA.AperFunction,SMDPad,CuDef*
G36*
G01*
X54615800Y-55966650D02*
X54615800Y-56479150D01*
G75*
G02*
X54397050Y-56697900I-218750J0D01*
G01*
X53959550Y-56697900D01*
G75*
G02*
X53740800Y-56479150I0J218750D01*
G01*
X53740800Y-55966650D01*
G75*
G02*
X53959550Y-55747900I218750J0D01*
G01*
X54397050Y-55747900D01*
G75*
G02*
X54615800Y-55966650I0J-218750D01*
G01*
G37*
G04 #@! TD.AperFunction*
G04 #@! TA.AperFunction,SMDPad,CuDef*
G36*
G01*
X72905100Y-55539350D02*
X72905100Y-55026850D01*
G75*
G02*
X73123850Y-54808100I218750J0D01*
G01*
X73561350Y-54808100D01*
G75*
G02*
X73780100Y-55026850I0J-218750D01*
G01*
X73780100Y-55539350D01*
G75*
G02*
X73561350Y-55758100I-218750J0D01*
G01*
X73123850Y-55758100D01*
G75*
G02*
X72905100Y-55539350I0J218750D01*
G01*
G37*
G04 #@! TD.AperFunction*
G04 #@! TA.AperFunction,SMDPad,CuDef*
G36*
G01*
X71330100Y-55539350D02*
X71330100Y-55026850D01*
G75*
G02*
X71548850Y-54808100I218750J0D01*
G01*
X71986350Y-54808100D01*
G75*
G02*
X72205100Y-55026850I0J-218750D01*
G01*
X72205100Y-55539350D01*
G75*
G02*
X71986350Y-55758100I-218750J0D01*
G01*
X71548850Y-55758100D01*
G75*
G02*
X71330100Y-55539350I0J218750D01*
G01*
G37*
G04 #@! TD.AperFunction*
D10*
X115697000Y-65024000D03*
X23368000Y-22225000D03*
X23368000Y-65024000D03*
X115697000Y-22225000D03*
D15*
X65732500Y-26162000D03*
D14*
X73332500Y-26162000D03*
G04 #@! TA.AperFunction,SMDPad,CuDef*
G36*
G01*
X70510200Y-54833099D02*
X70510200Y-55733101D01*
G75*
G02*
X70260201Y-55983100I-249999J0D01*
G01*
X69610199Y-55983100D01*
G75*
G02*
X69360200Y-55733101I0J249999D01*
G01*
X69360200Y-54833099D01*
G75*
G02*
X69610199Y-54583100I249999J0D01*
G01*
X70260201Y-54583100D01*
G75*
G02*
X70510200Y-54833099I0J-249999D01*
G01*
G37*
G04 #@! TD.AperFunction*
G04 #@! TA.AperFunction,SMDPad,CuDef*
G36*
G01*
X68460200Y-54833099D02*
X68460200Y-55733101D01*
G75*
G02*
X68210201Y-55983100I-249999J0D01*
G01*
X67560199Y-55983100D01*
G75*
G02*
X67310200Y-55733101I0J249999D01*
G01*
X67310200Y-54833099D01*
G75*
G02*
X67560199Y-54583100I249999J0D01*
G01*
X68210201Y-54583100D01*
G75*
G02*
X68460200Y-54833099I0J-249999D01*
G01*
G37*
G04 #@! TD.AperFunction*
D16*
X49476250Y-59436000D03*
X57276250Y-59436000D03*
X81678750Y-59436000D03*
X89478750Y-59436000D03*
D17*
X58013600Y-35775900D03*
X60553600Y-35775900D03*
X63093600Y-35775900D03*
X65633600Y-35775900D03*
X68173600Y-35775900D03*
X68173600Y-51015900D03*
X65633600Y-51015900D03*
X63093600Y-51015900D03*
X60553600Y-51015900D03*
D18*
X58013600Y-51015900D03*
X71069200Y-51015900D03*
D17*
X73609200Y-51015900D03*
X76149200Y-51015900D03*
X78689200Y-51015900D03*
X81229200Y-51015900D03*
X81229200Y-35775900D03*
X78689200Y-35775900D03*
X76149200Y-35775900D03*
X73609200Y-35775900D03*
X71069200Y-35775900D03*
D19*
X70665120Y-66102080D03*
D20*
X68890120Y-63452080D03*
X68240120Y-63452080D03*
X70840120Y-63452080D03*
X70190120Y-63452080D03*
X69540120Y-63452080D03*
D19*
X68415120Y-66102080D03*
D21*
X65965120Y-66102080D03*
X73115120Y-66102080D03*
D22*
X71860120Y-63872080D03*
X67220120Y-63872080D03*
D23*
X97642680Y-54114700D03*
D24*
X95102680Y-54114700D03*
D23*
X97642680Y-32753300D03*
D24*
X95102680Y-32753300D03*
X43977560Y-54114700D03*
D23*
X41437560Y-54114700D03*
D24*
X43967400Y-32800833D03*
D23*
X41427400Y-32800833D03*
G04 #@! TA.AperFunction,SMDPad,CuDef*
G36*
G01*
X87187840Y-55582399D02*
X87187840Y-56482401D01*
G75*
G02*
X86937841Y-56732400I-249999J0D01*
G01*
X86287839Y-56732400D01*
G75*
G02*
X86037840Y-56482401I0J249999D01*
G01*
X86037840Y-55582399D01*
G75*
G02*
X86287839Y-55332400I249999J0D01*
G01*
X86937841Y-55332400D01*
G75*
G02*
X87187840Y-55582399I0J-249999D01*
G01*
G37*
G04 #@! TD.AperFunction*
G04 #@! TA.AperFunction,SMDPad,CuDef*
G36*
G01*
X85137840Y-55582399D02*
X85137840Y-56482401D01*
G75*
G02*
X84887841Y-56732400I-249999J0D01*
G01*
X84237839Y-56732400D01*
G75*
G02*
X83987840Y-56482401I0J249999D01*
G01*
X83987840Y-55582399D01*
G75*
G02*
X84237839Y-55332400I249999J0D01*
G01*
X84887841Y-55332400D01*
G75*
G02*
X85137840Y-55582399I0J-249999D01*
G01*
G37*
G04 #@! TD.AperFunction*
G04 #@! TA.AperFunction,SMDPad,CuDef*
G36*
G01*
X82928920Y-55789820D02*
X82928920Y-56264820D01*
G75*
G02*
X82691420Y-56502320I-237500J0D01*
G01*
X82116420Y-56502320D01*
G75*
G02*
X81878920Y-56264820I0J237500D01*
G01*
X81878920Y-55789820D01*
G75*
G02*
X82116420Y-55552320I237500J0D01*
G01*
X82691420Y-55552320D01*
G75*
G02*
X82928920Y-55789820I0J-237500D01*
G01*
G37*
G04 #@! TD.AperFunction*
G04 #@! TA.AperFunction,SMDPad,CuDef*
G36*
G01*
X81178920Y-55789820D02*
X81178920Y-56264820D01*
G75*
G02*
X80941420Y-56502320I-237500J0D01*
G01*
X80366420Y-56502320D01*
G75*
G02*
X80128920Y-56264820I0J237500D01*
G01*
X80128920Y-55789820D01*
G75*
G02*
X80366420Y-55552320I237500J0D01*
G01*
X80941420Y-55552320D01*
G75*
G02*
X81178920Y-55789820I0J-237500D01*
G01*
G37*
G04 #@! TD.AperFunction*
D25*
X59339480Y-54284880D03*
X69596000Y-33106360D03*
X46268640Y-49184560D03*
X47185580Y-32880300D03*
X47185580Y-35034220D03*
X46253400Y-51577240D03*
D26*
X61188600Y-40540540D03*
D25*
X48117760Y-44231560D03*
X50749200Y-30492700D03*
X75714100Y-30527500D03*
D26*
X68554600Y-41505740D03*
X68541900Y-42788440D03*
X68541900Y-44058440D03*
X68541900Y-45328440D03*
X68541900Y-46598440D03*
X77444600Y-37797340D03*
X73825100Y-40248440D03*
X82016600Y-42775740D03*
X82016600Y-44045740D03*
X82016600Y-45315740D03*
X82016600Y-46585740D03*
D27*
X55747920Y-45547280D03*
D28*
X56377840Y-41513760D03*
D26*
X61137800Y-43029740D03*
D27*
X74193400Y-44096540D03*
D26*
X61137800Y-44299740D03*
D27*
X74188320Y-45755560D03*
D26*
X60731400Y-45468140D03*
X70573900Y-41518440D03*
D25*
X88869520Y-56301640D03*
D29*
X52031900Y-56222900D02*
X52603300Y-56222900D01*
X45440600Y-49626520D02*
X45440600Y-49631600D01*
X45440600Y-49631600D02*
X52031900Y-56222900D01*
D30*
X59339480Y-54284880D02*
X59512200Y-54284880D01*
X60510420Y-55283100D02*
X67885200Y-55283100D01*
X59512200Y-54284880D02*
X60510420Y-55283100D01*
X69596000Y-33106360D02*
X69824600Y-33106360D01*
X69824600Y-33106360D02*
X70327520Y-32603440D01*
X70327520Y-32603440D02*
X77454760Y-32603440D01*
X77454760Y-32603440D02*
X78130400Y-31927800D01*
X78130400Y-31927800D02*
X78130400Y-29474160D01*
X78130400Y-29474160D02*
X77190600Y-28534360D01*
X68104860Y-28534360D02*
X65732500Y-26162000D01*
X77190600Y-28534360D02*
X68104860Y-28534360D01*
X52603300Y-56222900D02*
X52036980Y-56222900D01*
X46272000Y-49634960D02*
X45440600Y-48803560D01*
X46312640Y-49634960D02*
X46272000Y-49634960D01*
X45440600Y-48803560D02*
X45440600Y-49626520D01*
X46312640Y-50498560D02*
X46398180Y-50584100D01*
X46312640Y-49634960D02*
X46312640Y-50498560D01*
X52036980Y-56222900D02*
X46398180Y-50584100D01*
X46398180Y-50584100D02*
X45440600Y-49626520D01*
D29*
X69570600Y-58089800D02*
X69570600Y-58267600D01*
X68240120Y-63452080D02*
X68240120Y-61829160D01*
X68238060Y-60779660D02*
X68240120Y-60781720D01*
D30*
X69570600Y-58089800D02*
X69570600Y-58699400D01*
D29*
X68240120Y-60029880D02*
X68760340Y-59509660D01*
X68240120Y-61863760D02*
X68240120Y-60029880D01*
D30*
X69570600Y-58699400D02*
X68760340Y-59509660D01*
D29*
X68240120Y-61863760D02*
X68240120Y-60781720D01*
X68240120Y-63452080D02*
X68240120Y-61863760D01*
D30*
X69570600Y-58089800D02*
X69570600Y-57764680D01*
X67885200Y-56079280D02*
X67885200Y-55283100D01*
X69570600Y-57764680D02*
X67885200Y-56079280D01*
X68760340Y-59509660D02*
X66436240Y-61833760D01*
D31*
X46253400Y-49199800D02*
X46268640Y-49184560D01*
X46253400Y-51577240D02*
X46253400Y-49199800D01*
D30*
X66436240Y-61833760D02*
X68000880Y-61833760D01*
X47185580Y-40236140D02*
X47185580Y-32880300D01*
X45440600Y-44196000D02*
X45440600Y-48803560D01*
X47185580Y-40236140D02*
X47185580Y-42451020D01*
X47185580Y-42451020D02*
X45440600Y-44196000D01*
X49400460Y-40236140D02*
X47185580Y-40236140D01*
X69596000Y-33106360D02*
X56530240Y-33106360D01*
X56530240Y-33106360D02*
X49400460Y-40236140D01*
X63941960Y-61833760D02*
X66436240Y-61833760D01*
X62732920Y-63042800D02*
X63941960Y-61833760D01*
X49194720Y-63042800D02*
X62732920Y-63042800D01*
X46253400Y-51577240D02*
X46253400Y-60101480D01*
X46253400Y-60101480D02*
X49194720Y-63042800D01*
X78130400Y-31927800D02*
X78150720Y-31927800D01*
D29*
X82194400Y-32603440D02*
X77454760Y-32603440D01*
X80653920Y-55098920D02*
X81589880Y-54162960D01*
X80653920Y-56027320D02*
X80653920Y-55098920D01*
X81589880Y-54162960D02*
X82453480Y-54162960D01*
X82453480Y-54162960D02*
X84566760Y-52049680D01*
X84566760Y-52049680D02*
X84566760Y-34975800D01*
X84566760Y-34975800D02*
X82194400Y-32603440D01*
D30*
X61188600Y-40540540D02*
X61188600Y-39016540D01*
X61188600Y-39016540D02*
X63093600Y-37111540D01*
X63093600Y-37111540D02*
X63093600Y-35803440D01*
D29*
X76149200Y-35803440D02*
X76479400Y-35473240D01*
X76149200Y-51043440D02*
X76149200Y-52046740D01*
X76149200Y-52046740D02*
X74650200Y-53545740D01*
X74650200Y-53545740D02*
X73370440Y-53545740D01*
X64643400Y-53545740D02*
X63093600Y-51995940D01*
X63093600Y-51995940D02*
X63093600Y-51043440D01*
D30*
X81678750Y-59436000D02*
X81678750Y-59301350D01*
X76149200Y-53771800D02*
X76149200Y-51015900D01*
D29*
X73342600Y-53573580D02*
X73370440Y-53545740D01*
X73342600Y-55283100D02*
X73342600Y-53573580D01*
X73370440Y-53545740D02*
X64643400Y-53545740D01*
X70840120Y-63452080D02*
X70840120Y-62316840D01*
X70840120Y-62316840D02*
X71424800Y-61732160D01*
X71424800Y-61732160D02*
X75900280Y-61732160D01*
D30*
X67030600Y-59202320D02*
X67030600Y-58089800D01*
X49476250Y-59436000D02*
X49476250Y-59852150D01*
X51107340Y-61483240D02*
X61076840Y-61483240D01*
X61076840Y-61483240D02*
X62341760Y-60218320D01*
X62341760Y-60218320D02*
X66014600Y-60218320D01*
X49476250Y-59852150D02*
X51107340Y-61483240D01*
X66014600Y-60218320D02*
X67030600Y-59202320D01*
X23632160Y-51638200D02*
X36132160Y-51638200D01*
X23632160Y-30324333D02*
X36132160Y-30324333D01*
X23632160Y-30324333D02*
X23543987Y-30324333D01*
X23543987Y-30324333D02*
X21046440Y-32821880D01*
X21046440Y-32821880D02*
X21046440Y-45582840D01*
X23632160Y-48168560D02*
X23632160Y-51638200D01*
X21046440Y-45582840D02*
X23632160Y-48168560D01*
X102966520Y-30276800D02*
X115466520Y-30276800D01*
X102966520Y-51638200D02*
X115466520Y-51638200D01*
X81678750Y-59436000D02*
X78379320Y-59436000D01*
X76083160Y-61732160D02*
X75900280Y-61732160D01*
X78379320Y-59436000D02*
X76083160Y-61732160D01*
X78379320Y-56001920D02*
X78333600Y-55956200D01*
X78379320Y-59436000D02*
X78379320Y-56001920D01*
X78333600Y-55956200D02*
X76149200Y-53771800D01*
X57276250Y-59436000D02*
X59258200Y-59436000D01*
X60604400Y-58089800D02*
X64490600Y-58089800D01*
X59258200Y-59436000D02*
X60604400Y-58089800D01*
X57276250Y-58901850D02*
X57276250Y-59436000D01*
X54178300Y-56222900D02*
X54597300Y-56222900D01*
X54597300Y-56222900D02*
X57276250Y-58901850D01*
X54178300Y-51124500D02*
X54178300Y-56222900D01*
X48117760Y-44231560D02*
X54178300Y-51124500D01*
D32*
X72194500Y-58039000D02*
X72194500Y-57396300D01*
D30*
X102966520Y-56638200D02*
X115466520Y-56638200D01*
X69935200Y-55283100D02*
X71767600Y-55283100D01*
X50749200Y-30492700D02*
X75679300Y-30492700D01*
X75679300Y-30492700D02*
X75714100Y-30527500D01*
X102966520Y-35276800D02*
X115466520Y-35276800D01*
X23632160Y-56638200D02*
X36132160Y-56638200D01*
X43977560Y-55636160D02*
X43977560Y-54114700D01*
X29982160Y-60655200D02*
X38958520Y-60655200D01*
X38958520Y-60655200D02*
X43977560Y-55636160D01*
X23632160Y-35324333D02*
X36132160Y-35324333D01*
D32*
X70332600Y-42978940D02*
X68859400Y-41505740D01*
X65633600Y-50268740D02*
X66776600Y-49125740D01*
X65633600Y-51043440D02*
X65633600Y-50268740D01*
X69011800Y-49125740D02*
X70332600Y-47804940D01*
X70332600Y-47804940D02*
X70332600Y-42978940D01*
X68859400Y-41505740D02*
X68554600Y-41505740D01*
X66776600Y-49125740D02*
X69011800Y-49125740D01*
X60553600Y-50522740D02*
X62560200Y-48516140D01*
X68808600Y-48516140D02*
X69824600Y-47500140D01*
X69824600Y-47500140D02*
X69824600Y-43791740D01*
X68821300Y-42788440D02*
X68541900Y-42788440D01*
X60553600Y-51043440D02*
X60553600Y-50522740D01*
X69824600Y-43791740D02*
X68821300Y-42788440D01*
X62560200Y-48516140D02*
X68808600Y-48516140D01*
X58013600Y-50471940D02*
X60680600Y-47804940D01*
X58013600Y-51043440D02*
X58013600Y-50471940D01*
X68821300Y-44058440D02*
X68541900Y-44058440D01*
X60680600Y-47804940D02*
X68656200Y-47804940D01*
X69316600Y-44553740D02*
X68821300Y-44058440D01*
X68656200Y-47804940D02*
X69316600Y-47144540D01*
X69316600Y-47144540D02*
X69316600Y-44553740D01*
X60553600Y-37314740D02*
X60553600Y-35803440D01*
X68186300Y-45328440D02*
X67030600Y-46484140D01*
X58699400Y-44858540D02*
X58699400Y-39168940D01*
X60325000Y-46484140D02*
X58699400Y-44858540D01*
X67030600Y-46484140D02*
X60325000Y-46484140D01*
X58699400Y-39168940D02*
X60553600Y-37314740D01*
X68541900Y-45328440D02*
X68186300Y-45328440D01*
X68541900Y-46598440D02*
X67995800Y-47144540D01*
X59969400Y-47144540D02*
X58013600Y-45188740D01*
X67995800Y-47144540D02*
X59969400Y-47144540D01*
X58013600Y-45188740D02*
X58013600Y-35803440D01*
D29*
X76377800Y-37797340D02*
X77444600Y-37797340D01*
X73825100Y-40248440D02*
X73926700Y-40248440D01*
X73926700Y-40248440D02*
X76377800Y-37797340D01*
D32*
X73609200Y-50421140D02*
X75666600Y-48363740D01*
X82321400Y-48363740D02*
X83235800Y-47449340D01*
X73609200Y-51043440D02*
X73609200Y-50421140D01*
X83235800Y-47449340D02*
X83235800Y-43639340D01*
X75666600Y-48363740D02*
X82321400Y-48363740D01*
X83235800Y-43639340D02*
X82372200Y-42775740D01*
X82372200Y-42775740D02*
X82016600Y-42775740D01*
X82372200Y-47601740D02*
X82778600Y-47195340D01*
X82219800Y-44045740D02*
X82016600Y-44045740D01*
X71069200Y-51043440D02*
X71069200Y-50471940D01*
X73939400Y-47601740D02*
X82372200Y-47601740D01*
X82778600Y-44604540D02*
X82219800Y-44045740D01*
X82778600Y-47195340D02*
X82778600Y-44604540D01*
X71069200Y-50471940D02*
X73939400Y-47601740D01*
X77647800Y-45315740D02*
X72974200Y-40642140D01*
X72974200Y-40642140D02*
X72974200Y-38305340D01*
X72974200Y-38305340D02*
X73583800Y-37695740D01*
X82016600Y-45315740D02*
X77647800Y-45315740D01*
X73583800Y-35828840D02*
X73609200Y-35803440D01*
X73583800Y-37695740D02*
X73583800Y-35828840D01*
X78257400Y-46585740D02*
X71069200Y-39397540D01*
X82016600Y-46585740D02*
X78257400Y-46585740D01*
X71069200Y-39397540D02*
X71069200Y-35803440D01*
D30*
X55763160Y-42917980D02*
X55763160Y-42128440D01*
X55763160Y-42128440D02*
X56377840Y-41513760D01*
X55763160Y-42917980D02*
X55763160Y-45532040D01*
D29*
X55763160Y-45532040D02*
X55747920Y-45547280D01*
D32*
X55943500Y-45427900D02*
X55763160Y-45247560D01*
X74193400Y-43283740D02*
X74193400Y-44096540D01*
X70383400Y-39473740D02*
X74193400Y-43283740D01*
X65608200Y-39473740D02*
X70383400Y-39473740D01*
X61137800Y-43029740D02*
X62052200Y-43029740D01*
X62052200Y-43029740D02*
X65608200Y-39473740D01*
X62153800Y-44299740D02*
X61137800Y-44299740D01*
X74188320Y-45717060D02*
X72329040Y-43857780D01*
X74188320Y-45755560D02*
X74188320Y-45717060D01*
X72329040Y-43857780D02*
X72329040Y-42130580D01*
X72329040Y-42130580D02*
X70180200Y-39981740D01*
X70180200Y-39981740D02*
X66471800Y-39981740D01*
X66471800Y-39981740D02*
X62153800Y-44299740D01*
X60731400Y-45468140D02*
X62001400Y-45468140D01*
X70548500Y-41518440D02*
X69672200Y-40642140D01*
X69672200Y-40642140D02*
X70180200Y-41150140D01*
X70573900Y-41518440D02*
X70548500Y-41518440D01*
X70180200Y-41150140D02*
X70383400Y-41353340D01*
X69570600Y-40540540D02*
X69672200Y-40642140D01*
X66929000Y-40540540D02*
X69570600Y-40540540D01*
X62001400Y-45468140D02*
X66929000Y-40540540D01*
D30*
X88828880Y-56261000D02*
X88869520Y-56301640D01*
D29*
X89478750Y-56910870D02*
X88869520Y-56301640D01*
X89478750Y-59436000D02*
X89478750Y-56910870D01*
X88600280Y-56032400D02*
X88869520Y-56301640D01*
D30*
X86612840Y-56032400D02*
X88600280Y-56032400D01*
D29*
X68890120Y-63452080D02*
X68890120Y-61224400D01*
X69540120Y-63452080D02*
X69540120Y-61203840D01*
X70190120Y-63452080D02*
X70190120Y-61214240D01*
D31*
X70665120Y-66102080D02*
X73115120Y-66102080D01*
X68415120Y-66102080D02*
X65965120Y-66102080D01*
D30*
X71860120Y-66082200D02*
X71840240Y-66102080D01*
X71860120Y-63872080D02*
X71860120Y-66082200D01*
D31*
X67220120Y-66102080D02*
X68415120Y-66102080D01*
D30*
X67220120Y-63872080D02*
X67220120Y-66102080D01*
D29*
X68415120Y-66102080D02*
X70665120Y-66102080D01*
X84557760Y-56027320D02*
X84562840Y-56032400D01*
X82403920Y-56027320D02*
X84557760Y-56027320D01*
D33*
X113229263Y-20199781D02*
X112881579Y-20720126D01*
X112642090Y-21298303D01*
X112520000Y-21912093D01*
X112520000Y-22537907D01*
X112642090Y-23151697D01*
X112881579Y-23729874D01*
X113229263Y-24250219D01*
X113671781Y-24692737D01*
X114192126Y-25040421D01*
X114770303Y-25279910D01*
X115384093Y-25402000D01*
X116009907Y-25402000D01*
X116623697Y-25279910D01*
X117201874Y-25040421D01*
X117722219Y-24692737D01*
X117920000Y-24494956D01*
X117920000Y-35207325D01*
X117889637Y-34899042D01*
X117779449Y-34535801D01*
X117600514Y-34201037D01*
X117359707Y-33907613D01*
X117066283Y-33666806D01*
X116731519Y-33487871D01*
X116368278Y-33377683D01*
X116085178Y-33349800D01*
X114847862Y-33349800D01*
X114564762Y-33377683D01*
X114201521Y-33487871D01*
X113866757Y-33666806D01*
X113573333Y-33907613D01*
X113538711Y-33949800D01*
X104894329Y-33949800D01*
X104859707Y-33907613D01*
X104566283Y-33666806D01*
X104231519Y-33487871D01*
X103868278Y-33377683D01*
X103585178Y-33349800D01*
X102347862Y-33349800D01*
X102064762Y-33377683D01*
X101701521Y-33487871D01*
X101366757Y-33666806D01*
X101073333Y-33907613D01*
X100832526Y-34201037D01*
X100653591Y-34535801D01*
X100543403Y-34899042D01*
X100506197Y-35276800D01*
X100543403Y-35654558D01*
X100653591Y-36017799D01*
X100832526Y-36352563D01*
X101073333Y-36645987D01*
X101366757Y-36886794D01*
X101701521Y-37065729D01*
X102064762Y-37175917D01*
X102347862Y-37203800D01*
X103585178Y-37203800D01*
X103868278Y-37175917D01*
X104231519Y-37065729D01*
X104566283Y-36886794D01*
X104859707Y-36645987D01*
X104894329Y-36603800D01*
X113538711Y-36603800D01*
X113573333Y-36645987D01*
X113866757Y-36886794D01*
X114201521Y-37065729D01*
X114564762Y-37175917D01*
X114847862Y-37203800D01*
X116085178Y-37203800D01*
X116368278Y-37175917D01*
X116731519Y-37065729D01*
X117066283Y-36886794D01*
X117359707Y-36645987D01*
X117600514Y-36352563D01*
X117779449Y-36017799D01*
X117889637Y-35654558D01*
X117920000Y-35346275D01*
X117920001Y-56568730D01*
X117889637Y-56260442D01*
X117779449Y-55897201D01*
X117600514Y-55562437D01*
X117359707Y-55269013D01*
X117066283Y-55028206D01*
X116731519Y-54849271D01*
X116368278Y-54739083D01*
X116085178Y-54711200D01*
X114847862Y-54711200D01*
X114564762Y-54739083D01*
X114201521Y-54849271D01*
X113866757Y-55028206D01*
X113573333Y-55269013D01*
X113538711Y-55311200D01*
X104894329Y-55311200D01*
X104859707Y-55269013D01*
X104566283Y-55028206D01*
X104231519Y-54849271D01*
X103868278Y-54739083D01*
X103585178Y-54711200D01*
X102347862Y-54711200D01*
X102064762Y-54739083D01*
X101701521Y-54849271D01*
X101366757Y-55028206D01*
X101073333Y-55269013D01*
X100832526Y-55562437D01*
X100653591Y-55897201D01*
X100543403Y-56260442D01*
X100506197Y-56638200D01*
X100543403Y-57015958D01*
X100653591Y-57379199D01*
X100832526Y-57713963D01*
X101073333Y-58007387D01*
X101366757Y-58248194D01*
X101701521Y-58427129D01*
X102064762Y-58537317D01*
X102347862Y-58565200D01*
X103585178Y-58565200D01*
X103868278Y-58537317D01*
X104231519Y-58427129D01*
X104566283Y-58248194D01*
X104859707Y-58007387D01*
X104894329Y-57965200D01*
X113538711Y-57965200D01*
X113573333Y-58007387D01*
X113866757Y-58248194D01*
X114201521Y-58427129D01*
X114564762Y-58537317D01*
X114847862Y-58565200D01*
X116085178Y-58565200D01*
X116368278Y-58537317D01*
X116731519Y-58427129D01*
X117066283Y-58248194D01*
X117359707Y-58007387D01*
X117600514Y-57713963D01*
X117779449Y-57379199D01*
X117889637Y-57015958D01*
X117920001Y-56707670D01*
X117920001Y-62754045D01*
X117722219Y-62556263D01*
X117201874Y-62208579D01*
X116623697Y-61969090D01*
X116009907Y-61847000D01*
X115384093Y-61847000D01*
X114770303Y-61969090D01*
X114192126Y-62208579D01*
X113671781Y-62556263D01*
X113229263Y-62998781D01*
X112881579Y-63519126D01*
X112642090Y-64097303D01*
X112520000Y-64711093D01*
X112520000Y-65336907D01*
X112642090Y-65950697D01*
X112881579Y-66528874D01*
X113229263Y-67049219D01*
X113427044Y-67247000D01*
X74376720Y-67247000D01*
X74463083Y-67085425D01*
X74546110Y-66811722D01*
X74567120Y-66598404D01*
X74567120Y-66575830D01*
X74620025Y-66401424D01*
X74649508Y-66102080D01*
X74620025Y-65802736D01*
X74567120Y-65628330D01*
X74567120Y-65605755D01*
X74546110Y-65392438D01*
X74463083Y-65118735D01*
X74328255Y-64866489D01*
X74146805Y-64645394D01*
X73925710Y-64463945D01*
X73673464Y-64329117D01*
X73399761Y-64246090D01*
X73366605Y-64242824D01*
X73366605Y-63147080D01*
X73348707Y-62965356D01*
X73295700Y-62790616D01*
X73209621Y-62629575D01*
X73093779Y-62488421D01*
X72952625Y-62372579D01*
X72791584Y-62286500D01*
X72616844Y-62233493D01*
X72435120Y-62215595D01*
X71382041Y-62215595D01*
X71317120Y-62179581D01*
X71317120Y-61158875D01*
X71300813Y-60993309D01*
X71236370Y-60780869D01*
X71131720Y-60585083D01*
X70990885Y-60413475D01*
X70819277Y-60272640D01*
X70657186Y-60186000D01*
X80290678Y-60186000D01*
X80302938Y-60310482D01*
X80339248Y-60430180D01*
X80398213Y-60540494D01*
X80477565Y-60637185D01*
X80574256Y-60716537D01*
X80684570Y-60775502D01*
X80804268Y-60811812D01*
X80928750Y-60824072D01*
X81393000Y-60821000D01*
X81551750Y-60662250D01*
X81551750Y-59563000D01*
X81805750Y-59563000D01*
X81805750Y-60662250D01*
X81964500Y-60821000D01*
X82428750Y-60824072D01*
X82553232Y-60811812D01*
X82672930Y-60775502D01*
X82783244Y-60716537D01*
X82879935Y-60637185D01*
X82959287Y-60540494D01*
X83018252Y-60430180D01*
X83054562Y-60310482D01*
X83066822Y-60186000D01*
X83063750Y-59721750D01*
X82905000Y-59563000D01*
X81805750Y-59563000D01*
X81551750Y-59563000D01*
X80452500Y-59563000D01*
X80293750Y-59721750D01*
X80290678Y-60186000D01*
X70657186Y-60186000D01*
X70623491Y-60167990D01*
X70411051Y-60103547D01*
X70190120Y-60081787D01*
X70051189Y-60095471D01*
X70462835Y-59683825D01*
X70513470Y-59642270D01*
X70595778Y-59541977D01*
X70703371Y-59470086D01*
X70840600Y-59332857D01*
X70977829Y-59470086D01*
X71268875Y-59664557D01*
X71592268Y-59798511D01*
X71935581Y-59866800D01*
X72285619Y-59866800D01*
X72628932Y-59798511D01*
X72952325Y-59664557D01*
X73243371Y-59470086D01*
X73380600Y-59332857D01*
X73517829Y-59470086D01*
X73808875Y-59664557D01*
X74132268Y-59798511D01*
X74475581Y-59866800D01*
X74825619Y-59866800D01*
X75168932Y-59798511D01*
X75492325Y-59664557D01*
X75783371Y-59470086D01*
X76030886Y-59222571D01*
X76225357Y-58931525D01*
X76327056Y-58686000D01*
X80290678Y-58686000D01*
X80293750Y-59150250D01*
X80452500Y-59309000D01*
X81551750Y-59309000D01*
X81551750Y-58209750D01*
X81805750Y-58209750D01*
X81805750Y-59309000D01*
X82905000Y-59309000D01*
X83063750Y-59150250D01*
X83066822Y-58686000D01*
X83054562Y-58561518D01*
X83018252Y-58441820D01*
X82959287Y-58331506D01*
X82879935Y-58234815D01*
X82783244Y-58155463D01*
X82672930Y-58096498D01*
X82553232Y-58060188D01*
X82428750Y-58047928D01*
X81964500Y-58051000D01*
X81805750Y-58209750D01*
X81551750Y-58209750D01*
X81393000Y-58051000D01*
X80928750Y-58047928D01*
X80804268Y-58060188D01*
X80684570Y-58096498D01*
X80574256Y-58155463D01*
X80477565Y-58234815D01*
X80398213Y-58331506D01*
X80339248Y-58441820D01*
X80302938Y-58561518D01*
X80290678Y-58686000D01*
X76327056Y-58686000D01*
X76359311Y-58608132D01*
X76427600Y-58264819D01*
X76427600Y-57914781D01*
X76359311Y-57571468D01*
X76225357Y-57248075D01*
X76030886Y-56957029D01*
X75783371Y-56709514D01*
X75492325Y-56515043D01*
X75168932Y-56381089D01*
X74825619Y-56312800D01*
X74475581Y-56312800D01*
X74132268Y-56381089D01*
X73808875Y-56515043D01*
X73517829Y-56709514D01*
X73380600Y-56846743D01*
X73243371Y-56709514D01*
X72952325Y-56515043D01*
X72719415Y-56418568D01*
X72766764Y-56379710D01*
X72780618Y-56383912D01*
X72905100Y-56396172D01*
X73056850Y-56393100D01*
X73215600Y-56234350D01*
X73215600Y-55410100D01*
X73469600Y-55410100D01*
X73469600Y-56234350D01*
X73628350Y-56393100D01*
X73780100Y-56396172D01*
X73904582Y-56383912D01*
X74024280Y-56347602D01*
X74134594Y-56288637D01*
X74231285Y-56209285D01*
X74310637Y-56112594D01*
X74369602Y-56002280D01*
X74405912Y-55882582D01*
X74418172Y-55758100D01*
X74415100Y-55568850D01*
X74256350Y-55410100D01*
X73469600Y-55410100D01*
X73215600Y-55410100D01*
X73195600Y-55410100D01*
X73195600Y-55156100D01*
X73215600Y-55156100D01*
X73215600Y-54331850D01*
X73469600Y-54331850D01*
X73469600Y-55156100D01*
X74256350Y-55156100D01*
X74415100Y-54997350D01*
X74418172Y-54808100D01*
X74405912Y-54683618D01*
X74369602Y-54563920D01*
X74310637Y-54453606D01*
X74231285Y-54356915D01*
X74134594Y-54277563D01*
X74024280Y-54218598D01*
X73904582Y-54182288D01*
X73780100Y-54170028D01*
X73628350Y-54173100D01*
X73469600Y-54331850D01*
X73215600Y-54331850D01*
X73056850Y-54173100D01*
X72905100Y-54170028D01*
X72780618Y-54182288D01*
X72766764Y-54186490D01*
X72625386Y-54070465D01*
X72426526Y-53964171D01*
X72210750Y-53898716D01*
X71986350Y-53876615D01*
X71548850Y-53876615D01*
X71324450Y-53898716D01*
X71135280Y-53956100D01*
X71044990Y-53956100D01*
X70916598Y-53850731D01*
X70712335Y-53741550D01*
X70490697Y-53674317D01*
X70260201Y-53651615D01*
X69610199Y-53651615D01*
X69379703Y-53674317D01*
X69158065Y-53741550D01*
X68953802Y-53850731D01*
X68910200Y-53886514D01*
X68866598Y-53850731D01*
X68662335Y-53741550D01*
X68440697Y-53674317D01*
X68210201Y-53651615D01*
X67560199Y-53651615D01*
X67329703Y-53674317D01*
X67108065Y-53741550D01*
X66903802Y-53850731D01*
X66775410Y-53956100D01*
X61060081Y-53956100D01*
X61028667Y-53924686D01*
X61000112Y-53781133D01*
X60869927Y-53466839D01*
X60691303Y-53199509D01*
X60884702Y-53180461D01*
X61203080Y-53083882D01*
X61496498Y-52927047D01*
X61753682Y-52715982D01*
X61964747Y-52458798D01*
X61999753Y-52393307D01*
X62002594Y-52397629D01*
X62195574Y-52593532D01*
X62423065Y-52748022D01*
X62676324Y-52855162D01*
X62750530Y-52870120D01*
X62966600Y-52747620D01*
X62966600Y-51142900D01*
X62946600Y-51142900D01*
X62946600Y-50888900D01*
X62966600Y-50888900D01*
X62966600Y-50868900D01*
X63220600Y-50868900D01*
X63220600Y-50888900D01*
X63240600Y-50888900D01*
X63240600Y-51142900D01*
X63220600Y-51142900D01*
X63220600Y-52747620D01*
X63436670Y-52870120D01*
X63510876Y-52855162D01*
X63764135Y-52748022D01*
X63991626Y-52593532D01*
X64184606Y-52397629D01*
X64187448Y-52393306D01*
X64222454Y-52458798D01*
X64433519Y-52715982D01*
X64690703Y-52927047D01*
X64984121Y-53083882D01*
X65302499Y-53180461D01*
X65633600Y-53213072D01*
X65964702Y-53180461D01*
X66283080Y-53083882D01*
X66576498Y-52927047D01*
X66833682Y-52715982D01*
X66903601Y-52630786D01*
X66973519Y-52715982D01*
X67230703Y-52927047D01*
X67524121Y-53083882D01*
X67842499Y-53180461D01*
X68173600Y-53213072D01*
X68504702Y-53180461D01*
X68823080Y-53083882D01*
X69116498Y-52927047D01*
X69373682Y-52715982D01*
X69445013Y-52629065D01*
X69446620Y-52634364D01*
X69532699Y-52795405D01*
X69648541Y-52936559D01*
X69789695Y-53052401D01*
X69950736Y-53138480D01*
X70125476Y-53191487D01*
X70307200Y-53209385D01*
X71831200Y-53209385D01*
X72012924Y-53191487D01*
X72187664Y-53138480D01*
X72348705Y-53052401D01*
X72489859Y-52936559D01*
X72565534Y-52844348D01*
X72666303Y-52927047D01*
X72959721Y-53083882D01*
X73278099Y-53180461D01*
X73609200Y-53213072D01*
X73940302Y-53180461D01*
X74258680Y-53083882D01*
X74552098Y-52927047D01*
X74809282Y-52715982D01*
X75020347Y-52458798D01*
X75055353Y-52393307D01*
X75058194Y-52397629D01*
X75251174Y-52593532D01*
X75478665Y-52748022D01*
X75731924Y-52855162D01*
X75806130Y-52870120D01*
X76022200Y-52747620D01*
X76022200Y-51142900D01*
X76002200Y-51142900D01*
X76002200Y-50888900D01*
X76022200Y-50888900D01*
X76022200Y-50868900D01*
X76276200Y-50868900D01*
X76276200Y-50888900D01*
X76296200Y-50888900D01*
X76296200Y-51142900D01*
X76276200Y-51142900D01*
X76276200Y-52747620D01*
X76492270Y-52870120D01*
X76566476Y-52855162D01*
X76819735Y-52748022D01*
X77047226Y-52593532D01*
X77240206Y-52397629D01*
X77243048Y-52393306D01*
X77278054Y-52458798D01*
X77489119Y-52715982D01*
X77746303Y-52927047D01*
X78039721Y-53083882D01*
X78358099Y-53180461D01*
X78689200Y-53213072D01*
X79020302Y-53180461D01*
X79338680Y-53083882D01*
X79632098Y-52927047D01*
X79889282Y-52715982D01*
X79959201Y-52630786D01*
X80029119Y-52715982D01*
X80286303Y-52927047D01*
X80579721Y-53083882D01*
X80898099Y-53180461D01*
X81015590Y-53192033D01*
X80983127Y-53209385D01*
X80960723Y-53221360D01*
X80832119Y-53326902D01*
X80832116Y-53326905D01*
X80789115Y-53362195D01*
X80753825Y-53405196D01*
X79896157Y-54262865D01*
X79853156Y-54298155D01*
X79817866Y-54341156D01*
X79817862Y-54341160D01*
X79712320Y-54469764D01*
X79607670Y-54665550D01*
X79589757Y-54724601D01*
X79543227Y-54877989D01*
X79534151Y-54970134D01*
X79394444Y-55140367D01*
X79286419Y-55342469D01*
X79219897Y-55561762D01*
X79197435Y-55789820D01*
X79197435Y-56264820D01*
X79219897Y-56492878D01*
X79286419Y-56712171D01*
X79394444Y-56914273D01*
X79539823Y-57091417D01*
X79716967Y-57236796D01*
X79919069Y-57344821D01*
X80138362Y-57411343D01*
X80366420Y-57433805D01*
X80941420Y-57433805D01*
X81169478Y-57411343D01*
X81388771Y-57344821D01*
X81528920Y-57269910D01*
X81669069Y-57344821D01*
X81888362Y-57411343D01*
X82116420Y-57433805D01*
X82691420Y-57433805D01*
X82919478Y-57411343D01*
X83138771Y-57344821D01*
X83337414Y-57238645D01*
X83402404Y-57317836D01*
X83581442Y-57464769D01*
X83785705Y-57573950D01*
X84007343Y-57641183D01*
X84237839Y-57663885D01*
X84887841Y-57663885D01*
X85118337Y-57641183D01*
X85339975Y-57573950D01*
X85544238Y-57464769D01*
X85587840Y-57428986D01*
X85631442Y-57464769D01*
X85835705Y-57573950D01*
X86057343Y-57641183D01*
X86287839Y-57663885D01*
X86937841Y-57663885D01*
X87168337Y-57641183D01*
X87389975Y-57573950D01*
X87591674Y-57466140D01*
X87768622Y-57643088D01*
X88051479Y-57832087D01*
X88225195Y-57904043D01*
X88211245Y-57911499D01*
X88070091Y-58027341D01*
X87954249Y-58168495D01*
X87868170Y-58329536D01*
X87815163Y-58504276D01*
X87797265Y-58686000D01*
X87797265Y-60186000D01*
X87815163Y-60367724D01*
X87868170Y-60542464D01*
X87954249Y-60703505D01*
X88070091Y-60844659D01*
X88211245Y-60960501D01*
X88372286Y-61046580D01*
X88547026Y-61099587D01*
X88728750Y-61117485D01*
X90228750Y-61117485D01*
X90410474Y-61099587D01*
X90585214Y-61046580D01*
X90746255Y-60960501D01*
X90887409Y-60844659D01*
X91003251Y-60703505D01*
X91089330Y-60542464D01*
X91112705Y-60465407D01*
X107389520Y-60465407D01*
X107389520Y-60844993D01*
X107463573Y-61217285D01*
X107608835Y-61567977D01*
X107819721Y-61883591D01*
X108088129Y-62151999D01*
X108403743Y-62362885D01*
X108754435Y-62508147D01*
X109126727Y-62582200D01*
X109506313Y-62582200D01*
X109878605Y-62508147D01*
X110229297Y-62362885D01*
X110544911Y-62151999D01*
X110813319Y-61883591D01*
X111024205Y-61567977D01*
X111169467Y-61217285D01*
X111243520Y-60844993D01*
X111243520Y-60465407D01*
X111169467Y-60093115D01*
X111024205Y-59742423D01*
X110813319Y-59426809D01*
X110544911Y-59158401D01*
X110229297Y-58947515D01*
X109878605Y-58802253D01*
X109506313Y-58728200D01*
X109126727Y-58728200D01*
X108754435Y-58802253D01*
X108403743Y-58947515D01*
X108088129Y-59158401D01*
X107819721Y-59426809D01*
X107608835Y-59742423D01*
X107463573Y-60093115D01*
X107389520Y-60465407D01*
X91112705Y-60465407D01*
X91142337Y-60367724D01*
X91160235Y-60186000D01*
X91160235Y-58686000D01*
X91142337Y-58504276D01*
X91089330Y-58329536D01*
X91003251Y-58168495D01*
X90887409Y-58027341D01*
X90746255Y-57911499D01*
X90605750Y-57836397D01*
X90605750Y-56966224D01*
X90611202Y-56910869D01*
X90605750Y-56855515D01*
X90605750Y-56855505D01*
X90589443Y-56689939D01*
X90567503Y-56617612D01*
X90596520Y-56471735D01*
X90596520Y-56131545D01*
X90530152Y-55797893D01*
X90399967Y-55483599D01*
X90210968Y-55200742D01*
X89970418Y-54960192D01*
X89687561Y-54771193D01*
X89373267Y-54641008D01*
X89039615Y-54574640D01*
X88699425Y-54574640D01*
X88365773Y-54641008D01*
X88210317Y-54705400D01*
X87722630Y-54705400D01*
X87594238Y-54600031D01*
X87389975Y-54490850D01*
X87168337Y-54423617D01*
X86937841Y-54400915D01*
X86287839Y-54400915D01*
X86057343Y-54423617D01*
X85835705Y-54490850D01*
X85631442Y-54600031D01*
X85587840Y-54635814D01*
X85544238Y-54600031D01*
X85339975Y-54490850D01*
X85118337Y-54423617D01*
X84887841Y-54400915D01*
X84237839Y-54400915D01*
X84007343Y-54423617D01*
X83785705Y-54490850D01*
X83643281Y-54566977D01*
X84275502Y-53934756D01*
X93275680Y-53934756D01*
X93275680Y-54294644D01*
X93345891Y-54647616D01*
X93483614Y-54980109D01*
X93683556Y-55279345D01*
X93938035Y-55533824D01*
X94237271Y-55733766D01*
X94569764Y-55871489D01*
X94922736Y-55941700D01*
X95282624Y-55941700D01*
X95635596Y-55871489D01*
X95968089Y-55733766D01*
X96074981Y-55662344D01*
X96084021Y-55673359D01*
X96225175Y-55789201D01*
X96386216Y-55875280D01*
X96560956Y-55928287D01*
X96742680Y-55946185D01*
X98542680Y-55946185D01*
X98724404Y-55928287D01*
X98899144Y-55875280D01*
X99060185Y-55789201D01*
X99201339Y-55673359D01*
X99317181Y-55532205D01*
X99403260Y-55371164D01*
X99456267Y-55196424D01*
X99474165Y-55014700D01*
X99474165Y-53214700D01*
X99456267Y-53032976D01*
X99403260Y-52858236D01*
X99317181Y-52697195D01*
X99201339Y-52556041D01*
X99060185Y-52440199D01*
X98899144Y-52354120D01*
X98724404Y-52301113D01*
X98542680Y-52283215D01*
X96742680Y-52283215D01*
X96560956Y-52301113D01*
X96386216Y-52354120D01*
X96225175Y-52440199D01*
X96084021Y-52556041D01*
X96074981Y-52567056D01*
X95968089Y-52495634D01*
X95635596Y-52357911D01*
X95282624Y-52287700D01*
X94922736Y-52287700D01*
X94569764Y-52357911D01*
X94237271Y-52495634D01*
X93938035Y-52695576D01*
X93683556Y-52950055D01*
X93483614Y-53249291D01*
X93345891Y-53581784D01*
X93275680Y-53934756D01*
X84275502Y-53934756D01*
X85324524Y-52885735D01*
X85367525Y-52850445D01*
X85402815Y-52807444D01*
X85402818Y-52807441D01*
X85508360Y-52678837D01*
X85537538Y-52624248D01*
X85613010Y-52483051D01*
X85677453Y-52270611D01*
X85693760Y-52105045D01*
X85693760Y-52105035D01*
X85699212Y-52049681D01*
X85696155Y-52018634D01*
X100852396Y-52018634D01*
X100883376Y-52146555D01*
X101012510Y-52440961D01*
X101196598Y-52704517D01*
X101428566Y-52927095D01*
X101699500Y-53100142D01*
X101998988Y-53217007D01*
X102315520Y-53273200D01*
X102839520Y-53273200D01*
X102839520Y-51765200D01*
X103093520Y-51765200D01*
X103093520Y-53273200D01*
X103617520Y-53273200D01*
X103934052Y-53217007D01*
X104233540Y-53100142D01*
X104504474Y-52927095D01*
X104736442Y-52704517D01*
X104920530Y-52440961D01*
X105049664Y-52146555D01*
X105080644Y-52018634D01*
X113352396Y-52018634D01*
X113383376Y-52146555D01*
X113512510Y-52440961D01*
X113696598Y-52704517D01*
X113928566Y-52927095D01*
X114199500Y-53100142D01*
X114498988Y-53217007D01*
X114815520Y-53273200D01*
X115339520Y-53273200D01*
X115339520Y-51765200D01*
X115593520Y-51765200D01*
X115593520Y-53273200D01*
X116117520Y-53273200D01*
X116434052Y-53217007D01*
X116733540Y-53100142D01*
X117004474Y-52927095D01*
X117236442Y-52704517D01*
X117420530Y-52440961D01*
X117549664Y-52146555D01*
X117580644Y-52018634D01*
X117461297Y-51765200D01*
X115593520Y-51765200D01*
X115339520Y-51765200D01*
X113471743Y-51765200D01*
X113352396Y-52018634D01*
X105080644Y-52018634D01*
X104961297Y-51765200D01*
X103093520Y-51765200D01*
X102839520Y-51765200D01*
X100971743Y-51765200D01*
X100852396Y-52018634D01*
X85696155Y-52018634D01*
X85693760Y-51994326D01*
X85693760Y-51257766D01*
X100852396Y-51257766D01*
X100971743Y-51511200D01*
X102839520Y-51511200D01*
X102839520Y-50003200D01*
X103093520Y-50003200D01*
X103093520Y-51511200D01*
X104961297Y-51511200D01*
X105080644Y-51257766D01*
X113352396Y-51257766D01*
X113471743Y-51511200D01*
X115339520Y-51511200D01*
X115339520Y-50003200D01*
X115593520Y-50003200D01*
X115593520Y-51511200D01*
X117461297Y-51511200D01*
X117580644Y-51257766D01*
X117549664Y-51129845D01*
X117420530Y-50835439D01*
X117236442Y-50571883D01*
X117004474Y-50349305D01*
X116733540Y-50176258D01*
X116434052Y-50059393D01*
X116117520Y-50003200D01*
X115593520Y-50003200D01*
X115339520Y-50003200D01*
X114815520Y-50003200D01*
X114498988Y-50059393D01*
X114199500Y-50176258D01*
X113928566Y-50349305D01*
X113696598Y-50571883D01*
X113512510Y-50835439D01*
X113383376Y-51129845D01*
X113352396Y-51257766D01*
X105080644Y-51257766D01*
X105049664Y-51129845D01*
X104920530Y-50835439D01*
X104736442Y-50571883D01*
X104504474Y-50349305D01*
X104233540Y-50176258D01*
X103934052Y-50059393D01*
X103617520Y-50003200D01*
X103093520Y-50003200D01*
X102839520Y-50003200D01*
X102315520Y-50003200D01*
X101998988Y-50059393D01*
X101699500Y-50176258D01*
X101428566Y-50349305D01*
X101196598Y-50571883D01*
X101012510Y-50835439D01*
X100883376Y-51129845D01*
X100852396Y-51257766D01*
X85693760Y-51257766D01*
X85693760Y-47384407D01*
X107389520Y-47384407D01*
X107389520Y-47763993D01*
X107463573Y-48136285D01*
X107608835Y-48486977D01*
X107819721Y-48802591D01*
X108088129Y-49070999D01*
X108403743Y-49281885D01*
X108754435Y-49427147D01*
X109126727Y-49501200D01*
X109506313Y-49501200D01*
X109878605Y-49427147D01*
X110229297Y-49281885D01*
X110544911Y-49070999D01*
X110813319Y-48802591D01*
X111024205Y-48486977D01*
X111169467Y-48136285D01*
X111243520Y-47763993D01*
X111243520Y-47384407D01*
X111169467Y-47012115D01*
X111024205Y-46661423D01*
X110813319Y-46345809D01*
X110544911Y-46077401D01*
X110229297Y-45866515D01*
X109878605Y-45721253D01*
X109506313Y-45647200D01*
X109126727Y-45647200D01*
X108754435Y-45721253D01*
X108403743Y-45866515D01*
X108088129Y-46077401D01*
X107819721Y-46345809D01*
X107608835Y-46661423D01*
X107463573Y-47012115D01*
X107389520Y-47384407D01*
X85693760Y-47384407D01*
X85693760Y-39104007D01*
X107389520Y-39104007D01*
X107389520Y-39483593D01*
X107463573Y-39855885D01*
X107608835Y-40206577D01*
X107819721Y-40522191D01*
X108088129Y-40790599D01*
X108403743Y-41001485D01*
X108754435Y-41146747D01*
X109126727Y-41220800D01*
X109506313Y-41220800D01*
X109878605Y-41146747D01*
X110229297Y-41001485D01*
X110544911Y-40790599D01*
X110813319Y-40522191D01*
X111024205Y-40206577D01*
X111169467Y-39855885D01*
X111243520Y-39483593D01*
X111243520Y-39104007D01*
X111169467Y-38731715D01*
X111024205Y-38381023D01*
X110813319Y-38065409D01*
X110544911Y-37797001D01*
X110229297Y-37586115D01*
X109878605Y-37440853D01*
X109506313Y-37366800D01*
X109126727Y-37366800D01*
X108754435Y-37440853D01*
X108403743Y-37586115D01*
X108088129Y-37797001D01*
X107819721Y-38065409D01*
X107608835Y-38381023D01*
X107463573Y-38731715D01*
X107389520Y-39104007D01*
X85693760Y-39104007D01*
X85693760Y-35031157D01*
X85699212Y-34975800D01*
X85693760Y-34920443D01*
X85693760Y-34920435D01*
X85677453Y-34754869D01*
X85613010Y-34542429D01*
X85508360Y-34346643D01*
X85427874Y-34248570D01*
X85402818Y-34218039D01*
X85402815Y-34218036D01*
X85367525Y-34175035D01*
X85324524Y-34139745D01*
X83758135Y-32573356D01*
X93275680Y-32573356D01*
X93275680Y-32933244D01*
X93345891Y-33286216D01*
X93483614Y-33618709D01*
X93683556Y-33917945D01*
X93938035Y-34172424D01*
X94237271Y-34372366D01*
X94569764Y-34510089D01*
X94922736Y-34580300D01*
X95282624Y-34580300D01*
X95635596Y-34510089D01*
X95968089Y-34372366D01*
X96074981Y-34300944D01*
X96084021Y-34311959D01*
X96225175Y-34427801D01*
X96386216Y-34513880D01*
X96560956Y-34566887D01*
X96742680Y-34584785D01*
X98542680Y-34584785D01*
X98724404Y-34566887D01*
X98899144Y-34513880D01*
X99060185Y-34427801D01*
X99201339Y-34311959D01*
X99317181Y-34170805D01*
X99403260Y-34009764D01*
X99456267Y-33835024D01*
X99474165Y-33653300D01*
X99474165Y-31853300D01*
X99456267Y-31671576D01*
X99403260Y-31496836D01*
X99317181Y-31335795D01*
X99201339Y-31194641D01*
X99060185Y-31078799D01*
X98899144Y-30992720D01*
X98724404Y-30939713D01*
X98542680Y-30921815D01*
X96742680Y-30921815D01*
X96560956Y-30939713D01*
X96386216Y-30992720D01*
X96225175Y-31078799D01*
X96084021Y-31194641D01*
X96074981Y-31205656D01*
X95968089Y-31134234D01*
X95635596Y-30996511D01*
X95282624Y-30926300D01*
X94922736Y-30926300D01*
X94569764Y-30996511D01*
X94237271Y-31134234D01*
X93938035Y-31334176D01*
X93683556Y-31588655D01*
X93483614Y-31887891D01*
X93345891Y-32220384D01*
X93275680Y-32573356D01*
X83758135Y-32573356D01*
X83030459Y-31845681D01*
X82995165Y-31802675D01*
X82823557Y-31661840D01*
X82627771Y-31557190D01*
X82415331Y-31492747D01*
X82249765Y-31476440D01*
X82249754Y-31476440D01*
X82194400Y-31470988D01*
X82139046Y-31476440D01*
X79457400Y-31476440D01*
X79457400Y-30657234D01*
X100852396Y-30657234D01*
X100883376Y-30785155D01*
X101012510Y-31079561D01*
X101196598Y-31343117D01*
X101428566Y-31565695D01*
X101699500Y-31738742D01*
X101998988Y-31855607D01*
X102315520Y-31911800D01*
X102839520Y-31911800D01*
X102839520Y-30403800D01*
X103093520Y-30403800D01*
X103093520Y-31911800D01*
X103617520Y-31911800D01*
X103934052Y-31855607D01*
X104233540Y-31738742D01*
X104504474Y-31565695D01*
X104736442Y-31343117D01*
X104920530Y-31079561D01*
X105049664Y-30785155D01*
X105080644Y-30657234D01*
X113352396Y-30657234D01*
X113383376Y-30785155D01*
X113512510Y-31079561D01*
X113696598Y-31343117D01*
X113928566Y-31565695D01*
X114199500Y-31738742D01*
X114498988Y-31855607D01*
X114815520Y-31911800D01*
X115339520Y-31911800D01*
X115339520Y-30403800D01*
X115593520Y-30403800D01*
X115593520Y-31911800D01*
X116117520Y-31911800D01*
X116434052Y-31855607D01*
X116733540Y-31738742D01*
X117004474Y-31565695D01*
X117236442Y-31343117D01*
X117420530Y-31079561D01*
X117549664Y-30785155D01*
X117580644Y-30657234D01*
X117461297Y-30403800D01*
X115593520Y-30403800D01*
X115339520Y-30403800D01*
X113471743Y-30403800D01*
X113352396Y-30657234D01*
X105080644Y-30657234D01*
X104961297Y-30403800D01*
X103093520Y-30403800D01*
X102839520Y-30403800D01*
X100971743Y-30403800D01*
X100852396Y-30657234D01*
X79457400Y-30657234D01*
X79457400Y-29896366D01*
X100852396Y-29896366D01*
X100971743Y-30149800D01*
X102839520Y-30149800D01*
X102839520Y-28641800D01*
X103093520Y-28641800D01*
X103093520Y-30149800D01*
X104961297Y-30149800D01*
X105080644Y-29896366D01*
X113352396Y-29896366D01*
X113471743Y-30149800D01*
X115339520Y-30149800D01*
X115339520Y-28641800D01*
X115593520Y-28641800D01*
X115593520Y-30149800D01*
X117461297Y-30149800D01*
X117580644Y-29896366D01*
X117549664Y-29768445D01*
X117420530Y-29474039D01*
X117236442Y-29210483D01*
X117004474Y-28987905D01*
X116733540Y-28814858D01*
X116434052Y-28697993D01*
X116117520Y-28641800D01*
X115593520Y-28641800D01*
X115339520Y-28641800D01*
X114815520Y-28641800D01*
X114498988Y-28697993D01*
X114199500Y-28814858D01*
X113928566Y-28987905D01*
X113696598Y-29210483D01*
X113512510Y-29474039D01*
X113383376Y-29768445D01*
X113352396Y-29896366D01*
X105080644Y-29896366D01*
X105049664Y-29768445D01*
X104920530Y-29474039D01*
X104736442Y-29210483D01*
X104504474Y-28987905D01*
X104233540Y-28814858D01*
X103934052Y-28697993D01*
X103617520Y-28641800D01*
X103093520Y-28641800D01*
X102839520Y-28641800D01*
X102315520Y-28641800D01*
X101998988Y-28697993D01*
X101699500Y-28814858D01*
X101428566Y-28987905D01*
X101196598Y-29210483D01*
X101012510Y-29474039D01*
X100883376Y-29768445D01*
X100852396Y-29896366D01*
X79457400Y-29896366D01*
X79457400Y-29539334D01*
X79463819Y-29474160D01*
X79457400Y-29408986D01*
X79457400Y-29408976D01*
X79438199Y-29214023D01*
X79362319Y-28963882D01*
X79282664Y-28814858D01*
X79239098Y-28733351D01*
X79114822Y-28581921D01*
X79114821Y-28581920D01*
X79073270Y-28531290D01*
X79022640Y-28489739D01*
X78175025Y-27642125D01*
X78133470Y-27591490D01*
X77931408Y-27425662D01*
X77700878Y-27302441D01*
X77450737Y-27226561D01*
X77255784Y-27207360D01*
X77255774Y-27207360D01*
X77190600Y-27200941D01*
X77125426Y-27207360D01*
X74951596Y-27207360D01*
X75040185Y-27074777D01*
X75185447Y-26724085D01*
X75259500Y-26351793D01*
X75259500Y-26023007D01*
X107389520Y-26023007D01*
X107389520Y-26402593D01*
X107463573Y-26774885D01*
X107608835Y-27125577D01*
X107819721Y-27441191D01*
X108088129Y-27709599D01*
X108403743Y-27920485D01*
X108754435Y-28065747D01*
X109126727Y-28139800D01*
X109506313Y-28139800D01*
X109878605Y-28065747D01*
X110229297Y-27920485D01*
X110544911Y-27709599D01*
X110813319Y-27441191D01*
X111024205Y-27125577D01*
X111169467Y-26774885D01*
X111243520Y-26402593D01*
X111243520Y-26023007D01*
X111169467Y-25650715D01*
X111024205Y-25300023D01*
X110813319Y-24984409D01*
X110544911Y-24716001D01*
X110229297Y-24505115D01*
X109878605Y-24359853D01*
X109506313Y-24285800D01*
X109126727Y-24285800D01*
X108754435Y-24359853D01*
X108403743Y-24505115D01*
X108088129Y-24716001D01*
X107819721Y-24984409D01*
X107608835Y-25300023D01*
X107463573Y-25650715D01*
X107389520Y-26023007D01*
X75259500Y-26023007D01*
X75259500Y-25972207D01*
X75185447Y-25599915D01*
X75040185Y-25249223D01*
X74829299Y-24933609D01*
X74560891Y-24665201D01*
X74245277Y-24454315D01*
X73894585Y-24309053D01*
X73522293Y-24235000D01*
X73142707Y-24235000D01*
X72770415Y-24309053D01*
X72419723Y-24454315D01*
X72104109Y-24665201D01*
X71835701Y-24933609D01*
X71624815Y-25249223D01*
X71479553Y-25599915D01*
X71405500Y-25972207D01*
X71405500Y-26351793D01*
X71479553Y-26724085D01*
X71624815Y-27074777D01*
X71713404Y-27207360D01*
X68654521Y-27207360D01*
X67663985Y-26216825D01*
X67663985Y-25162000D01*
X67646087Y-24980276D01*
X67593080Y-24805536D01*
X67507001Y-24644495D01*
X67391159Y-24503341D01*
X67250005Y-24387499D01*
X67088964Y-24301420D01*
X66914224Y-24248413D01*
X66732500Y-24230515D01*
X64732500Y-24230515D01*
X64550776Y-24248413D01*
X64376036Y-24301420D01*
X64214995Y-24387499D01*
X64073841Y-24503341D01*
X63957999Y-24644495D01*
X63871920Y-24805536D01*
X63818913Y-24980276D01*
X63801015Y-25162000D01*
X63801015Y-27162000D01*
X63818913Y-27343724D01*
X63871920Y-27518464D01*
X63957999Y-27679505D01*
X64073841Y-27820659D01*
X64214995Y-27936501D01*
X64376036Y-28022580D01*
X64550776Y-28075587D01*
X64732500Y-28093485D01*
X65787325Y-28093485D01*
X66859539Y-29165700D01*
X51864546Y-29165700D01*
X51850098Y-29151252D01*
X51567241Y-28962253D01*
X51252947Y-28832068D01*
X50919295Y-28765700D01*
X50579105Y-28765700D01*
X50245453Y-28832068D01*
X49931159Y-28962253D01*
X49648302Y-29151252D01*
X49407752Y-29391802D01*
X49218753Y-29674659D01*
X49088568Y-29988953D01*
X49022200Y-30322605D01*
X49022200Y-30662795D01*
X49088568Y-30996447D01*
X49218753Y-31310741D01*
X49407752Y-31593598D01*
X49648302Y-31834148D01*
X49931159Y-32023147D01*
X50245453Y-32153332D01*
X50579105Y-32219700D01*
X50919295Y-32219700D01*
X51252947Y-32153332D01*
X51567241Y-32023147D01*
X51850098Y-31834148D01*
X51864546Y-31819700D01*
X56200418Y-31819700D01*
X56019962Y-31874441D01*
X55920133Y-31927801D01*
X55789431Y-31997662D01*
X55638001Y-32121937D01*
X55637994Y-32121944D01*
X55587370Y-32163490D01*
X55545824Y-32214114D01*
X48850800Y-38909140D01*
X48512580Y-38909140D01*
X48512580Y-36149566D01*
X48527028Y-36135118D01*
X48716027Y-35852261D01*
X48846212Y-35537967D01*
X48912580Y-35204315D01*
X48912580Y-34864125D01*
X48846212Y-34530473D01*
X48716027Y-34216179D01*
X48543023Y-33957260D01*
X48716027Y-33698341D01*
X48846212Y-33384047D01*
X48912580Y-33050395D01*
X48912580Y-32710205D01*
X48846212Y-32376553D01*
X48716027Y-32062259D01*
X48527028Y-31779402D01*
X48286478Y-31538852D01*
X48003621Y-31349853D01*
X47689327Y-31219668D01*
X47355675Y-31153300D01*
X47015485Y-31153300D01*
X46681833Y-31219668D01*
X46367539Y-31349853D01*
X46084682Y-31538852D01*
X45844132Y-31779402D01*
X45655133Y-32062259D01*
X45647068Y-32081730D01*
X45586466Y-31935424D01*
X45386524Y-31636188D01*
X45132045Y-31381709D01*
X44832809Y-31181767D01*
X44500316Y-31044044D01*
X44147344Y-30973833D01*
X43787456Y-30973833D01*
X43434484Y-31044044D01*
X43101991Y-31181767D01*
X42995099Y-31253189D01*
X42986059Y-31242174D01*
X42844905Y-31126332D01*
X42683864Y-31040253D01*
X42509124Y-30987246D01*
X42327400Y-30969348D01*
X40527400Y-30969348D01*
X40345676Y-30987246D01*
X40170936Y-31040253D01*
X40009895Y-31126332D01*
X39868741Y-31242174D01*
X39752899Y-31383328D01*
X39666820Y-31544369D01*
X39613813Y-31719109D01*
X39595915Y-31900833D01*
X39595915Y-33700833D01*
X39613813Y-33882557D01*
X39666820Y-34057297D01*
X39752899Y-34218338D01*
X39868741Y-34359492D01*
X40009895Y-34475334D01*
X40170936Y-34561413D01*
X40345676Y-34614420D01*
X40527400Y-34632318D01*
X42327400Y-34632318D01*
X42509124Y-34614420D01*
X42683864Y-34561413D01*
X42844905Y-34475334D01*
X42986059Y-34359492D01*
X42995099Y-34348477D01*
X43101991Y-34419899D01*
X43434484Y-34557622D01*
X43787456Y-34627833D01*
X44147344Y-34627833D01*
X44500316Y-34557622D01*
X44832809Y-34419899D01*
X45132045Y-34219957D01*
X45386524Y-33965478D01*
X45586466Y-33666242D01*
X45614152Y-33599403D01*
X45655133Y-33698341D01*
X45828137Y-33957260D01*
X45655133Y-34216179D01*
X45524948Y-34530473D01*
X45458580Y-34864125D01*
X45458580Y-35204315D01*
X45524948Y-35537967D01*
X45655133Y-35852261D01*
X45844132Y-36135118D01*
X45858581Y-36149567D01*
X45858580Y-40170956D01*
X45852160Y-40236140D01*
X45858580Y-40301323D01*
X45858581Y-41901358D01*
X44548365Y-43211575D01*
X44497730Y-43253130D01*
X44423763Y-43343259D01*
X44331902Y-43455192D01*
X44236139Y-43634353D01*
X44208681Y-43685723D01*
X44132801Y-43935864D01*
X44113600Y-44130817D01*
X44113600Y-44130826D01*
X44107181Y-44196000D01*
X44113600Y-44261174D01*
X44113601Y-48738367D01*
X44113600Y-48738377D01*
X44113600Y-48738386D01*
X44107181Y-48803560D01*
X44113600Y-48868734D01*
X44113600Y-49561346D01*
X44107181Y-49626520D01*
X44113600Y-49691694D01*
X44113600Y-49691704D01*
X44132801Y-49886657D01*
X44208681Y-50136798D01*
X44331902Y-50367328D01*
X44420240Y-50474967D01*
X44497731Y-50569390D01*
X44548360Y-50610940D01*
X44715240Y-50777820D01*
X44592768Y-51073493D01*
X44526400Y-51407145D01*
X44526400Y-51747335D01*
X44592768Y-52080987D01*
X44722953Y-52395281D01*
X44769739Y-52465301D01*
X44510476Y-52357911D01*
X44157504Y-52287700D01*
X43797616Y-52287700D01*
X43444644Y-52357911D01*
X43112151Y-52495634D01*
X43005259Y-52567056D01*
X42996219Y-52556041D01*
X42855065Y-52440199D01*
X42694024Y-52354120D01*
X42519284Y-52301113D01*
X42337560Y-52283215D01*
X40537560Y-52283215D01*
X40355836Y-52301113D01*
X40181096Y-52354120D01*
X40020055Y-52440199D01*
X39878901Y-52556041D01*
X39763059Y-52697195D01*
X39676980Y-52858236D01*
X39623973Y-53032976D01*
X39606075Y-53214700D01*
X39606075Y-55014700D01*
X39623973Y-55196424D01*
X39676980Y-55371164D01*
X39763059Y-55532205D01*
X39878901Y-55673359D01*
X40020055Y-55789201D01*
X40181096Y-55875280D01*
X40355836Y-55928287D01*
X40537560Y-55946185D01*
X41790874Y-55946185D01*
X38408860Y-59328200D01*
X31380350Y-59328200D01*
X31210551Y-59158401D01*
X30894937Y-58947515D01*
X30544245Y-58802253D01*
X30171953Y-58728200D01*
X29792367Y-58728200D01*
X29420075Y-58802253D01*
X29069383Y-58947515D01*
X28753769Y-59158401D01*
X28485361Y-59426809D01*
X28274475Y-59742423D01*
X28129213Y-60093115D01*
X28055160Y-60465407D01*
X28055160Y-60844993D01*
X28129213Y-61217285D01*
X28274475Y-61567977D01*
X28485361Y-61883591D01*
X28753769Y-62151999D01*
X29069383Y-62362885D01*
X29420075Y-62508147D01*
X29792367Y-62582200D01*
X30171953Y-62582200D01*
X30544245Y-62508147D01*
X30894937Y-62362885D01*
X31210551Y-62151999D01*
X31380350Y-61982200D01*
X38893346Y-61982200D01*
X38958520Y-61988619D01*
X39023694Y-61982200D01*
X39023704Y-61982200D01*
X39218657Y-61962999D01*
X39468798Y-61887119D01*
X39699328Y-61763898D01*
X39901390Y-61598070D01*
X39942945Y-61547435D01*
X44869801Y-56620580D01*
X44920430Y-56579030D01*
X44926401Y-56571755D01*
X44926401Y-60036296D01*
X44919981Y-60101480D01*
X44945602Y-60361617D01*
X45021481Y-60611757D01*
X45144702Y-60842288D01*
X45268978Y-60993718D01*
X45310531Y-61044350D01*
X45361160Y-61085901D01*
X48210303Y-63935045D01*
X48251850Y-63985670D01*
X48302474Y-64027216D01*
X48302481Y-64027223D01*
X48453911Y-64151498D01*
X48555128Y-64205599D01*
X48684442Y-64274719D01*
X48934583Y-64350599D01*
X49129536Y-64369800D01*
X49129546Y-64369800D01*
X49194720Y-64376219D01*
X49259894Y-64369800D01*
X62667746Y-64369800D01*
X62732920Y-64376219D01*
X62798094Y-64369800D01*
X62798104Y-64369800D01*
X62993057Y-64350599D01*
X63243198Y-64274719D01*
X63473728Y-64151498D01*
X63675790Y-63985670D01*
X63717345Y-63935035D01*
X64491621Y-63160760D01*
X65713635Y-63160760D01*
X65713635Y-64242824D01*
X65680479Y-64246090D01*
X65406776Y-64329117D01*
X65154530Y-64463945D01*
X64933435Y-64645394D01*
X64751985Y-64866489D01*
X64617157Y-65118735D01*
X64534130Y-65392438D01*
X64513120Y-65605755D01*
X64513120Y-65628330D01*
X64460215Y-65802736D01*
X64430732Y-66102080D01*
X64460215Y-66401424D01*
X64513120Y-66575830D01*
X64513120Y-66598404D01*
X64534130Y-66811721D01*
X64617157Y-67085424D01*
X64703521Y-67247000D01*
X25637956Y-67247000D01*
X25835737Y-67049219D01*
X26183421Y-66528874D01*
X26422910Y-65950697D01*
X26545000Y-65336907D01*
X26545000Y-64711093D01*
X26422910Y-64097303D01*
X26183421Y-63519126D01*
X25835737Y-62998781D01*
X25393219Y-62556263D01*
X24872874Y-62208579D01*
X24294697Y-61969090D01*
X23680907Y-61847000D01*
X23055093Y-61847000D01*
X22441303Y-61969090D01*
X21863126Y-62208579D01*
X21342781Y-62556263D01*
X21145000Y-62754044D01*
X21145000Y-56638200D01*
X21171837Y-56638200D01*
X21209043Y-57015958D01*
X21319231Y-57379199D01*
X21498166Y-57713963D01*
X21738973Y-58007387D01*
X22032397Y-58248194D01*
X22367161Y-58427129D01*
X22730402Y-58537317D01*
X23013502Y-58565200D01*
X24250818Y-58565200D01*
X24533918Y-58537317D01*
X24897159Y-58427129D01*
X25231923Y-58248194D01*
X25525347Y-58007387D01*
X25559969Y-57965200D01*
X34204351Y-57965200D01*
X34238973Y-58007387D01*
X34532397Y-58248194D01*
X34867161Y-58427129D01*
X35230402Y-58537317D01*
X35513502Y-58565200D01*
X36750818Y-58565200D01*
X37033918Y-58537317D01*
X37397159Y-58427129D01*
X37731923Y-58248194D01*
X38025347Y-58007387D01*
X38266154Y-57713963D01*
X38445089Y-57379199D01*
X38555277Y-57015958D01*
X38592483Y-56638200D01*
X38555277Y-56260442D01*
X38445089Y-55897201D01*
X38266154Y-55562437D01*
X38025347Y-55269013D01*
X37731923Y-55028206D01*
X37397159Y-54849271D01*
X37033918Y-54739083D01*
X36750818Y-54711200D01*
X35513502Y-54711200D01*
X35230402Y-54739083D01*
X34867161Y-54849271D01*
X34532397Y-55028206D01*
X34238973Y-55269013D01*
X34204351Y-55311200D01*
X25559969Y-55311200D01*
X25525347Y-55269013D01*
X25231923Y-55028206D01*
X24897159Y-54849271D01*
X24533918Y-54739083D01*
X24250818Y-54711200D01*
X23013502Y-54711200D01*
X22730402Y-54739083D01*
X22367161Y-54849271D01*
X22032397Y-55028206D01*
X21738973Y-55269013D01*
X21498166Y-55562437D01*
X21319231Y-55897201D01*
X21209043Y-56260442D01*
X21171837Y-56638200D01*
X21145000Y-56638200D01*
X21145000Y-52018634D01*
X21518036Y-52018634D01*
X21549016Y-52146555D01*
X21678150Y-52440961D01*
X21862238Y-52704517D01*
X22094206Y-52927095D01*
X22365140Y-53100142D01*
X22664628Y-53217007D01*
X22981160Y-53273200D01*
X23505160Y-53273200D01*
X23505160Y-51765200D01*
X23759160Y-51765200D01*
X23759160Y-53273200D01*
X24283160Y-53273200D01*
X24599692Y-53217007D01*
X24899180Y-53100142D01*
X25170114Y-52927095D01*
X25402082Y-52704517D01*
X25586170Y-52440961D01*
X25715304Y-52146555D01*
X25746284Y-52018634D01*
X34018036Y-52018634D01*
X34049016Y-52146555D01*
X34178150Y-52440961D01*
X34362238Y-52704517D01*
X34594206Y-52927095D01*
X34865140Y-53100142D01*
X35164628Y-53217007D01*
X35481160Y-53273200D01*
X36005160Y-53273200D01*
X36005160Y-51765200D01*
X36259160Y-51765200D01*
X36259160Y-53273200D01*
X36783160Y-53273200D01*
X37099692Y-53217007D01*
X37399180Y-53100142D01*
X37670114Y-52927095D01*
X37902082Y-52704517D01*
X38086170Y-52440961D01*
X38215304Y-52146555D01*
X38246284Y-52018634D01*
X38126937Y-51765200D01*
X36259160Y-51765200D01*
X36005160Y-51765200D01*
X34137383Y-51765200D01*
X34018036Y-52018634D01*
X25746284Y-52018634D01*
X25626937Y-51765200D01*
X23759160Y-51765200D01*
X23505160Y-51765200D01*
X21637383Y-51765200D01*
X21518036Y-52018634D01*
X21145000Y-52018634D01*
X21145000Y-51257766D01*
X21518036Y-51257766D01*
X21637383Y-51511200D01*
X23505160Y-51511200D01*
X23505160Y-50003200D01*
X23759160Y-50003200D01*
X23759160Y-51511200D01*
X25626937Y-51511200D01*
X25746284Y-51257766D01*
X34018036Y-51257766D01*
X34137383Y-51511200D01*
X36005160Y-51511200D01*
X36005160Y-50003200D01*
X36259160Y-50003200D01*
X36259160Y-51511200D01*
X38126937Y-51511200D01*
X38246284Y-51257766D01*
X38215304Y-51129845D01*
X38086170Y-50835439D01*
X37902082Y-50571883D01*
X37670114Y-50349305D01*
X37399180Y-50176258D01*
X37099692Y-50059393D01*
X36783160Y-50003200D01*
X36259160Y-50003200D01*
X36005160Y-50003200D01*
X35481160Y-50003200D01*
X35164628Y-50059393D01*
X34865140Y-50176258D01*
X34594206Y-50349305D01*
X34362238Y-50571883D01*
X34178150Y-50835439D01*
X34049016Y-51129845D01*
X34018036Y-51257766D01*
X25746284Y-51257766D01*
X25715304Y-51129845D01*
X25586170Y-50835439D01*
X25402082Y-50571883D01*
X25170114Y-50349305D01*
X24899180Y-50176258D01*
X24599692Y-50059393D01*
X24283160Y-50003200D01*
X23759160Y-50003200D01*
X23505160Y-50003200D01*
X22981160Y-50003200D01*
X22664628Y-50059393D01*
X22365140Y-50176258D01*
X22094206Y-50349305D01*
X21862238Y-50571883D01*
X21678150Y-50835439D01*
X21549016Y-51129845D01*
X21518036Y-51257766D01*
X21145000Y-51257766D01*
X21145000Y-47384407D01*
X28055160Y-47384407D01*
X28055160Y-47763993D01*
X28129213Y-48136285D01*
X28274475Y-48486977D01*
X28485361Y-48802591D01*
X28753769Y-49070999D01*
X29069383Y-49281885D01*
X29420075Y-49427147D01*
X29792367Y-49501200D01*
X30171953Y-49501200D01*
X30544245Y-49427147D01*
X30894937Y-49281885D01*
X31210551Y-49070999D01*
X31478959Y-48802591D01*
X31689845Y-48486977D01*
X31835107Y-48136285D01*
X31909160Y-47763993D01*
X31909160Y-47384407D01*
X31835107Y-47012115D01*
X31689845Y-46661423D01*
X31478959Y-46345809D01*
X31210551Y-46077401D01*
X30894937Y-45866515D01*
X30544245Y-45721253D01*
X30171953Y-45647200D01*
X29792367Y-45647200D01*
X29420075Y-45721253D01*
X29069383Y-45866515D01*
X28753769Y-46077401D01*
X28485361Y-46345809D01*
X28274475Y-46661423D01*
X28129213Y-47012115D01*
X28055160Y-47384407D01*
X21145000Y-47384407D01*
X21145000Y-39151540D01*
X28055160Y-39151540D01*
X28055160Y-39531126D01*
X28129213Y-39903418D01*
X28274475Y-40254110D01*
X28485361Y-40569724D01*
X28753769Y-40838132D01*
X29069383Y-41049018D01*
X29420075Y-41194280D01*
X29792367Y-41268333D01*
X30171953Y-41268333D01*
X30544245Y-41194280D01*
X30894937Y-41049018D01*
X31210551Y-40838132D01*
X31478959Y-40569724D01*
X31689845Y-40254110D01*
X31835107Y-39903418D01*
X31909160Y-39531126D01*
X31909160Y-39151540D01*
X31835107Y-38779248D01*
X31689845Y-38428556D01*
X31478959Y-38112942D01*
X31210551Y-37844534D01*
X30894937Y-37633648D01*
X30544245Y-37488386D01*
X30171953Y-37414333D01*
X29792367Y-37414333D01*
X29420075Y-37488386D01*
X29069383Y-37633648D01*
X28753769Y-37844534D01*
X28485361Y-38112942D01*
X28274475Y-38428556D01*
X28129213Y-38779248D01*
X28055160Y-39151540D01*
X21145000Y-39151540D01*
X21145000Y-35324333D01*
X21171837Y-35324333D01*
X21209043Y-35702091D01*
X21319231Y-36065332D01*
X21498166Y-36400096D01*
X21738973Y-36693520D01*
X22032397Y-36934327D01*
X22367161Y-37113262D01*
X22730402Y-37223450D01*
X23013502Y-37251333D01*
X24250818Y-37251333D01*
X24533918Y-37223450D01*
X24897159Y-37113262D01*
X25231923Y-36934327D01*
X25525347Y-36693520D01*
X25559969Y-36651333D01*
X34204351Y-36651333D01*
X34238973Y-36693520D01*
X34532397Y-36934327D01*
X34867161Y-37113262D01*
X35230402Y-37223450D01*
X35513502Y-37251333D01*
X36750818Y-37251333D01*
X37033918Y-37223450D01*
X37397159Y-37113262D01*
X37731923Y-36934327D01*
X38025347Y-36693520D01*
X38266154Y-36400096D01*
X38445089Y-36065332D01*
X38555277Y-35702091D01*
X38592483Y-35324333D01*
X38555277Y-34946575D01*
X38445089Y-34583334D01*
X38266154Y-34248570D01*
X38025347Y-33955146D01*
X37731923Y-33714339D01*
X37397159Y-33535404D01*
X37033918Y-33425216D01*
X36750818Y-33397333D01*
X35513502Y-33397333D01*
X35230402Y-33425216D01*
X34867161Y-33535404D01*
X34532397Y-33714339D01*
X34238973Y-33955146D01*
X34204351Y-33997333D01*
X25559969Y-33997333D01*
X25525347Y-33955146D01*
X25231923Y-33714339D01*
X24897159Y-33535404D01*
X24533918Y-33425216D01*
X24250818Y-33397333D01*
X23013502Y-33397333D01*
X22730402Y-33425216D01*
X22367161Y-33535404D01*
X22032397Y-33714339D01*
X21738973Y-33955146D01*
X21498166Y-34248570D01*
X21319231Y-34583334D01*
X21209043Y-34946575D01*
X21171837Y-35324333D01*
X21145000Y-35324333D01*
X21145000Y-30704767D01*
X21518036Y-30704767D01*
X21549016Y-30832688D01*
X21678150Y-31127094D01*
X21862238Y-31390650D01*
X22094206Y-31613228D01*
X22365140Y-31786275D01*
X22664628Y-31903140D01*
X22981160Y-31959333D01*
X23505160Y-31959333D01*
X23505160Y-30451333D01*
X23759160Y-30451333D01*
X23759160Y-31959333D01*
X24283160Y-31959333D01*
X24599692Y-31903140D01*
X24899180Y-31786275D01*
X25170114Y-31613228D01*
X25402082Y-31390650D01*
X25586170Y-31127094D01*
X25715304Y-30832688D01*
X25746284Y-30704767D01*
X34018036Y-30704767D01*
X34049016Y-30832688D01*
X34178150Y-31127094D01*
X34362238Y-31390650D01*
X34594206Y-31613228D01*
X34865140Y-31786275D01*
X35164628Y-31903140D01*
X35481160Y-31959333D01*
X36005160Y-31959333D01*
X36005160Y-30451333D01*
X36259160Y-30451333D01*
X36259160Y-31959333D01*
X36783160Y-31959333D01*
X37099692Y-31903140D01*
X37399180Y-31786275D01*
X37670114Y-31613228D01*
X37902082Y-31390650D01*
X38086170Y-31127094D01*
X38215304Y-30832688D01*
X38246284Y-30704767D01*
X38126937Y-30451333D01*
X36259160Y-30451333D01*
X36005160Y-30451333D01*
X34137383Y-30451333D01*
X34018036Y-30704767D01*
X25746284Y-30704767D01*
X25626937Y-30451333D01*
X23759160Y-30451333D01*
X23505160Y-30451333D01*
X21637383Y-30451333D01*
X21518036Y-30704767D01*
X21145000Y-30704767D01*
X21145000Y-29943899D01*
X21518036Y-29943899D01*
X21637383Y-30197333D01*
X23505160Y-30197333D01*
X23505160Y-28689333D01*
X23759160Y-28689333D01*
X23759160Y-30197333D01*
X25626937Y-30197333D01*
X25746284Y-29943899D01*
X34018036Y-29943899D01*
X34137383Y-30197333D01*
X36005160Y-30197333D01*
X36005160Y-28689333D01*
X36259160Y-28689333D01*
X36259160Y-30197333D01*
X38126937Y-30197333D01*
X38246284Y-29943899D01*
X38215304Y-29815978D01*
X38086170Y-29521572D01*
X37902082Y-29258016D01*
X37670114Y-29035438D01*
X37399180Y-28862391D01*
X37099692Y-28745526D01*
X36783160Y-28689333D01*
X36259160Y-28689333D01*
X36005160Y-28689333D01*
X35481160Y-28689333D01*
X35164628Y-28745526D01*
X34865140Y-28862391D01*
X34594206Y-29035438D01*
X34362238Y-29258016D01*
X34178150Y-29521572D01*
X34049016Y-29815978D01*
X34018036Y-29943899D01*
X25746284Y-29943899D01*
X25715304Y-29815978D01*
X25586170Y-29521572D01*
X25402082Y-29258016D01*
X25170114Y-29035438D01*
X24899180Y-28862391D01*
X24599692Y-28745526D01*
X24283160Y-28689333D01*
X23759160Y-28689333D01*
X23505160Y-28689333D01*
X22981160Y-28689333D01*
X22664628Y-28745526D01*
X22365140Y-28862391D01*
X22094206Y-29035438D01*
X21862238Y-29258016D01*
X21678150Y-29521572D01*
X21549016Y-29815978D01*
X21518036Y-29943899D01*
X21145000Y-29943899D01*
X21145000Y-26070540D01*
X28055160Y-26070540D01*
X28055160Y-26450126D01*
X28129213Y-26822418D01*
X28274475Y-27173110D01*
X28485361Y-27488724D01*
X28753769Y-27757132D01*
X29069383Y-27968018D01*
X29420075Y-28113280D01*
X29792367Y-28187333D01*
X30171953Y-28187333D01*
X30544245Y-28113280D01*
X30894937Y-27968018D01*
X31210551Y-27757132D01*
X31478959Y-27488724D01*
X31689845Y-27173110D01*
X31835107Y-26822418D01*
X31909160Y-26450126D01*
X31909160Y-26070540D01*
X31835107Y-25698248D01*
X31689845Y-25347556D01*
X31478959Y-25031942D01*
X31210551Y-24763534D01*
X30894937Y-24552648D01*
X30544245Y-24407386D01*
X30171953Y-24333333D01*
X29792367Y-24333333D01*
X29420075Y-24407386D01*
X29069383Y-24552648D01*
X28753769Y-24763534D01*
X28485361Y-25031942D01*
X28274475Y-25347556D01*
X28129213Y-25698248D01*
X28055160Y-26070540D01*
X21145000Y-26070540D01*
X21145000Y-24494956D01*
X21342781Y-24692737D01*
X21863126Y-25040421D01*
X22441303Y-25279910D01*
X23055093Y-25402000D01*
X23680907Y-25402000D01*
X24294697Y-25279910D01*
X24872874Y-25040421D01*
X25393219Y-24692737D01*
X25835737Y-24250219D01*
X26183421Y-23729874D01*
X26422910Y-23151697D01*
X26545000Y-22537907D01*
X26545000Y-21912093D01*
X26422910Y-21298303D01*
X26183421Y-20720126D01*
X25835737Y-20199781D01*
X25637956Y-20002000D01*
X113427044Y-20002000D01*
X113229263Y-20199781D01*
G04 #@! TA.AperFunction,Conductor*
D34*
G36*
X113229263Y-20199781D02*
G01*
X112881579Y-20720126D01*
X112642090Y-21298303D01*
X112520000Y-21912093D01*
X112520000Y-22537907D01*
X112642090Y-23151697D01*
X112881579Y-23729874D01*
X113229263Y-24250219D01*
X113671781Y-24692737D01*
X114192126Y-25040421D01*
X114770303Y-25279910D01*
X115384093Y-25402000D01*
X116009907Y-25402000D01*
X116623697Y-25279910D01*
X117201874Y-25040421D01*
X117722219Y-24692737D01*
X117920000Y-24494956D01*
X117920000Y-35207325D01*
X117889637Y-34899042D01*
X117779449Y-34535801D01*
X117600514Y-34201037D01*
X117359707Y-33907613D01*
X117066283Y-33666806D01*
X116731519Y-33487871D01*
X116368278Y-33377683D01*
X116085178Y-33349800D01*
X114847862Y-33349800D01*
X114564762Y-33377683D01*
X114201521Y-33487871D01*
X113866757Y-33666806D01*
X113573333Y-33907613D01*
X113538711Y-33949800D01*
X104894329Y-33949800D01*
X104859707Y-33907613D01*
X104566283Y-33666806D01*
X104231519Y-33487871D01*
X103868278Y-33377683D01*
X103585178Y-33349800D01*
X102347862Y-33349800D01*
X102064762Y-33377683D01*
X101701521Y-33487871D01*
X101366757Y-33666806D01*
X101073333Y-33907613D01*
X100832526Y-34201037D01*
X100653591Y-34535801D01*
X100543403Y-34899042D01*
X100506197Y-35276800D01*
X100543403Y-35654558D01*
X100653591Y-36017799D01*
X100832526Y-36352563D01*
X101073333Y-36645987D01*
X101366757Y-36886794D01*
X101701521Y-37065729D01*
X102064762Y-37175917D01*
X102347862Y-37203800D01*
X103585178Y-37203800D01*
X103868278Y-37175917D01*
X104231519Y-37065729D01*
X104566283Y-36886794D01*
X104859707Y-36645987D01*
X104894329Y-36603800D01*
X113538711Y-36603800D01*
X113573333Y-36645987D01*
X113866757Y-36886794D01*
X114201521Y-37065729D01*
X114564762Y-37175917D01*
X114847862Y-37203800D01*
X116085178Y-37203800D01*
X116368278Y-37175917D01*
X116731519Y-37065729D01*
X117066283Y-36886794D01*
X117359707Y-36645987D01*
X117600514Y-36352563D01*
X117779449Y-36017799D01*
X117889637Y-35654558D01*
X117920000Y-35346275D01*
X117920001Y-56568730D01*
X117889637Y-56260442D01*
X117779449Y-55897201D01*
X117600514Y-55562437D01*
X117359707Y-55269013D01*
X117066283Y-55028206D01*
X116731519Y-54849271D01*
X116368278Y-54739083D01*
X116085178Y-54711200D01*
X114847862Y-54711200D01*
X114564762Y-54739083D01*
X114201521Y-54849271D01*
X113866757Y-55028206D01*
X113573333Y-55269013D01*
X113538711Y-55311200D01*
X104894329Y-55311200D01*
X104859707Y-55269013D01*
X104566283Y-55028206D01*
X104231519Y-54849271D01*
X103868278Y-54739083D01*
X103585178Y-54711200D01*
X102347862Y-54711200D01*
X102064762Y-54739083D01*
X101701521Y-54849271D01*
X101366757Y-55028206D01*
X101073333Y-55269013D01*
X100832526Y-55562437D01*
X100653591Y-55897201D01*
X100543403Y-56260442D01*
X100506197Y-56638200D01*
X100543403Y-57015958D01*
X100653591Y-57379199D01*
X100832526Y-57713963D01*
X101073333Y-58007387D01*
X101366757Y-58248194D01*
X101701521Y-58427129D01*
X102064762Y-58537317D01*
X102347862Y-58565200D01*
X103585178Y-58565200D01*
X103868278Y-58537317D01*
X104231519Y-58427129D01*
X104566283Y-58248194D01*
X104859707Y-58007387D01*
X104894329Y-57965200D01*
X113538711Y-57965200D01*
X113573333Y-58007387D01*
X113866757Y-58248194D01*
X114201521Y-58427129D01*
X114564762Y-58537317D01*
X114847862Y-58565200D01*
X116085178Y-58565200D01*
X116368278Y-58537317D01*
X116731519Y-58427129D01*
X117066283Y-58248194D01*
X117359707Y-58007387D01*
X117600514Y-57713963D01*
X117779449Y-57379199D01*
X117889637Y-57015958D01*
X117920001Y-56707670D01*
X117920001Y-62754045D01*
X117722219Y-62556263D01*
X117201874Y-62208579D01*
X116623697Y-61969090D01*
X116009907Y-61847000D01*
X115384093Y-61847000D01*
X114770303Y-61969090D01*
X114192126Y-62208579D01*
X113671781Y-62556263D01*
X113229263Y-62998781D01*
X112881579Y-63519126D01*
X112642090Y-64097303D01*
X112520000Y-64711093D01*
X112520000Y-65336907D01*
X112642090Y-65950697D01*
X112881579Y-66528874D01*
X113229263Y-67049219D01*
X113427044Y-67247000D01*
X74376720Y-67247000D01*
X74463083Y-67085425D01*
X74546110Y-66811722D01*
X74567120Y-66598404D01*
X74567120Y-66575830D01*
X74620025Y-66401424D01*
X74649508Y-66102080D01*
X74620025Y-65802736D01*
X74567120Y-65628330D01*
X74567120Y-65605755D01*
X74546110Y-65392438D01*
X74463083Y-65118735D01*
X74328255Y-64866489D01*
X74146805Y-64645394D01*
X73925710Y-64463945D01*
X73673464Y-64329117D01*
X73399761Y-64246090D01*
X73366605Y-64242824D01*
X73366605Y-63147080D01*
X73348707Y-62965356D01*
X73295700Y-62790616D01*
X73209621Y-62629575D01*
X73093779Y-62488421D01*
X72952625Y-62372579D01*
X72791584Y-62286500D01*
X72616844Y-62233493D01*
X72435120Y-62215595D01*
X71382041Y-62215595D01*
X71317120Y-62179581D01*
X71317120Y-61158875D01*
X71300813Y-60993309D01*
X71236370Y-60780869D01*
X71131720Y-60585083D01*
X70990885Y-60413475D01*
X70819277Y-60272640D01*
X70657186Y-60186000D01*
X80290678Y-60186000D01*
X80302938Y-60310482D01*
X80339248Y-60430180D01*
X80398213Y-60540494D01*
X80477565Y-60637185D01*
X80574256Y-60716537D01*
X80684570Y-60775502D01*
X80804268Y-60811812D01*
X80928750Y-60824072D01*
X81393000Y-60821000D01*
X81551750Y-60662250D01*
X81551750Y-59563000D01*
X81805750Y-59563000D01*
X81805750Y-60662250D01*
X81964500Y-60821000D01*
X82428750Y-60824072D01*
X82553232Y-60811812D01*
X82672930Y-60775502D01*
X82783244Y-60716537D01*
X82879935Y-60637185D01*
X82959287Y-60540494D01*
X83018252Y-60430180D01*
X83054562Y-60310482D01*
X83066822Y-60186000D01*
X83063750Y-59721750D01*
X82905000Y-59563000D01*
X81805750Y-59563000D01*
X81551750Y-59563000D01*
X80452500Y-59563000D01*
X80293750Y-59721750D01*
X80290678Y-60186000D01*
X70657186Y-60186000D01*
X70623491Y-60167990D01*
X70411051Y-60103547D01*
X70190120Y-60081787D01*
X70051189Y-60095471D01*
X70462835Y-59683825D01*
X70513470Y-59642270D01*
X70595778Y-59541977D01*
X70703371Y-59470086D01*
X70840600Y-59332857D01*
X70977829Y-59470086D01*
X71268875Y-59664557D01*
X71592268Y-59798511D01*
X71935581Y-59866800D01*
X72285619Y-59866800D01*
X72628932Y-59798511D01*
X72952325Y-59664557D01*
X73243371Y-59470086D01*
X73380600Y-59332857D01*
X73517829Y-59470086D01*
X73808875Y-59664557D01*
X74132268Y-59798511D01*
X74475581Y-59866800D01*
X74825619Y-59866800D01*
X75168932Y-59798511D01*
X75492325Y-59664557D01*
X75783371Y-59470086D01*
X76030886Y-59222571D01*
X76225357Y-58931525D01*
X76327056Y-58686000D01*
X80290678Y-58686000D01*
X80293750Y-59150250D01*
X80452500Y-59309000D01*
X81551750Y-59309000D01*
X81551750Y-58209750D01*
X81805750Y-58209750D01*
X81805750Y-59309000D01*
X82905000Y-59309000D01*
X83063750Y-59150250D01*
X83066822Y-58686000D01*
X83054562Y-58561518D01*
X83018252Y-58441820D01*
X82959287Y-58331506D01*
X82879935Y-58234815D01*
X82783244Y-58155463D01*
X82672930Y-58096498D01*
X82553232Y-58060188D01*
X82428750Y-58047928D01*
X81964500Y-58051000D01*
X81805750Y-58209750D01*
X81551750Y-58209750D01*
X81393000Y-58051000D01*
X80928750Y-58047928D01*
X80804268Y-58060188D01*
X80684570Y-58096498D01*
X80574256Y-58155463D01*
X80477565Y-58234815D01*
X80398213Y-58331506D01*
X80339248Y-58441820D01*
X80302938Y-58561518D01*
X80290678Y-58686000D01*
X76327056Y-58686000D01*
X76359311Y-58608132D01*
X76427600Y-58264819D01*
X76427600Y-57914781D01*
X76359311Y-57571468D01*
X76225357Y-57248075D01*
X76030886Y-56957029D01*
X75783371Y-56709514D01*
X75492325Y-56515043D01*
X75168932Y-56381089D01*
X74825619Y-56312800D01*
X74475581Y-56312800D01*
X74132268Y-56381089D01*
X73808875Y-56515043D01*
X73517829Y-56709514D01*
X73380600Y-56846743D01*
X73243371Y-56709514D01*
X72952325Y-56515043D01*
X72719415Y-56418568D01*
X72766764Y-56379710D01*
X72780618Y-56383912D01*
X72905100Y-56396172D01*
X73056850Y-56393100D01*
X73215600Y-56234350D01*
X73215600Y-55410100D01*
X73469600Y-55410100D01*
X73469600Y-56234350D01*
X73628350Y-56393100D01*
X73780100Y-56396172D01*
X73904582Y-56383912D01*
X74024280Y-56347602D01*
X74134594Y-56288637D01*
X74231285Y-56209285D01*
X74310637Y-56112594D01*
X74369602Y-56002280D01*
X74405912Y-55882582D01*
X74418172Y-55758100D01*
X74415100Y-55568850D01*
X74256350Y-55410100D01*
X73469600Y-55410100D01*
X73215600Y-55410100D01*
X73195600Y-55410100D01*
X73195600Y-55156100D01*
X73215600Y-55156100D01*
X73215600Y-54331850D01*
X73469600Y-54331850D01*
X73469600Y-55156100D01*
X74256350Y-55156100D01*
X74415100Y-54997350D01*
X74418172Y-54808100D01*
X74405912Y-54683618D01*
X74369602Y-54563920D01*
X74310637Y-54453606D01*
X74231285Y-54356915D01*
X74134594Y-54277563D01*
X74024280Y-54218598D01*
X73904582Y-54182288D01*
X73780100Y-54170028D01*
X73628350Y-54173100D01*
X73469600Y-54331850D01*
X73215600Y-54331850D01*
X73056850Y-54173100D01*
X72905100Y-54170028D01*
X72780618Y-54182288D01*
X72766764Y-54186490D01*
X72625386Y-54070465D01*
X72426526Y-53964171D01*
X72210750Y-53898716D01*
X71986350Y-53876615D01*
X71548850Y-53876615D01*
X71324450Y-53898716D01*
X71135280Y-53956100D01*
X71044990Y-53956100D01*
X70916598Y-53850731D01*
X70712335Y-53741550D01*
X70490697Y-53674317D01*
X70260201Y-53651615D01*
X69610199Y-53651615D01*
X69379703Y-53674317D01*
X69158065Y-53741550D01*
X68953802Y-53850731D01*
X68910200Y-53886514D01*
X68866598Y-53850731D01*
X68662335Y-53741550D01*
X68440697Y-53674317D01*
X68210201Y-53651615D01*
X67560199Y-53651615D01*
X67329703Y-53674317D01*
X67108065Y-53741550D01*
X66903802Y-53850731D01*
X66775410Y-53956100D01*
X61060081Y-53956100D01*
X61028667Y-53924686D01*
X61000112Y-53781133D01*
X60869927Y-53466839D01*
X60691303Y-53199509D01*
X60884702Y-53180461D01*
X61203080Y-53083882D01*
X61496498Y-52927047D01*
X61753682Y-52715982D01*
X61964747Y-52458798D01*
X61999753Y-52393307D01*
X62002594Y-52397629D01*
X62195574Y-52593532D01*
X62423065Y-52748022D01*
X62676324Y-52855162D01*
X62750530Y-52870120D01*
X62966600Y-52747620D01*
X62966600Y-51142900D01*
X62946600Y-51142900D01*
X62946600Y-50888900D01*
X62966600Y-50888900D01*
X62966600Y-50868900D01*
X63220600Y-50868900D01*
X63220600Y-50888900D01*
X63240600Y-50888900D01*
X63240600Y-51142900D01*
X63220600Y-51142900D01*
X63220600Y-52747620D01*
X63436670Y-52870120D01*
X63510876Y-52855162D01*
X63764135Y-52748022D01*
X63991626Y-52593532D01*
X64184606Y-52397629D01*
X64187448Y-52393306D01*
X64222454Y-52458798D01*
X64433519Y-52715982D01*
X64690703Y-52927047D01*
X64984121Y-53083882D01*
X65302499Y-53180461D01*
X65633600Y-53213072D01*
X65964702Y-53180461D01*
X66283080Y-53083882D01*
X66576498Y-52927047D01*
X66833682Y-52715982D01*
X66903601Y-52630786D01*
X66973519Y-52715982D01*
X67230703Y-52927047D01*
X67524121Y-53083882D01*
X67842499Y-53180461D01*
X68173600Y-53213072D01*
X68504702Y-53180461D01*
X68823080Y-53083882D01*
X69116498Y-52927047D01*
X69373682Y-52715982D01*
X69445013Y-52629065D01*
X69446620Y-52634364D01*
X69532699Y-52795405D01*
X69648541Y-52936559D01*
X69789695Y-53052401D01*
X69950736Y-53138480D01*
X70125476Y-53191487D01*
X70307200Y-53209385D01*
X71831200Y-53209385D01*
X72012924Y-53191487D01*
X72187664Y-53138480D01*
X72348705Y-53052401D01*
X72489859Y-52936559D01*
X72565534Y-52844348D01*
X72666303Y-52927047D01*
X72959721Y-53083882D01*
X73278099Y-53180461D01*
X73609200Y-53213072D01*
X73940302Y-53180461D01*
X74258680Y-53083882D01*
X74552098Y-52927047D01*
X74809282Y-52715982D01*
X75020347Y-52458798D01*
X75055353Y-52393307D01*
X75058194Y-52397629D01*
X75251174Y-52593532D01*
X75478665Y-52748022D01*
X75731924Y-52855162D01*
X75806130Y-52870120D01*
X76022200Y-52747620D01*
X76022200Y-51142900D01*
X76002200Y-51142900D01*
X76002200Y-50888900D01*
X76022200Y-50888900D01*
X76022200Y-50868900D01*
X76276200Y-50868900D01*
X76276200Y-50888900D01*
X76296200Y-50888900D01*
X76296200Y-51142900D01*
X76276200Y-51142900D01*
X76276200Y-52747620D01*
X76492270Y-52870120D01*
X76566476Y-52855162D01*
X76819735Y-52748022D01*
X77047226Y-52593532D01*
X77240206Y-52397629D01*
X77243048Y-52393306D01*
X77278054Y-52458798D01*
X77489119Y-52715982D01*
X77746303Y-52927047D01*
X78039721Y-53083882D01*
X78358099Y-53180461D01*
X78689200Y-53213072D01*
X79020302Y-53180461D01*
X79338680Y-53083882D01*
X79632098Y-52927047D01*
X79889282Y-52715982D01*
X79959201Y-52630786D01*
X80029119Y-52715982D01*
X80286303Y-52927047D01*
X80579721Y-53083882D01*
X80898099Y-53180461D01*
X81015590Y-53192033D01*
X80983127Y-53209385D01*
X80960723Y-53221360D01*
X80832119Y-53326902D01*
X80832116Y-53326905D01*
X80789115Y-53362195D01*
X80753825Y-53405196D01*
X79896157Y-54262865D01*
X79853156Y-54298155D01*
X79817866Y-54341156D01*
X79817862Y-54341160D01*
X79712320Y-54469764D01*
X79607670Y-54665550D01*
X79589757Y-54724601D01*
X79543227Y-54877989D01*
X79534151Y-54970134D01*
X79394444Y-55140367D01*
X79286419Y-55342469D01*
X79219897Y-55561762D01*
X79197435Y-55789820D01*
X79197435Y-56264820D01*
X79219897Y-56492878D01*
X79286419Y-56712171D01*
X79394444Y-56914273D01*
X79539823Y-57091417D01*
X79716967Y-57236796D01*
X79919069Y-57344821D01*
X80138362Y-57411343D01*
X80366420Y-57433805D01*
X80941420Y-57433805D01*
X81169478Y-57411343D01*
X81388771Y-57344821D01*
X81528920Y-57269910D01*
X81669069Y-57344821D01*
X81888362Y-57411343D01*
X82116420Y-57433805D01*
X82691420Y-57433805D01*
X82919478Y-57411343D01*
X83138771Y-57344821D01*
X83337414Y-57238645D01*
X83402404Y-57317836D01*
X83581442Y-57464769D01*
X83785705Y-57573950D01*
X84007343Y-57641183D01*
X84237839Y-57663885D01*
X84887841Y-57663885D01*
X85118337Y-57641183D01*
X85339975Y-57573950D01*
X85544238Y-57464769D01*
X85587840Y-57428986D01*
X85631442Y-57464769D01*
X85835705Y-57573950D01*
X86057343Y-57641183D01*
X86287839Y-57663885D01*
X86937841Y-57663885D01*
X87168337Y-57641183D01*
X87389975Y-57573950D01*
X87591674Y-57466140D01*
X87768622Y-57643088D01*
X88051479Y-57832087D01*
X88225195Y-57904043D01*
X88211245Y-57911499D01*
X88070091Y-58027341D01*
X87954249Y-58168495D01*
X87868170Y-58329536D01*
X87815163Y-58504276D01*
X87797265Y-58686000D01*
X87797265Y-60186000D01*
X87815163Y-60367724D01*
X87868170Y-60542464D01*
X87954249Y-60703505D01*
X88070091Y-60844659D01*
X88211245Y-60960501D01*
X88372286Y-61046580D01*
X88547026Y-61099587D01*
X88728750Y-61117485D01*
X90228750Y-61117485D01*
X90410474Y-61099587D01*
X90585214Y-61046580D01*
X90746255Y-60960501D01*
X90887409Y-60844659D01*
X91003251Y-60703505D01*
X91089330Y-60542464D01*
X91112705Y-60465407D01*
X107389520Y-60465407D01*
X107389520Y-60844993D01*
X107463573Y-61217285D01*
X107608835Y-61567977D01*
X107819721Y-61883591D01*
X108088129Y-62151999D01*
X108403743Y-62362885D01*
X108754435Y-62508147D01*
X109126727Y-62582200D01*
X109506313Y-62582200D01*
X109878605Y-62508147D01*
X110229297Y-62362885D01*
X110544911Y-62151999D01*
X110813319Y-61883591D01*
X111024205Y-61567977D01*
X111169467Y-61217285D01*
X111243520Y-60844993D01*
X111243520Y-60465407D01*
X111169467Y-60093115D01*
X111024205Y-59742423D01*
X110813319Y-59426809D01*
X110544911Y-59158401D01*
X110229297Y-58947515D01*
X109878605Y-58802253D01*
X109506313Y-58728200D01*
X109126727Y-58728200D01*
X108754435Y-58802253D01*
X108403743Y-58947515D01*
X108088129Y-59158401D01*
X107819721Y-59426809D01*
X107608835Y-59742423D01*
X107463573Y-60093115D01*
X107389520Y-60465407D01*
X91112705Y-60465407D01*
X91142337Y-60367724D01*
X91160235Y-60186000D01*
X91160235Y-58686000D01*
X91142337Y-58504276D01*
X91089330Y-58329536D01*
X91003251Y-58168495D01*
X90887409Y-58027341D01*
X90746255Y-57911499D01*
X90605750Y-57836397D01*
X90605750Y-56966224D01*
X90611202Y-56910869D01*
X90605750Y-56855515D01*
X90605750Y-56855505D01*
X90589443Y-56689939D01*
X90567503Y-56617612D01*
X90596520Y-56471735D01*
X90596520Y-56131545D01*
X90530152Y-55797893D01*
X90399967Y-55483599D01*
X90210968Y-55200742D01*
X89970418Y-54960192D01*
X89687561Y-54771193D01*
X89373267Y-54641008D01*
X89039615Y-54574640D01*
X88699425Y-54574640D01*
X88365773Y-54641008D01*
X88210317Y-54705400D01*
X87722630Y-54705400D01*
X87594238Y-54600031D01*
X87389975Y-54490850D01*
X87168337Y-54423617D01*
X86937841Y-54400915D01*
X86287839Y-54400915D01*
X86057343Y-54423617D01*
X85835705Y-54490850D01*
X85631442Y-54600031D01*
X85587840Y-54635814D01*
X85544238Y-54600031D01*
X85339975Y-54490850D01*
X85118337Y-54423617D01*
X84887841Y-54400915D01*
X84237839Y-54400915D01*
X84007343Y-54423617D01*
X83785705Y-54490850D01*
X83643281Y-54566977D01*
X84275502Y-53934756D01*
X93275680Y-53934756D01*
X93275680Y-54294644D01*
X93345891Y-54647616D01*
X93483614Y-54980109D01*
X93683556Y-55279345D01*
X93938035Y-55533824D01*
X94237271Y-55733766D01*
X94569764Y-55871489D01*
X94922736Y-55941700D01*
X95282624Y-55941700D01*
X95635596Y-55871489D01*
X95968089Y-55733766D01*
X96074981Y-55662344D01*
X96084021Y-55673359D01*
X96225175Y-55789201D01*
X96386216Y-55875280D01*
X96560956Y-55928287D01*
X96742680Y-55946185D01*
X98542680Y-55946185D01*
X98724404Y-55928287D01*
X98899144Y-55875280D01*
X99060185Y-55789201D01*
X99201339Y-55673359D01*
X99317181Y-55532205D01*
X99403260Y-55371164D01*
X99456267Y-55196424D01*
X99474165Y-55014700D01*
X99474165Y-53214700D01*
X99456267Y-53032976D01*
X99403260Y-52858236D01*
X99317181Y-52697195D01*
X99201339Y-52556041D01*
X99060185Y-52440199D01*
X98899144Y-52354120D01*
X98724404Y-52301113D01*
X98542680Y-52283215D01*
X96742680Y-52283215D01*
X96560956Y-52301113D01*
X96386216Y-52354120D01*
X96225175Y-52440199D01*
X96084021Y-52556041D01*
X96074981Y-52567056D01*
X95968089Y-52495634D01*
X95635596Y-52357911D01*
X95282624Y-52287700D01*
X94922736Y-52287700D01*
X94569764Y-52357911D01*
X94237271Y-52495634D01*
X93938035Y-52695576D01*
X93683556Y-52950055D01*
X93483614Y-53249291D01*
X93345891Y-53581784D01*
X93275680Y-53934756D01*
X84275502Y-53934756D01*
X85324524Y-52885735D01*
X85367525Y-52850445D01*
X85402815Y-52807444D01*
X85402818Y-52807441D01*
X85508360Y-52678837D01*
X85537538Y-52624248D01*
X85613010Y-52483051D01*
X85677453Y-52270611D01*
X85693760Y-52105045D01*
X85693760Y-52105035D01*
X85699212Y-52049681D01*
X85696155Y-52018634D01*
X100852396Y-52018634D01*
X100883376Y-52146555D01*
X101012510Y-52440961D01*
X101196598Y-52704517D01*
X101428566Y-52927095D01*
X101699500Y-53100142D01*
X101998988Y-53217007D01*
X102315520Y-53273200D01*
X102839520Y-53273200D01*
X102839520Y-51765200D01*
X103093520Y-51765200D01*
X103093520Y-53273200D01*
X103617520Y-53273200D01*
X103934052Y-53217007D01*
X104233540Y-53100142D01*
X104504474Y-52927095D01*
X104736442Y-52704517D01*
X104920530Y-52440961D01*
X105049664Y-52146555D01*
X105080644Y-52018634D01*
X113352396Y-52018634D01*
X113383376Y-52146555D01*
X113512510Y-52440961D01*
X113696598Y-52704517D01*
X113928566Y-52927095D01*
X114199500Y-53100142D01*
X114498988Y-53217007D01*
X114815520Y-53273200D01*
X115339520Y-53273200D01*
X115339520Y-51765200D01*
X115593520Y-51765200D01*
X115593520Y-53273200D01*
X116117520Y-53273200D01*
X116434052Y-53217007D01*
X116733540Y-53100142D01*
X117004474Y-52927095D01*
X117236442Y-52704517D01*
X117420530Y-52440961D01*
X117549664Y-52146555D01*
X117580644Y-52018634D01*
X117461297Y-51765200D01*
X115593520Y-51765200D01*
X115339520Y-51765200D01*
X113471743Y-51765200D01*
X113352396Y-52018634D01*
X105080644Y-52018634D01*
X104961297Y-51765200D01*
X103093520Y-51765200D01*
X102839520Y-51765200D01*
X100971743Y-51765200D01*
X100852396Y-52018634D01*
X85696155Y-52018634D01*
X85693760Y-51994326D01*
X85693760Y-51257766D01*
X100852396Y-51257766D01*
X100971743Y-51511200D01*
X102839520Y-51511200D01*
X102839520Y-50003200D01*
X103093520Y-50003200D01*
X103093520Y-51511200D01*
X104961297Y-51511200D01*
X105080644Y-51257766D01*
X113352396Y-51257766D01*
X113471743Y-51511200D01*
X115339520Y-51511200D01*
X115339520Y-50003200D01*
X115593520Y-50003200D01*
X115593520Y-51511200D01*
X117461297Y-51511200D01*
X117580644Y-51257766D01*
X117549664Y-51129845D01*
X117420530Y-50835439D01*
X117236442Y-50571883D01*
X117004474Y-50349305D01*
X116733540Y-50176258D01*
X116434052Y-50059393D01*
X116117520Y-50003200D01*
X115593520Y-50003200D01*
X115339520Y-50003200D01*
X114815520Y-50003200D01*
X114498988Y-50059393D01*
X114199500Y-50176258D01*
X113928566Y-50349305D01*
X113696598Y-50571883D01*
X113512510Y-50835439D01*
X113383376Y-51129845D01*
X113352396Y-51257766D01*
X105080644Y-51257766D01*
X105049664Y-51129845D01*
X104920530Y-50835439D01*
X104736442Y-50571883D01*
X104504474Y-50349305D01*
X104233540Y-50176258D01*
X103934052Y-50059393D01*
X103617520Y-50003200D01*
X103093520Y-50003200D01*
X102839520Y-50003200D01*
X102315520Y-50003200D01*
X101998988Y-50059393D01*
X101699500Y-50176258D01*
X101428566Y-50349305D01*
X101196598Y-50571883D01*
X101012510Y-50835439D01*
X100883376Y-51129845D01*
X100852396Y-51257766D01*
X85693760Y-51257766D01*
X85693760Y-47384407D01*
X107389520Y-47384407D01*
X107389520Y-47763993D01*
X107463573Y-48136285D01*
X107608835Y-48486977D01*
X107819721Y-48802591D01*
X108088129Y-49070999D01*
X108403743Y-49281885D01*
X108754435Y-49427147D01*
X109126727Y-49501200D01*
X109506313Y-49501200D01*
X109878605Y-49427147D01*
X110229297Y-49281885D01*
X110544911Y-49070999D01*
X110813319Y-48802591D01*
X111024205Y-48486977D01*
X111169467Y-48136285D01*
X111243520Y-47763993D01*
X111243520Y-47384407D01*
X111169467Y-47012115D01*
X111024205Y-46661423D01*
X110813319Y-46345809D01*
X110544911Y-46077401D01*
X110229297Y-45866515D01*
X109878605Y-45721253D01*
X109506313Y-45647200D01*
X109126727Y-45647200D01*
X108754435Y-45721253D01*
X108403743Y-45866515D01*
X108088129Y-46077401D01*
X107819721Y-46345809D01*
X107608835Y-46661423D01*
X107463573Y-47012115D01*
X107389520Y-47384407D01*
X85693760Y-47384407D01*
X85693760Y-39104007D01*
X107389520Y-39104007D01*
X107389520Y-39483593D01*
X107463573Y-39855885D01*
X107608835Y-40206577D01*
X107819721Y-40522191D01*
X108088129Y-40790599D01*
X108403743Y-41001485D01*
X108754435Y-41146747D01*
X109126727Y-41220800D01*
X109506313Y-41220800D01*
X109878605Y-41146747D01*
X110229297Y-41001485D01*
X110544911Y-40790599D01*
X110813319Y-40522191D01*
X111024205Y-40206577D01*
X111169467Y-39855885D01*
X111243520Y-39483593D01*
X111243520Y-39104007D01*
X111169467Y-38731715D01*
X111024205Y-38381023D01*
X110813319Y-38065409D01*
X110544911Y-37797001D01*
X110229297Y-37586115D01*
X109878605Y-37440853D01*
X109506313Y-37366800D01*
X109126727Y-37366800D01*
X108754435Y-37440853D01*
X108403743Y-37586115D01*
X108088129Y-37797001D01*
X107819721Y-38065409D01*
X107608835Y-38381023D01*
X107463573Y-38731715D01*
X107389520Y-39104007D01*
X85693760Y-39104007D01*
X85693760Y-35031157D01*
X85699212Y-34975800D01*
X85693760Y-34920443D01*
X85693760Y-34920435D01*
X85677453Y-34754869D01*
X85613010Y-34542429D01*
X85508360Y-34346643D01*
X85427874Y-34248570D01*
X85402818Y-34218039D01*
X85402815Y-34218036D01*
X85367525Y-34175035D01*
X85324524Y-34139745D01*
X83758135Y-32573356D01*
X93275680Y-32573356D01*
X93275680Y-32933244D01*
X93345891Y-33286216D01*
X93483614Y-33618709D01*
X93683556Y-33917945D01*
X93938035Y-34172424D01*
X94237271Y-34372366D01*
X94569764Y-34510089D01*
X94922736Y-34580300D01*
X95282624Y-34580300D01*
X95635596Y-34510089D01*
X95968089Y-34372366D01*
X96074981Y-34300944D01*
X96084021Y-34311959D01*
X96225175Y-34427801D01*
X96386216Y-34513880D01*
X96560956Y-34566887D01*
X96742680Y-34584785D01*
X98542680Y-34584785D01*
X98724404Y-34566887D01*
X98899144Y-34513880D01*
X99060185Y-34427801D01*
X99201339Y-34311959D01*
X99317181Y-34170805D01*
X99403260Y-34009764D01*
X99456267Y-33835024D01*
X99474165Y-33653300D01*
X99474165Y-31853300D01*
X99456267Y-31671576D01*
X99403260Y-31496836D01*
X99317181Y-31335795D01*
X99201339Y-31194641D01*
X99060185Y-31078799D01*
X98899144Y-30992720D01*
X98724404Y-30939713D01*
X98542680Y-30921815D01*
X96742680Y-30921815D01*
X96560956Y-30939713D01*
X96386216Y-30992720D01*
X96225175Y-31078799D01*
X96084021Y-31194641D01*
X96074981Y-31205656D01*
X95968089Y-31134234D01*
X95635596Y-30996511D01*
X95282624Y-30926300D01*
X94922736Y-30926300D01*
X94569764Y-30996511D01*
X94237271Y-31134234D01*
X93938035Y-31334176D01*
X93683556Y-31588655D01*
X93483614Y-31887891D01*
X93345891Y-32220384D01*
X93275680Y-32573356D01*
X83758135Y-32573356D01*
X83030459Y-31845681D01*
X82995165Y-31802675D01*
X82823557Y-31661840D01*
X82627771Y-31557190D01*
X82415331Y-31492747D01*
X82249765Y-31476440D01*
X82249754Y-31476440D01*
X82194400Y-31470988D01*
X82139046Y-31476440D01*
X79457400Y-31476440D01*
X79457400Y-30657234D01*
X100852396Y-30657234D01*
X100883376Y-30785155D01*
X101012510Y-31079561D01*
X101196598Y-31343117D01*
X101428566Y-31565695D01*
X101699500Y-31738742D01*
X101998988Y-31855607D01*
X102315520Y-31911800D01*
X102839520Y-31911800D01*
X102839520Y-30403800D01*
X103093520Y-30403800D01*
X103093520Y-31911800D01*
X103617520Y-31911800D01*
X103934052Y-31855607D01*
X104233540Y-31738742D01*
X104504474Y-31565695D01*
X104736442Y-31343117D01*
X104920530Y-31079561D01*
X105049664Y-30785155D01*
X105080644Y-30657234D01*
X113352396Y-30657234D01*
X113383376Y-30785155D01*
X113512510Y-31079561D01*
X113696598Y-31343117D01*
X113928566Y-31565695D01*
X114199500Y-31738742D01*
X114498988Y-31855607D01*
X114815520Y-31911800D01*
X115339520Y-31911800D01*
X115339520Y-30403800D01*
X115593520Y-30403800D01*
X115593520Y-31911800D01*
X116117520Y-31911800D01*
X116434052Y-31855607D01*
X116733540Y-31738742D01*
X117004474Y-31565695D01*
X117236442Y-31343117D01*
X117420530Y-31079561D01*
X117549664Y-30785155D01*
X117580644Y-30657234D01*
X117461297Y-30403800D01*
X115593520Y-30403800D01*
X115339520Y-30403800D01*
X113471743Y-30403800D01*
X113352396Y-30657234D01*
X105080644Y-30657234D01*
X104961297Y-30403800D01*
X103093520Y-30403800D01*
X102839520Y-30403800D01*
X100971743Y-30403800D01*
X100852396Y-30657234D01*
X79457400Y-30657234D01*
X79457400Y-29896366D01*
X100852396Y-29896366D01*
X100971743Y-30149800D01*
X102839520Y-30149800D01*
X102839520Y-28641800D01*
X103093520Y-28641800D01*
X103093520Y-30149800D01*
X104961297Y-30149800D01*
X105080644Y-29896366D01*
X113352396Y-29896366D01*
X113471743Y-30149800D01*
X115339520Y-30149800D01*
X115339520Y-28641800D01*
X115593520Y-28641800D01*
X115593520Y-30149800D01*
X117461297Y-30149800D01*
X117580644Y-29896366D01*
X117549664Y-29768445D01*
X117420530Y-29474039D01*
X117236442Y-29210483D01*
X117004474Y-28987905D01*
X116733540Y-28814858D01*
X116434052Y-28697993D01*
X116117520Y-28641800D01*
X115593520Y-28641800D01*
X115339520Y-28641800D01*
X114815520Y-28641800D01*
X114498988Y-28697993D01*
X114199500Y-28814858D01*
X113928566Y-28987905D01*
X113696598Y-29210483D01*
X113512510Y-29474039D01*
X113383376Y-29768445D01*
X113352396Y-29896366D01*
X105080644Y-29896366D01*
X105049664Y-29768445D01*
X104920530Y-29474039D01*
X104736442Y-29210483D01*
X104504474Y-28987905D01*
X104233540Y-28814858D01*
X103934052Y-28697993D01*
X103617520Y-28641800D01*
X103093520Y-28641800D01*
X102839520Y-28641800D01*
X102315520Y-28641800D01*
X101998988Y-28697993D01*
X101699500Y-28814858D01*
X101428566Y-28987905D01*
X101196598Y-29210483D01*
X101012510Y-29474039D01*
X100883376Y-29768445D01*
X100852396Y-29896366D01*
X79457400Y-29896366D01*
X79457400Y-29539334D01*
X79463819Y-29474160D01*
X79457400Y-29408986D01*
X79457400Y-29408976D01*
X79438199Y-29214023D01*
X79362319Y-28963882D01*
X79282664Y-28814858D01*
X79239098Y-28733351D01*
X79114822Y-28581921D01*
X79114821Y-28581920D01*
X79073270Y-28531290D01*
X79022640Y-28489739D01*
X78175025Y-27642125D01*
X78133470Y-27591490D01*
X77931408Y-27425662D01*
X77700878Y-27302441D01*
X77450737Y-27226561D01*
X77255784Y-27207360D01*
X77255774Y-27207360D01*
X77190600Y-27200941D01*
X77125426Y-27207360D01*
X74951596Y-27207360D01*
X75040185Y-27074777D01*
X75185447Y-26724085D01*
X75259500Y-26351793D01*
X75259500Y-26023007D01*
X107389520Y-26023007D01*
X107389520Y-26402593D01*
X107463573Y-26774885D01*
X107608835Y-27125577D01*
X107819721Y-27441191D01*
X108088129Y-27709599D01*
X108403743Y-27920485D01*
X108754435Y-28065747D01*
X109126727Y-28139800D01*
X109506313Y-28139800D01*
X109878605Y-28065747D01*
X110229297Y-27920485D01*
X110544911Y-27709599D01*
X110813319Y-27441191D01*
X111024205Y-27125577D01*
X111169467Y-26774885D01*
X111243520Y-26402593D01*
X111243520Y-26023007D01*
X111169467Y-25650715D01*
X111024205Y-25300023D01*
X110813319Y-24984409D01*
X110544911Y-24716001D01*
X110229297Y-24505115D01*
X109878605Y-24359853D01*
X109506313Y-24285800D01*
X109126727Y-24285800D01*
X108754435Y-24359853D01*
X108403743Y-24505115D01*
X108088129Y-24716001D01*
X107819721Y-24984409D01*
X107608835Y-25300023D01*
X107463573Y-25650715D01*
X107389520Y-26023007D01*
X75259500Y-26023007D01*
X75259500Y-25972207D01*
X75185447Y-25599915D01*
X75040185Y-25249223D01*
X74829299Y-24933609D01*
X74560891Y-24665201D01*
X74245277Y-24454315D01*
X73894585Y-24309053D01*
X73522293Y-24235000D01*
X73142707Y-24235000D01*
X72770415Y-24309053D01*
X72419723Y-24454315D01*
X72104109Y-24665201D01*
X71835701Y-24933609D01*
X71624815Y-25249223D01*
X71479553Y-25599915D01*
X71405500Y-25972207D01*
X71405500Y-26351793D01*
X71479553Y-26724085D01*
X71624815Y-27074777D01*
X71713404Y-27207360D01*
X68654521Y-27207360D01*
X67663985Y-26216825D01*
X67663985Y-25162000D01*
X67646087Y-24980276D01*
X67593080Y-24805536D01*
X67507001Y-24644495D01*
X67391159Y-24503341D01*
X67250005Y-24387499D01*
X67088964Y-24301420D01*
X66914224Y-24248413D01*
X66732500Y-24230515D01*
X64732500Y-24230515D01*
X64550776Y-24248413D01*
X64376036Y-24301420D01*
X64214995Y-24387499D01*
X64073841Y-24503341D01*
X63957999Y-24644495D01*
X63871920Y-24805536D01*
X63818913Y-24980276D01*
X63801015Y-25162000D01*
X63801015Y-27162000D01*
X63818913Y-27343724D01*
X63871920Y-27518464D01*
X63957999Y-27679505D01*
X64073841Y-27820659D01*
X64214995Y-27936501D01*
X64376036Y-28022580D01*
X64550776Y-28075587D01*
X64732500Y-28093485D01*
X65787325Y-28093485D01*
X66859539Y-29165700D01*
X51864546Y-29165700D01*
X51850098Y-29151252D01*
X51567241Y-28962253D01*
X51252947Y-28832068D01*
X50919295Y-28765700D01*
X50579105Y-28765700D01*
X50245453Y-28832068D01*
X49931159Y-28962253D01*
X49648302Y-29151252D01*
X49407752Y-29391802D01*
X49218753Y-29674659D01*
X49088568Y-29988953D01*
X49022200Y-30322605D01*
X49022200Y-30662795D01*
X49088568Y-30996447D01*
X49218753Y-31310741D01*
X49407752Y-31593598D01*
X49648302Y-31834148D01*
X49931159Y-32023147D01*
X50245453Y-32153332D01*
X50579105Y-32219700D01*
X50919295Y-32219700D01*
X51252947Y-32153332D01*
X51567241Y-32023147D01*
X51850098Y-31834148D01*
X51864546Y-31819700D01*
X56200418Y-31819700D01*
X56019962Y-31874441D01*
X55920133Y-31927801D01*
X55789431Y-31997662D01*
X55638001Y-32121937D01*
X55637994Y-32121944D01*
X55587370Y-32163490D01*
X55545824Y-32214114D01*
X48850800Y-38909140D01*
X48512580Y-38909140D01*
X48512580Y-36149566D01*
X48527028Y-36135118D01*
X48716027Y-35852261D01*
X48846212Y-35537967D01*
X48912580Y-35204315D01*
X48912580Y-34864125D01*
X48846212Y-34530473D01*
X48716027Y-34216179D01*
X48543023Y-33957260D01*
X48716027Y-33698341D01*
X48846212Y-33384047D01*
X48912580Y-33050395D01*
X48912580Y-32710205D01*
X48846212Y-32376553D01*
X48716027Y-32062259D01*
X48527028Y-31779402D01*
X48286478Y-31538852D01*
X48003621Y-31349853D01*
X47689327Y-31219668D01*
X47355675Y-31153300D01*
X47015485Y-31153300D01*
X46681833Y-31219668D01*
X46367539Y-31349853D01*
X46084682Y-31538852D01*
X45844132Y-31779402D01*
X45655133Y-32062259D01*
X45647068Y-32081730D01*
X45586466Y-31935424D01*
X45386524Y-31636188D01*
X45132045Y-31381709D01*
X44832809Y-31181767D01*
X44500316Y-31044044D01*
X44147344Y-30973833D01*
X43787456Y-30973833D01*
X43434484Y-31044044D01*
X43101991Y-31181767D01*
X42995099Y-31253189D01*
X42986059Y-31242174D01*
X42844905Y-31126332D01*
X42683864Y-31040253D01*
X42509124Y-30987246D01*
X42327400Y-30969348D01*
X40527400Y-30969348D01*
X40345676Y-30987246D01*
X40170936Y-31040253D01*
X40009895Y-31126332D01*
X39868741Y-31242174D01*
X39752899Y-31383328D01*
X39666820Y-31544369D01*
X39613813Y-31719109D01*
X39595915Y-31900833D01*
X39595915Y-33700833D01*
X39613813Y-33882557D01*
X39666820Y-34057297D01*
X39752899Y-34218338D01*
X39868741Y-34359492D01*
X40009895Y-34475334D01*
X40170936Y-34561413D01*
X40345676Y-34614420D01*
X40527400Y-34632318D01*
X42327400Y-34632318D01*
X42509124Y-34614420D01*
X42683864Y-34561413D01*
X42844905Y-34475334D01*
X42986059Y-34359492D01*
X42995099Y-34348477D01*
X43101991Y-34419899D01*
X43434484Y-34557622D01*
X43787456Y-34627833D01*
X44147344Y-34627833D01*
X44500316Y-34557622D01*
X44832809Y-34419899D01*
X45132045Y-34219957D01*
X45386524Y-33965478D01*
X45586466Y-33666242D01*
X45614152Y-33599403D01*
X45655133Y-33698341D01*
X45828137Y-33957260D01*
X45655133Y-34216179D01*
X45524948Y-34530473D01*
X45458580Y-34864125D01*
X45458580Y-35204315D01*
X45524948Y-35537967D01*
X45655133Y-35852261D01*
X45844132Y-36135118D01*
X45858581Y-36149567D01*
X45858580Y-40170956D01*
X45852160Y-40236140D01*
X45858580Y-40301323D01*
X45858581Y-41901358D01*
X44548365Y-43211575D01*
X44497730Y-43253130D01*
X44423763Y-43343259D01*
X44331902Y-43455192D01*
X44236139Y-43634353D01*
X44208681Y-43685723D01*
X44132801Y-43935864D01*
X44113600Y-44130817D01*
X44113600Y-44130826D01*
X44107181Y-44196000D01*
X44113600Y-44261174D01*
X44113601Y-48738367D01*
X44113600Y-48738377D01*
X44113600Y-48738386D01*
X44107181Y-48803560D01*
X44113600Y-48868734D01*
X44113600Y-49561346D01*
X44107181Y-49626520D01*
X44113600Y-49691694D01*
X44113600Y-49691704D01*
X44132801Y-49886657D01*
X44208681Y-50136798D01*
X44331902Y-50367328D01*
X44420240Y-50474967D01*
X44497731Y-50569390D01*
X44548360Y-50610940D01*
X44715240Y-50777820D01*
X44592768Y-51073493D01*
X44526400Y-51407145D01*
X44526400Y-51747335D01*
X44592768Y-52080987D01*
X44722953Y-52395281D01*
X44769739Y-52465301D01*
X44510476Y-52357911D01*
X44157504Y-52287700D01*
X43797616Y-52287700D01*
X43444644Y-52357911D01*
X43112151Y-52495634D01*
X43005259Y-52567056D01*
X42996219Y-52556041D01*
X42855065Y-52440199D01*
X42694024Y-52354120D01*
X42519284Y-52301113D01*
X42337560Y-52283215D01*
X40537560Y-52283215D01*
X40355836Y-52301113D01*
X40181096Y-52354120D01*
X40020055Y-52440199D01*
X39878901Y-52556041D01*
X39763059Y-52697195D01*
X39676980Y-52858236D01*
X39623973Y-53032976D01*
X39606075Y-53214700D01*
X39606075Y-55014700D01*
X39623973Y-55196424D01*
X39676980Y-55371164D01*
X39763059Y-55532205D01*
X39878901Y-55673359D01*
X40020055Y-55789201D01*
X40181096Y-55875280D01*
X40355836Y-55928287D01*
X40537560Y-55946185D01*
X41790874Y-55946185D01*
X38408860Y-59328200D01*
X31380350Y-59328200D01*
X31210551Y-59158401D01*
X30894937Y-58947515D01*
X30544245Y-58802253D01*
X30171953Y-58728200D01*
X29792367Y-58728200D01*
X29420075Y-58802253D01*
X29069383Y-58947515D01*
X28753769Y-59158401D01*
X28485361Y-59426809D01*
X28274475Y-59742423D01*
X28129213Y-60093115D01*
X28055160Y-60465407D01*
X28055160Y-60844993D01*
X28129213Y-61217285D01*
X28274475Y-61567977D01*
X28485361Y-61883591D01*
X28753769Y-62151999D01*
X29069383Y-62362885D01*
X29420075Y-62508147D01*
X29792367Y-62582200D01*
X30171953Y-62582200D01*
X30544245Y-62508147D01*
X30894937Y-62362885D01*
X31210551Y-62151999D01*
X31380350Y-61982200D01*
X38893346Y-61982200D01*
X38958520Y-61988619D01*
X39023694Y-61982200D01*
X39023704Y-61982200D01*
X39218657Y-61962999D01*
X39468798Y-61887119D01*
X39699328Y-61763898D01*
X39901390Y-61598070D01*
X39942945Y-61547435D01*
X44869801Y-56620580D01*
X44920430Y-56579030D01*
X44926401Y-56571755D01*
X44926401Y-60036296D01*
X44919981Y-60101480D01*
X44945602Y-60361617D01*
X45021481Y-60611757D01*
X45144702Y-60842288D01*
X45268978Y-60993718D01*
X45310531Y-61044350D01*
X45361160Y-61085901D01*
X48210303Y-63935045D01*
X48251850Y-63985670D01*
X48302474Y-64027216D01*
X48302481Y-64027223D01*
X48453911Y-64151498D01*
X48555128Y-64205599D01*
X48684442Y-64274719D01*
X48934583Y-64350599D01*
X49129536Y-64369800D01*
X49129546Y-64369800D01*
X49194720Y-64376219D01*
X49259894Y-64369800D01*
X62667746Y-64369800D01*
X62732920Y-64376219D01*
X62798094Y-64369800D01*
X62798104Y-64369800D01*
X62993057Y-64350599D01*
X63243198Y-64274719D01*
X63473728Y-64151498D01*
X63675790Y-63985670D01*
X63717345Y-63935035D01*
X64491621Y-63160760D01*
X65713635Y-63160760D01*
X65713635Y-64242824D01*
X65680479Y-64246090D01*
X65406776Y-64329117D01*
X65154530Y-64463945D01*
X64933435Y-64645394D01*
X64751985Y-64866489D01*
X64617157Y-65118735D01*
X64534130Y-65392438D01*
X64513120Y-65605755D01*
X64513120Y-65628330D01*
X64460215Y-65802736D01*
X64430732Y-66102080D01*
X64460215Y-66401424D01*
X64513120Y-66575830D01*
X64513120Y-66598404D01*
X64534130Y-66811721D01*
X64617157Y-67085424D01*
X64703521Y-67247000D01*
X25637956Y-67247000D01*
X25835737Y-67049219D01*
X26183421Y-66528874D01*
X26422910Y-65950697D01*
X26545000Y-65336907D01*
X26545000Y-64711093D01*
X26422910Y-64097303D01*
X26183421Y-63519126D01*
X25835737Y-62998781D01*
X25393219Y-62556263D01*
X24872874Y-62208579D01*
X24294697Y-61969090D01*
X23680907Y-61847000D01*
X23055093Y-61847000D01*
X22441303Y-61969090D01*
X21863126Y-62208579D01*
X21342781Y-62556263D01*
X21145000Y-62754044D01*
X21145000Y-56638200D01*
X21171837Y-56638200D01*
X21209043Y-57015958D01*
X21319231Y-57379199D01*
X21498166Y-57713963D01*
X21738973Y-58007387D01*
X22032397Y-58248194D01*
X22367161Y-58427129D01*
X22730402Y-58537317D01*
X23013502Y-58565200D01*
X24250818Y-58565200D01*
X24533918Y-58537317D01*
X24897159Y-58427129D01*
X25231923Y-58248194D01*
X25525347Y-58007387D01*
X25559969Y-57965200D01*
X34204351Y-57965200D01*
X34238973Y-58007387D01*
X34532397Y-58248194D01*
X34867161Y-58427129D01*
X35230402Y-58537317D01*
X35513502Y-58565200D01*
X36750818Y-58565200D01*
X37033918Y-58537317D01*
X37397159Y-58427129D01*
X37731923Y-58248194D01*
X38025347Y-58007387D01*
X38266154Y-57713963D01*
X38445089Y-57379199D01*
X38555277Y-57015958D01*
X38592483Y-56638200D01*
X38555277Y-56260442D01*
X38445089Y-55897201D01*
X38266154Y-55562437D01*
X38025347Y-55269013D01*
X37731923Y-55028206D01*
X37397159Y-54849271D01*
X37033918Y-54739083D01*
X36750818Y-54711200D01*
X35513502Y-54711200D01*
X35230402Y-54739083D01*
X34867161Y-54849271D01*
X34532397Y-55028206D01*
X34238973Y-55269013D01*
X34204351Y-55311200D01*
X25559969Y-55311200D01*
X25525347Y-55269013D01*
X25231923Y-55028206D01*
X24897159Y-54849271D01*
X24533918Y-54739083D01*
X24250818Y-54711200D01*
X23013502Y-54711200D01*
X22730402Y-54739083D01*
X22367161Y-54849271D01*
X22032397Y-55028206D01*
X21738973Y-55269013D01*
X21498166Y-55562437D01*
X21319231Y-55897201D01*
X21209043Y-56260442D01*
X21171837Y-56638200D01*
X21145000Y-56638200D01*
X21145000Y-52018634D01*
X21518036Y-52018634D01*
X21549016Y-52146555D01*
X21678150Y-52440961D01*
X21862238Y-52704517D01*
X22094206Y-52927095D01*
X22365140Y-53100142D01*
X22664628Y-53217007D01*
X22981160Y-53273200D01*
X23505160Y-53273200D01*
X23505160Y-51765200D01*
X23759160Y-51765200D01*
X23759160Y-53273200D01*
X24283160Y-53273200D01*
X24599692Y-53217007D01*
X24899180Y-53100142D01*
X25170114Y-52927095D01*
X25402082Y-52704517D01*
X25586170Y-52440961D01*
X25715304Y-52146555D01*
X25746284Y-52018634D01*
X34018036Y-52018634D01*
X34049016Y-52146555D01*
X34178150Y-52440961D01*
X34362238Y-52704517D01*
X34594206Y-52927095D01*
X34865140Y-53100142D01*
X35164628Y-53217007D01*
X35481160Y-53273200D01*
X36005160Y-53273200D01*
X36005160Y-51765200D01*
X36259160Y-51765200D01*
X36259160Y-53273200D01*
X36783160Y-53273200D01*
X37099692Y-53217007D01*
X37399180Y-53100142D01*
X37670114Y-52927095D01*
X37902082Y-52704517D01*
X38086170Y-52440961D01*
X38215304Y-52146555D01*
X38246284Y-52018634D01*
X38126937Y-51765200D01*
X36259160Y-51765200D01*
X36005160Y-51765200D01*
X34137383Y-51765200D01*
X34018036Y-52018634D01*
X25746284Y-52018634D01*
X25626937Y-51765200D01*
X23759160Y-51765200D01*
X23505160Y-51765200D01*
X21637383Y-51765200D01*
X21518036Y-52018634D01*
X21145000Y-52018634D01*
X21145000Y-51257766D01*
X21518036Y-51257766D01*
X21637383Y-51511200D01*
X23505160Y-51511200D01*
X23505160Y-50003200D01*
X23759160Y-50003200D01*
X23759160Y-51511200D01*
X25626937Y-51511200D01*
X25746284Y-51257766D01*
X34018036Y-51257766D01*
X34137383Y-51511200D01*
X36005160Y-51511200D01*
X36005160Y-50003200D01*
X36259160Y-50003200D01*
X36259160Y-51511200D01*
X38126937Y-51511200D01*
X38246284Y-51257766D01*
X38215304Y-51129845D01*
X38086170Y-50835439D01*
X37902082Y-50571883D01*
X37670114Y-50349305D01*
X37399180Y-50176258D01*
X37099692Y-50059393D01*
X36783160Y-50003200D01*
X36259160Y-50003200D01*
X36005160Y-50003200D01*
X35481160Y-50003200D01*
X35164628Y-50059393D01*
X34865140Y-50176258D01*
X34594206Y-50349305D01*
X34362238Y-50571883D01*
X34178150Y-50835439D01*
X34049016Y-51129845D01*
X34018036Y-51257766D01*
X25746284Y-51257766D01*
X25715304Y-51129845D01*
X25586170Y-50835439D01*
X25402082Y-50571883D01*
X25170114Y-50349305D01*
X24899180Y-50176258D01*
X24599692Y-50059393D01*
X24283160Y-50003200D01*
X23759160Y-50003200D01*
X23505160Y-50003200D01*
X22981160Y-50003200D01*
X22664628Y-50059393D01*
X22365140Y-50176258D01*
X22094206Y-50349305D01*
X21862238Y-50571883D01*
X21678150Y-50835439D01*
X21549016Y-51129845D01*
X21518036Y-51257766D01*
X21145000Y-51257766D01*
X21145000Y-47384407D01*
X28055160Y-47384407D01*
X28055160Y-47763993D01*
X28129213Y-48136285D01*
X28274475Y-48486977D01*
X28485361Y-48802591D01*
X28753769Y-49070999D01*
X29069383Y-49281885D01*
X29420075Y-49427147D01*
X29792367Y-49501200D01*
X30171953Y-49501200D01*
X30544245Y-49427147D01*
X30894937Y-49281885D01*
X31210551Y-49070999D01*
X31478959Y-48802591D01*
X31689845Y-48486977D01*
X31835107Y-48136285D01*
X31909160Y-47763993D01*
X31909160Y-47384407D01*
X31835107Y-47012115D01*
X31689845Y-46661423D01*
X31478959Y-46345809D01*
X31210551Y-46077401D01*
X30894937Y-45866515D01*
X30544245Y-45721253D01*
X30171953Y-45647200D01*
X29792367Y-45647200D01*
X29420075Y-45721253D01*
X29069383Y-45866515D01*
X28753769Y-46077401D01*
X28485361Y-46345809D01*
X28274475Y-46661423D01*
X28129213Y-47012115D01*
X28055160Y-47384407D01*
X21145000Y-47384407D01*
X21145000Y-39151540D01*
X28055160Y-39151540D01*
X28055160Y-39531126D01*
X28129213Y-39903418D01*
X28274475Y-40254110D01*
X28485361Y-40569724D01*
X28753769Y-40838132D01*
X29069383Y-41049018D01*
X29420075Y-41194280D01*
X29792367Y-41268333D01*
X30171953Y-41268333D01*
X30544245Y-41194280D01*
X30894937Y-41049018D01*
X31210551Y-40838132D01*
X31478959Y-40569724D01*
X31689845Y-40254110D01*
X31835107Y-39903418D01*
X31909160Y-39531126D01*
X31909160Y-39151540D01*
X31835107Y-38779248D01*
X31689845Y-38428556D01*
X31478959Y-38112942D01*
X31210551Y-37844534D01*
X30894937Y-37633648D01*
X30544245Y-37488386D01*
X30171953Y-37414333D01*
X29792367Y-37414333D01*
X29420075Y-37488386D01*
X29069383Y-37633648D01*
X28753769Y-37844534D01*
X28485361Y-38112942D01*
X28274475Y-38428556D01*
X28129213Y-38779248D01*
X28055160Y-39151540D01*
X21145000Y-39151540D01*
X21145000Y-35324333D01*
X21171837Y-35324333D01*
X21209043Y-35702091D01*
X21319231Y-36065332D01*
X21498166Y-36400096D01*
X21738973Y-36693520D01*
X22032397Y-36934327D01*
X22367161Y-37113262D01*
X22730402Y-37223450D01*
X23013502Y-37251333D01*
X24250818Y-37251333D01*
X24533918Y-37223450D01*
X24897159Y-37113262D01*
X25231923Y-36934327D01*
X25525347Y-36693520D01*
X25559969Y-36651333D01*
X34204351Y-36651333D01*
X34238973Y-36693520D01*
X34532397Y-36934327D01*
X34867161Y-37113262D01*
X35230402Y-37223450D01*
X35513502Y-37251333D01*
X36750818Y-37251333D01*
X37033918Y-37223450D01*
X37397159Y-37113262D01*
X37731923Y-36934327D01*
X38025347Y-36693520D01*
X38266154Y-36400096D01*
X38445089Y-36065332D01*
X38555277Y-35702091D01*
X38592483Y-35324333D01*
X38555277Y-34946575D01*
X38445089Y-34583334D01*
X38266154Y-34248570D01*
X38025347Y-33955146D01*
X37731923Y-33714339D01*
X37397159Y-33535404D01*
X37033918Y-33425216D01*
X36750818Y-33397333D01*
X35513502Y-33397333D01*
X35230402Y-33425216D01*
X34867161Y-33535404D01*
X34532397Y-33714339D01*
X34238973Y-33955146D01*
X34204351Y-33997333D01*
X25559969Y-33997333D01*
X25525347Y-33955146D01*
X25231923Y-33714339D01*
X24897159Y-33535404D01*
X24533918Y-33425216D01*
X24250818Y-33397333D01*
X23013502Y-33397333D01*
X22730402Y-33425216D01*
X22367161Y-33535404D01*
X22032397Y-33714339D01*
X21738973Y-33955146D01*
X21498166Y-34248570D01*
X21319231Y-34583334D01*
X21209043Y-34946575D01*
X21171837Y-35324333D01*
X21145000Y-35324333D01*
X21145000Y-30704767D01*
X21518036Y-30704767D01*
X21549016Y-30832688D01*
X21678150Y-31127094D01*
X21862238Y-31390650D01*
X22094206Y-31613228D01*
X22365140Y-31786275D01*
X22664628Y-31903140D01*
X22981160Y-31959333D01*
X23505160Y-31959333D01*
X23505160Y-30451333D01*
X23759160Y-30451333D01*
X23759160Y-31959333D01*
X24283160Y-31959333D01*
X24599692Y-31903140D01*
X24899180Y-31786275D01*
X25170114Y-31613228D01*
X25402082Y-31390650D01*
X25586170Y-31127094D01*
X25715304Y-30832688D01*
X25746284Y-30704767D01*
X34018036Y-30704767D01*
X34049016Y-30832688D01*
X34178150Y-31127094D01*
X34362238Y-31390650D01*
X34594206Y-31613228D01*
X34865140Y-31786275D01*
X35164628Y-31903140D01*
X35481160Y-31959333D01*
X36005160Y-31959333D01*
X36005160Y-30451333D01*
X36259160Y-30451333D01*
X36259160Y-31959333D01*
X36783160Y-31959333D01*
X37099692Y-31903140D01*
X37399180Y-31786275D01*
X37670114Y-31613228D01*
X37902082Y-31390650D01*
X38086170Y-31127094D01*
X38215304Y-30832688D01*
X38246284Y-30704767D01*
X38126937Y-30451333D01*
X36259160Y-30451333D01*
X36005160Y-30451333D01*
X34137383Y-30451333D01*
X34018036Y-30704767D01*
X25746284Y-30704767D01*
X25626937Y-30451333D01*
X23759160Y-30451333D01*
X23505160Y-30451333D01*
X21637383Y-30451333D01*
X21518036Y-30704767D01*
X21145000Y-30704767D01*
X21145000Y-29943899D01*
X21518036Y-29943899D01*
X21637383Y-30197333D01*
X23505160Y-30197333D01*
X23505160Y-28689333D01*
X23759160Y-28689333D01*
X23759160Y-30197333D01*
X25626937Y-30197333D01*
X25746284Y-29943899D01*
X34018036Y-29943899D01*
X34137383Y-30197333D01*
X36005160Y-30197333D01*
X36005160Y-28689333D01*
X36259160Y-28689333D01*
X36259160Y-30197333D01*
X38126937Y-30197333D01*
X38246284Y-29943899D01*
X38215304Y-29815978D01*
X38086170Y-29521572D01*
X37902082Y-29258016D01*
X37670114Y-29035438D01*
X37399180Y-28862391D01*
X37099692Y-28745526D01*
X36783160Y-28689333D01*
X36259160Y-28689333D01*
X36005160Y-28689333D01*
X35481160Y-28689333D01*
X35164628Y-28745526D01*
X34865140Y-28862391D01*
X34594206Y-29035438D01*
X34362238Y-29258016D01*
X34178150Y-29521572D01*
X34049016Y-29815978D01*
X34018036Y-29943899D01*
X25746284Y-29943899D01*
X25715304Y-29815978D01*
X25586170Y-29521572D01*
X25402082Y-29258016D01*
X25170114Y-29035438D01*
X24899180Y-28862391D01*
X24599692Y-28745526D01*
X24283160Y-28689333D01*
X23759160Y-28689333D01*
X23505160Y-28689333D01*
X22981160Y-28689333D01*
X22664628Y-28745526D01*
X22365140Y-28862391D01*
X22094206Y-29035438D01*
X21862238Y-29258016D01*
X21678150Y-29521572D01*
X21549016Y-29815978D01*
X21518036Y-29943899D01*
X21145000Y-29943899D01*
X21145000Y-26070540D01*
X28055160Y-26070540D01*
X28055160Y-26450126D01*
X28129213Y-26822418D01*
X28274475Y-27173110D01*
X28485361Y-27488724D01*
X28753769Y-27757132D01*
X29069383Y-27968018D01*
X29420075Y-28113280D01*
X29792367Y-28187333D01*
X30171953Y-28187333D01*
X30544245Y-28113280D01*
X30894937Y-27968018D01*
X31210551Y-27757132D01*
X31478959Y-27488724D01*
X31689845Y-27173110D01*
X31835107Y-26822418D01*
X31909160Y-26450126D01*
X31909160Y-26070540D01*
X31835107Y-25698248D01*
X31689845Y-25347556D01*
X31478959Y-25031942D01*
X31210551Y-24763534D01*
X30894937Y-24552648D01*
X30544245Y-24407386D01*
X30171953Y-24333333D01*
X29792367Y-24333333D01*
X29420075Y-24407386D01*
X29069383Y-24552648D01*
X28753769Y-24763534D01*
X28485361Y-25031942D01*
X28274475Y-25347556D01*
X28129213Y-25698248D01*
X28055160Y-26070540D01*
X21145000Y-26070540D01*
X21145000Y-24494956D01*
X21342781Y-24692737D01*
X21863126Y-25040421D01*
X22441303Y-25279910D01*
X23055093Y-25402000D01*
X23680907Y-25402000D01*
X24294697Y-25279910D01*
X24872874Y-25040421D01*
X25393219Y-24692737D01*
X25835737Y-24250219D01*
X26183421Y-23729874D01*
X26422910Y-23151697D01*
X26545000Y-22537907D01*
X26545000Y-21912093D01*
X26422910Y-21298303D01*
X26183421Y-20720126D01*
X25835737Y-20199781D01*
X25637956Y-20002000D01*
X113427044Y-20002000D01*
X113229263Y-20199781D01*
G37*
G04 #@! TD.AperFunction*
D33*
X51052557Y-57115138D02*
X51094110Y-57165770D01*
X51144740Y-57207321D01*
X51144741Y-57207322D01*
X51296170Y-57331597D01*
X51408431Y-57391602D01*
X51526702Y-57454819D01*
X51776843Y-57530699D01*
X51970588Y-57549781D01*
X52160150Y-57607284D01*
X52384550Y-57629385D01*
X52822050Y-57629385D01*
X53046450Y-57607284D01*
X53262226Y-57541829D01*
X53390800Y-57473104D01*
X53519374Y-57541829D01*
X53735150Y-57607284D01*
X53959550Y-57629385D01*
X54127125Y-57629385D01*
X55594765Y-59097026D01*
X55594765Y-60186000D01*
X55612663Y-60367724D01*
X55665670Y-60542464D01*
X55751749Y-60703505D01*
X55867591Y-60844659D01*
X56008745Y-60960501D01*
X56169786Y-61046580D01*
X56344526Y-61099587D01*
X56526250Y-61117485D01*
X58026250Y-61117485D01*
X58207974Y-61099587D01*
X58382714Y-61046580D01*
X58543755Y-60960501D01*
X58684909Y-60844659D01*
X58751925Y-60763000D01*
X59193026Y-60763000D01*
X59258200Y-60769419D01*
X59323374Y-60763000D01*
X59323384Y-60763000D01*
X59518337Y-60743799D01*
X59768478Y-60667919D01*
X59999008Y-60544698D01*
X60201070Y-60378870D01*
X60242625Y-60328235D01*
X61154061Y-59416800D01*
X62844448Y-59416800D01*
X62866099Y-59457305D01*
X62981941Y-59598459D01*
X63123095Y-59714301D01*
X63284136Y-59800380D01*
X63458876Y-59853387D01*
X63640600Y-59871285D01*
X65340600Y-59871285D01*
X65522324Y-59853387D01*
X65697064Y-59800380D01*
X65858105Y-59714301D01*
X65999259Y-59598459D01*
X66115101Y-59457305D01*
X66194088Y-59309533D01*
X66263680Y-59361441D01*
X66526501Y-59486625D01*
X66673710Y-59531276D01*
X66903598Y-59409956D01*
X66903598Y-59489741D01*
X65886580Y-60506760D01*
X64007134Y-60506760D01*
X63941960Y-60500341D01*
X63876786Y-60506760D01*
X63876776Y-60506760D01*
X63681823Y-60525961D01*
X63453433Y-60595243D01*
X63431682Y-60601841D01*
X63201151Y-60725062D01*
X63049721Y-60849338D01*
X62999090Y-60890890D01*
X62957539Y-60941520D01*
X62183260Y-61715800D01*
X49744382Y-61715800D01*
X48851822Y-60823241D01*
X49190500Y-60821000D01*
X49349250Y-60662250D01*
X49349250Y-59563000D01*
X49603250Y-59563000D01*
X49603250Y-60662250D01*
X49762000Y-60821000D01*
X50226250Y-60824072D01*
X50350732Y-60811812D01*
X50470430Y-60775502D01*
X50580744Y-60716537D01*
X50677435Y-60637185D01*
X50756787Y-60540494D01*
X50815752Y-60430180D01*
X50852062Y-60310482D01*
X50864322Y-60186000D01*
X50861250Y-59721750D01*
X50702500Y-59563000D01*
X49603250Y-59563000D01*
X49349250Y-59563000D01*
X48250000Y-59563000D01*
X48091250Y-59721750D01*
X48089009Y-60060428D01*
X47580400Y-59551820D01*
X47580400Y-58686000D01*
X48088178Y-58686000D01*
X48091250Y-59150250D01*
X48250000Y-59309000D01*
X49349250Y-59309000D01*
X49349250Y-58209750D01*
X49603250Y-58209750D01*
X49603250Y-59309000D01*
X50702500Y-59309000D01*
X50861250Y-59150250D01*
X50864322Y-58686000D01*
X50852062Y-58561518D01*
X50815752Y-58441820D01*
X50756787Y-58331506D01*
X50677435Y-58234815D01*
X50580744Y-58155463D01*
X50470430Y-58096498D01*
X50350732Y-58060188D01*
X50226250Y-58047928D01*
X49762000Y-58051000D01*
X49603250Y-58209750D01*
X49349250Y-58209750D01*
X49190500Y-58051000D01*
X48726250Y-58047928D01*
X48601768Y-58060188D01*
X48482070Y-58096498D01*
X48371756Y-58155463D01*
X48275065Y-58234815D01*
X48195713Y-58331506D01*
X48136748Y-58441820D01*
X48100438Y-58561518D01*
X48088178Y-58686000D01*
X47580400Y-58686000D01*
X47580400Y-53642980D01*
X51052557Y-57115138D01*
G04 #@! TA.AperFunction,Conductor*
D34*
G36*
X51052557Y-57115138D02*
G01*
X51094110Y-57165770D01*
X51144740Y-57207321D01*
X51144741Y-57207322D01*
X51296170Y-57331597D01*
X51408431Y-57391602D01*
X51526702Y-57454819D01*
X51776843Y-57530699D01*
X51970588Y-57549781D01*
X52160150Y-57607284D01*
X52384550Y-57629385D01*
X52822050Y-57629385D01*
X53046450Y-57607284D01*
X53262226Y-57541829D01*
X53390800Y-57473104D01*
X53519374Y-57541829D01*
X53735150Y-57607284D01*
X53959550Y-57629385D01*
X54127125Y-57629385D01*
X55594765Y-59097026D01*
X55594765Y-60186000D01*
X55612663Y-60367724D01*
X55665670Y-60542464D01*
X55751749Y-60703505D01*
X55867591Y-60844659D01*
X56008745Y-60960501D01*
X56169786Y-61046580D01*
X56344526Y-61099587D01*
X56526250Y-61117485D01*
X58026250Y-61117485D01*
X58207974Y-61099587D01*
X58382714Y-61046580D01*
X58543755Y-60960501D01*
X58684909Y-60844659D01*
X58751925Y-60763000D01*
X59193026Y-60763000D01*
X59258200Y-60769419D01*
X59323374Y-60763000D01*
X59323384Y-60763000D01*
X59518337Y-60743799D01*
X59768478Y-60667919D01*
X59999008Y-60544698D01*
X60201070Y-60378870D01*
X60242625Y-60328235D01*
X61154061Y-59416800D01*
X62844448Y-59416800D01*
X62866099Y-59457305D01*
X62981941Y-59598459D01*
X63123095Y-59714301D01*
X63284136Y-59800380D01*
X63458876Y-59853387D01*
X63640600Y-59871285D01*
X65340600Y-59871285D01*
X65522324Y-59853387D01*
X65697064Y-59800380D01*
X65858105Y-59714301D01*
X65999259Y-59598459D01*
X66115101Y-59457305D01*
X66194088Y-59309533D01*
X66263680Y-59361441D01*
X66526501Y-59486625D01*
X66673710Y-59531276D01*
X66903598Y-59409956D01*
X66903598Y-59489741D01*
X65886580Y-60506760D01*
X64007134Y-60506760D01*
X63941960Y-60500341D01*
X63876786Y-60506760D01*
X63876776Y-60506760D01*
X63681823Y-60525961D01*
X63453433Y-60595243D01*
X63431682Y-60601841D01*
X63201151Y-60725062D01*
X63049721Y-60849338D01*
X62999090Y-60890890D01*
X62957539Y-60941520D01*
X62183260Y-61715800D01*
X49744382Y-61715800D01*
X48851822Y-60823241D01*
X49190500Y-60821000D01*
X49349250Y-60662250D01*
X49349250Y-59563000D01*
X49603250Y-59563000D01*
X49603250Y-60662250D01*
X49762000Y-60821000D01*
X50226250Y-60824072D01*
X50350732Y-60811812D01*
X50470430Y-60775502D01*
X50580744Y-60716537D01*
X50677435Y-60637185D01*
X50756787Y-60540494D01*
X50815752Y-60430180D01*
X50852062Y-60310482D01*
X50864322Y-60186000D01*
X50861250Y-59721750D01*
X50702500Y-59563000D01*
X49603250Y-59563000D01*
X49349250Y-59563000D01*
X48250000Y-59563000D01*
X48091250Y-59721750D01*
X48089009Y-60060428D01*
X47580400Y-59551820D01*
X47580400Y-58686000D01*
X48088178Y-58686000D01*
X48091250Y-59150250D01*
X48250000Y-59309000D01*
X49349250Y-59309000D01*
X49349250Y-58209750D01*
X49603250Y-58209750D01*
X49603250Y-59309000D01*
X50702500Y-59309000D01*
X50861250Y-59150250D01*
X50864322Y-58686000D01*
X50852062Y-58561518D01*
X50815752Y-58441820D01*
X50756787Y-58331506D01*
X50677435Y-58234815D01*
X50580744Y-58155463D01*
X50470430Y-58096498D01*
X50350732Y-58060188D01*
X50226250Y-58047928D01*
X49762000Y-58051000D01*
X49603250Y-58209750D01*
X49349250Y-58209750D01*
X49190500Y-58051000D01*
X48726250Y-58047928D01*
X48601768Y-58060188D01*
X48482070Y-58096498D01*
X48371756Y-58155463D01*
X48275065Y-58234815D01*
X48195713Y-58331506D01*
X48136748Y-58441820D01*
X48100438Y-58561518D01*
X48088178Y-58686000D01*
X47580400Y-58686000D01*
X47580400Y-53642980D01*
X51052557Y-57115138D01*
G37*
G04 #@! TD.AperFunction*
D33*
X67157600Y-57962800D02*
X67177600Y-57962800D01*
X67177600Y-58216800D01*
X67157600Y-58216800D01*
X67157600Y-58236800D01*
X66903600Y-58236800D01*
X66903600Y-58216800D01*
X66883600Y-58216800D01*
X66883600Y-57962800D01*
X66903600Y-57962800D01*
X66903600Y-57942800D01*
X67157600Y-57942800D01*
X67157600Y-57962800D01*
G04 #@! TA.AperFunction,Conductor*
D34*
G36*
X67157600Y-57962800D02*
G01*
X67177600Y-57962800D01*
X67177600Y-58216800D01*
X67157600Y-58216800D01*
X67157600Y-58236800D01*
X66903600Y-58236800D01*
X66903600Y-58216800D01*
X66883600Y-58216800D01*
X66883600Y-57962800D01*
X66903600Y-57962800D01*
X66903600Y-57942800D01*
X67157600Y-57942800D01*
X67157600Y-57962800D01*
G37*
G04 #@! TD.AperFunction*
D33*
X63220600Y-35648900D02*
X63240600Y-35648900D01*
X63240600Y-35902900D01*
X63220600Y-35902900D01*
X63220600Y-37507620D01*
X63436670Y-37630120D01*
X63510876Y-37615162D01*
X63764135Y-37508022D01*
X63991626Y-37353532D01*
X64184606Y-37157629D01*
X64187448Y-37153306D01*
X64222454Y-37218798D01*
X64433519Y-37475982D01*
X64690703Y-37687047D01*
X64984121Y-37843882D01*
X65302499Y-37940461D01*
X65633600Y-37973072D01*
X65964702Y-37940461D01*
X66283080Y-37843882D01*
X66576498Y-37687047D01*
X66833682Y-37475982D01*
X66903601Y-37390786D01*
X66973519Y-37475982D01*
X67230703Y-37687047D01*
X67524121Y-37843882D01*
X67842499Y-37940461D01*
X68173600Y-37973072D01*
X68504702Y-37940461D01*
X68823080Y-37843882D01*
X69116498Y-37687047D01*
X69373682Y-37475982D01*
X69584747Y-37218798D01*
X69621400Y-37150224D01*
X69658054Y-37218798D01*
X69869119Y-37475982D01*
X70017201Y-37597509D01*
X70017200Y-38421740D01*
X65659878Y-38421740D01*
X65608199Y-38416650D01*
X65514183Y-38425910D01*
X65401972Y-38436962D01*
X65203669Y-38497116D01*
X65020912Y-38594802D01*
X64860724Y-38726264D01*
X64827778Y-38766409D01*
X61748021Y-41846168D01*
X61524872Y-41753736D01*
X61268498Y-41702740D01*
X61007102Y-41702740D01*
X60750728Y-41753736D01*
X60509230Y-41853768D01*
X60291887Y-41998992D01*
X60107052Y-42183827D01*
X59961828Y-42401170D01*
X59861796Y-42642668D01*
X59810800Y-42899042D01*
X59810800Y-43160438D01*
X59861796Y-43416812D01*
X59961828Y-43658310D01*
X59966124Y-43664740D01*
X59961828Y-43671170D01*
X59861796Y-43912668D01*
X59810800Y-44169042D01*
X59810800Y-44430438D01*
X59823650Y-44495038D01*
X59751400Y-44422789D01*
X59751400Y-39604691D01*
X61260931Y-38095162D01*
X61301076Y-38062216D01*
X61432538Y-37902028D01*
X61530224Y-37719271D01*
X61554418Y-37639513D01*
X61753682Y-37475982D01*
X61964747Y-37218798D01*
X61999753Y-37153307D01*
X62002594Y-37157629D01*
X62195574Y-37353532D01*
X62423065Y-37508022D01*
X62676324Y-37615162D01*
X62750530Y-37630120D01*
X62966600Y-37507620D01*
X62966600Y-35902900D01*
X62946600Y-35902900D01*
X62946600Y-35648900D01*
X62966600Y-35648900D01*
X62966600Y-35628900D01*
X63220600Y-35628900D01*
X63220600Y-35648900D01*
G04 #@! TA.AperFunction,Conductor*
D34*
G36*
X63220600Y-35648900D02*
G01*
X63240600Y-35648900D01*
X63240600Y-35902900D01*
X63220600Y-35902900D01*
X63220600Y-37507620D01*
X63436670Y-37630120D01*
X63510876Y-37615162D01*
X63764135Y-37508022D01*
X63991626Y-37353532D01*
X64184606Y-37157629D01*
X64187448Y-37153306D01*
X64222454Y-37218798D01*
X64433519Y-37475982D01*
X64690703Y-37687047D01*
X64984121Y-37843882D01*
X65302499Y-37940461D01*
X65633600Y-37973072D01*
X65964702Y-37940461D01*
X66283080Y-37843882D01*
X66576498Y-37687047D01*
X66833682Y-37475982D01*
X66903601Y-37390786D01*
X66973519Y-37475982D01*
X67230703Y-37687047D01*
X67524121Y-37843882D01*
X67842499Y-37940461D01*
X68173600Y-37973072D01*
X68504702Y-37940461D01*
X68823080Y-37843882D01*
X69116498Y-37687047D01*
X69373682Y-37475982D01*
X69584747Y-37218798D01*
X69621400Y-37150224D01*
X69658054Y-37218798D01*
X69869119Y-37475982D01*
X70017201Y-37597509D01*
X70017200Y-38421740D01*
X65659878Y-38421740D01*
X65608199Y-38416650D01*
X65514183Y-38425910D01*
X65401972Y-38436962D01*
X65203669Y-38497116D01*
X65020912Y-38594802D01*
X64860724Y-38726264D01*
X64827778Y-38766409D01*
X61748021Y-41846168D01*
X61524872Y-41753736D01*
X61268498Y-41702740D01*
X61007102Y-41702740D01*
X60750728Y-41753736D01*
X60509230Y-41853768D01*
X60291887Y-41998992D01*
X60107052Y-42183827D01*
X59961828Y-42401170D01*
X59861796Y-42642668D01*
X59810800Y-42899042D01*
X59810800Y-43160438D01*
X59861796Y-43416812D01*
X59961828Y-43658310D01*
X59966124Y-43664740D01*
X59961828Y-43671170D01*
X59861796Y-43912668D01*
X59810800Y-44169042D01*
X59810800Y-44430438D01*
X59823650Y-44495038D01*
X59751400Y-44422789D01*
X59751400Y-39604691D01*
X61260931Y-38095162D01*
X61301076Y-38062216D01*
X61432538Y-37902028D01*
X61530224Y-37719271D01*
X61554418Y-37639513D01*
X61753682Y-37475982D01*
X61964747Y-37218798D01*
X61999753Y-37153307D01*
X62002594Y-37157629D01*
X62195574Y-37353532D01*
X62423065Y-37508022D01*
X62676324Y-37615162D01*
X62750530Y-37630120D01*
X62966600Y-37507620D01*
X62966600Y-35902900D01*
X62946600Y-35902900D01*
X62946600Y-35648900D01*
X62966600Y-35648900D01*
X62966600Y-35628900D01*
X63220600Y-35628900D01*
X63220600Y-35648900D01*
G37*
G04 #@! TD.AperFunction*
D33*
X76276200Y-35648900D02*
X76296200Y-35648900D01*
X76296200Y-35902900D01*
X76276200Y-35902900D01*
X76276200Y-35922900D01*
X76022200Y-35922900D01*
X76022200Y-35902900D01*
X76002200Y-35902900D01*
X76002200Y-35648900D01*
X76022200Y-35648900D01*
X76022200Y-35628900D01*
X76276200Y-35628900D01*
X76276200Y-35648900D01*
G04 #@! TA.AperFunction,Conductor*
D34*
G36*
X76276200Y-35648900D02*
G01*
X76296200Y-35648900D01*
X76296200Y-35902900D01*
X76276200Y-35902900D01*
X76276200Y-35922900D01*
X76022200Y-35922900D01*
X76022200Y-35902900D01*
X76002200Y-35902900D01*
X76002200Y-35648900D01*
X76022200Y-35648900D01*
X76022200Y-35628900D01*
X76276200Y-35628900D01*
X76276200Y-35648900D01*
G37*
G04 #@! TD.AperFunction*
M02*
