G04 #@! TF.GenerationSoftware,KiCad,Pcbnew,(5.1.7)-1*
G04 #@! TF.CreationDate,2020-10-06T16:51:21+07:00*
G04 #@! TF.ProjectId,PIC16F1X_KIT2019,50494331-3646-4315-985f-4b4954323031,rev?*
G04 #@! TF.SameCoordinates,Original*
G04 #@! TF.FileFunction,Other,User*
%FSLAX46Y46*%
G04 Gerber Fmt 4.6, Leading zero omitted, Abs format (unit mm)*
G04 Created by KiCad (PCBNEW (5.1.7)-1) date 2020-10-06 16:51:21*
%MOMM*%
%LPD*%
G01*
G04 APERTURE LIST*
%ADD10C,0.050000*%
G04 APERTURE END LIST*
D10*
X112191520Y-36225520D02*
X112191520Y-34325520D01*
X112191520Y-34325520D02*
X108491520Y-34325520D01*
X108491520Y-34325520D02*
X108491520Y-36225520D01*
X108491520Y-36225520D02*
X112191520Y-36225520D01*
X112163360Y-57581840D02*
X112163360Y-55681840D01*
X112163360Y-55681840D02*
X108463360Y-55681840D01*
X108463360Y-55681840D02*
X108463360Y-57581840D01*
X108463360Y-57581840D02*
X112163360Y-57581840D01*
X40380040Y-34955440D02*
X40380040Y-36855440D01*
X40380040Y-36855440D02*
X44080040Y-36855440D01*
X44080040Y-36855440D02*
X44080040Y-34955440D01*
X44080040Y-34955440D02*
X40380040Y-34955440D01*
X40314000Y-55890120D02*
X40314000Y-57790120D01*
X40314000Y-57790120D02*
X44014000Y-57790120D01*
X44014000Y-57790120D02*
X44014000Y-55890120D01*
X44014000Y-55890120D02*
X40314000Y-55890120D01*
X32924360Y-52618680D02*
X32924360Y-50718680D01*
X32924360Y-50718680D02*
X29224360Y-50718680D01*
X29224360Y-50718680D02*
X29224360Y-52618680D01*
X29224360Y-52618680D02*
X32924360Y-52618680D01*
X112187600Y-52593280D02*
X112187600Y-50693280D01*
X112187600Y-50693280D02*
X108487600Y-50693280D01*
X108487600Y-50693280D02*
X108487600Y-52593280D01*
X108487600Y-52593280D02*
X112187600Y-52593280D01*
X112242320Y-31120120D02*
X112242320Y-29220120D01*
X112242320Y-29220120D02*
X108542320Y-29220120D01*
X108542320Y-29220120D02*
X108542320Y-31120120D01*
X108542320Y-31120120D02*
X112242320Y-31120120D01*
X32914200Y-31277600D02*
X32914200Y-29377600D01*
X32914200Y-29377600D02*
X29214200Y-29377600D01*
X29214200Y-29377600D02*
X29214200Y-31277600D01*
X29214200Y-31277600D02*
X32914200Y-31277600D01*
X100361360Y-29235440D02*
X100361360Y-27335440D01*
X100361360Y-27335440D02*
X96661360Y-27335440D01*
X96661360Y-27335440D02*
X96661360Y-29235440D01*
X96661360Y-29235440D02*
X100361360Y-29235440D01*
X100366440Y-31226800D02*
X100366440Y-29326800D01*
X100366440Y-29326800D02*
X96666440Y-29326800D01*
X96666440Y-29326800D02*
X96666440Y-31226800D01*
X96666440Y-31226800D02*
X100366440Y-31226800D01*
X96675440Y-50688280D02*
X100375440Y-50688280D01*
X96675440Y-48788280D02*
X96675440Y-50688280D01*
X100375440Y-48788280D02*
X96675440Y-48788280D01*
X100375440Y-50688280D02*
X100375440Y-48788280D01*
X100366440Y-52669480D02*
X100366440Y-50769480D01*
X100366440Y-50769480D02*
X96666440Y-50769480D01*
X96666440Y-50769480D02*
X96666440Y-52669480D01*
X96666440Y-52669480D02*
X100366440Y-52669480D01*
X42286800Y-48696840D02*
X38586800Y-48696840D01*
X42286800Y-50596840D02*
X42286800Y-48696840D01*
X38586800Y-50596840D02*
X42286800Y-50596840D01*
X38586800Y-48696840D02*
X38586800Y-50596840D01*
X38586800Y-50703440D02*
X38586800Y-52603440D01*
X38586800Y-52603440D02*
X42286800Y-52603440D01*
X42286800Y-52603440D02*
X42286800Y-50703440D01*
X42286800Y-50703440D02*
X38586800Y-50703440D01*
X42368080Y-27396400D02*
X38668080Y-27396400D01*
X42368080Y-29296400D02*
X42368080Y-27396400D01*
X38668080Y-29296400D02*
X42368080Y-29296400D01*
X38668080Y-27396400D02*
X38668080Y-29296400D01*
X38673160Y-29377600D02*
X38673160Y-31277600D01*
X38673160Y-31277600D02*
X42373160Y-31277600D01*
X42373160Y-31277600D02*
X42373160Y-29377600D01*
X42373160Y-29377600D02*
X38673160Y-29377600D01*
X62690600Y-56289800D02*
X76440600Y-56289800D01*
X76440600Y-56289800D02*
X76440600Y-68639800D01*
X76440600Y-68639800D02*
X62690600Y-68639800D01*
X62690600Y-68639800D02*
X62690600Y-56289800D01*
X81744100Y-42184940D02*
X81744100Y-40724940D01*
X81744100Y-40724940D02*
X78784100Y-40724940D01*
X78784100Y-40724940D02*
X78784100Y-42184940D01*
X78784100Y-42184940D02*
X81744100Y-42184940D01*
X40176000Y-42780200D02*
X40176000Y-44240200D01*
X40176000Y-44240200D02*
X43136000Y-44240200D01*
X43136000Y-44240200D02*
X43136000Y-42780200D01*
X43136000Y-42780200D02*
X40176000Y-42780200D01*
X68256600Y-39644940D02*
X68256600Y-38184940D01*
X68256600Y-38184940D02*
X65296600Y-38184940D01*
X65296600Y-38184940D02*
X65296600Y-39644940D01*
X65296600Y-39644940D02*
X68256600Y-39644940D01*
X68256600Y-41041940D02*
X68256600Y-39581940D01*
X68256600Y-39581940D02*
X65296600Y-39581940D01*
X65296600Y-39581940D02*
X65296600Y-41041940D01*
X65296600Y-41041940D02*
X68256600Y-41041940D01*
X68231200Y-42246300D02*
X68231200Y-40786300D01*
X68231200Y-40786300D02*
X65271200Y-40786300D01*
X65271200Y-40786300D02*
X65271200Y-42246300D01*
X65271200Y-42246300D02*
X68231200Y-42246300D01*
X68231100Y-43518440D02*
X68231100Y-42058440D01*
X68231100Y-42058440D02*
X65271100Y-42058440D01*
X65271100Y-42058440D02*
X65271100Y-43518440D01*
X65271100Y-43518440D02*
X68231100Y-43518440D01*
X68218600Y-44786300D02*
X68218600Y-43326300D01*
X68218600Y-43326300D02*
X65258600Y-43326300D01*
X65258600Y-43326300D02*
X65258600Y-44786300D01*
X65258600Y-44786300D02*
X68218600Y-44786300D01*
X68218500Y-46056300D02*
X68218500Y-44596300D01*
X68218500Y-44596300D02*
X65258500Y-44596300D01*
X65258500Y-44596300D02*
X65258500Y-46056300D01*
X65258500Y-46056300D02*
X68218500Y-46056300D01*
X68218500Y-47326300D02*
X68218500Y-45866300D01*
X68218500Y-45866300D02*
X65258500Y-45866300D01*
X65258500Y-45866300D02*
X65258500Y-47326300D01*
X65258500Y-47326300D02*
X68218500Y-47326300D01*
X68218600Y-48596300D02*
X68218600Y-47136300D01*
X68218600Y-47136300D02*
X65258600Y-47136300D01*
X65258600Y-47136300D02*
X65258600Y-48596300D01*
X65258600Y-48596300D02*
X68218600Y-48596300D01*
X81744000Y-39693600D02*
X81744000Y-38233600D01*
X81744000Y-38233600D02*
X78784000Y-38233600D01*
X78784000Y-38233600D02*
X78784000Y-39693600D01*
X78784000Y-39693600D02*
X81744000Y-39693600D01*
X81744100Y-40914940D02*
X81744100Y-39454940D01*
X81744100Y-39454940D02*
X78784100Y-39454940D01*
X78784100Y-39454940D02*
X78784100Y-40914940D01*
X78784100Y-40914940D02*
X81744100Y-40914940D01*
X81744000Y-43503600D02*
X81744000Y-42043600D01*
X81744000Y-42043600D02*
X78784000Y-42043600D01*
X78784000Y-42043600D02*
X78784000Y-43503600D01*
X78784000Y-43503600D02*
X81744000Y-43503600D01*
X81744000Y-44773600D02*
X81744000Y-43313600D01*
X81744000Y-43313600D02*
X78784000Y-43313600D01*
X78784000Y-43313600D02*
X78784000Y-44773600D01*
X78784000Y-44773600D02*
X81744000Y-44773600D01*
X81731400Y-46043600D02*
X81731400Y-44583600D01*
X81731400Y-44583600D02*
X78771400Y-44583600D01*
X78771400Y-44583600D02*
X78771400Y-46043600D01*
X78771400Y-46043600D02*
X81731400Y-46043600D01*
X81744000Y-47313600D02*
X81744000Y-45853600D01*
X81744000Y-45853600D02*
X78784000Y-45853600D01*
X78784000Y-45853600D02*
X78784000Y-47313600D01*
X78784000Y-47313600D02*
X81744000Y-47313600D01*
X81744000Y-48583600D02*
X81744000Y-47123600D01*
X81744000Y-47123600D02*
X78784000Y-47123600D01*
X78784000Y-47123600D02*
X78784000Y-48583600D01*
X78784000Y-48583600D02*
X81744000Y-48583600D01*
X87058750Y-56991000D02*
X87058750Y-55531000D01*
X87058750Y-55531000D02*
X84098750Y-55531000D01*
X84098750Y-55531000D02*
X84098750Y-56991000D01*
X84098750Y-56991000D02*
X87058750Y-56991000D01*
X68061900Y-31227500D02*
X71561900Y-31227500D01*
X68061900Y-27827500D02*
X68061900Y-31227500D01*
X71561900Y-27827500D02*
X68061900Y-27827500D01*
X71561900Y-31227500D02*
X71561900Y-27827500D01*
X44526000Y-40081700D02*
X54026000Y-40081700D01*
X44526000Y-48081700D02*
X54026000Y-48081700D01*
X54026000Y-48081700D02*
X54026000Y-40081700D01*
X44526000Y-48081700D02*
X44526000Y-40081700D01*
X64888600Y-38221300D02*
X64888600Y-48621300D01*
X64888600Y-48621300D02*
X57488600Y-48621300D01*
X57488600Y-48621300D02*
X57488600Y-38221300D01*
X57488600Y-38221300D02*
X64888600Y-38221300D01*
X70849000Y-38221300D02*
X78249000Y-38221300D01*
X70849000Y-48621300D02*
X70849000Y-38221300D01*
X78249000Y-48621300D02*
X70849000Y-48621300D01*
X78249000Y-38221300D02*
X78249000Y-48621300D01*
M02*
