G04 #@! TF.GenerationSoftware,KiCad,Pcbnew,(5.1.7)-1*
G04 #@! TF.CreationDate,2020-10-06T16:51:20+07:00*
G04 #@! TF.ProjectId,PIC16F1X_KIT2019,50494331-3646-4315-985f-4b4954323031,rev?*
G04 #@! TF.SameCoordinates,Original*
G04 #@! TF.FileFunction,Soldermask,Top*
G04 #@! TF.FilePolarity,Negative*
%FSLAX46Y46*%
G04 Gerber Fmt 4.6, Leading zero omitted, Abs format (unit mm)*
G04 Created by KiCad (PCBNEW (5.1.7)-1) date 2020-10-06 16:51:20*
%MOMM*%
%LPD*%
G01*
G04 APERTURE LIST*
%ADD10C,4.602000*%
%ADD11O,1.802000X1.802000*%
%ADD12O,3.150000X2.102000*%
%ADD13C,2.102000*%
%ADD14O,1.626000X2.626000*%
%ADD15O,1.152000X2.002000*%
%ADD16C,1.902000*%
%ADD17C,0.100000*%
G04 APERTURE END LIST*
D10*
X115376960Y-115275360D03*
X22479000Y-115824000D03*
D11*
X74650600Y-58089800D03*
X72110600Y-58089800D03*
X69570600Y-58089800D03*
X67030600Y-58089800D03*
G36*
G01*
X63640600Y-57188800D02*
X65340600Y-57188800D01*
G75*
G02*
X65391600Y-57239800I0J-51000D01*
G01*
X65391600Y-58939800D01*
G75*
G02*
X65340600Y-58990800I-51000J0D01*
G01*
X63640600Y-58990800D01*
G75*
G02*
X63589600Y-58939800I0J51000D01*
G01*
X63589600Y-57239800D01*
G75*
G02*
X63640600Y-57188800I51000J0D01*
G01*
G37*
D12*
X115466520Y-51638200D03*
X115466520Y-56638200D03*
X102966520Y-51638200D03*
X102966520Y-56638200D03*
D13*
X109316520Y-47574200D03*
X109316520Y-60655200D03*
D12*
X36132160Y-51638200D03*
X36132160Y-56638200D03*
X23632160Y-51638200D03*
X23632160Y-56638200D03*
D13*
X29982160Y-47574200D03*
X29982160Y-60655200D03*
X109316520Y-39293800D03*
X109316520Y-26212800D03*
D12*
X102966520Y-35276800D03*
X102966520Y-30276800D03*
X115466520Y-35276800D03*
X115466520Y-30276800D03*
X36132160Y-30324333D03*
X36132160Y-35324333D03*
X23632160Y-30324333D03*
X23632160Y-35324333D03*
D13*
X29982160Y-26260333D03*
X29982160Y-39341333D03*
G36*
G01*
X53091800Y-55941150D02*
X53091800Y-56504650D01*
G75*
G02*
X52847550Y-56748900I-244250J0D01*
G01*
X52359050Y-56748900D01*
G75*
G02*
X52114800Y-56504650I0J244250D01*
G01*
X52114800Y-55941150D01*
G75*
G02*
X52359050Y-55696900I244250J0D01*
G01*
X52847550Y-55696900D01*
G75*
G02*
X53091800Y-55941150I0J-244250D01*
G01*
G37*
G36*
G01*
X54666800Y-55941150D02*
X54666800Y-56504650D01*
G75*
G02*
X54422550Y-56748900I-244250J0D01*
G01*
X53934050Y-56748900D01*
G75*
G02*
X53689800Y-56504650I0J244250D01*
G01*
X53689800Y-55941150D01*
G75*
G02*
X53934050Y-55696900I244250J0D01*
G01*
X54422550Y-55696900D01*
G75*
G02*
X54666800Y-55941150I0J-244250D01*
G01*
G37*
G36*
G01*
X72854100Y-55564850D02*
X72854100Y-55001350D01*
G75*
G02*
X73098350Y-54757100I244250J0D01*
G01*
X73586850Y-54757100D01*
G75*
G02*
X73831100Y-55001350I0J-244250D01*
G01*
X73831100Y-55564850D01*
G75*
G02*
X73586850Y-55809100I-244250J0D01*
G01*
X73098350Y-55809100D01*
G75*
G02*
X72854100Y-55564850I0J244250D01*
G01*
G37*
G36*
G01*
X71279100Y-55564850D02*
X71279100Y-55001350D01*
G75*
G02*
X71523350Y-54757100I244250J0D01*
G01*
X72011850Y-54757100D01*
G75*
G02*
X72256100Y-55001350I0J-244250D01*
G01*
X72256100Y-55564850D01*
G75*
G02*
X72011850Y-55809100I-244250J0D01*
G01*
X71523350Y-55809100D01*
G75*
G02*
X71279100Y-55564850I0J244250D01*
G01*
G37*
D10*
X115697000Y-65024000D03*
X23368000Y-22225000D03*
X23368000Y-65024000D03*
X115697000Y-22225000D03*
G36*
G01*
X64681500Y-27162000D02*
X64681500Y-25162000D01*
G75*
G02*
X64732500Y-25111000I51000J0D01*
G01*
X66732500Y-25111000D01*
G75*
G02*
X66783500Y-25162000I0J-51000D01*
G01*
X66783500Y-27162000D01*
G75*
G02*
X66732500Y-27213000I-51000J0D01*
G01*
X64732500Y-27213000D01*
G75*
G02*
X64681500Y-27162000I0J51000D01*
G01*
G37*
D13*
X73332500Y-26162000D03*
G36*
G01*
X70561200Y-54804272D02*
X70561200Y-55761928D01*
G75*
G02*
X70289028Y-56034100I-272172J0D01*
G01*
X69581372Y-56034100D01*
G75*
G02*
X69309200Y-55761928I0J272172D01*
G01*
X69309200Y-54804272D01*
G75*
G02*
X69581372Y-54532100I272172J0D01*
G01*
X70289028Y-54532100D01*
G75*
G02*
X70561200Y-54804272I0J-272172D01*
G01*
G37*
G36*
G01*
X68511200Y-54804272D02*
X68511200Y-55761928D01*
G75*
G02*
X68239028Y-56034100I-272172J0D01*
G01*
X67531372Y-56034100D01*
G75*
G02*
X67259200Y-55761928I0J272172D01*
G01*
X67259200Y-54804272D01*
G75*
G02*
X67531372Y-54532100I272172J0D01*
G01*
X68239028Y-54532100D01*
G75*
G02*
X68511200Y-54804272I0J-272172D01*
G01*
G37*
G36*
G01*
X48675250Y-60186000D02*
X48675250Y-58686000D01*
G75*
G02*
X48726250Y-58635000I51000J0D01*
G01*
X50226250Y-58635000D01*
G75*
G02*
X50277250Y-58686000I0J-51000D01*
G01*
X50277250Y-60186000D01*
G75*
G02*
X50226250Y-60237000I-51000J0D01*
G01*
X48726250Y-60237000D01*
G75*
G02*
X48675250Y-60186000I0J51000D01*
G01*
G37*
G36*
G01*
X56475250Y-60186000D02*
X56475250Y-58686000D01*
G75*
G02*
X56526250Y-58635000I51000J0D01*
G01*
X58026250Y-58635000D01*
G75*
G02*
X58077250Y-58686000I0J-51000D01*
G01*
X58077250Y-60186000D01*
G75*
G02*
X58026250Y-60237000I-51000J0D01*
G01*
X56526250Y-60237000D01*
G75*
G02*
X56475250Y-60186000I0J51000D01*
G01*
G37*
G36*
G01*
X80877750Y-60186000D02*
X80877750Y-58686000D01*
G75*
G02*
X80928750Y-58635000I51000J0D01*
G01*
X82428750Y-58635000D01*
G75*
G02*
X82479750Y-58686000I0J-51000D01*
G01*
X82479750Y-60186000D01*
G75*
G02*
X82428750Y-60237000I-51000J0D01*
G01*
X80928750Y-60237000D01*
G75*
G02*
X80877750Y-60186000I0J51000D01*
G01*
G37*
G36*
G01*
X88677750Y-60186000D02*
X88677750Y-58686000D01*
G75*
G02*
X88728750Y-58635000I51000J0D01*
G01*
X90228750Y-58635000D01*
G75*
G02*
X90279750Y-58686000I0J-51000D01*
G01*
X90279750Y-60186000D01*
G75*
G02*
X90228750Y-60237000I-51000J0D01*
G01*
X88728750Y-60237000D01*
G75*
G02*
X88677750Y-60186000I0J51000D01*
G01*
G37*
D14*
X58013600Y-35775900D03*
X60553600Y-35775900D03*
X63093600Y-35775900D03*
X65633600Y-35775900D03*
X68173600Y-35775900D03*
X68173600Y-51015900D03*
X65633600Y-51015900D03*
X63093600Y-51015900D03*
X60553600Y-51015900D03*
G36*
G01*
X57200600Y-52277900D02*
X57200600Y-49753900D01*
G75*
G02*
X57251600Y-49702900I51000J0D01*
G01*
X58775600Y-49702900D01*
G75*
G02*
X58826600Y-49753900I0J-51000D01*
G01*
X58826600Y-52277900D01*
G75*
G02*
X58775600Y-52328900I-51000J0D01*
G01*
X57251600Y-52328900D01*
G75*
G02*
X57200600Y-52277900I0J51000D01*
G01*
G37*
G36*
G01*
X70256200Y-52277900D02*
X70256200Y-49753900D01*
G75*
G02*
X70307200Y-49702900I51000J0D01*
G01*
X71831200Y-49702900D01*
G75*
G02*
X71882200Y-49753900I0J-51000D01*
G01*
X71882200Y-52277900D01*
G75*
G02*
X71831200Y-52328900I-51000J0D01*
G01*
X70307200Y-52328900D01*
G75*
G02*
X70256200Y-52277900I0J51000D01*
G01*
G37*
X73609200Y-51015900D03*
X76149200Y-51015900D03*
X78689200Y-51015900D03*
X81229200Y-51015900D03*
X81229200Y-35775900D03*
X78689200Y-35775900D03*
X76149200Y-35775900D03*
X73609200Y-35775900D03*
X71069200Y-35775900D03*
G36*
G01*
X69739120Y-67052080D02*
X69739120Y-65152080D01*
G75*
G02*
X69790120Y-65101080I51000J0D01*
G01*
X71540120Y-65101080D01*
G75*
G02*
X71591120Y-65152080I0J-51000D01*
G01*
X71591120Y-67052080D01*
G75*
G02*
X71540120Y-67103080I-51000J0D01*
G01*
X69790120Y-67103080D01*
G75*
G02*
X69739120Y-67052080I0J51000D01*
G01*
G37*
G36*
G01*
X68639120Y-64152080D02*
X68639120Y-62752080D01*
G75*
G02*
X68690120Y-62701080I51000J0D01*
G01*
X69090120Y-62701080D01*
G75*
G02*
X69141120Y-62752080I0J-51000D01*
G01*
X69141120Y-64152080D01*
G75*
G02*
X69090120Y-64203080I-51000J0D01*
G01*
X68690120Y-64203080D01*
G75*
G02*
X68639120Y-64152080I0J51000D01*
G01*
G37*
G36*
G01*
X67989120Y-64152080D02*
X67989120Y-62752080D01*
G75*
G02*
X68040120Y-62701080I51000J0D01*
G01*
X68440120Y-62701080D01*
G75*
G02*
X68491120Y-62752080I0J-51000D01*
G01*
X68491120Y-64152080D01*
G75*
G02*
X68440120Y-64203080I-51000J0D01*
G01*
X68040120Y-64203080D01*
G75*
G02*
X67989120Y-64152080I0J51000D01*
G01*
G37*
G36*
G01*
X70589120Y-64152080D02*
X70589120Y-62752080D01*
G75*
G02*
X70640120Y-62701080I51000J0D01*
G01*
X71040120Y-62701080D01*
G75*
G02*
X71091120Y-62752080I0J-51000D01*
G01*
X71091120Y-64152080D01*
G75*
G02*
X71040120Y-64203080I-51000J0D01*
G01*
X70640120Y-64203080D01*
G75*
G02*
X70589120Y-64152080I0J51000D01*
G01*
G37*
G36*
G01*
X69939120Y-64152080D02*
X69939120Y-62752080D01*
G75*
G02*
X69990120Y-62701080I51000J0D01*
G01*
X70390120Y-62701080D01*
G75*
G02*
X70441120Y-62752080I0J-51000D01*
G01*
X70441120Y-64152080D01*
G75*
G02*
X70390120Y-64203080I-51000J0D01*
G01*
X69990120Y-64203080D01*
G75*
G02*
X69939120Y-64152080I0J51000D01*
G01*
G37*
G36*
G01*
X69289120Y-64152080D02*
X69289120Y-62752080D01*
G75*
G02*
X69340120Y-62701080I51000J0D01*
G01*
X69740120Y-62701080D01*
G75*
G02*
X69791120Y-62752080I0J-51000D01*
G01*
X69791120Y-64152080D01*
G75*
G02*
X69740120Y-64203080I-51000J0D01*
G01*
X69340120Y-64203080D01*
G75*
G02*
X69289120Y-64152080I0J51000D01*
G01*
G37*
G36*
G01*
X67489120Y-67052080D02*
X67489120Y-65152080D01*
G75*
G02*
X67540120Y-65101080I51000J0D01*
G01*
X69290120Y-65101080D01*
G75*
G02*
X69341120Y-65152080I0J-51000D01*
G01*
X69341120Y-67052080D01*
G75*
G02*
X69290120Y-67103080I-51000J0D01*
G01*
X67540120Y-67103080D01*
G75*
G02*
X67489120Y-67052080I0J51000D01*
G01*
G37*
D15*
X65965120Y-66102080D03*
X73115120Y-66102080D03*
G36*
G01*
X71234120Y-64597080D02*
X71234120Y-63147080D01*
G75*
G02*
X71285120Y-63096080I51000J0D01*
G01*
X72435120Y-63096080D01*
G75*
G02*
X72486120Y-63147080I0J-51000D01*
G01*
X72486120Y-64597080D01*
G75*
G02*
X72435120Y-64648080I-51000J0D01*
G01*
X71285120Y-64648080D01*
G75*
G02*
X71234120Y-64597080I0J51000D01*
G01*
G37*
G36*
G01*
X66594120Y-64597080D02*
X66594120Y-63147080D01*
G75*
G02*
X66645120Y-63096080I51000J0D01*
G01*
X67795120Y-63096080D01*
G75*
G02*
X67846120Y-63147080I0J-51000D01*
G01*
X67846120Y-64597080D01*
G75*
G02*
X67795120Y-64648080I-51000J0D01*
G01*
X66645120Y-64648080D01*
G75*
G02*
X66594120Y-64597080I0J51000D01*
G01*
G37*
G36*
G01*
X98593680Y-53214700D02*
X98593680Y-55014700D01*
G75*
G02*
X98542680Y-55065700I-51000J0D01*
G01*
X96742680Y-55065700D01*
G75*
G02*
X96691680Y-55014700I0J51000D01*
G01*
X96691680Y-53214700D01*
G75*
G02*
X96742680Y-53163700I51000J0D01*
G01*
X98542680Y-53163700D01*
G75*
G02*
X98593680Y-53214700I0J-51000D01*
G01*
G37*
D16*
X95102680Y-54114700D03*
G36*
G01*
X98593680Y-31853300D02*
X98593680Y-33653300D01*
G75*
G02*
X98542680Y-33704300I-51000J0D01*
G01*
X96742680Y-33704300D01*
G75*
G02*
X96691680Y-33653300I0J51000D01*
G01*
X96691680Y-31853300D01*
G75*
G02*
X96742680Y-31802300I51000J0D01*
G01*
X98542680Y-31802300D01*
G75*
G02*
X98593680Y-31853300I0J-51000D01*
G01*
G37*
X95102680Y-32753300D03*
X43977560Y-54114700D03*
G36*
G01*
X40486560Y-55014700D02*
X40486560Y-53214700D01*
G75*
G02*
X40537560Y-53163700I51000J0D01*
G01*
X42337560Y-53163700D01*
G75*
G02*
X42388560Y-53214700I0J-51000D01*
G01*
X42388560Y-55014700D01*
G75*
G02*
X42337560Y-55065700I-51000J0D01*
G01*
X40537560Y-55065700D01*
G75*
G02*
X40486560Y-55014700I0J51000D01*
G01*
G37*
X43967400Y-32800833D03*
G36*
G01*
X40476400Y-33700833D02*
X40476400Y-31900833D01*
G75*
G02*
X40527400Y-31849833I51000J0D01*
G01*
X42327400Y-31849833D01*
G75*
G02*
X42378400Y-31900833I0J-51000D01*
G01*
X42378400Y-33700833D01*
G75*
G02*
X42327400Y-33751833I-51000J0D01*
G01*
X40527400Y-33751833D01*
G75*
G02*
X40476400Y-33700833I0J51000D01*
G01*
G37*
G36*
G01*
X87238840Y-55553572D02*
X87238840Y-56511228D01*
G75*
G02*
X86966668Y-56783400I-272172J0D01*
G01*
X86259012Y-56783400D01*
G75*
G02*
X85986840Y-56511228I0J272172D01*
G01*
X85986840Y-55553572D01*
G75*
G02*
X86259012Y-55281400I272172J0D01*
G01*
X86966668Y-55281400D01*
G75*
G02*
X87238840Y-55553572I0J-272172D01*
G01*
G37*
G36*
G01*
X85188840Y-55553572D02*
X85188840Y-56511228D01*
G75*
G02*
X84916668Y-56783400I-272172J0D01*
G01*
X84209012Y-56783400D01*
G75*
G02*
X83936840Y-56511228I0J272172D01*
G01*
X83936840Y-55553572D01*
G75*
G02*
X84209012Y-55281400I272172J0D01*
G01*
X84916668Y-55281400D01*
G75*
G02*
X85188840Y-55553572I0J-272172D01*
G01*
G37*
G36*
G01*
X82979920Y-55764320D02*
X82979920Y-56290320D01*
G75*
G02*
X82716920Y-56553320I-263000J0D01*
G01*
X82090920Y-56553320D01*
G75*
G02*
X81827920Y-56290320I0J263000D01*
G01*
X81827920Y-55764320D01*
G75*
G02*
X82090920Y-55501320I263000J0D01*
G01*
X82716920Y-55501320D01*
G75*
G02*
X82979920Y-55764320I0J-263000D01*
G01*
G37*
G36*
G01*
X81229920Y-55764320D02*
X81229920Y-56290320D01*
G75*
G02*
X80966920Y-56553320I-263000J0D01*
G01*
X80340920Y-56553320D01*
G75*
G02*
X80077920Y-56290320I0J263000D01*
G01*
X80077920Y-55764320D01*
G75*
G02*
X80340920Y-55501320I263000J0D01*
G01*
X80966920Y-55501320D01*
G75*
G02*
X81229920Y-55764320I0J-263000D01*
G01*
G37*
D17*
G36*
X70590852Y-62700080D02*
G01*
X70591120Y-62701080D01*
X70591120Y-64203080D01*
X70590120Y-64204812D01*
X70589120Y-64205080D01*
X70441120Y-64205080D01*
X70439388Y-64204080D01*
X70439120Y-64203080D01*
X70439120Y-62703080D01*
X69941120Y-62703080D01*
X69941120Y-64203080D01*
X69940120Y-64204812D01*
X69939120Y-64205080D01*
X67971213Y-64205080D01*
X67947128Y-64207452D01*
X67924053Y-64214452D01*
X67902789Y-64225817D01*
X67884152Y-64241112D01*
X67868857Y-64259749D01*
X67857492Y-64281013D01*
X67850492Y-64304088D01*
X67848110Y-64328275D01*
X67846945Y-64329901D01*
X67844955Y-64329705D01*
X67844120Y-64328079D01*
X67844120Y-63096080D01*
X67845120Y-63094348D01*
X67846120Y-63094080D01*
X67864027Y-63094080D01*
X67888112Y-63091708D01*
X67911187Y-63084708D01*
X67932451Y-63073343D01*
X67951088Y-63058048D01*
X67966383Y-63039411D01*
X67977748Y-63018147D01*
X67984748Y-62995072D01*
X67987130Y-62970885D01*
X67988295Y-62969259D01*
X67990285Y-62969455D01*
X67991120Y-62971081D01*
X67991120Y-64201080D01*
X68489120Y-64201080D01*
X68489120Y-62703080D01*
X68641120Y-62703080D01*
X68641120Y-64201080D01*
X69139120Y-64201080D01*
X69139120Y-62703080D01*
X69291120Y-62703080D01*
X69291120Y-64201080D01*
X69789120Y-64201080D01*
X69789120Y-62703080D01*
X69291120Y-62703080D01*
X69139120Y-62703080D01*
X68641120Y-62703080D01*
X68489120Y-62703080D01*
X68489120Y-62701080D01*
X68490120Y-62699348D01*
X68491120Y-62699080D01*
X70589120Y-62699080D01*
X70590852Y-62700080D01*
G37*
G36*
X71093110Y-62970885D02*
G01*
X71095492Y-62995072D01*
X71102492Y-63018147D01*
X71113857Y-63039411D01*
X71129152Y-63058048D01*
X71147789Y-63073343D01*
X71169053Y-63084708D01*
X71192128Y-63091708D01*
X71216213Y-63094080D01*
X71234120Y-63094080D01*
X71235852Y-63095080D01*
X71236120Y-63096080D01*
X71236120Y-64328079D01*
X71235120Y-64329811D01*
X71233120Y-64329811D01*
X71232130Y-64328275D01*
X71229748Y-64304088D01*
X71222748Y-64281013D01*
X71211383Y-64259749D01*
X71196088Y-64241112D01*
X71177451Y-64225817D01*
X71156187Y-64214452D01*
X71133112Y-64207452D01*
X71109027Y-64205080D01*
X71091120Y-64205080D01*
X71089388Y-64204080D01*
X71089120Y-64203080D01*
X71089120Y-62971081D01*
X71090120Y-62969349D01*
X71092120Y-62969349D01*
X71093110Y-62970885D01*
G37*
M02*
