G04 #@! TF.GenerationSoftware,KiCad,Pcbnew,(5.1.7)-1*
G04 #@! TF.CreationDate,2020-10-06T16:51:20+07:00*
G04 #@! TF.ProjectId,PIC16F1X_KIT2019,50494331-3646-4315-985f-4b4954323031,rev?*
G04 #@! TF.SameCoordinates,Original*
G04 #@! TF.FileFunction,Paste,Bot*
G04 #@! TF.FilePolarity,Positive*
%FSLAX46Y46*%
G04 Gerber Fmt 4.6, Leading zero omitted, Abs format (unit mm)*
G04 Created by KiCad (PCBNEW (5.1.7)-1) date 2020-10-06 16:51:20*
%MOMM*%
%LPD*%
G01*
G04 APERTURE LIST*
%ADD10R,0.800000X0.900000*%
%ADD11R,1.750000X0.450000*%
G04 APERTURE END LIST*
G36*
G01*
X109891520Y-34825519D02*
X109891520Y-35725521D01*
G75*
G02*
X109641521Y-35975520I-249999J0D01*
G01*
X108991519Y-35975520D01*
G75*
G02*
X108741520Y-35725521I0J249999D01*
G01*
X108741520Y-34825519D01*
G75*
G02*
X108991519Y-34575520I249999J0D01*
G01*
X109641521Y-34575520D01*
G75*
G02*
X109891520Y-34825519I0J-249999D01*
G01*
G37*
G36*
G01*
X111941520Y-34825519D02*
X111941520Y-35725521D01*
G75*
G02*
X111691521Y-35975520I-249999J0D01*
G01*
X111041519Y-35975520D01*
G75*
G02*
X110791520Y-35725521I0J249999D01*
G01*
X110791520Y-34825519D01*
G75*
G02*
X111041519Y-34575520I249999J0D01*
G01*
X111691521Y-34575520D01*
G75*
G02*
X111941520Y-34825519I0J-249999D01*
G01*
G37*
G36*
G01*
X109863360Y-56181839D02*
X109863360Y-57081841D01*
G75*
G02*
X109613361Y-57331840I-249999J0D01*
G01*
X108963359Y-57331840D01*
G75*
G02*
X108713360Y-57081841I0J249999D01*
G01*
X108713360Y-56181839D01*
G75*
G02*
X108963359Y-55931840I249999J0D01*
G01*
X109613361Y-55931840D01*
G75*
G02*
X109863360Y-56181839I0J-249999D01*
G01*
G37*
G36*
G01*
X111913360Y-56181839D02*
X111913360Y-57081841D01*
G75*
G02*
X111663361Y-57331840I-249999J0D01*
G01*
X111013359Y-57331840D01*
G75*
G02*
X110763360Y-57081841I0J249999D01*
G01*
X110763360Y-56181839D01*
G75*
G02*
X111013359Y-55931840I249999J0D01*
G01*
X111663361Y-55931840D01*
G75*
G02*
X111913360Y-56181839I0J-249999D01*
G01*
G37*
G36*
G01*
X42680040Y-36355441D02*
X42680040Y-35455439D01*
G75*
G02*
X42930039Y-35205440I249999J0D01*
G01*
X43580041Y-35205440D01*
G75*
G02*
X43830040Y-35455439I0J-249999D01*
G01*
X43830040Y-36355441D01*
G75*
G02*
X43580041Y-36605440I-249999J0D01*
G01*
X42930039Y-36605440D01*
G75*
G02*
X42680040Y-36355441I0J249999D01*
G01*
G37*
G36*
G01*
X40630040Y-36355441D02*
X40630040Y-35455439D01*
G75*
G02*
X40880039Y-35205440I249999J0D01*
G01*
X41530041Y-35205440D01*
G75*
G02*
X41780040Y-35455439I0J-249999D01*
G01*
X41780040Y-36355441D01*
G75*
G02*
X41530041Y-36605440I-249999J0D01*
G01*
X40880039Y-36605440D01*
G75*
G02*
X40630040Y-36355441I0J249999D01*
G01*
G37*
G36*
G01*
X42614000Y-57290121D02*
X42614000Y-56390119D01*
G75*
G02*
X42863999Y-56140120I249999J0D01*
G01*
X43514001Y-56140120D01*
G75*
G02*
X43764000Y-56390119I0J-249999D01*
G01*
X43764000Y-57290121D01*
G75*
G02*
X43514001Y-57540120I-249999J0D01*
G01*
X42863999Y-57540120D01*
G75*
G02*
X42614000Y-57290121I0J249999D01*
G01*
G37*
G36*
G01*
X40564000Y-57290121D02*
X40564000Y-56390119D01*
G75*
G02*
X40813999Y-56140120I249999J0D01*
G01*
X41464001Y-56140120D01*
G75*
G02*
X41714000Y-56390119I0J-249999D01*
G01*
X41714000Y-57290121D01*
G75*
G02*
X41464001Y-57540120I-249999J0D01*
G01*
X40813999Y-57540120D01*
G75*
G02*
X40564000Y-57290121I0J249999D01*
G01*
G37*
G36*
G01*
X30624360Y-51218679D02*
X30624360Y-52118681D01*
G75*
G02*
X30374361Y-52368680I-249999J0D01*
G01*
X29724359Y-52368680D01*
G75*
G02*
X29474360Y-52118681I0J249999D01*
G01*
X29474360Y-51218679D01*
G75*
G02*
X29724359Y-50968680I249999J0D01*
G01*
X30374361Y-50968680D01*
G75*
G02*
X30624360Y-51218679I0J-249999D01*
G01*
G37*
G36*
G01*
X32674360Y-51218679D02*
X32674360Y-52118681D01*
G75*
G02*
X32424361Y-52368680I-249999J0D01*
G01*
X31774359Y-52368680D01*
G75*
G02*
X31524360Y-52118681I0J249999D01*
G01*
X31524360Y-51218679D01*
G75*
G02*
X31774359Y-50968680I249999J0D01*
G01*
X32424361Y-50968680D01*
G75*
G02*
X32674360Y-51218679I0J-249999D01*
G01*
G37*
G36*
G01*
X109887600Y-51193279D02*
X109887600Y-52093281D01*
G75*
G02*
X109637601Y-52343280I-249999J0D01*
G01*
X108987599Y-52343280D01*
G75*
G02*
X108737600Y-52093281I0J249999D01*
G01*
X108737600Y-51193279D01*
G75*
G02*
X108987599Y-50943280I249999J0D01*
G01*
X109637601Y-50943280D01*
G75*
G02*
X109887600Y-51193279I0J-249999D01*
G01*
G37*
G36*
G01*
X111937600Y-51193279D02*
X111937600Y-52093281D01*
G75*
G02*
X111687601Y-52343280I-249999J0D01*
G01*
X111037599Y-52343280D01*
G75*
G02*
X110787600Y-52093281I0J249999D01*
G01*
X110787600Y-51193279D01*
G75*
G02*
X111037599Y-50943280I249999J0D01*
G01*
X111687601Y-50943280D01*
G75*
G02*
X111937600Y-51193279I0J-249999D01*
G01*
G37*
G36*
G01*
X109942320Y-29720119D02*
X109942320Y-30620121D01*
G75*
G02*
X109692321Y-30870120I-249999J0D01*
G01*
X109042319Y-30870120D01*
G75*
G02*
X108792320Y-30620121I0J249999D01*
G01*
X108792320Y-29720119D01*
G75*
G02*
X109042319Y-29470120I249999J0D01*
G01*
X109692321Y-29470120D01*
G75*
G02*
X109942320Y-29720119I0J-249999D01*
G01*
G37*
G36*
G01*
X111992320Y-29720119D02*
X111992320Y-30620121D01*
G75*
G02*
X111742321Y-30870120I-249999J0D01*
G01*
X111092319Y-30870120D01*
G75*
G02*
X110842320Y-30620121I0J249999D01*
G01*
X110842320Y-29720119D01*
G75*
G02*
X111092319Y-29470120I249999J0D01*
G01*
X111742321Y-29470120D01*
G75*
G02*
X111992320Y-29720119I0J-249999D01*
G01*
G37*
G36*
G01*
X30614200Y-29877599D02*
X30614200Y-30777601D01*
G75*
G02*
X30364201Y-31027600I-249999J0D01*
G01*
X29714199Y-31027600D01*
G75*
G02*
X29464200Y-30777601I0J249999D01*
G01*
X29464200Y-29877599D01*
G75*
G02*
X29714199Y-29627600I249999J0D01*
G01*
X30364201Y-29627600D01*
G75*
G02*
X30614200Y-29877599I0J-249999D01*
G01*
G37*
G36*
G01*
X32664200Y-29877599D02*
X32664200Y-30777601D01*
G75*
G02*
X32414201Y-31027600I-249999J0D01*
G01*
X31764199Y-31027600D01*
G75*
G02*
X31514200Y-30777601I0J249999D01*
G01*
X31514200Y-29877599D01*
G75*
G02*
X31764199Y-29627600I249999J0D01*
G01*
X32414201Y-29627600D01*
G75*
G02*
X32664200Y-29877599I0J-249999D01*
G01*
G37*
G36*
G01*
X98061360Y-27835439D02*
X98061360Y-28735441D01*
G75*
G02*
X97811361Y-28985440I-249999J0D01*
G01*
X97161359Y-28985440D01*
G75*
G02*
X96911360Y-28735441I0J249999D01*
G01*
X96911360Y-27835439D01*
G75*
G02*
X97161359Y-27585440I249999J0D01*
G01*
X97811361Y-27585440D01*
G75*
G02*
X98061360Y-27835439I0J-249999D01*
G01*
G37*
G36*
G01*
X100111360Y-27835439D02*
X100111360Y-28735441D01*
G75*
G02*
X99861361Y-28985440I-249999J0D01*
G01*
X99211359Y-28985440D01*
G75*
G02*
X98961360Y-28735441I0J249999D01*
G01*
X98961360Y-27835439D01*
G75*
G02*
X99211359Y-27585440I249999J0D01*
G01*
X99861361Y-27585440D01*
G75*
G02*
X100111360Y-27835439I0J-249999D01*
G01*
G37*
G36*
G01*
X98066440Y-29826799D02*
X98066440Y-30726801D01*
G75*
G02*
X97816441Y-30976800I-249999J0D01*
G01*
X97166439Y-30976800D01*
G75*
G02*
X96916440Y-30726801I0J249999D01*
G01*
X96916440Y-29826799D01*
G75*
G02*
X97166439Y-29576800I249999J0D01*
G01*
X97816441Y-29576800D01*
G75*
G02*
X98066440Y-29826799I0J-249999D01*
G01*
G37*
G36*
G01*
X100116440Y-29826799D02*
X100116440Y-30726801D01*
G75*
G02*
X99866441Y-30976800I-249999J0D01*
G01*
X99216439Y-30976800D01*
G75*
G02*
X98966440Y-30726801I0J249999D01*
G01*
X98966440Y-29826799D01*
G75*
G02*
X99216439Y-29576800I249999J0D01*
G01*
X99866441Y-29576800D01*
G75*
G02*
X100116440Y-29826799I0J-249999D01*
G01*
G37*
G36*
G01*
X100125440Y-49288279D02*
X100125440Y-50188281D01*
G75*
G02*
X99875441Y-50438280I-249999J0D01*
G01*
X99225439Y-50438280D01*
G75*
G02*
X98975440Y-50188281I0J249999D01*
G01*
X98975440Y-49288279D01*
G75*
G02*
X99225439Y-49038280I249999J0D01*
G01*
X99875441Y-49038280D01*
G75*
G02*
X100125440Y-49288279I0J-249999D01*
G01*
G37*
G36*
G01*
X98075440Y-49288279D02*
X98075440Y-50188281D01*
G75*
G02*
X97825441Y-50438280I-249999J0D01*
G01*
X97175439Y-50438280D01*
G75*
G02*
X96925440Y-50188281I0J249999D01*
G01*
X96925440Y-49288279D01*
G75*
G02*
X97175439Y-49038280I249999J0D01*
G01*
X97825441Y-49038280D01*
G75*
G02*
X98075440Y-49288279I0J-249999D01*
G01*
G37*
G36*
G01*
X98066440Y-51269479D02*
X98066440Y-52169481D01*
G75*
G02*
X97816441Y-52419480I-249999J0D01*
G01*
X97166439Y-52419480D01*
G75*
G02*
X96916440Y-52169481I0J249999D01*
G01*
X96916440Y-51269479D01*
G75*
G02*
X97166439Y-51019480I249999J0D01*
G01*
X97816441Y-51019480D01*
G75*
G02*
X98066440Y-51269479I0J-249999D01*
G01*
G37*
G36*
G01*
X100116440Y-51269479D02*
X100116440Y-52169481D01*
G75*
G02*
X99866441Y-52419480I-249999J0D01*
G01*
X99216439Y-52419480D01*
G75*
G02*
X98966440Y-52169481I0J249999D01*
G01*
X98966440Y-51269479D01*
G75*
G02*
X99216439Y-51019480I249999J0D01*
G01*
X99866441Y-51019480D01*
G75*
G02*
X100116440Y-51269479I0J-249999D01*
G01*
G37*
G36*
G01*
X38836800Y-50096841D02*
X38836800Y-49196839D01*
G75*
G02*
X39086799Y-48946840I249999J0D01*
G01*
X39736801Y-48946840D01*
G75*
G02*
X39986800Y-49196839I0J-249999D01*
G01*
X39986800Y-50096841D01*
G75*
G02*
X39736801Y-50346840I-249999J0D01*
G01*
X39086799Y-50346840D01*
G75*
G02*
X38836800Y-50096841I0J249999D01*
G01*
G37*
G36*
G01*
X40886800Y-50096841D02*
X40886800Y-49196839D01*
G75*
G02*
X41136799Y-48946840I249999J0D01*
G01*
X41786801Y-48946840D01*
G75*
G02*
X42036800Y-49196839I0J-249999D01*
G01*
X42036800Y-50096841D01*
G75*
G02*
X41786801Y-50346840I-249999J0D01*
G01*
X41136799Y-50346840D01*
G75*
G02*
X40886800Y-50096841I0J249999D01*
G01*
G37*
G36*
G01*
X40886800Y-52103441D02*
X40886800Y-51203439D01*
G75*
G02*
X41136799Y-50953440I249999J0D01*
G01*
X41786801Y-50953440D01*
G75*
G02*
X42036800Y-51203439I0J-249999D01*
G01*
X42036800Y-52103441D01*
G75*
G02*
X41786801Y-52353440I-249999J0D01*
G01*
X41136799Y-52353440D01*
G75*
G02*
X40886800Y-52103441I0J249999D01*
G01*
G37*
G36*
G01*
X38836800Y-52103441D02*
X38836800Y-51203439D01*
G75*
G02*
X39086799Y-50953440I249999J0D01*
G01*
X39736801Y-50953440D01*
G75*
G02*
X39986800Y-51203439I0J-249999D01*
G01*
X39986800Y-52103441D01*
G75*
G02*
X39736801Y-52353440I-249999J0D01*
G01*
X39086799Y-52353440D01*
G75*
G02*
X38836800Y-52103441I0J249999D01*
G01*
G37*
G36*
G01*
X38918080Y-28796401D02*
X38918080Y-27896399D01*
G75*
G02*
X39168079Y-27646400I249999J0D01*
G01*
X39818081Y-27646400D01*
G75*
G02*
X40068080Y-27896399I0J-249999D01*
G01*
X40068080Y-28796401D01*
G75*
G02*
X39818081Y-29046400I-249999J0D01*
G01*
X39168079Y-29046400D01*
G75*
G02*
X38918080Y-28796401I0J249999D01*
G01*
G37*
G36*
G01*
X40968080Y-28796401D02*
X40968080Y-27896399D01*
G75*
G02*
X41218079Y-27646400I249999J0D01*
G01*
X41868081Y-27646400D01*
G75*
G02*
X42118080Y-27896399I0J-249999D01*
G01*
X42118080Y-28796401D01*
G75*
G02*
X41868081Y-29046400I-249999J0D01*
G01*
X41218079Y-29046400D01*
G75*
G02*
X40968080Y-28796401I0J249999D01*
G01*
G37*
G36*
G01*
X40973160Y-30777601D02*
X40973160Y-29877599D01*
G75*
G02*
X41223159Y-29627600I249999J0D01*
G01*
X41873161Y-29627600D01*
G75*
G02*
X42123160Y-29877599I0J-249999D01*
G01*
X42123160Y-30777601D01*
G75*
G02*
X41873161Y-31027600I-249999J0D01*
G01*
X41223159Y-31027600D01*
G75*
G02*
X40973160Y-30777601I0J249999D01*
G01*
G37*
G36*
G01*
X38923160Y-30777601D02*
X38923160Y-29877599D01*
G75*
G02*
X39173159Y-29627600I249999J0D01*
G01*
X39823161Y-29627600D01*
G75*
G02*
X40073160Y-29877599I0J-249999D01*
G01*
X40073160Y-30777601D01*
G75*
G02*
X39823161Y-31027600I-249999J0D01*
G01*
X39173159Y-31027600D01*
G75*
G02*
X38923160Y-30777601I0J249999D01*
G01*
G37*
G36*
G01*
X79914100Y-41198690D02*
X79914100Y-41711190D01*
G75*
G02*
X79695350Y-41929940I-218750J0D01*
G01*
X79257850Y-41929940D01*
G75*
G02*
X79039100Y-41711190I0J218750D01*
G01*
X79039100Y-41198690D01*
G75*
G02*
X79257850Y-40979940I218750J0D01*
G01*
X79695350Y-40979940D01*
G75*
G02*
X79914100Y-41198690I0J-218750D01*
G01*
G37*
G36*
G01*
X81489100Y-41198690D02*
X81489100Y-41711190D01*
G75*
G02*
X81270350Y-41929940I-218750J0D01*
G01*
X80832850Y-41929940D01*
G75*
G02*
X80614100Y-41711190I0J218750D01*
G01*
X80614100Y-41198690D01*
G75*
G02*
X80832850Y-40979940I218750J0D01*
G01*
X81270350Y-40979940D01*
G75*
G02*
X81489100Y-41198690I0J-218750D01*
G01*
G37*
G36*
G01*
X42006000Y-43766450D02*
X42006000Y-43253950D01*
G75*
G02*
X42224750Y-43035200I218750J0D01*
G01*
X42662250Y-43035200D01*
G75*
G02*
X42881000Y-43253950I0J-218750D01*
G01*
X42881000Y-43766450D01*
G75*
G02*
X42662250Y-43985200I-218750J0D01*
G01*
X42224750Y-43985200D01*
G75*
G02*
X42006000Y-43766450I0J218750D01*
G01*
G37*
G36*
G01*
X40431000Y-43766450D02*
X40431000Y-43253950D01*
G75*
G02*
X40649750Y-43035200I218750J0D01*
G01*
X41087250Y-43035200D01*
G75*
G02*
X41306000Y-43253950I0J-218750D01*
G01*
X41306000Y-43766450D01*
G75*
G02*
X41087250Y-43985200I-218750J0D01*
G01*
X40649750Y-43985200D01*
G75*
G02*
X40431000Y-43766450I0J218750D01*
G01*
G37*
G36*
G01*
X66426600Y-38658690D02*
X66426600Y-39171190D01*
G75*
G02*
X66207850Y-39389940I-218750J0D01*
G01*
X65770350Y-39389940D01*
G75*
G02*
X65551600Y-39171190I0J218750D01*
G01*
X65551600Y-38658690D01*
G75*
G02*
X65770350Y-38439940I218750J0D01*
G01*
X66207850Y-38439940D01*
G75*
G02*
X66426600Y-38658690I0J-218750D01*
G01*
G37*
G36*
G01*
X68001600Y-38658690D02*
X68001600Y-39171190D01*
G75*
G02*
X67782850Y-39389940I-218750J0D01*
G01*
X67345350Y-39389940D01*
G75*
G02*
X67126600Y-39171190I0J218750D01*
G01*
X67126600Y-38658690D01*
G75*
G02*
X67345350Y-38439940I218750J0D01*
G01*
X67782850Y-38439940D01*
G75*
G02*
X68001600Y-38658690I0J-218750D01*
G01*
G37*
G36*
G01*
X66426600Y-40055690D02*
X66426600Y-40568190D01*
G75*
G02*
X66207850Y-40786940I-218750J0D01*
G01*
X65770350Y-40786940D01*
G75*
G02*
X65551600Y-40568190I0J218750D01*
G01*
X65551600Y-40055690D01*
G75*
G02*
X65770350Y-39836940I218750J0D01*
G01*
X66207850Y-39836940D01*
G75*
G02*
X66426600Y-40055690I0J-218750D01*
G01*
G37*
G36*
G01*
X68001600Y-40055690D02*
X68001600Y-40568190D01*
G75*
G02*
X67782850Y-40786940I-218750J0D01*
G01*
X67345350Y-40786940D01*
G75*
G02*
X67126600Y-40568190I0J218750D01*
G01*
X67126600Y-40055690D01*
G75*
G02*
X67345350Y-39836940I218750J0D01*
G01*
X67782850Y-39836940D01*
G75*
G02*
X68001600Y-40055690I0J-218750D01*
G01*
G37*
G36*
G01*
X66401200Y-41260050D02*
X66401200Y-41772550D01*
G75*
G02*
X66182450Y-41991300I-218750J0D01*
G01*
X65744950Y-41991300D01*
G75*
G02*
X65526200Y-41772550I0J218750D01*
G01*
X65526200Y-41260050D01*
G75*
G02*
X65744950Y-41041300I218750J0D01*
G01*
X66182450Y-41041300D01*
G75*
G02*
X66401200Y-41260050I0J-218750D01*
G01*
G37*
G36*
G01*
X67976200Y-41260050D02*
X67976200Y-41772550D01*
G75*
G02*
X67757450Y-41991300I-218750J0D01*
G01*
X67319950Y-41991300D01*
G75*
G02*
X67101200Y-41772550I0J218750D01*
G01*
X67101200Y-41260050D01*
G75*
G02*
X67319950Y-41041300I218750J0D01*
G01*
X67757450Y-41041300D01*
G75*
G02*
X67976200Y-41260050I0J-218750D01*
G01*
G37*
G36*
G01*
X66401100Y-42532190D02*
X66401100Y-43044690D01*
G75*
G02*
X66182350Y-43263440I-218750J0D01*
G01*
X65744850Y-43263440D01*
G75*
G02*
X65526100Y-43044690I0J218750D01*
G01*
X65526100Y-42532190D01*
G75*
G02*
X65744850Y-42313440I218750J0D01*
G01*
X66182350Y-42313440D01*
G75*
G02*
X66401100Y-42532190I0J-218750D01*
G01*
G37*
G36*
G01*
X67976100Y-42532190D02*
X67976100Y-43044690D01*
G75*
G02*
X67757350Y-43263440I-218750J0D01*
G01*
X67319850Y-43263440D01*
G75*
G02*
X67101100Y-43044690I0J218750D01*
G01*
X67101100Y-42532190D01*
G75*
G02*
X67319850Y-42313440I218750J0D01*
G01*
X67757350Y-42313440D01*
G75*
G02*
X67976100Y-42532190I0J-218750D01*
G01*
G37*
G36*
G01*
X66388600Y-43800050D02*
X66388600Y-44312550D01*
G75*
G02*
X66169850Y-44531300I-218750J0D01*
G01*
X65732350Y-44531300D01*
G75*
G02*
X65513600Y-44312550I0J218750D01*
G01*
X65513600Y-43800050D01*
G75*
G02*
X65732350Y-43581300I218750J0D01*
G01*
X66169850Y-43581300D01*
G75*
G02*
X66388600Y-43800050I0J-218750D01*
G01*
G37*
G36*
G01*
X67963600Y-43800050D02*
X67963600Y-44312550D01*
G75*
G02*
X67744850Y-44531300I-218750J0D01*
G01*
X67307350Y-44531300D01*
G75*
G02*
X67088600Y-44312550I0J218750D01*
G01*
X67088600Y-43800050D01*
G75*
G02*
X67307350Y-43581300I218750J0D01*
G01*
X67744850Y-43581300D01*
G75*
G02*
X67963600Y-43800050I0J-218750D01*
G01*
G37*
G36*
G01*
X66388500Y-45070050D02*
X66388500Y-45582550D01*
G75*
G02*
X66169750Y-45801300I-218750J0D01*
G01*
X65732250Y-45801300D01*
G75*
G02*
X65513500Y-45582550I0J218750D01*
G01*
X65513500Y-45070050D01*
G75*
G02*
X65732250Y-44851300I218750J0D01*
G01*
X66169750Y-44851300D01*
G75*
G02*
X66388500Y-45070050I0J-218750D01*
G01*
G37*
G36*
G01*
X67963500Y-45070050D02*
X67963500Y-45582550D01*
G75*
G02*
X67744750Y-45801300I-218750J0D01*
G01*
X67307250Y-45801300D01*
G75*
G02*
X67088500Y-45582550I0J218750D01*
G01*
X67088500Y-45070050D01*
G75*
G02*
X67307250Y-44851300I218750J0D01*
G01*
X67744750Y-44851300D01*
G75*
G02*
X67963500Y-45070050I0J-218750D01*
G01*
G37*
G36*
G01*
X66388500Y-46340050D02*
X66388500Y-46852550D01*
G75*
G02*
X66169750Y-47071300I-218750J0D01*
G01*
X65732250Y-47071300D01*
G75*
G02*
X65513500Y-46852550I0J218750D01*
G01*
X65513500Y-46340050D01*
G75*
G02*
X65732250Y-46121300I218750J0D01*
G01*
X66169750Y-46121300D01*
G75*
G02*
X66388500Y-46340050I0J-218750D01*
G01*
G37*
G36*
G01*
X67963500Y-46340050D02*
X67963500Y-46852550D01*
G75*
G02*
X67744750Y-47071300I-218750J0D01*
G01*
X67307250Y-47071300D01*
G75*
G02*
X67088500Y-46852550I0J218750D01*
G01*
X67088500Y-46340050D01*
G75*
G02*
X67307250Y-46121300I218750J0D01*
G01*
X67744750Y-46121300D01*
G75*
G02*
X67963500Y-46340050I0J-218750D01*
G01*
G37*
G36*
G01*
X66388600Y-47610050D02*
X66388600Y-48122550D01*
G75*
G02*
X66169850Y-48341300I-218750J0D01*
G01*
X65732350Y-48341300D01*
G75*
G02*
X65513600Y-48122550I0J218750D01*
G01*
X65513600Y-47610050D01*
G75*
G02*
X65732350Y-47391300I218750J0D01*
G01*
X66169850Y-47391300D01*
G75*
G02*
X66388600Y-47610050I0J-218750D01*
G01*
G37*
G36*
G01*
X67963600Y-47610050D02*
X67963600Y-48122550D01*
G75*
G02*
X67744850Y-48341300I-218750J0D01*
G01*
X67307350Y-48341300D01*
G75*
G02*
X67088600Y-48122550I0J218750D01*
G01*
X67088600Y-47610050D01*
G75*
G02*
X67307350Y-47391300I218750J0D01*
G01*
X67744850Y-47391300D01*
G75*
G02*
X67963600Y-47610050I0J-218750D01*
G01*
G37*
G36*
G01*
X79914000Y-38707350D02*
X79914000Y-39219850D01*
G75*
G02*
X79695250Y-39438600I-218750J0D01*
G01*
X79257750Y-39438600D01*
G75*
G02*
X79039000Y-39219850I0J218750D01*
G01*
X79039000Y-38707350D01*
G75*
G02*
X79257750Y-38488600I218750J0D01*
G01*
X79695250Y-38488600D01*
G75*
G02*
X79914000Y-38707350I0J-218750D01*
G01*
G37*
G36*
G01*
X81489000Y-38707350D02*
X81489000Y-39219850D01*
G75*
G02*
X81270250Y-39438600I-218750J0D01*
G01*
X80832750Y-39438600D01*
G75*
G02*
X80614000Y-39219850I0J218750D01*
G01*
X80614000Y-38707350D01*
G75*
G02*
X80832750Y-38488600I218750J0D01*
G01*
X81270250Y-38488600D01*
G75*
G02*
X81489000Y-38707350I0J-218750D01*
G01*
G37*
G36*
G01*
X79914100Y-39928690D02*
X79914100Y-40441190D01*
G75*
G02*
X79695350Y-40659940I-218750J0D01*
G01*
X79257850Y-40659940D01*
G75*
G02*
X79039100Y-40441190I0J218750D01*
G01*
X79039100Y-39928690D01*
G75*
G02*
X79257850Y-39709940I218750J0D01*
G01*
X79695350Y-39709940D01*
G75*
G02*
X79914100Y-39928690I0J-218750D01*
G01*
G37*
G36*
G01*
X81489100Y-39928690D02*
X81489100Y-40441190D01*
G75*
G02*
X81270350Y-40659940I-218750J0D01*
G01*
X80832850Y-40659940D01*
G75*
G02*
X80614100Y-40441190I0J218750D01*
G01*
X80614100Y-39928690D01*
G75*
G02*
X80832850Y-39709940I218750J0D01*
G01*
X81270350Y-39709940D01*
G75*
G02*
X81489100Y-39928690I0J-218750D01*
G01*
G37*
G36*
G01*
X79914000Y-42517350D02*
X79914000Y-43029850D01*
G75*
G02*
X79695250Y-43248600I-218750J0D01*
G01*
X79257750Y-43248600D01*
G75*
G02*
X79039000Y-43029850I0J218750D01*
G01*
X79039000Y-42517350D01*
G75*
G02*
X79257750Y-42298600I218750J0D01*
G01*
X79695250Y-42298600D01*
G75*
G02*
X79914000Y-42517350I0J-218750D01*
G01*
G37*
G36*
G01*
X81489000Y-42517350D02*
X81489000Y-43029850D01*
G75*
G02*
X81270250Y-43248600I-218750J0D01*
G01*
X80832750Y-43248600D01*
G75*
G02*
X80614000Y-43029850I0J218750D01*
G01*
X80614000Y-42517350D01*
G75*
G02*
X80832750Y-42298600I218750J0D01*
G01*
X81270250Y-42298600D01*
G75*
G02*
X81489000Y-42517350I0J-218750D01*
G01*
G37*
G36*
G01*
X79914000Y-43787350D02*
X79914000Y-44299850D01*
G75*
G02*
X79695250Y-44518600I-218750J0D01*
G01*
X79257750Y-44518600D01*
G75*
G02*
X79039000Y-44299850I0J218750D01*
G01*
X79039000Y-43787350D01*
G75*
G02*
X79257750Y-43568600I218750J0D01*
G01*
X79695250Y-43568600D01*
G75*
G02*
X79914000Y-43787350I0J-218750D01*
G01*
G37*
G36*
G01*
X81489000Y-43787350D02*
X81489000Y-44299850D01*
G75*
G02*
X81270250Y-44518600I-218750J0D01*
G01*
X80832750Y-44518600D01*
G75*
G02*
X80614000Y-44299850I0J218750D01*
G01*
X80614000Y-43787350D01*
G75*
G02*
X80832750Y-43568600I218750J0D01*
G01*
X81270250Y-43568600D01*
G75*
G02*
X81489000Y-43787350I0J-218750D01*
G01*
G37*
G36*
G01*
X79901400Y-45057350D02*
X79901400Y-45569850D01*
G75*
G02*
X79682650Y-45788600I-218750J0D01*
G01*
X79245150Y-45788600D01*
G75*
G02*
X79026400Y-45569850I0J218750D01*
G01*
X79026400Y-45057350D01*
G75*
G02*
X79245150Y-44838600I218750J0D01*
G01*
X79682650Y-44838600D01*
G75*
G02*
X79901400Y-45057350I0J-218750D01*
G01*
G37*
G36*
G01*
X81476400Y-45057350D02*
X81476400Y-45569850D01*
G75*
G02*
X81257650Y-45788600I-218750J0D01*
G01*
X80820150Y-45788600D01*
G75*
G02*
X80601400Y-45569850I0J218750D01*
G01*
X80601400Y-45057350D01*
G75*
G02*
X80820150Y-44838600I218750J0D01*
G01*
X81257650Y-44838600D01*
G75*
G02*
X81476400Y-45057350I0J-218750D01*
G01*
G37*
G36*
G01*
X79914000Y-46327350D02*
X79914000Y-46839850D01*
G75*
G02*
X79695250Y-47058600I-218750J0D01*
G01*
X79257750Y-47058600D01*
G75*
G02*
X79039000Y-46839850I0J218750D01*
G01*
X79039000Y-46327350D01*
G75*
G02*
X79257750Y-46108600I218750J0D01*
G01*
X79695250Y-46108600D01*
G75*
G02*
X79914000Y-46327350I0J-218750D01*
G01*
G37*
G36*
G01*
X81489000Y-46327350D02*
X81489000Y-46839850D01*
G75*
G02*
X81270250Y-47058600I-218750J0D01*
G01*
X80832750Y-47058600D01*
G75*
G02*
X80614000Y-46839850I0J218750D01*
G01*
X80614000Y-46327350D01*
G75*
G02*
X80832750Y-46108600I218750J0D01*
G01*
X81270250Y-46108600D01*
G75*
G02*
X81489000Y-46327350I0J-218750D01*
G01*
G37*
G36*
G01*
X79914000Y-47597350D02*
X79914000Y-48109850D01*
G75*
G02*
X79695250Y-48328600I-218750J0D01*
G01*
X79257750Y-48328600D01*
G75*
G02*
X79039000Y-48109850I0J218750D01*
G01*
X79039000Y-47597350D01*
G75*
G02*
X79257750Y-47378600I218750J0D01*
G01*
X79695250Y-47378600D01*
G75*
G02*
X79914000Y-47597350I0J-218750D01*
G01*
G37*
G36*
G01*
X81489000Y-47597350D02*
X81489000Y-48109850D01*
G75*
G02*
X81270250Y-48328600I-218750J0D01*
G01*
X80832750Y-48328600D01*
G75*
G02*
X80614000Y-48109850I0J218750D01*
G01*
X80614000Y-47597350D01*
G75*
G02*
X80832750Y-47378600I218750J0D01*
G01*
X81270250Y-47378600D01*
G75*
G02*
X81489000Y-47597350I0J-218750D01*
G01*
G37*
G36*
G01*
X85228750Y-56004750D02*
X85228750Y-56517250D01*
G75*
G02*
X85010000Y-56736000I-218750J0D01*
G01*
X84572500Y-56736000D01*
G75*
G02*
X84353750Y-56517250I0J218750D01*
G01*
X84353750Y-56004750D01*
G75*
G02*
X84572500Y-55786000I218750J0D01*
G01*
X85010000Y-55786000D01*
G75*
G02*
X85228750Y-56004750I0J-218750D01*
G01*
G37*
G36*
G01*
X86803750Y-56004750D02*
X86803750Y-56517250D01*
G75*
G02*
X86585000Y-56736000I-218750J0D01*
G01*
X86147500Y-56736000D01*
G75*
G02*
X85928750Y-56517250I0J218750D01*
G01*
X85928750Y-56004750D01*
G75*
G02*
X86147500Y-55786000I218750J0D01*
G01*
X86585000Y-55786000D01*
G75*
G02*
X86803750Y-56004750I0J-218750D01*
G01*
G37*
D10*
X70761900Y-30527500D03*
X68861900Y-30527500D03*
X69811900Y-28527500D03*
D11*
X45676000Y-47006700D03*
X45676000Y-46356700D03*
X45676000Y-45706700D03*
X45676000Y-45056700D03*
X45676000Y-44406700D03*
X45676000Y-43756700D03*
X45676000Y-43106700D03*
X45676000Y-42456700D03*
X45676000Y-41806700D03*
X45676000Y-41156700D03*
X52876000Y-41156700D03*
X52876000Y-41806700D03*
X52876000Y-42456700D03*
X52876000Y-43106700D03*
X52876000Y-43756700D03*
X52876000Y-44406700D03*
X52876000Y-45056700D03*
X52876000Y-45706700D03*
X52876000Y-46356700D03*
X52876000Y-47006700D03*
G36*
G01*
X59688600Y-38826300D02*
X59688600Y-39126300D01*
G75*
G02*
X59538600Y-39276300I-150000J0D01*
G01*
X57888600Y-39276300D01*
G75*
G02*
X57738600Y-39126300I0J150000D01*
G01*
X57738600Y-38826300D01*
G75*
G02*
X57888600Y-38676300I150000J0D01*
G01*
X59538600Y-38676300D01*
G75*
G02*
X59688600Y-38826300I0J-150000D01*
G01*
G37*
G36*
G01*
X59688600Y-40096300D02*
X59688600Y-40396300D01*
G75*
G02*
X59538600Y-40546300I-150000J0D01*
G01*
X57888600Y-40546300D01*
G75*
G02*
X57738600Y-40396300I0J150000D01*
G01*
X57738600Y-40096300D01*
G75*
G02*
X57888600Y-39946300I150000J0D01*
G01*
X59538600Y-39946300D01*
G75*
G02*
X59688600Y-40096300I0J-150000D01*
G01*
G37*
G36*
G01*
X59688600Y-41366300D02*
X59688600Y-41666300D01*
G75*
G02*
X59538600Y-41816300I-150000J0D01*
G01*
X57888600Y-41816300D01*
G75*
G02*
X57738600Y-41666300I0J150000D01*
G01*
X57738600Y-41366300D01*
G75*
G02*
X57888600Y-41216300I150000J0D01*
G01*
X59538600Y-41216300D01*
G75*
G02*
X59688600Y-41366300I0J-150000D01*
G01*
G37*
G36*
G01*
X59688600Y-42636300D02*
X59688600Y-42936300D01*
G75*
G02*
X59538600Y-43086300I-150000J0D01*
G01*
X57888600Y-43086300D01*
G75*
G02*
X57738600Y-42936300I0J150000D01*
G01*
X57738600Y-42636300D01*
G75*
G02*
X57888600Y-42486300I150000J0D01*
G01*
X59538600Y-42486300D01*
G75*
G02*
X59688600Y-42636300I0J-150000D01*
G01*
G37*
G36*
G01*
X59688600Y-43906300D02*
X59688600Y-44206300D01*
G75*
G02*
X59538600Y-44356300I-150000J0D01*
G01*
X57888600Y-44356300D01*
G75*
G02*
X57738600Y-44206300I0J150000D01*
G01*
X57738600Y-43906300D01*
G75*
G02*
X57888600Y-43756300I150000J0D01*
G01*
X59538600Y-43756300D01*
G75*
G02*
X59688600Y-43906300I0J-150000D01*
G01*
G37*
G36*
G01*
X59688600Y-45176300D02*
X59688600Y-45476300D01*
G75*
G02*
X59538600Y-45626300I-150000J0D01*
G01*
X57888600Y-45626300D01*
G75*
G02*
X57738600Y-45476300I0J150000D01*
G01*
X57738600Y-45176300D01*
G75*
G02*
X57888600Y-45026300I150000J0D01*
G01*
X59538600Y-45026300D01*
G75*
G02*
X59688600Y-45176300I0J-150000D01*
G01*
G37*
G36*
G01*
X59688600Y-46446300D02*
X59688600Y-46746300D01*
G75*
G02*
X59538600Y-46896300I-150000J0D01*
G01*
X57888600Y-46896300D01*
G75*
G02*
X57738600Y-46746300I0J150000D01*
G01*
X57738600Y-46446300D01*
G75*
G02*
X57888600Y-46296300I150000J0D01*
G01*
X59538600Y-46296300D01*
G75*
G02*
X59688600Y-46446300I0J-150000D01*
G01*
G37*
G36*
G01*
X59688600Y-47716300D02*
X59688600Y-48016300D01*
G75*
G02*
X59538600Y-48166300I-150000J0D01*
G01*
X57888600Y-48166300D01*
G75*
G02*
X57738600Y-48016300I0J150000D01*
G01*
X57738600Y-47716300D01*
G75*
G02*
X57888600Y-47566300I150000J0D01*
G01*
X59538600Y-47566300D01*
G75*
G02*
X59688600Y-47716300I0J-150000D01*
G01*
G37*
G36*
G01*
X64638600Y-47716300D02*
X64638600Y-48016300D01*
G75*
G02*
X64488600Y-48166300I-150000J0D01*
G01*
X62838600Y-48166300D01*
G75*
G02*
X62688600Y-48016300I0J150000D01*
G01*
X62688600Y-47716300D01*
G75*
G02*
X62838600Y-47566300I150000J0D01*
G01*
X64488600Y-47566300D01*
G75*
G02*
X64638600Y-47716300I0J-150000D01*
G01*
G37*
G36*
G01*
X64638600Y-46446300D02*
X64638600Y-46746300D01*
G75*
G02*
X64488600Y-46896300I-150000J0D01*
G01*
X62838600Y-46896300D01*
G75*
G02*
X62688600Y-46746300I0J150000D01*
G01*
X62688600Y-46446300D01*
G75*
G02*
X62838600Y-46296300I150000J0D01*
G01*
X64488600Y-46296300D01*
G75*
G02*
X64638600Y-46446300I0J-150000D01*
G01*
G37*
G36*
G01*
X64638600Y-45176300D02*
X64638600Y-45476300D01*
G75*
G02*
X64488600Y-45626300I-150000J0D01*
G01*
X62838600Y-45626300D01*
G75*
G02*
X62688600Y-45476300I0J150000D01*
G01*
X62688600Y-45176300D01*
G75*
G02*
X62838600Y-45026300I150000J0D01*
G01*
X64488600Y-45026300D01*
G75*
G02*
X64638600Y-45176300I0J-150000D01*
G01*
G37*
G36*
G01*
X64638600Y-43906300D02*
X64638600Y-44206300D01*
G75*
G02*
X64488600Y-44356300I-150000J0D01*
G01*
X62838600Y-44356300D01*
G75*
G02*
X62688600Y-44206300I0J150000D01*
G01*
X62688600Y-43906300D01*
G75*
G02*
X62838600Y-43756300I150000J0D01*
G01*
X64488600Y-43756300D01*
G75*
G02*
X64638600Y-43906300I0J-150000D01*
G01*
G37*
G36*
G01*
X64638600Y-42636300D02*
X64638600Y-42936300D01*
G75*
G02*
X64488600Y-43086300I-150000J0D01*
G01*
X62838600Y-43086300D01*
G75*
G02*
X62688600Y-42936300I0J150000D01*
G01*
X62688600Y-42636300D01*
G75*
G02*
X62838600Y-42486300I150000J0D01*
G01*
X64488600Y-42486300D01*
G75*
G02*
X64638600Y-42636300I0J-150000D01*
G01*
G37*
G36*
G01*
X64638600Y-41366300D02*
X64638600Y-41666300D01*
G75*
G02*
X64488600Y-41816300I-150000J0D01*
G01*
X62838600Y-41816300D01*
G75*
G02*
X62688600Y-41666300I0J150000D01*
G01*
X62688600Y-41366300D01*
G75*
G02*
X62838600Y-41216300I150000J0D01*
G01*
X64488600Y-41216300D01*
G75*
G02*
X64638600Y-41366300I0J-150000D01*
G01*
G37*
G36*
G01*
X64638600Y-40096300D02*
X64638600Y-40396300D01*
G75*
G02*
X64488600Y-40546300I-150000J0D01*
G01*
X62838600Y-40546300D01*
G75*
G02*
X62688600Y-40396300I0J150000D01*
G01*
X62688600Y-40096300D01*
G75*
G02*
X62838600Y-39946300I150000J0D01*
G01*
X64488600Y-39946300D01*
G75*
G02*
X64638600Y-40096300I0J-150000D01*
G01*
G37*
G36*
G01*
X64638600Y-38826300D02*
X64638600Y-39126300D01*
G75*
G02*
X64488600Y-39276300I-150000J0D01*
G01*
X62838600Y-39276300D01*
G75*
G02*
X62688600Y-39126300I0J150000D01*
G01*
X62688600Y-38826300D01*
G75*
G02*
X62838600Y-38676300I150000J0D01*
G01*
X64488600Y-38676300D01*
G75*
G02*
X64638600Y-38826300I0J-150000D01*
G01*
G37*
G36*
G01*
X77999000Y-38826300D02*
X77999000Y-39126300D01*
G75*
G02*
X77849000Y-39276300I-150000J0D01*
G01*
X76199000Y-39276300D01*
G75*
G02*
X76049000Y-39126300I0J150000D01*
G01*
X76049000Y-38826300D01*
G75*
G02*
X76199000Y-38676300I150000J0D01*
G01*
X77849000Y-38676300D01*
G75*
G02*
X77999000Y-38826300I0J-150000D01*
G01*
G37*
G36*
G01*
X77999000Y-40096300D02*
X77999000Y-40396300D01*
G75*
G02*
X77849000Y-40546300I-150000J0D01*
G01*
X76199000Y-40546300D01*
G75*
G02*
X76049000Y-40396300I0J150000D01*
G01*
X76049000Y-40096300D01*
G75*
G02*
X76199000Y-39946300I150000J0D01*
G01*
X77849000Y-39946300D01*
G75*
G02*
X77999000Y-40096300I0J-150000D01*
G01*
G37*
G36*
G01*
X77999000Y-41366300D02*
X77999000Y-41666300D01*
G75*
G02*
X77849000Y-41816300I-150000J0D01*
G01*
X76199000Y-41816300D01*
G75*
G02*
X76049000Y-41666300I0J150000D01*
G01*
X76049000Y-41366300D01*
G75*
G02*
X76199000Y-41216300I150000J0D01*
G01*
X77849000Y-41216300D01*
G75*
G02*
X77999000Y-41366300I0J-150000D01*
G01*
G37*
G36*
G01*
X77999000Y-42636300D02*
X77999000Y-42936300D01*
G75*
G02*
X77849000Y-43086300I-150000J0D01*
G01*
X76199000Y-43086300D01*
G75*
G02*
X76049000Y-42936300I0J150000D01*
G01*
X76049000Y-42636300D01*
G75*
G02*
X76199000Y-42486300I150000J0D01*
G01*
X77849000Y-42486300D01*
G75*
G02*
X77999000Y-42636300I0J-150000D01*
G01*
G37*
G36*
G01*
X77999000Y-43906300D02*
X77999000Y-44206300D01*
G75*
G02*
X77849000Y-44356300I-150000J0D01*
G01*
X76199000Y-44356300D01*
G75*
G02*
X76049000Y-44206300I0J150000D01*
G01*
X76049000Y-43906300D01*
G75*
G02*
X76199000Y-43756300I150000J0D01*
G01*
X77849000Y-43756300D01*
G75*
G02*
X77999000Y-43906300I0J-150000D01*
G01*
G37*
G36*
G01*
X77999000Y-45176300D02*
X77999000Y-45476300D01*
G75*
G02*
X77849000Y-45626300I-150000J0D01*
G01*
X76199000Y-45626300D01*
G75*
G02*
X76049000Y-45476300I0J150000D01*
G01*
X76049000Y-45176300D01*
G75*
G02*
X76199000Y-45026300I150000J0D01*
G01*
X77849000Y-45026300D01*
G75*
G02*
X77999000Y-45176300I0J-150000D01*
G01*
G37*
G36*
G01*
X77999000Y-46446300D02*
X77999000Y-46746300D01*
G75*
G02*
X77849000Y-46896300I-150000J0D01*
G01*
X76199000Y-46896300D01*
G75*
G02*
X76049000Y-46746300I0J150000D01*
G01*
X76049000Y-46446300D01*
G75*
G02*
X76199000Y-46296300I150000J0D01*
G01*
X77849000Y-46296300D01*
G75*
G02*
X77999000Y-46446300I0J-150000D01*
G01*
G37*
G36*
G01*
X77999000Y-47716300D02*
X77999000Y-48016300D01*
G75*
G02*
X77849000Y-48166300I-150000J0D01*
G01*
X76199000Y-48166300D01*
G75*
G02*
X76049000Y-48016300I0J150000D01*
G01*
X76049000Y-47716300D01*
G75*
G02*
X76199000Y-47566300I150000J0D01*
G01*
X77849000Y-47566300D01*
G75*
G02*
X77999000Y-47716300I0J-150000D01*
G01*
G37*
G36*
G01*
X73049000Y-47716300D02*
X73049000Y-48016300D01*
G75*
G02*
X72899000Y-48166300I-150000J0D01*
G01*
X71249000Y-48166300D01*
G75*
G02*
X71099000Y-48016300I0J150000D01*
G01*
X71099000Y-47716300D01*
G75*
G02*
X71249000Y-47566300I150000J0D01*
G01*
X72899000Y-47566300D01*
G75*
G02*
X73049000Y-47716300I0J-150000D01*
G01*
G37*
G36*
G01*
X73049000Y-46446300D02*
X73049000Y-46746300D01*
G75*
G02*
X72899000Y-46896300I-150000J0D01*
G01*
X71249000Y-46896300D01*
G75*
G02*
X71099000Y-46746300I0J150000D01*
G01*
X71099000Y-46446300D01*
G75*
G02*
X71249000Y-46296300I150000J0D01*
G01*
X72899000Y-46296300D01*
G75*
G02*
X73049000Y-46446300I0J-150000D01*
G01*
G37*
G36*
G01*
X73049000Y-45176300D02*
X73049000Y-45476300D01*
G75*
G02*
X72899000Y-45626300I-150000J0D01*
G01*
X71249000Y-45626300D01*
G75*
G02*
X71099000Y-45476300I0J150000D01*
G01*
X71099000Y-45176300D01*
G75*
G02*
X71249000Y-45026300I150000J0D01*
G01*
X72899000Y-45026300D01*
G75*
G02*
X73049000Y-45176300I0J-150000D01*
G01*
G37*
G36*
G01*
X73049000Y-43906300D02*
X73049000Y-44206300D01*
G75*
G02*
X72899000Y-44356300I-150000J0D01*
G01*
X71249000Y-44356300D01*
G75*
G02*
X71099000Y-44206300I0J150000D01*
G01*
X71099000Y-43906300D01*
G75*
G02*
X71249000Y-43756300I150000J0D01*
G01*
X72899000Y-43756300D01*
G75*
G02*
X73049000Y-43906300I0J-150000D01*
G01*
G37*
G36*
G01*
X73049000Y-42636300D02*
X73049000Y-42936300D01*
G75*
G02*
X72899000Y-43086300I-150000J0D01*
G01*
X71249000Y-43086300D01*
G75*
G02*
X71099000Y-42936300I0J150000D01*
G01*
X71099000Y-42636300D01*
G75*
G02*
X71249000Y-42486300I150000J0D01*
G01*
X72899000Y-42486300D01*
G75*
G02*
X73049000Y-42636300I0J-150000D01*
G01*
G37*
G36*
G01*
X73049000Y-41366300D02*
X73049000Y-41666300D01*
G75*
G02*
X72899000Y-41816300I-150000J0D01*
G01*
X71249000Y-41816300D01*
G75*
G02*
X71099000Y-41666300I0J150000D01*
G01*
X71099000Y-41366300D01*
G75*
G02*
X71249000Y-41216300I150000J0D01*
G01*
X72899000Y-41216300D01*
G75*
G02*
X73049000Y-41366300I0J-150000D01*
G01*
G37*
G36*
G01*
X73049000Y-40096300D02*
X73049000Y-40396300D01*
G75*
G02*
X72899000Y-40546300I-150000J0D01*
G01*
X71249000Y-40546300D01*
G75*
G02*
X71099000Y-40396300I0J150000D01*
G01*
X71099000Y-40096300D01*
G75*
G02*
X71249000Y-39946300I150000J0D01*
G01*
X72899000Y-39946300D01*
G75*
G02*
X73049000Y-40096300I0J-150000D01*
G01*
G37*
G36*
G01*
X73049000Y-38826300D02*
X73049000Y-39126300D01*
G75*
G02*
X72899000Y-39276300I-150000J0D01*
G01*
X71249000Y-39276300D01*
G75*
G02*
X71099000Y-39126300I0J150000D01*
G01*
X71099000Y-38826300D01*
G75*
G02*
X71249000Y-38676300I150000J0D01*
G01*
X72899000Y-38676300D01*
G75*
G02*
X73049000Y-38826300I0J-150000D01*
G01*
G37*
M02*
